G04*
G04 #@! TF.GenerationSoftware,Altium Limited,Altium Designer,19.0.14 (431)*
G04*
G04 Layer_Color=16711935*
%FSLAX25Y25*%
%MOIN*%
G70*
G01*
G75*
%ADD46R,0.06706X0.06706*%
%ADD47C,0.06706*%
%ADD48C,0.06800*%
%ADD49R,0.06706X0.06706*%
%ADD50C,0.03162*%
%ADD51C,0.13398*%
%ADD87R,0.06312X0.06706*%
D46*
X223130Y238583D02*
D03*
X109638Y238189D02*
D03*
X70000Y238347D02*
D03*
X97402D02*
D03*
X131496Y238189D02*
D03*
X58366Y9843D02*
D03*
D47*
X213130Y238583D02*
D03*
X248327Y47146D02*
D03*
X240453D02*
D03*
X119638Y238189D02*
D03*
X70000Y228346D02*
D03*
X60000Y238347D02*
D03*
Y228346D02*
D03*
X50000Y238347D02*
D03*
Y228346D02*
D03*
X40000Y238347D02*
D03*
Y228346D02*
D03*
X87402Y238347D02*
D03*
X141496Y238189D02*
D03*
X48366Y9843D02*
D03*
X38366D02*
D03*
X32327Y102398D02*
D03*
X22327D02*
D03*
X32327Y112398D02*
D03*
X22327D02*
D03*
X32327Y122398D02*
D03*
X22327D02*
D03*
X32327Y132398D02*
D03*
X22327D02*
D03*
X32327Y142398D02*
D03*
X22327D02*
D03*
X32327Y152398D02*
D03*
X22327D02*
D03*
X32327Y162398D02*
D03*
X32677Y200000D02*
D03*
Y210000D02*
D03*
D48*
X161024Y40020D02*
D03*
Y30020D02*
D03*
D49*
X22327Y162398D02*
D03*
X32677Y190000D02*
D03*
D50*
X101575Y51083D02*
D03*
X219577Y142096D02*
D03*
X214606Y90158D02*
D03*
X216929Y86619D02*
D03*
X208032Y71476D02*
D03*
X46063Y35925D02*
D03*
X214370Y64870D02*
D03*
X197047Y44291D02*
D03*
X40453Y51181D02*
D03*
X79823Y44980D02*
D03*
Y53543D02*
D03*
X114370Y69685D02*
D03*
X146653Y38508D02*
D03*
X59449Y53543D02*
D03*
X73721Y117421D02*
D03*
X152165Y78642D02*
D03*
X219991Y90162D02*
D03*
X171563Y77760D02*
D03*
X175787Y87008D02*
D03*
X153937Y89764D02*
D03*
X141157Y102451D02*
D03*
X49609Y139968D02*
D03*
X53543Y142126D02*
D03*
X49117Y131306D02*
D03*
X155217D02*
D03*
X153248Y127756D02*
D03*
X166240Y102657D02*
D03*
X166535Y142520D02*
D03*
X109350Y89370D02*
D03*
X109252Y84941D02*
D03*
X140748Y106685D02*
D03*
X147638Y106693D02*
D03*
X183465Y64961D02*
D03*
X213720Y142067D02*
D03*
X200394Y141339D02*
D03*
X182677Y142520D02*
D03*
X103543Y67803D02*
D03*
X100394Y65455D02*
D03*
X155512Y80315D02*
D03*
X152362Y106685D02*
D03*
X144488Y104724D02*
D03*
X139264Y110236D02*
D03*
X137402Y113386D02*
D03*
X131890Y122835D02*
D03*
X64961Y200000D02*
D03*
X53543Y168504D02*
D03*
X48819Y107658D02*
D03*
X131890Y150394D02*
D03*
X101870Y125591D02*
D03*
X129823D02*
D03*
X85827Y196850D02*
D03*
Y202362D02*
D03*
Y207874D02*
D03*
Y213484D02*
D03*
X38583Y63779D02*
D03*
X151969Y99606D02*
D03*
X118996Y105807D02*
D03*
X163386Y139075D02*
D03*
X159744Y136713D02*
D03*
X128948Y145355D02*
D03*
X197244Y145276D02*
D03*
X157480Y134055D02*
D03*
X168504Y98819D02*
D03*
X97295Y113957D02*
D03*
X107874Y113937D02*
D03*
X84646Y113957D02*
D03*
X68110D02*
D03*
X133858Y119685D02*
D03*
X135433Y116535D02*
D03*
X78831Y119862D02*
D03*
X55512Y51181D02*
D03*
X144193Y59055D02*
D03*
X140945Y61319D02*
D03*
X137795Y64102D02*
D03*
X45276Y59581D02*
D03*
X49213Y61417D02*
D03*
X41732Y57480D02*
D03*
X128740Y64075D02*
D03*
X171563Y83161D02*
D03*
X194252Y127559D02*
D03*
X168504Y88969D02*
D03*
X180079Y76988D02*
D03*
X153150Y85827D02*
D03*
X114173Y87402D02*
D03*
X204606Y90158D02*
D03*
X199606Y105512D02*
D03*
X209606Y90158D02*
D03*
X190315Y67539D02*
D03*
X204488Y66752D02*
D03*
X69809Y24024D02*
D03*
X79618Y49516D02*
D03*
X69760Y41658D02*
D03*
X38181Y24024D02*
D03*
X109638Y21654D02*
D03*
X115839Y41642D02*
D03*
X151272Y39673D02*
D03*
X74894Y34555D02*
D03*
X89067D02*
D03*
X81980D02*
D03*
X160728Y50787D02*
D03*
D51*
X17717Y17717D02*
D03*
Y230315D02*
D03*
X242126D02*
D03*
Y17717D02*
D03*
D87*
X122146Y51279D02*
D03*
X114272D02*
D03*
M02*
