%FSTAX23Y23*%
%MOIN*%
%SFA1B1*%

%IPPOS*%
%AMD64*
4,1,8,0.011500,0.004300,-0.011500,0.004300,-0.012600,0.003200,-0.012600,-0.003200,-0.011500,-0.004300,0.011500,-0.004300,0.012600,-0.003200,0.012600,0.003200,0.011500,0.004300,0.0*
1,1,0.002160,0.011500,0.003200*
1,1,0.002160,-0.011500,0.003200*
1,1,0.002160,-0.011500,-0.003200*
1,1,0.002160,0.011500,-0.003200*
%
%AMD65*
4,1,8,-0.004300,0.011500,-0.004300,-0.011500,-0.003200,-0.012600,0.003200,-0.012600,0.004300,-0.011500,0.004300,0.011500,0.003200,0.012600,-0.003200,0.012600,-0.004300,0.011500,0.0*
1,1,0.002160,-0.003200,0.011500*
1,1,0.002160,-0.003200,-0.011500*
1,1,0.002160,0.003200,-0.011500*
1,1,0.002160,0.003200,0.011500*
%
%ADD10C,0.010000*%
%ADD12C,0.007870*%
%ADD53R,0.035430X0.027560*%
%ADD54R,0.031500X0.035430*%
%ADD55R,0.017720X0.056100*%
%ADD56R,0.027560X0.035430*%
%ADD57R,0.299210X0.299210*%
%ADD58R,0.224410X0.250000*%
%ADD59R,0.025590X0.075790*%
%ADD60R,0.035430X0.031500*%
%ADD61R,0.165350X0.165350*%
%ADD62R,0.035430X0.011810*%
%ADD63R,0.011810X0.035430*%
G04~CAMADD=64~8~0.0~0.0~252.0~86.6~10.8~0.0~15~0.0~0.0~0.0~0.0~0~0.0~0.0~0.0~0.0~0~0.0~0.0~0.0~0.0~252.0~86.6*
%ADD64D64*%
G04~CAMADD=65~8~0.0~0.0~252.0~86.6~10.8~0.0~15~0.0~0.0~0.0~0.0~0~0.0~0.0~0.0~0.0~0~0.0~0.0~0.0~90.0~87.0~252.0*
%ADD65D65*%
%ADD66R,0.031500X0.048820*%
%ADD67R,0.037400X0.098430*%
%ADD68R,0.045280X0.086610*%
%ADD69R,0.045670X0.049210*%
%ADD70R,0.045670X0.047240*%
%ADD71R,0.059060X0.045280*%
%ADD72R,0.023620X0.049210*%
%ADD73R,0.023620X0.047240*%
%ADD74R,0.041340X0.055120*%
%ADD75R,0.037400X0.035430*%
%ADD76R,0.039370X0.037400*%
%ADD77R,0.055120X0.011810*%
%ADD78R,0.015750X0.053150*%
%ADD79R,0.082680X0.078740*%
%ADD80R,0.062990X0.074800*%
%ADD81R,0.047240X0.074800*%
%ADD82C,0.059060*%
%ADD83R,0.059060X0.059060*%
%ADD84C,0.060000*%
%ADD85R,0.059060X0.059060*%
%ADD86C,0.023620*%
%ADD87C,0.125980*%
%LNmoveh_messkette_einseitig_v2-1*%
%LPD*%
G36*
X02587Y01822D02*
X02362D01*
X02357Y01821*
X02354Y01818*
X02351Y01815*
X02351Y01811*
Y0059*
X02351Y00586*
X02354Y00582*
X02357Y0058*
X02362Y00579*
X02587*
Y00011*
X00011*
Y02469*
X02587*
Y01822*
G37*
%LNmoveh_messkette_einseitig_v2-2*%
%LPC*%
G36*
X00879Y02422D02*
Y02388D01*
X00913*
X00912Y02393*
X00908Y02403*
X00902Y02411*
X00893Y02417*
X00884Y02421*
X00879Y02422*
G37*
G36*
X00739Y02422D02*
X00705D01*
Y02388*
X00739*
Y02422*
G37*
G36*
X00505Y02422D02*
Y02388D01*
X00539*
X00538Y02393*
X00534Y02403*
X00528Y02411*
X00519Y02417*
X0051Y02421*
X00505Y02422*
G37*
G36*
X00405D02*
Y02388D01*
X00439*
X00438Y02393*
X00434Y02403*
X00428Y02411*
X00419Y02417*
X0041Y02421*
X00405Y02422*
G37*
G36*
X00605D02*
Y02388D01*
X00639*
X00638Y02393*
X00634Y02403*
X00628Y02411*
X00619Y02417*
X0061Y02421*
X00605Y02422*
G37*
G36*
X00395D02*
X00389Y02421D01*
X0038Y02417*
X00371Y02411*
X00365Y02403*
X00361Y02393*
X0036Y02388*
X00395*
Y02422*
G37*
G36*
X00595D02*
X00589Y02421D01*
X0058Y02417*
X00571Y02411*
X00565Y02403*
X00561Y02393*
X0056Y02388*
X00595*
Y02422*
G37*
G36*
X00495D02*
X00489Y02421D01*
X0048Y02417*
X00471Y02411*
X00465Y02403*
X00461Y02393*
X0046Y02388*
X00495*
Y02422*
G37*
G36*
X00869D02*
X00863Y02421D01*
X00854Y02417*
X00845Y02411*
X00839Y02403*
X00835Y02393*
X00834Y02388*
X00869*
Y02422*
G37*
G36*
X00695Y02422D02*
X0066D01*
Y02388*
X00695*
Y02422*
G37*
G36*
X02004Y02402D02*
Y02386D01*
X0202*
X02019Y02389*
X02014Y02396*
X02007Y02401*
X02004Y02402*
G37*
G36*
X01994D02*
X0199Y02401D01*
X01983Y02396*
X01978Y02389*
X01977Y02386*
X01994*
Y02402*
G37*
G36*
X01582Y02396D02*
Y0238D01*
X01599*
X01598Y02383*
X01593Y0239*
X01586Y02395*
X01582Y02396*
G37*
G36*
X01572D02*
X01569Y02395D01*
X01562Y0239*
X01557Y02383*
X01556Y0238*
X01572*
Y02396*
G37*
G36*
X0202Y02376D02*
X02004D01*
Y02359*
X02007Y0236*
X02014Y02365*
X02019Y02372*
X0202Y02376*
G37*
G36*
X01994D02*
X01977D01*
X01978Y02372*
X01983Y02365*
X0199Y0236*
X01994Y02359*
Y02376*
G37*
G36*
X01599Y0237D02*
X01582D01*
Y02353*
X01586Y02354*
X01593Y02359*
X01598Y02366*
X01599Y0237*
G37*
G36*
X01572D02*
X01556D01*
X01557Y02366*
X01562Y02359*
X01569Y02354*
X01572Y02353*
Y0237*
G37*
G36*
X02266Y02421D02*
X02195D01*
Y0235*
X02266*
Y02421*
G37*
G36*
X02131Y02421D02*
X02122Y0242D01*
X02113Y02416*
X02106Y02411*
X021Y02403*
X02096Y02395*
X02095Y02385*
X02096Y02376*
X021Y02367*
X02106Y0236*
X02113Y02354*
X02122Y02351*
X02131Y0235*
X0214Y02351*
X02149Y02354*
X02156Y0236*
X02162Y02367*
X02165Y02376*
X02167Y02385*
X02165Y02395*
X02162Y02403*
X02156Y02411*
X02149Y02416*
X0214Y0242*
X02131Y02421*
G37*
G36*
X0135Y02417D02*
X01279D01*
Y02346*
X0135*
Y02417*
G37*
G36*
X00595Y02378D02*
X0056D01*
X00561Y02373*
X00565Y02363*
X00571Y02355*
X0058Y02348*
X00589Y02344*
X00595Y02344*
Y02378*
G37*
G36*
X00495D02*
X0046D01*
X00461Y02373*
X00465Y02363*
X00471Y02355*
X0048Y02348*
X00489Y02344*
X00495Y02344*
Y02378*
G37*
G36*
X00395D02*
X0036D01*
X00361Y02373*
X00365Y02363*
X00371Y02355*
X0038Y02348*
X00389Y02344*
X00395Y02344*
Y02378*
G37*
G36*
X00913D02*
X00879D01*
Y02344*
X00884Y02344*
X00893Y02348*
X00902Y02355*
X00908Y02363*
X00912Y02373*
X00913Y02378*
G37*
G36*
X00869D02*
X00834D01*
X00835Y02373*
X00839Y02363*
X00845Y02355*
X00854Y02348*
X00863Y02344*
X00869Y02344*
Y02378*
G37*
G36*
X00639D02*
X00605D01*
Y02344*
X0061Y02344*
X00619Y02348*
X00628Y02355*
X00634Y02363*
X00638Y02373*
X00639Y02378*
G37*
G36*
X00539D02*
X00505D01*
Y02344*
X0051Y02344*
X00519Y02348*
X00528Y02355*
X00534Y02363*
X00538Y02373*
X00539Y02378*
G37*
G36*
X00439D02*
X00405D01*
Y02344*
X0041Y02344*
X00419Y02348*
X00428Y02355*
X00434Y02363*
X00438Y02373*
X00439Y02378*
G37*
G36*
X00739D02*
X00705D01*
Y02343*
X00739*
Y02378*
G37*
G36*
X00695D02*
X0066D01*
Y02343*
X00695*
Y02378*
G37*
G36*
X01283Y02275D02*
X01264D01*
Y02253*
X01283*
Y02275*
G37*
G36*
X01159D02*
X0114D01*
Y02253*
X01159*
Y02275*
G37*
G36*
X01254D02*
X01236D01*
Y02253*
X01254*
Y02275*
G37*
G36*
X0113D02*
X01112D01*
Y02253*
X0113*
Y02275*
G37*
G36*
X00998Y02271D02*
X00977D01*
Y02249*
X00998*
Y02271*
G37*
G36*
X00967D02*
X00946D01*
Y02249*
X00967*
Y02271*
G37*
G36*
X01009Y02418D02*
X00938D01*
Y02348*
X00993*
X01016Y02325*
Y02267*
X01005*
Y0222*
X0102*
Y0221*
X01012*
Y02163*
X01018*
Y01938*
X01014Y01936*
X0099Y0196*
Y01992*
X00984*
Y02*
X0099*
Y02047*
X00984*
Y02055*
X0099*
Y02102*
X00984*
Y02111*
X00989*
Y02158*
X00984*
Y02163*
X00992*
Y0221*
X00953*
Y02163*
X00961*
Y02158*
X00949*
Y02111*
X00961*
Y02102*
X0095*
Y02055*
X00961*
Y02047*
X0095*
Y02*
X00961*
Y01992*
X0095*
Y01944*
X00974*
X01Y01918*
Y01295*
X00977Y01272*
X00974Y01269*
X00974Y01264*
Y01249*
X00972Y01248*
X00968Y01242*
X00967Y01237*
X00963Y01235*
X00916*
Y01231*
X00868*
X00866Y01231*
X00865Y01232*
Y01236*
X00817*
Y01231*
X00789*
Y01255*
X00785*
Y01266*
X00784Y0127*
X00782Y01274*
X00771Y01285*
X00768Y01287*
X00763Y01288*
X00652*
Y01982*
X00656Y01983*
X00662Y01987*
X00666Y01993*
X00667Y02*
X00666Y02006*
X00662Y02012*
X00656Y02016*
X00649Y02018*
X00642Y02016*
X00638Y02013*
X00633Y02015*
Y02223*
X00668Y02259*
X00673Y02259*
X00674Y02258*
X00682Y02252*
X0069Y02248*
X007Y02247*
X00709Y02248*
X00717Y02252*
X00725Y02258*
X0073Y02265*
X00734Y02274*
X00735Y02283*
X00734Y02292*
X0073Y02301*
X00725Y02308*
X00717Y02314*
X00709Y02317*
X007Y02319*
X0069Y02317*
X00682Y02314*
X00674Y02308*
X00669Y02301*
X00665Y02292*
X00664Y02285*
X00661Y02283*
X00618Y0224*
X00613Y02242*
Y0225*
X00617Y02252*
X00625Y02258*
X0063Y02265*
X00634Y02274*
X00635Y02283*
X00634Y02292*
X0063Y02301*
X00625Y02308*
X00617Y02314*
X00609Y02317*
X006Y02319*
X0059Y02317*
X00582Y02314*
X00574Y02308*
X00569Y02301*
X00565Y02292*
X00564Y02283*
X00565Y02274*
X00569Y02265*
X00574Y02258*
X00582Y02252*
X0059Y02248*
X00591Y02248*
Y02238*
X00586Y02236*
X00535Y02287*
X00534Y02292*
X0053Y02301*
X00525Y02308*
X00517Y02314*
X00509Y02317*
X005Y02319*
X0049Y02317*
X00482Y02314*
X00474Y02308*
X00469Y02301*
X00465Y02292*
X00464Y02283*
X00465Y02274*
X00469Y02265*
X00474Y02258*
X00482Y02252*
X0049Y02248*
X00494Y02248*
X00494Y02243*
X00455*
X00431Y02267*
X00434Y02274*
X00435Y02283*
X00434Y02292*
X0043Y02301*
X00425Y02308*
X00417Y02314*
X00409Y02317*
X004Y02319*
X0039Y02317*
X00382Y02314*
X00374Y02308*
X00369Y02301*
X00365Y02292*
X00364Y02283*
X00365Y02274*
X00369Y02265*
X00374Y02258*
X00382Y02252*
X0039Y02248*
X004Y02247*
X00409Y02248*
X00416Y02251*
X00443Y02224*
X00446Y02222*
X00451Y02221*
X00542*
X00552Y02211*
Y017*
X00547Y01698*
X00542Y01701*
X00535Y01703*
X00528Y01701*
X00522Y01697*
X00518Y01691*
X00517Y01685*
X00518Y01678*
X00522Y01672*
X00528Y01668*
X00532Y01667*
Y0148*
X00488Y01437*
X00485Y01433*
X00484Y01429*
Y01413*
X00483Y01412*
X00479Y01406*
X00478Y01399*
X00479Y01392*
X00483Y01386*
X00489Y01382*
X00496Y01381*
X00503Y01382*
X00508Y01386*
X00512Y01392*
X00514Y01399*
X00512Y01406*
X00508Y01412*
X00507Y01413*
Y01424*
X00516Y01433*
X0052Y0143*
X00518Y01428*
X00517Y01421*
X00518Y01414*
X00522Y01408*
X00528Y01404*
X00532Y01403*
Y01136*
X0049Y01094*
X00488Y01094*
X00481Y01093*
X00475Y01089*
X00471Y01083*
X0047Y01076*
X00471Y01069*
X00475Y01063*
X00481Y01059*
X00488Y01058*
X00495Y01059*
X005Y01063*
X00504Y01069*
X00506Y01075*
X00507Y01077*
X00507*
X00512Y01074*
Y00851*
X00377Y00716*
X00375Y00712*
X00374Y00708*
Y00651*
X00373Y0065*
X00369Y00644*
X00367Y00637*
X00369Y0063*
X00373Y00625*
X00378Y00621*
X00385Y00619*
X00392Y00621*
X00398Y00625*
X00399Y00626*
X00404Y00625*
Y00587*
X00404Y00587*
X004Y00581*
X00399Y00574*
X004Y00567*
X00404Y00562*
X0041Y00558*
X00417Y00556*
X00424Y00558*
X0043Y00562*
X00434Y00567*
X00435Y00574*
X00434Y00581*
X0043Y00587*
X00426Y00589*
Y00706*
X00436Y00716*
X00441Y00714*
Y00609*
X00439Y00608*
X00436Y00602*
X00434Y00595*
X00436Y00588*
X00439Y00583*
X00445Y00579*
X00452Y00577*
X00459Y00579*
X00465Y00583*
X00469Y00588*
X0047Y00595*
X00469Y00602*
X00465Y00608*
X00463Y00609*
Y00712*
X00483Y00731*
X00488Y00729*
Y00631*
X00485Y0063*
X00479Y00626*
X00475Y00621*
X00474Y00614*
X00475Y00607*
X00479Y00601*
X00485Y00597*
X00492Y00596*
X00499Y00597*
X00504Y00601*
X00508Y00607*
X0051Y00614*
X00509Y00615*
X0051Y00618*
Y00729*
X00539Y00758*
X00541Y00757*
X00544Y00756*
Y00525*
X00542Y00524*
X00538Y00518*
X00537Y00511*
X00538Y00504*
X0054Y00501*
X00538Y00496*
X00494*
Y00456*
X00541*
Y00469*
X00574*
X00575Y00467*
X00581Y00463*
X00588Y00462*
X00595Y00463*
X00601Y00467*
X00605Y00473*
X00606Y0048*
X00605Y00487*
X00601Y00493*
X00595Y00497*
X00588Y00498*
X00581Y00497*
X00575Y00493*
X00574Y00491*
X00565*
X00564Y00496*
X00567Y00499*
X00571Y00504*
X00573Y00511*
X00571Y00518*
X00567Y00524*
X00566Y00525*
Y0068*
X00567Y0068*
X00573Y00679*
X00574Y00678*
X0058Y00674*
Y00652*
X00606*
X00632*
Y00675*
X00604*
X00601Y0068*
X00604Y00684*
X00605Y0069*
X00604Y00697*
X006Y00703*
X00598Y00704*
Y00752*
X00648Y00802*
X00651Y00805*
X00651Y0081*
Y00945*
X00656Y00949*
X00683*
Y00997*
X00675*
Y01005*
X00683Y01013*
X00693*
Y01013*
X00695Y01013*
X00711*
Y00997*
X00702*
Y00949*
X00731*
X00746Y00934*
X0075Y00932*
X00752Y00932*
X00754Y00927*
X00751Y00923*
X00717*
X00715Y00926*
X00709Y0093*
X00702Y00931*
X00695Y0093*
X00689Y00926*
X00686Y0092*
X00684Y00913*
X00686Y00906*
X00689Y009*
X00695Y00896*
X00702Y00895*
X00709Y00896*
X00715Y009*
X00717Y00903*
X00723*
X00725Y00898*
X00725Y00897*
X00725Y00895*
Y00888*
X00725Y00885*
X00726Y00884*
X00725Y00882*
X00725Y00879*
Y00872*
X00725Y0087*
X00726Y00868*
X00725Y00866*
X00725Y00863*
Y00857*
X00725Y00854*
X00726Y00852*
X00725Y0085*
X00725Y00847*
Y00841*
X00725Y00838*
X00726Y00836*
X00725Y00834*
X00725Y00832*
Y00825*
X00725Y00822*
X00726Y00821*
X00725Y00819*
X00725Y00816*
Y00809*
X00725Y00807*
X00727Y00804*
X00729Y00803*
X00732Y00802*
X00754*
Y0078*
X00755Y00777*
X00756Y00775*
X00759Y00773*
X00761Y00773*
X00768*
X00771Y00768*
Y00765*
X00768Y00761*
X00748*
Y00714*
X00753*
Y00705*
X00751Y00704*
X00748Y00698*
X00746Y00691*
X00748Y00685*
X00751Y00679*
X00752Y00679*
X00754Y00674*
X00753Y00672*
X00752*
X00713*
Y00625*
X00724*
Y00602*
X00719Y00601*
X00702*
Y00567*
Y00534*
X00719*
Y00538*
X00752*
Y00556*
X00761*
X0078Y00537*
X0078Y00535*
X00781Y00528*
X00785Y00522*
X00791Y00518*
X00798Y00517*
X00805Y00518*
X00811Y00522*
X00814Y00528*
X00816Y00535*
X00814Y00542*
X00811Y00548*
X00805Y00552*
X00798Y00553*
X00796Y00553*
X00773Y00575*
X00769Y00578*
X00765Y00579*
X00752*
Y00597*
X00746*
Y00625*
X00756*
Y00669*
X00759Y00672*
X00763Y00671*
X00764Y00671*
Y00653*
X00785*
Y00676*
X00781*
X00778Y00681*
X00781Y00685*
X00782Y00691*
X00781Y00698*
X00777Y00704*
X00775Y00705*
Y00714*
X00791*
Y00758*
X00791Y0076*
Y00771*
X00793Y00773*
X00799*
X00803Y00768*
Y00758*
X00802*
Y00711*
X00845*
Y00758*
X00823*
Y00771*
X00824Y00773*
X00831*
X00834Y00773*
X00835Y00774*
X00837Y00773*
X0084Y00773*
X00847*
X00849Y00773*
X00852Y00775*
X00853Y00777*
X00854Y0078*
Y00802*
X00876*
X00878Y00803*
X00915*
Y00793*
X00927*
Y00705*
X00926Y00704*
X00922Y00698*
X0092Y00691*
X00922Y00685*
X00926Y00679*
X00928Y00677*
X00927Y00672*
X00911*
Y00649*
X00932*
Y0067*
X00936Y00674*
X00938Y00673*
X00945Y00675*
X00951Y00679*
X00955Y00685*
X00957Y00691*
X00955Y00698*
X00951Y00704*
X0095Y00705*
Y00793*
X00962*
Y008*
X00963Y00805*
X00967Y00806*
X00971Y00808*
X00991Y00828*
X00993Y00832*
X00994Y00836*
Y00945*
X00993Y00949*
X00991Y00953*
X0096Y00983*
X00956Y00986*
X00952Y00987*
X00894*
Y00999*
X00855*
Y00951*
X00894*
Y00964*
X00948*
X00972Y0094*
Y00841*
X00966Y00835*
X00962Y00836*
X00915*
Y00823*
X00885*
X00883Y00825*
Y00832*
X00883Y00834*
X00882Y00836*
X00883Y00838*
X00883Y00841*
Y00847*
X00883Y0085*
X00882Y00852*
X00883Y00854*
X00883Y00857*
Y00863*
X00883Y00866*
X00882Y00868*
X00883Y0087*
X00883Y00872*
Y00879*
X00883Y0088*
X00884Y0088*
X00887Y00884*
X00887Y00886*
X00865*
Y00891*
X0086*
Y00906*
X00858*
Y00908*
X00843*
Y00913*
X00838*
Y00935*
X00836Y00935*
X00835Y00935*
X00835Y00935*
X00833Y00935*
Y00913*
X00823*
Y00935*
X0082Y00935*
X00816Y00932*
X00816Y00931*
X00815Y00932*
X00809*
X00806Y00931*
X00804Y0093*
X00802Y00931*
X00799Y00932*
X00793*
X0079Y00934*
X00789Y00936*
X00787Y00939*
X00777Y00949*
X00774Y00951*
X0077Y00951*
X00758*
X00742Y00967*
Y00992*
Y00994*
X00747Y00996*
X00753Y0099*
Y00989*
X00751Y00985*
X00749Y00978*
X00751Y00971*
X00754Y00965*
X0076Y00961*
X00767Y0096*
X00774Y00961*
X0078Y00965*
X00781Y00967*
X00796*
Y00951*
X00835*
Y00999*
X00796*
Y00989*
X00781*
X0078Y00991*
X00776Y00993*
Y00994*
X00775Y00998*
X00772Y01002*
X0077Y01005*
X00772Y01009*
X00793*
Y01042*
X00774*
Y01047*
X00769*
Y01085*
X00755*
Y01081*
X00683*
Y01038*
X00679Y01035*
X00674Y01034*
X00671Y01032*
X00656Y01017*
X00654Y01014*
X00653Y0101*
Y00997*
X00643*
Y00968*
X00632Y00957*
X0063Y00954*
X0063Y00953*
X00625Y00953*
Y01019*
X00649Y01044*
X00652Y01047*
X00652Y01052*
Y01266*
X00689*
Y01255*
X00683*
Y01187*
X00712*
Y01177*
X00713Y01172*
X00715Y01169*
X00765Y01119*
X00769Y01116*
X00773Y01115*
X00905*
X0091Y01116*
X00913Y01119*
X00932Y01137*
X00963*
Y01145*
X00971*
X00972Y01144*
X00978Y0114*
X00985Y01139*
X00992Y0114*
X00998Y01144*
X01001Y0115*
X01003Y01157*
X01001Y01163*
X00998Y01169*
X00992Y01173*
X00985Y01175*
X00978Y01173*
X00972Y01169*
X00971Y01168*
X00963*
Y01176*
X00916*
Y01153*
X00901Y01138*
X00898Y01139*
X00897Y01144*
X00899Y01145*
X00903Y01151*
X00904Y01158*
X00903Y01165*
X00899Y01171*
X00893Y01175*
X00886Y01176*
X00879Y01175*
X00874Y01171*
X00872Y01169*
X00865*
Y01177*
X00817*
Y01169*
X00778*
X00764Y01182*
X00766Y01187*
X00789*
Y01208*
X00817*
Y01196*
X00865*
Y01204*
X00865Y01208*
X00916*
Y01196*
X00963*
Y01208*
X0097*
X00974Y01209*
X00977Y01212*
X00983Y01217*
X00985Y01217*
X00992Y01218*
X00998Y01222*
X01001Y01228*
X01003Y01235*
X01002Y01239*
X01003Y0124*
X01006Y01242*
X01011Y01239*
X01018Y01237*
X01025Y01239*
X01031Y01243*
X01032Y01244*
X01039Y01245*
X0104Y01245*
Y00708*
X0104Y00704*
X01043Y007*
X01045Y00698*
X01042Y00694*
X01035Y00696*
X01028Y00694*
X01022Y0069*
X01018Y00684*
X01017Y00678*
X01018Y00672*
X01016Y00669*
X01014Y00668*
X0101Y00671*
X01003Y00672*
X00997Y00671*
X00991Y00667*
X00987Y00661*
X00985Y00654*
X00987Y00647*
X00991Y00641*
X00997Y00637*
X01003Y00636*
X01005Y00636*
X01016Y00626*
X0102Y00623*
X01024Y00622*
X01236*
X0124Y00623*
X01244Y00626*
X01265Y00647*
X0127Y00645*
X01269Y0064*
X0127Y00633*
X01274Y00627*
X0128Y00624*
X01287Y00622*
X01294Y00624*
X013Y00627*
X01304Y00633*
X01305Y0064*
X01304Y00647*
X013Y00653*
Y00667*
X01376*
Y00659*
X01376Y00658*
X01371Y00657*
X01365Y00653*
X01361Y00647*
X01359Y00641*
X01361Y00634*
X01365Y00628*
X01371Y00624*
X01377Y00622*
X01384Y00624*
X01388Y00626*
X01394Y00624*
X01394Y00624*
X01394Y00622*
X01392Y0062*
X01391Y00613*
X01392Y00606*
X01396Y006*
X01402Y00596*
X01409Y00595*
X01416Y00596*
X0142Y00599*
X01421Y00599*
X01425Y00596*
X01423Y0059*
X01425Y00583*
X01429Y00577*
X01435Y00573*
X01441Y00572*
X01448Y00573*
X01454Y00577*
X01458Y00583*
X01459Y0059*
X01458Y00597*
X01454Y00603*
X01451Y00605*
Y00626*
X0145Y00631*
X01448Y00634*
X01438Y00644*
Y00667*
X01458*
Y00685*
X01586*
X0159Y00686*
X01594Y00688*
X01641Y00736*
X01644Y00739*
X01644Y00744*
Y00788*
X01649Y00789*
X0165Y00789*
X0173Y00708*
X01734Y00706*
X01738Y00705*
X01822*
Y00692*
X01834*
Y00492*
X01833Y00491*
X01829Y00485*
X01828Y00478*
X01829Y00471*
X01833Y00465*
X01839Y00461*
X01846Y0046*
X01852Y00461*
X01858Y00465*
X01862Y00471*
X01864Y00478*
X01862Y00485*
X01858Y00491*
X01857Y00492*
Y00692*
X01868*
X01873*
X01874*
X01886*
Y00679*
X01886Y00677*
X01886Y00675*
X01886Y00675*
X01886Y00674*
X01887Y00673*
X01887Y00671*
X01888Y00664*
X01892Y00658*
X01892Y00658*
Y00361*
X01889Y00359*
X01885Y00353*
X01884Y00346*
X01885Y00339*
X01889Y00333*
X01895Y00329*
X01902Y00328*
X01909Y00329*
X01914Y00333*
X01918Y00339*
X0192Y00346*
X01918Y00353*
X01914Y00359*
X01914Y00359*
Y00656*
X01917Y00658*
X01921Y00664*
X01926Y00663*
Y00639*
X01927*
Y00456*
X01926Y00455*
X01922Y00449*
X0192Y00442*
X01922Y00436*
X01926Y0043*
X0193Y00427*
Y00127*
X01927Y00123*
X01919*
X01916*
X01912Y00127*
Y00288*
X01914Y00289*
X01918Y00295*
X01919Y00302*
X01918Y00309*
X01914Y00314*
X01908Y00318*
X01901Y0032*
X01894Y00318*
X01888Y00314*
X01884Y00309*
X01883Y00302*
X01884Y00295*
X01888Y00289*
X0189Y00288*
Y00123*
X0188*
Y00127*
X01859*
Y00093*
Y00058*
X0188*
Y00062*
X01914*
X01919*
X01924*
X01957*
X01962*
X01967*
X02044*
X02049*
X02054*
X02092*
Y00123*
X02054*
X02049*
X02044*
X02036*
Y00466*
X02038Y00467*
X02042Y00473*
X02043Y0048*
X02042Y00487*
X02038Y00493*
X02032Y00497*
X02025Y00498*
X02018Y00497*
X02012Y00493*
X02008Y00487*
X02007Y0048*
X02008Y00473*
X02012Y00467*
X02014Y00466*
Y00123*
X01999*
Y00308*
X02Y0031*
X02004Y00315*
X02006Y00322*
X02004Y00329*
X02Y00335*
X01995Y00339*
X01988Y0034*
X01981Y00339*
X01975Y00335*
X01971Y00329*
X0197Y00322*
X01971Y00315*
X01975Y0031*
X01977Y00308*
Y00127*
X01973Y00123*
X01962*
X01958*
X01953Y00123*
Y00432*
X01955Y00436*
X01957Y00442*
X01955Y00449*
X01951Y00455*
X0195Y00456*
Y00639*
X01966*
Y00687*
Y0069*
Y00738*
X01968Y00742*
X0197*
Y00789*
X01926*
Y00776*
X0192*
Y0079*
Y00791*
X01922Y00795*
X01973*
X01977Y00793*
Y0079*
Y0077*
X02003*
X02029*
Y0079*
Y00793*
X02033Y00795*
X02109*
X02113Y00796*
X02117Y00798*
X02167Y00848*
X02169Y00848*
X02176Y00849*
X02182Y00853*
X02185Y00859*
X02187Y00866*
X02185Y00873*
X02182Y00878*
X02176Y00882*
X02169Y00884*
X02162Y00882*
X02156Y00878*
X02152Y00873*
X02151Y00866*
X02151Y00864*
X02105Y00817*
X02084*
X02082Y00822*
X02144Y00883*
X02146Y00883*
X02152Y00884*
X02158Y00888*
X02162Y00894*
X02164Y00901*
X02162Y00908*
X02158Y00914*
X02157Y00915*
Y00932*
X02164*
Y01019*
X02127*
Y00932*
X02134*
Y00915*
X02133Y00914*
X02129Y00908*
X02128Y00901*
X02128Y00899*
X02064Y00835*
X02062Y00835*
X0206Y00841*
X02105Y00885*
X02106Y00886*
X02108Y00888*
X02112Y00894*
X02114Y00901*
X02112Y00908*
X02108Y00914*
X02107Y00915*
Y00932*
X02114*
Y01019*
X02077*
Y00932*
X02084*
Y00915*
X02083Y00914*
X02079Y00908*
X02078Y00901*
X02079Y00894*
X0208Y00892*
X02063Y00875*
X02059Y00877*
X02058Y00877*
Y00888*
X02058Y00888*
X02062Y00894*
X02064Y00901*
X02062Y00908*
X02058Y00914*
X02057Y00915*
Y00932*
X02064*
Y01019*
X02027*
Y00932*
X02034*
Y00915*
X02033Y00914*
X02029Y00908*
X02028Y00901*
X02029Y00894*
X02033Y00888*
X02036Y00886*
Y00881*
X02025Y0087*
X0202Y00872*
Y00913*
X02007*
Y00932*
X02014*
Y01019*
X02007*
Y01041*
X02008Y01042*
X02012Y01048*
X02014Y01055*
X02012Y01062*
X02008Y01067*
X02002Y01071*
X01996Y01073*
X01989Y01071*
X01983Y01067*
X01979Y01062*
X01978Y01055*
X01979Y01048*
X01983Y01042*
X01984Y01041*
Y01019*
X01977*
Y00932*
X01984*
Y00913*
X01976*
Y00868*
X01969*
Y00884*
X01943*
X01917*
Y00868*
X01777*
X01775Y0087*
X01774Y00876*
X0177Y00882*
X01764Y00886*
X01757Y00888*
X0175Y00886*
X01745Y00882*
X01741Y00876*
X01739Y0087*
X01741Y00863*
X01745Y00857*
X0175Y00853*
X01757Y00852*
X01759Y00852*
X01762Y00849*
X01765Y00847*
X01764Y00842*
X01729*
X01728Y00844*
X01722Y00848*
X01715Y00849*
X01708Y00848*
X01702Y00844*
X01701Y00841*
X01696Y00843*
Y00875*
X01697Y00876*
X01701Y00882*
X01703Y00889*
X01701Y00896*
X01697Y00902*
X01691Y00906*
X01685Y00907*
X01678Y00906*
X01674Y00903*
X01669Y00906*
Y00971*
X01674Y00974*
X01678Y00971*
X01685Y0097*
X01691Y00971*
X01697Y00975*
X01701Y00981*
X01703Y00988*
X01702Y00991*
X01703Y00995*
Y01046*
X01702Y0105*
X01699Y01054*
X01676Y01077*
Y01411*
X01678Y01412*
X01682Y01418*
X01683Y01425*
X01682Y01432*
X01678Y01437*
X01672Y01441*
X01665Y01443*
X01658Y01441*
X01652Y01437*
X01648Y01432*
X01647Y01425*
X01648Y01418*
X01652Y01412*
X01654Y01411*
Y01401*
X01649Y01399*
X01646Y01403*
X0164Y01407*
X01633Y01408*
X01626Y01407*
X01621Y01403*
X01617Y01397*
X01615Y0139*
X01617Y01383*
X01621Y01377*
X01622Y01376*
Y01366*
X01617Y01364*
X01615Y01366*
X01615Y01367*
X01614Y01374*
X0161Y01379*
X01604Y01383*
X01597Y01385*
X0159Y01383*
X01584Y01379*
X0158Y01374*
X01579Y01367*
X0158Y01362*
X01576Y01358*
X01576Y01358*
X01574Y01358*
X01567Y01357*
X01562Y01353*
X01558Y01347*
X01556Y0134*
X01557Y01335*
X01555Y01331*
X01554Y0133*
X01552Y01331*
X01545Y01329*
X01539Y01325*
X01535Y01319*
X01534Y01313*
X01535Y01306*
X01539Y013*
X01545Y01296*
X01552Y01294*
X01554Y01295*
X01571Y01278*
Y01049*
X01566Y01047*
X01562Y01051*
Y01258*
X01561Y01263*
X01559Y01266*
X0155Y01275*
X0155Y01277*
X01549Y01284*
X01545Y0129*
X01539Y01294*
X01532Y01295*
X01525Y01294*
X01519Y0129*
X01515Y01284*
X01514Y01277*
X01515Y0127*
X01519Y01264*
X01525Y0126*
X01532Y01259*
X01534Y01259*
X0154Y01254*
Y01082*
X01535Y0108*
X0153Y01083*
X01523Y01084*
X01516Y01083*
X0151Y01079*
X01506Y01073*
X01505Y01066*
X01506Y01059*
X0151Y01054*
X01512Y01052*
Y01047*
X01492Y01027*
X01491Y01027*
X0149Y01027*
X01487Y01029*
Y01053*
X01489Y01054*
X01493Y0106*
X01494Y01066*
X01493Y01073*
X01489Y01079*
X01483Y01083*
X01476Y01084*
X01469Y01083*
X01463Y01079*
X01459Y01073*
X01458Y01066*
X01458Y01065*
X01454Y01062*
X01451Y01063*
X01444Y01065*
X01437Y01063*
X01432Y0106*
X01428Y01054*
X01426Y01047*
X01428Y0104*
X01428Y0104*
X01424Y01037*
X01418Y01041*
X01411Y01042*
X01404Y01041*
X01404Y01041*
X01401Y01045*
X01405Y01049*
X01407Y01048*
X01414Y0105*
X0142Y01054*
X01424Y01059*
X01425Y01066*
X01424Y01073*
X0142Y01079*
X01414Y01083*
X01407Y01084*
X01407Y01084*
X01405Y01089*
X01405Y01089*
X01409Y01095*
X0141Y01102*
X01409Y01109*
X01405Y01115*
X01399Y01119*
X01392Y0112*
X01392Y0112*
X01389Y01124*
X0139Y01126*
X01392Y01133*
X0139Y0114*
X01386Y01146*
X0138Y0115*
X01374Y01151*
X01373Y01151*
X01371Y01153*
X0137Y01156*
X01373Y01161*
X01375Y01168*
X01373Y01175*
X0137Y01181*
X01364Y01185*
X01359Y01186*
X01356Y0119*
X01356Y01191*
X01359Y01194*
X0136Y01201*
X01359Y01208*
X01355Y01214*
X01349Y01218*
X01342Y01219*
X01339Y01219*
X01339Y01219*
X01336Y01223*
X01336Y01228*
X01335Y01235*
X01331Y01241*
X01325Y01245*
X01318Y01246*
X01318Y01246*
X01315Y0125*
X01316Y01255*
X01314Y01262*
X01311Y01268*
X01305Y01272*
X01298Y01273*
X01296Y01273*
X01293Y01278*
X01326Y01311*
X01329Y01314*
X0133Y01318*
Y0149*
X01331Y01491*
X01335Y01497*
X01336Y01503*
X01335Y0151*
X01331Y01516*
X01325Y0152*
X01318Y01522*
X01311Y0152*
X01306Y01516*
X01302Y0151*
X013Y01503*
X01302Y01497*
X01306Y01491*
X01307Y0149*
Y01323*
X01242Y01257*
X01239Y01254*
X01238Y0125*
Y0099*
X01235*
Y00962*
X0123*
Y00957*
X01214*
Y00946*
X01179*
Y00945*
X01145*
Y00958*
X01098*
Y00953*
X01093Y00951*
X01089Y00955*
Y00965*
X01094Y00966*
X01094*
X01117*
Y00992*
Y01017*
X01094*
X01094*
X01089Y01019*
Y01037*
X01104*
Y01084*
X01089*
Y0121*
X01092Y01212*
X01096Y01218*
X01097Y01225*
X01096Y01231*
X01092Y01237*
X01086Y01241*
X01079Y01243*
X01072Y01241*
X01067Y01238*
X01065Y01238*
X01062Y01239*
Y01452*
Y01452*
Y02133*
X01078Y02149*
X01081Y02153*
X01081Y02157*
Y0233*
X01098Y02346*
X01131*
Y02417*
X0106*
Y02346*
X01062Y02341*
X0106Y02338*
X01059Y02334*
Y02162*
X01045Y02148*
X0104Y0215*
Y02163*
X01051*
Y0221*
X01043*
Y0222*
X01049*
Y02267*
X01038*
Y02329*
X01037Y02334*
X01035Y02337*
X01009Y02363*
Y02418*
G37*
G36*
X01414Y02417D02*
X01405Y02416D01*
X01397Y02412*
X01389Y02407*
X01384Y02399*
X0138Y02391*
X01379Y02381*
X0138Y02372*
X01384Y02364*
X01389Y02356*
X01394Y02352*
Y02343*
X01322Y02271*
X01299*
Y02224*
X01338*
Y02255*
X01413Y0233*
X01415Y02334*
X01416Y02338*
Y02346*
X01424Y02347*
X01432Y0235*
X0144Y02356*
X01445Y02364*
X01449Y02372*
X0145Y02381*
X01449Y02391*
X01445Y02399*
X0144Y02407*
X01432Y02412*
X01424Y02416*
X01414Y02417*
G37*
G36*
X01196D02*
X01187Y02416D01*
X01178Y02412*
X01171Y02407*
X01165Y02399*
X01161Y02391*
X0116Y02381*
X01161Y02372*
X01165Y02364*
X01171Y02356*
X01178Y0235*
X01184Y02348*
Y02271*
X01175*
Y02224*
X01214*
Y02271*
X01206*
Y02347*
X01214Y0235*
X01221Y02356*
X01227Y02364*
X0123Y02372*
X01232Y02381*
X0123Y02391*
X01227Y02399*
X01221Y02407*
X01214Y02412*
X01205Y02416*
X01196Y02417*
G37*
G36*
X01283Y02243D02*
X01264D01*
Y0222*
X01283*
Y02243*
G37*
G36*
X01254D02*
X01236D01*
Y0222*
X01254*
Y02243*
G37*
G36*
X01159D02*
X0114D01*
Y0222*
X01159*
Y02243*
G37*
G36*
X0113D02*
X01112D01*
Y0222*
X0113*
Y02243*
G37*
G36*
X00998Y02239D02*
X00977D01*
Y02216*
X00998*
Y02239*
G37*
G36*
X00967D02*
X00946D01*
Y02216*
X00967*
Y02239*
G37*
G36*
X02421Y02432D02*
X02401Y0243D01*
X02381Y02426*
X02362Y02418*
X02345Y02407*
X02329Y02394*
X02316Y02379*
X02305Y02361*
X02298Y02343*
X02293Y02323*
X02291Y02303*
X02293Y02282*
X02298Y02263*
X02305Y02244*
X02316Y02227*
X02329Y02211*
X02345Y02198*
X02362Y02187*
X02381Y0218*
X02401Y02175*
X02421Y02173*
X02441Y02175*
X02461Y0218*
X0248Y02187*
X02497Y02198*
X02512Y02211*
X02525Y02227*
X02536Y02244*
X02544Y02263*
X02549Y02282*
X0255Y02303*
X02549Y02323*
X02544Y02343*
X02536Y02361*
X02525Y02379*
X02512Y02394*
X02497Y02407*
X0248Y02418*
X02461Y02426*
X02441Y0243*
X02421Y02432*
G37*
G36*
X00177D02*
X00156Y0243D01*
X00137Y02426*
X00118Y02418*
X00101Y02407*
X00085Y02394*
X00072Y02379*
X00061Y02361*
X00054Y02343*
X00049Y02323*
X00047Y02303*
X00049Y02282*
X00054Y02263*
X00061Y02244*
X00072Y02227*
X00085Y02211*
X00101Y02198*
X00118Y02187*
X00137Y0218*
X00156Y02175*
X00177Y02173*
X00197Y02175*
X00217Y0218*
X00235Y02187*
X00253Y02198*
X00268Y02211*
X00281Y02227*
X00292Y02244*
X003Y02263*
X00304Y02282*
X00306Y02303*
X00304Y02323*
X003Y02343*
X00292Y02361*
X00281Y02379*
X00268Y02394*
X00253Y02407*
X00235Y02418*
X00217Y02426*
X00197Y0243*
X00177Y02432*
G37*
G36*
X0093Y02158D02*
X0089D01*
Y02145*
X00872*
X00871Y02147*
X00865Y02151*
X00858Y02152*
X00851Y02151*
X00845Y02147*
X00841Y02141*
X0084Y02134*
X00841Y02127*
X00845Y02122*
X00851Y02118*
X00858Y02116*
X00865Y02118*
X00871Y02122*
X00872Y02123*
X0089*
Y02111*
X0093*
Y02158*
G37*
G36*
X00181Y02106D02*
Y0209D01*
X00197*
X00196Y02094*
X00191Y02101*
X00184Y02106*
X00181Y02106*
G37*
G36*
X00171D02*
X00167Y02106D01*
X0016Y02101*
X00155Y02094*
X00154Y0209*
X00171*
Y02106*
G37*
G36*
X00931Y02102D02*
X00891D01*
Y02089*
X00872*
X00871Y02091*
X00865Y02095*
X00858Y02096*
X00851Y02095*
X00845Y02091*
X00841Y02085*
X0084Y02078*
X00841Y02071*
X00845Y02065*
X00851Y02062*
X00858Y0206*
X00865Y02062*
X00871Y02065*
X00872Y02067*
X00891*
Y02055*
X00931*
Y02102*
G37*
G36*
X00197Y0208D02*
X00181D01*
Y02064*
X00184Y02065*
X00191Y02069*
X00196Y02077*
X00197Y0208*
G37*
G36*
X00171D02*
X00154D01*
X00155Y02077*
X0016Y02069*
X00167Y02065*
X00171Y02064*
Y0208*
G37*
G36*
X00326Y02135D02*
X00317Y02134D01*
X00308Y0213*
X00301Y02125*
X00295Y02117*
X00292Y02109*
X00291Y021*
X00292Y0209*
X00295Y02084*
X00267Y02056*
X00265Y02053*
X00264Y02048*
Y01571*
X00265Y01567*
X00267Y01563*
X00291Y01539*
X00288Y01533*
X00287Y01523*
X00288Y01514*
X00292Y01506*
X00298Y01498*
X00305Y01493*
X00314Y01489*
X00323Y01488*
X00332Y01489*
X00341Y01493*
X00348Y01498*
X00354Y01506*
X00357Y01514*
X00359Y01523*
X00357Y01533*
X00354Y01541*
X00348Y01549*
X00341Y01554*
X00332Y01558*
X00323Y01559*
X00314Y01558*
X00307Y01555*
X00286Y01576*
Y01606*
X00291Y01607*
X00292Y01606*
X00298Y01598*
X00305Y01593*
X00314Y01589*
X00323Y01588*
X00332Y01589*
X00341Y01593*
X00348Y01598*
X00354Y01606*
X00357Y01614*
X00359Y01623*
X00357Y01633*
X00354Y01641*
X00348Y01649*
X00341Y01654*
X00332Y01658*
X00323Y01659*
X00314Y01658*
X00307Y01655*
X00302Y0166*
Y0186*
X00307Y01864*
X00362*
Y01935*
X00291*
X00286Y01936*
Y01994*
X00291Y01994*
X00292Y0199*
X00295Y01982*
X00301Y01974*
X00308Y01969*
X00317Y01965*
X00326Y01964*
X00336Y01965*
X00344Y01969*
X00352Y01974*
X00357Y01982*
X00361Y0199*
X00362Y02*
X00361Y02009*
X00357Y02017*
X00352Y02025*
X00344Y0203*
X00336Y02034*
X00326Y02035*
X00317Y02034*
X00308Y0203*
X00301Y02025*
X00295Y02017*
X00292Y02009*
X00291Y02005*
X00286Y02005*
Y02044*
X0031Y02068*
X00317Y02065*
X00326Y02064*
X00336Y02065*
X00344Y02069*
X00352Y02074*
X00357Y02082*
X00361Y0209*
X00362Y021*
X00361Y02109*
X00357Y02117*
X00352Y02125*
X00344Y0213*
X00336Y02134*
X00326Y02135*
G37*
G36*
X00931Y02047D02*
X00891D01*
Y02034*
X00872*
X00871Y02036*
X00865Y0204*
X00858Y02041*
X00851Y0204*
X00845Y02036*
X00841Y0203*
X0084Y02023*
X00841Y02016*
X00845Y0201*
X00851Y02006*
X00858Y02005*
X00865Y02006*
X00871Y0201*
X00872Y02012*
X00891*
Y02*
X00931*
Y02047*
G37*
G36*
X02481Y0204D02*
Y02024D01*
X02497*
X02496Y02028*
X02492Y02035*
X02484Y0204*
X02481Y0204*
G37*
G36*
X02471D02*
X02467Y0204D01*
X0246Y02035*
X02455Y02028*
X02455Y02024*
X02471*
Y0204*
G37*
G36*
X02497Y02014D02*
X02481D01*
Y01998*
X02484Y01999*
X02492Y02003*
X02496Y02011*
X02497Y02014*
G37*
G36*
X02471D02*
X02455D01*
X02455Y02011*
X0246Y02003*
X02467Y01999*
X02471Y01998*
Y02014*
G37*
G36*
X00931Y01992D02*
X00891D01*
Y01979*
X00872*
X00871Y01981*
X00865Y01985*
X00858Y01986*
X00851Y01985*
X00845Y01981*
X00841Y01975*
X0084Y01968*
X00841Y01961*
X00845Y01955*
X00851Y01951*
X00858Y0195*
X00865Y01951*
X00871Y01955*
X00872Y01957*
X00891*
Y01944*
X00931*
Y01992*
G37*
G36*
X01891Y02006D02*
X01737D01*
Y01851*
X01891*
Y02006*
G37*
G36*
X01727D02*
X01572D01*
Y01851*
X01727*
Y02006*
G37*
G36*
X01383Y01977D02*
X01147D01*
Y01715*
X01383*
Y01977*
G37*
G36*
X01891Y01841D02*
X01737D01*
Y01686*
X01891*
Y01841*
G37*
G36*
X01727D02*
X01572D01*
Y01686*
X01727*
Y01841*
G37*
G36*
X00258Y01659D02*
X00187D01*
Y01588*
X00258*
Y01659*
G37*
G36*
X02316Y01977D02*
X0208D01*
Y01715*
X02187*
Y01526*
X02172Y01511*
X02019*
X02015Y0151*
X02011Y01507*
X01974Y0147*
X01972Y0147*
X01965Y01469*
X01959Y01465*
X01955Y01459*
X01954Y01452*
X01955Y01445*
X01959Y01439*
X01965Y01436*
X01972Y01434*
X01979Y01436*
X01985Y01439*
X01989Y01445*
X0199Y01452*
X0199Y01454*
X02021Y01485*
X02025Y01483*
Y01437*
X02034*
X02034Y01436*
Y0139*
X02027*
Y01318*
X02019Y0131*
X02014Y01312*
Y0139*
X02007*
Y01395*
X0201Y01396*
X02016Y014*
X0202Y01406*
X02022Y01413*
X0202Y0142*
X02016Y01426*
X0201Y0143*
X02003Y01431*
X01997Y0143*
X01991Y01426*
X01987Y0142*
X01985Y01413*
X01986Y0141*
X01985Y01409*
X01984Y01405*
Y0139*
X01977*
Y01303*
X02005*
X02007Y01298*
X01995Y01286*
X01956*
X01955Y01288*
X01949Y01292*
X01942Y01293*
X01935Y01292*
X01929Y01288*
X01925Y01282*
X01924Y01275*
X01925Y01268*
X01929Y01262*
X01935Y01258*
X01942Y01257*
X01949Y01258*
X01955Y01262*
X01956Y01264*
X01999*
X02004Y01265*
X02007Y01267*
X02043Y01303*
X02064*
Y0139*
X02057*
Y01436*
X02057Y01437*
X02068*
Y01483*
Y01484*
X02069Y01488*
X02071*
X02076Y01488*
Y01483*
Y01465*
X02102*
X02128*
Y01488*
X02132Y01488*
X02177*
X02181Y01489*
X02185Y01492*
X02206Y01513*
X02209Y01517*
X02209Y01521*
Y01715*
X02316*
Y01977*
G37*
G36*
X00223Y01559D02*
X00214Y01558D01*
X00205Y01554*
X00198Y01549*
X00192Y01541*
X00188Y01533*
X00187Y01523*
X00188Y01514*
X00192Y01506*
X00198Y01498*
X00205Y01493*
X00214Y01489*
X00223Y01488*
X00232Y01489*
X00241Y01493*
X00248Y01498*
X00254Y01506*
X00257Y01514*
X00259Y01523*
X00257Y01533*
X00254Y01541*
X00248Y01549*
X00241Y01554*
X00232Y01558*
X00223Y01559*
G37*
G36*
X01883Y01484D02*
X01844D01*
Y01457*
X01841Y01455*
X01828Y01442*
X01826Y01443*
X01819Y01441*
X01814Y01437*
X0181Y01432*
X01808Y01425*
X0181Y01418*
X01814Y01412*
X01819Y01408*
X01826Y01407*
X01833Y01408*
X01839Y01412*
X01843Y01418*
X01844Y01425*
X01844Y01427*
X01854Y01436*
X01855*
X01856Y01437*
X01883*
Y01484*
G37*
G36*
X02097Y01455D02*
X02076D01*
Y01432*
X02097*
Y01455*
G37*
G36*
X02128D02*
X02107D01*
Y01432*
X0211*
X02111Y0143*
X02111Y01427*
X02089Y01405*
X02087Y01401*
X02086Y01397*
Y0139*
X02077*
Y01303*
X02114*
Y0139*
X02113*
X02111Y01395*
X02123Y01407*
X02124Y01407*
X0213Y01403*
X02137Y01402*
X02144Y01403*
X02149Y01407*
X02153Y01413*
X02155Y0142*
X02153Y01427*
X02149Y01433*
X02144Y01437*
X02137Y01438*
X02133Y01437*
X02128Y01441*
Y01455*
G37*
G36*
X01873Y01394D02*
X01868D01*
X01868*
X01851*
Y01346*
Y01299*
X01868*
X01868*
X01873*
X01873*
X01891*
Y01346*
Y01394*
X01873*
X01873*
G37*
G36*
X01823D02*
X01818D01*
X01818*
X01801*
Y01346*
Y01299*
X01818*
X01818*
X01823*
X01823*
X01841*
Y01346*
Y01394*
X01823*
X01823*
G37*
G36*
X00323Y01459D02*
X00314Y01458D01*
X00305Y01454*
X00298Y01449*
X00292Y01441*
X00288Y01433*
X00287Y01423*
X00288Y01414*
X00292Y01406*
X00298Y01398*
X00305Y01393*
X00314Y01389*
X00323Y01388*
X00332Y01389*
X00341Y01393*
X00348Y01398*
X00354Y01406*
X00357Y01414*
X00359Y01423*
X00357Y01433*
X00354Y01441*
X00348Y01449*
X00341Y01454*
X00332Y01458*
X00323Y01459*
G37*
G36*
X00223D02*
X00214Y01458D01*
X00205Y01454*
X00198Y01449*
X00192Y01441*
X00188Y01433*
X00187Y01423*
X00188Y01414*
X00192Y01406*
X00198Y01398*
X00205Y01393*
X00214Y01389*
X00223Y01388*
X00232Y01389*
X00241Y01393*
X00248Y01398*
X00254Y01406*
X00257Y01414*
X00259Y01423*
X00257Y01433*
X00254Y01441*
X00248Y01449*
X00241Y01454*
X00232Y01458*
X00223Y01459*
G37*
G36*
X01901Y01394D02*
Y01351D01*
X01918*
Y01394*
X01901*
G37*
G36*
X01741D02*
X01723D01*
Y01351*
X01741*
Y01394*
G37*
G36*
X02195Y01439D02*
X02188Y01437D01*
X02183Y01433*
X02179Y01427*
X02177Y0142*
X02179Y01414*
X02183Y01408*
X02184Y01406*
Y0139*
X02177*
Y01303*
X02214*
Y0139*
X02207*
Y01407*
X02208Y01408*
X02212Y01414*
X02213Y0142*
X02212Y01427*
X02208Y01433*
X02202Y01437*
X02195Y01439*
G37*
G36*
X02164Y0139D02*
X02127D01*
Y01303*
X02164*
Y0139*
G37*
G36*
X01942Y01484D02*
X01903D01*
Y01437*
X01923*
X01933Y01426*
Y0139*
X01927*
Y01303*
X01964*
Y0139*
X01956*
Y01431*
X01955Y01435*
X01952Y01438*
X01942Y01448*
Y01484*
G37*
G36*
X01918Y01341D02*
X01901D01*
Y01299*
X01918*
Y01341*
G37*
G36*
X01773Y01394D02*
X01768D01*
X01768*
X01751*
Y01346*
Y01299*
X01768*
X01768*
X01773*
X01773*
X01791*
Y01346*
Y01394*
X01773*
X01773*
G37*
G36*
X01741Y01341D02*
X01723D01*
Y01299*
X01741*
Y01341*
G37*
G36*
X00323Y01359D02*
X00314Y01358D01*
X00305Y01354*
X00298Y01349*
X00292Y01341*
X00288Y01333*
X00287Y01323*
X00288Y01314*
X00292Y01306*
X00298Y01298*
X00301Y01295*
X003Y0129*
X00272*
X00254Y01307*
X00257Y01314*
X00259Y01323*
X00257Y01333*
X00254Y01341*
X00248Y01349*
X00241Y01354*
X00232Y01358*
X00223Y01359*
X00214Y01358*
X00205Y01354*
X00198Y01349*
X00192Y01341*
X00188Y01333*
X00187Y01323*
X00188Y01314*
X00192Y01306*
X00198Y01298*
X00205Y01293*
X00214Y01289*
X00223Y01288*
X00232Y01289*
X00239Y01292*
X00259Y01271*
X00263Y01269*
X00267Y01268*
X00389*
X00394Y01269*
X00397Y01271*
X00427Y01301*
X00477*
X00478Y013*
X00484Y01296*
X00491Y01294*
X00498Y01296*
X00503Y013*
X00507Y01306*
X00509Y01313*
X00507Y01319*
X00503Y01325*
X00498Y01329*
X00491Y01331*
X00484Y01329*
X00478Y01325*
X00477Y01324*
X00423*
X00419Y01323*
X00415Y0132*
X00385Y0129*
X00346*
X00344Y01295*
X00348Y01298*
X00354Y01306*
X00357Y01314*
X00359Y01323*
X00357Y01333*
X00354Y01341*
X00348Y01349*
X00341Y01354*
X00332Y01358*
X00323Y01359*
G37*
G36*
X00228Y01263D02*
Y01228D01*
X00262*
X00261Y01234*
X00257Y01243*
X00251Y01252*
X00243Y01258*
X00233Y01262*
X00228Y01263*
G37*
G36*
X00218D02*
X00212Y01262D01*
X00203Y01258*
X00195Y01252*
X00188Y01243*
X00184Y01234*
X00184Y01228*
X00218*
Y01263*
G37*
G36*
X01455Y01211D02*
Y01194D01*
X01472*
X01471Y01198*
X01466Y01205*
X01459Y0121*
X01455Y01211*
G37*
G36*
X01445D02*
X01442Y0121D01*
X01435Y01205*
X0143Y01198*
X01429Y01194*
X01445*
Y01211*
G37*
G36*
X00323Y01259D02*
X00314Y01258D01*
X00305Y01254*
X00298Y01249*
X00292Y01241*
X00288Y01233*
X00287Y01223*
X00288Y01214*
X00292Y01206*
X00298Y01198*
X00305Y01193*
X00314Y01189*
X00323Y01188*
X00332Y01189*
X00341Y01193*
X00348Y01198*
X00354Y01206*
X00357Y01214*
X00359Y01223*
X00357Y01233*
X00354Y01241*
X00348Y01249*
X00341Y01254*
X00332Y01258*
X00323Y01259*
G37*
G36*
X00262Y01218D02*
X00228D01*
Y01184*
X00233Y01185*
X00243Y01189*
X00251Y01195*
X00257Y01204*
X00261Y01213*
X00262Y01218*
G37*
G36*
X00218D02*
X00184D01*
X00184Y01213*
X00188Y01204*
X00195Y01195*
X00203Y01189*
X00212Y01185*
X00218Y01184*
Y01218*
G37*
G36*
X01472Y01184D02*
X01455D01*
Y01168*
X01459Y01169*
X01466Y01174*
X01471Y01181*
X01472Y01184*
G37*
G36*
X01445D02*
X01429D01*
X0143Y01181*
X01435Y01174*
X01442Y01169*
X01445Y01168*
Y01184*
G37*
G36*
X01226Y01148D02*
X01205D01*
Y01126*
X01226*
Y01148*
G37*
G36*
X01195D02*
X01175D01*
Y01126*
X01195*
Y01148*
G37*
G36*
X01226Y01116D02*
X01205D01*
Y01093*
X01226*
Y01116*
G37*
G36*
X01195D02*
X01175D01*
Y01093*
X01195*
Y01116*
G37*
G36*
X00323Y01159D02*
X00314Y01158D01*
X00305Y01154*
X00298Y01149*
X00292Y01141*
X00288Y01133*
X00287Y01123*
X00288Y01114*
X00292Y01106*
X00298Y01098*
X00305Y01093*
X00314Y01089*
X00323Y01088*
X00332Y01089*
X00341Y01093*
X00348Y01098*
X00354Y01106*
X00357Y01114*
X00359Y01123*
X00357Y01133*
X00354Y01141*
X00348Y01149*
X00341Y01154*
X00332Y01158*
X00323Y01159*
G37*
G36*
X00223D02*
X00214Y01158D01*
X00205Y01154*
X00198Y01149*
X00192Y01141*
X00188Y01133*
X00187Y01123*
X00188Y01114*
X00192Y01106*
X00198Y01098*
X00205Y01093*
X00214Y01089*
X00223Y01088*
X00232Y01089*
X00241Y01093*
X00248Y01098*
X00254Y01106*
X00257Y01114*
X00259Y01123*
X00257Y01133*
X00254Y01141*
X00248Y01149*
X00241Y01154*
X00232Y01158*
X00223Y01159*
G37*
G36*
X00793Y01085D02*
X00779D01*
Y01052*
X00793*
Y01085*
G37*
G36*
X00948Y01067D02*
Y01051D01*
X00965*
X00964Y01054*
X00959Y01061*
X00952Y01066*
X00948Y01067*
G37*
G36*
X00938D02*
X00935Y01066D01*
X00928Y01061*
X00923Y01054*
X00922Y01051*
X00938*
Y01067*
G37*
G36*
X01167Y01144D02*
X01124D01*
Y01097*
X01132*
Y01084*
X01124*
Y01037*
X01163*
Y01046*
X01176*
X01177Y01045*
X01183Y01041*
X01189Y0104*
X01196Y01041*
X01202Y01045*
X01206Y01051*
X01208Y01058*
X01206Y01064*
X01202Y0107*
X01196Y01074*
X01189Y01076*
X01183Y01074*
X01177Y0107*
X01176Y01069*
X01163*
Y01084*
X01154*
Y01097*
X01167*
Y01144*
G37*
G36*
X00965Y01041D02*
X00948D01*
Y01025*
X00952Y01025*
X00959Y0103*
X00964Y01037*
X00965Y01041*
G37*
G36*
X00938D02*
X00922D01*
X00923Y01037*
X00928Y0103*
X00935Y01025*
X00938Y01025*
Y01041*
G37*
G36*
X01923Y01023D02*
X01918D01*
X01918*
X01901*
Y00975*
Y00928*
X01918*
X01918*
X01923*
X01923*
X01941*
Y00975*
Y01023*
X01923*
X01923*
G37*
G36*
X01873D02*
X01868D01*
X01868*
X01851*
Y00975*
Y00928*
X01868*
X01868*
X01873*
X01873*
X01891*
Y00975*
Y01023*
X01873*
X01873*
G37*
G36*
X01823D02*
X01818D01*
X01818*
X01801*
Y00975*
Y00928*
X01818*
X01818*
X01823*
X01823*
X01841*
Y00975*
Y01023*
X01823*
X01823*
G37*
G36*
X01127Y01017D02*
Y00997D01*
X01149*
Y01017*
X01127*
G37*
G36*
X00323Y01059D02*
X00314Y01058D01*
X00305Y01054*
X00298Y01049*
X00292Y01041*
X00288Y01033*
X00287Y01023*
X00288Y01014*
X00292Y01006*
X00298Y00998*
X00305Y00993*
X00314Y00989*
X00323Y00988*
X00332Y00989*
X00341Y00993*
X00348Y00998*
X00354Y01006*
X00357Y01014*
X00359Y01023*
X00357Y01033*
X00354Y01041*
X00348Y01049*
X00341Y01054*
X00332Y01058*
X00323Y01059*
G37*
G36*
X00223D02*
X00214Y01058D01*
X00205Y01054*
X00198Y01049*
X00192Y01041*
X00188Y01033*
X00187Y01023*
X00188Y01014*
X00192Y01006*
X00198Y00998*
X00205Y00993*
X00214Y00989*
X00223Y00988*
X00232Y00989*
X00241Y00993*
X00248Y00998*
X00254Y01006*
X00257Y01014*
X00259Y01023*
X00257Y01033*
X00254Y01041*
X00248Y01049*
X00241Y01054*
X00232Y01058*
X00223Y01059*
G37*
G36*
X01951Y01023D02*
Y0098D01*
X01968*
Y01023*
X01951*
G37*
G36*
X01741D02*
X01723D01*
Y0098*
X01741*
Y01023*
G37*
G36*
X01225Y0099D02*
X01214D01*
Y00967*
X01225*
Y0099*
G37*
G36*
X01149Y00987D02*
X01127D01*
Y00966*
X01149*
Y00987*
G37*
G36*
X01968Y0097D02*
X01951D01*
Y00928*
X01968*
Y0097*
G37*
G36*
X01773Y01023D02*
X01768D01*
X01768*
X01751*
Y00975*
Y00928*
X01768*
X01768*
X01773*
X01773*
X01791*
Y00975*
Y01023*
X01773*
X01773*
G37*
G36*
X01741Y0097D02*
X01723D01*
Y00928*
X01741*
Y0097*
G37*
G36*
X00848Y00935D02*
Y00918D01*
X00858*
Y00924*
X00857Y00929*
X00855Y00932*
X00851Y00935*
X00848Y00935*
G37*
G36*
X00876Y00906D02*
X0087D01*
Y00896*
X00887*
X00887Y00899*
X00884Y00903*
X00881Y00905*
X00876Y00906*
G37*
G36*
X01969Y00917D02*
X01948D01*
Y00894*
X01969*
Y00917*
G37*
G36*
X01938D02*
X01917D01*
Y00894*
X01938*
Y00917*
G37*
G36*
X02214Y01019D02*
X02177D01*
Y00932*
X02187*
Y00914*
X02187Y00914*
X02183Y00908*
X02181Y00901*
X02183Y00894*
X02187Y00888*
X02193Y00884*
X02199Y00883*
X02206Y00884*
X02212Y00888*
X02216Y00894*
X02217Y00901*
X02216Y00908*
X02212Y00914*
X02209Y00916*
Y00932*
X02214*
Y00959*
X02214Y0096*
X02214Y00961*
Y01019*
G37*
G36*
X00966Y00895D02*
X00943D01*
Y00875*
X00966*
Y00895*
G37*
G36*
X00933D02*
X00911D01*
Y00875*
X00933*
Y00895*
G37*
G36*
X00966Y00865D02*
X00943D01*
Y00844*
X00966*
Y00865*
G37*
G36*
X00933D02*
X00911D01*
Y00844*
X00933*
Y00865*
G37*
G36*
X01004Y00786D02*
Y00769D01*
X0102*
X01019Y00773*
X01014Y0078*
X01007Y00785*
X01004Y00786*
G37*
G36*
X00994D02*
X0099Y00785D01*
X00983Y0078*
X00978Y00773*
X00977Y00769*
X00994*
Y00786*
G37*
G36*
X02181Y00766D02*
Y0075D01*
X02197*
X02196Y00753*
X02191Y0076*
X02184Y00765*
X02181Y00766*
G37*
G36*
X02171D02*
X02167Y00765D01*
X0216Y0076*
X02155Y00753*
X02154Y0075*
X02171*
Y00766*
G37*
G36*
X00646Y00766D02*
Y00749D01*
X00662*
X00662Y00753*
X00657Y0076*
X0065Y00765*
X00646Y00766*
G37*
G36*
X00636D02*
X00633Y00765D01*
X00626Y0076*
X00621Y00753*
X0062Y00749*
X00636*
Y00766*
G37*
G36*
X0102Y00759D02*
X01004D01*
Y00743*
X01007Y00744*
X01014Y00749*
X01019Y00756*
X0102Y00759*
G37*
G36*
X00994D02*
X00977D01*
X00978Y00756*
X00983Y00749*
X0099Y00744*
X00994Y00743*
Y00759*
G37*
G36*
X0074Y00765D02*
X00719D01*
Y00743*
X0074*
Y00765*
G37*
G36*
X00709D02*
X00688D01*
Y00743*
X00709*
Y00765*
G37*
G36*
X00138Y00757D02*
Y00741D01*
X00155*
X00154Y00744*
X00149Y00751*
X00142Y00756*
X00138Y00757*
G37*
G36*
X00128D02*
X00125Y00756D01*
X00118Y00751*
X00113Y00744*
X00112Y00741*
X00128*
Y00757*
G37*
G36*
X00904Y00762D02*
X00883D01*
Y0074*
X00904*
Y00762*
G37*
G36*
X00873D02*
X00853D01*
Y0074*
X00873*
Y00762*
G37*
G36*
X02197Y0074D02*
X02181D01*
Y00723*
X02184Y00724*
X02191Y00729*
X02196Y00736*
X02197Y0074*
G37*
G36*
X02171D02*
X02154D01*
X02155Y00736*
X0216Y00729*
X02167Y00724*
X02171Y00723*
Y0074*
G37*
G36*
X00662Y00739D02*
X00646D01*
Y00723*
X0065Y00724*
X00657Y00729*
X00662Y00736*
X00662Y00739*
G37*
G36*
X00636D02*
X0062D01*
X00621Y00736*
X00626Y00729*
X00633Y00724*
X00636Y00723*
Y00739*
G37*
G36*
X00155Y00731D02*
X00138D01*
Y00714*
X00142Y00715*
X00149Y0072*
X00154Y00727*
X00155Y00731*
G37*
G36*
X00128D02*
X00112D01*
X00113Y00727*
X00118Y0072*
X00125Y00715*
X00128Y00714*
Y00731*
G37*
G36*
X0074Y00733D02*
X00719D01*
Y0071*
X0074*
Y00733*
G37*
G36*
X00709D02*
X00688D01*
Y0071*
X00709*
Y00733*
G37*
G36*
X00904Y0073D02*
X00883D01*
Y00707*
X00904*
Y0073*
G37*
G36*
X00873D02*
X00853D01*
Y00707*
X00873*
Y0073*
G37*
G36*
X00816Y00676D02*
X00795D01*
Y00653*
X00816*
Y00676*
G37*
G36*
X00901Y00672D02*
X0088D01*
Y00649*
X00901*
Y00672*
G37*
G36*
X00816Y00643D02*
X00795D01*
Y0062*
X00816*
Y00643*
G37*
G36*
X00785D02*
X00764D01*
Y0062*
X00785*
Y00643*
G37*
G36*
X00632Y00642D02*
X00611D01*
Y00619*
X00632*
Y00642*
G37*
G36*
X00601D02*
X0058D01*
Y00619*
X00601*
Y00642*
G37*
G36*
X00932Y00639D02*
X00911D01*
Y00617*
X00932*
Y00639*
G37*
G36*
X00901D02*
X0088D01*
Y00617*
X00901*
Y00639*
G37*
G36*
X01527Y00627D02*
Y00611D01*
X01543*
X01543Y00614*
X01538Y00622*
X01531Y00626*
X01527Y00627*
G37*
G36*
X01517D02*
X01514Y00626D01*
X01506Y00622*
X01502Y00614*
X01501Y00611*
X01517*
Y00627*
G37*
G36*
X01611Y00624D02*
Y00608D01*
X01627*
X01626Y00611*
X01622Y00619*
X01614Y00623*
X01611Y00624*
G37*
G36*
X01601D02*
X01597Y00623D01*
X0159Y00619*
X01585Y00611*
X01585Y00608*
X01601*
Y00624*
G37*
G36*
X01543Y00601D02*
X01527D01*
Y00585*
X01531Y00585*
X01538Y0059*
X01543Y00597*
X01543Y00601*
G37*
G36*
X01517D02*
X01501D01*
X01502Y00597*
X01506Y0059*
X01514Y00585*
X01517Y00585*
Y00601*
G37*
G36*
X01627Y00598D02*
X01611D01*
Y00582*
X01614Y00582*
X01622Y00587*
X01626Y00594*
X01627Y00598*
G37*
G36*
X01601D02*
X01585D01*
X01585Y00594*
X0159Y00587*
X01597Y00582*
X01601Y00582*
Y00598*
G37*
G36*
X02108Y00624D02*
X02037D01*
Y00566*
X02108*
Y00624*
G37*
G36*
X01801D02*
X01731D01*
Y00566*
X01801*
Y00624*
G37*
G36*
X00945Y00598D02*
X0091D01*
Y00537*
X00945*
Y00598*
G37*
G36*
X00872Y00668D02*
X00829D01*
Y00621*
X00842*
Y00598*
X00835*
Y00537*
X0087*
Y00598*
X00864*
Y00621*
X00872*
Y00668*
G37*
G36*
X00683Y00671D02*
X00639D01*
Y00624*
X00649*
Y00597*
X00642*
Y00538*
X00675*
Y00534*
X00692*
Y00567*
Y00601*
X00675*
X00671Y00602*
Y00624*
X00683*
Y00671*
G37*
G36*
X01512Y00559D02*
X01487D01*
Y00526*
X01512*
Y00559*
G37*
G36*
X01477D02*
X01451D01*
Y00526*
X01477*
Y00559*
G37*
G36*
X01311Y00538D02*
Y00522D01*
X01327*
X01326Y00526*
X01321Y00533*
X01314Y00538*
X01311Y00538*
G37*
G36*
X01301D02*
X01297Y00538D01*
X0129Y00533*
X01285Y00526*
X01284Y00522*
X01301*
Y00538*
G37*
G36*
X01722Y0058D02*
X01664D01*
Y00521*
X01722*
Y0058*
G37*
G36*
X0227Y00613D02*
X02213D01*
Y00514*
X0227*
Y00613*
G37*
G36*
X00222Y00669D02*
X00215Y00668D01*
X00209Y00664*
X00205Y00658*
X00204Y00651*
X00205Y00644*
X00209Y00638*
X00211Y00637*
Y00578*
X00168*
Y00507*
X00239*
Y00578*
X00233*
Y00637*
X00235Y00638*
X00239Y00644*
X0024Y00651*
X00239Y00658*
X00235Y00664*
X00229Y00668*
X00222Y00669*
G37*
G36*
X00304Y00579D02*
X00294Y00577D01*
X00286Y00574*
X00278Y00568*
X00273Y00561*
X00269Y00552*
X00268Y00543*
X00269Y00534*
X00273Y00525*
X00278Y00518*
X00286Y00512*
X00294Y00508*
X00304Y00507*
X00313Y00508*
X00322Y00512*
X00329Y00518*
X00335Y00525*
X00338Y00534*
X00339Y00543*
X00338Y00552*
X00335Y00561*
X00329Y00568*
X00322Y00574*
X00313Y00577*
X00304Y00579*
G37*
G36*
X00923Y00504D02*
X00906D01*
Y005*
X00875*
X00872*
X00867*
X00835*
Y00492*
X00817*
X00815Y00494*
X0081Y00498*
X00803Y00499*
X00796Y00498*
X0079Y00494*
X00786Y00488*
X00785Y00481*
X00786Y00474*
X0079Y00468*
X00796Y00464*
X00803Y00463*
X0081Y00464*
X00815Y00468*
X00817Y0047*
X00835*
Y00439*
X00867*
X0087*
X00876*
X00879Y00435*
Y00424*
X00873Y00419*
X00862*
Y00412*
X00852*
Y00417*
X00812*
Y0037*
X00852*
Y0039*
X00862*
Y00372*
X00901*
Y00419*
X00901Y0042*
Y00433*
X00906Y00434*
X00923*
Y00469*
Y00504*
G37*
G36*
X01327Y00512D02*
X01311D01*
Y00496*
X01314Y00497*
X01321Y00501*
X01326Y00509*
X01327Y00512*
G37*
G36*
X01301D02*
X01284D01*
X01285Y00509*
X0129Y00501*
X01297Y00497*
X01301Y00496*
Y00512*
G37*
G36*
X01607Y00525D02*
X016Y00524D01*
X01594Y0052*
X0159Y00514*
X01589Y00507*
X0159Y005*
X01594Y00495*
X016Y00491*
X01607Y00489*
X01614Y00491*
X0162Y00495*
X01623Y005*
X01625Y00507*
X01623Y00514*
X0162Y0052*
X01614Y00524*
X01607Y00525*
G37*
G36*
X01428Y00555D02*
X01374D01*
Y00488*
X0137Y00486*
X01245*
X0124Y00485*
X01237Y00483*
X01225Y00471*
X01222Y00467*
X01222Y00463*
Y00447*
X01187*
Y00427*
X01172*
X01171Y00429*
X01165Y00433*
X01158Y00434*
X01151Y00433*
X01145Y00429*
X01141Y00423*
X0114Y00416*
X01141Y00409*
X01145Y00403*
X01151Y00399*
X01158Y00398*
X01165Y00399*
X01167Y00401*
X01171Y00397*
X01142Y00369*
X01122*
Y0039*
X01069*
Y00323*
X01122*
Y00347*
X01142*
X01147Y00345*
Y00342*
Y00303*
X01138Y00294*
X0112*
Y00306*
X01071*
Y00259*
X01085*
Y0023*
X01083Y00229*
X01079Y00223*
X01078Y00216*
X01079Y00209*
X01083Y00203*
X01089Y00199*
X01096Y00198*
X01103Y00199*
X01109Y00203*
X01113Y00209*
X01114Y00216*
X01113Y00223*
X01109Y00229*
X01107Y0023*
Y00259*
X0112*
Y00272*
X01142*
X01146Y00273*
X0115Y00275*
X01166Y00291*
X01168Y00294*
X01169Y00299*
Y0034*
X01183Y00354*
X01187Y00352*
Y00345*
X01254*
Y00365*
Y00404*
Y00447*
X01244*
Y00459*
X01249Y00464*
X01391*
X01395Y00465*
X01399Y00467*
X01409Y00477*
X01411Y0048*
X01412Y00485*
X01416Y00488*
X01428*
Y00555*
G37*
G36*
X01512Y00516D02*
X01487D01*
Y00484*
X01512*
Y00516*
G37*
G36*
X01477D02*
X01451D01*
Y00484*
X01477*
Y00516*
G37*
G36*
X02399Y0051D02*
X02394Y00509D01*
X02384Y00505*
X02376Y00499*
X0237Y00491*
X02366Y00481*
X02365Y00476*
X02399*
Y0051*
G37*
G36*
X00949Y00504D02*
X00933D01*
Y00474*
X00949*
Y00504*
G37*
G36*
X01127Y00477D02*
X01101D01*
Y00445*
X01127*
Y00477*
G37*
G36*
X01091D02*
X01065D01*
Y00445*
X01091*
Y00477*
G37*
G36*
X01432Y00452D02*
X01399D01*
Y00441*
X01432*
Y00452*
G37*
G36*
X01389D02*
X01357D01*
Y00441*
X01389*
Y00452*
G37*
G36*
X02409Y0051D02*
Y00471D01*
Y00432*
X02414Y00432*
X02424Y00436*
X02432Y00443*
X02439Y00451*
X02443Y00461*
X02443Y00464*
X02448*
X02448Y00462*
X02452Y00453*
X02458Y00446*
X02465Y0044*
X02474Y00436*
X02483Y00435*
X02492Y00436*
X02501Y0044*
X02508Y00446*
X02514Y00453*
X02517Y00462*
X02519Y00471*
X02517Y0048*
X02514Y00489*
X02508Y00496*
X02501Y00502*
X02492Y00505*
X02483Y00507*
X02474Y00505*
X02465Y00502*
X02458Y00496*
X02452Y00489*
X02448Y0048*
X02448Y00478*
X02443*
X02443Y00481*
X02439Y00491*
X02432Y00499*
X02424Y00505*
X02414Y00509*
X02409Y0051*
G37*
G36*
X00949Y00464D02*
X00933D01*
Y00434*
X00949*
Y00464*
G37*
G36*
X02399Y00466D02*
X02365D01*
X02366Y00461*
X0237Y00451*
X02376Y00443*
X02384Y00436*
X02394Y00432*
X02399Y00432*
Y00466*
G37*
G36*
X01615Y00439D02*
Y00405D01*
X01649*
X01649Y0041*
X01645Y0042*
X01638Y00428*
X0163Y00435*
X0162Y00439*
X01615Y00439*
G37*
G36*
X01605D02*
X01599Y00439D01*
X0159Y00435*
X01581Y00428*
X01575Y0042*
X01571Y0041*
X0157Y00405*
X01605*
Y00439*
G37*
G36*
X00304Y0046D02*
X00294Y00459D01*
X00286Y00456*
X00278Y0045*
X00273Y00443*
X00269Y00434*
X00268Y00425*
X00269Y00415*
X00273Y00407*
X00278Y00399*
X00286Y00394*
X00294Y0039*
X00304Y00389*
X00313Y0039*
X00322Y00394*
X00329Y00399*
X00335Y00407*
X00337Y00413*
X00365*
Y00402*
X00412*
Y00413*
X00428*
X0043Y0041*
X00436Y00406*
X00442Y00405*
X00449Y00406*
X00455Y0041*
X00459Y00416*
X0046Y00423*
X00459Y0043*
X00455Y00436*
X00449Y00439*
X00442Y00441*
X00436Y00439*
X0043Y00436*
X00429Y00435*
X00412*
Y00445*
X00365*
Y00435*
X00338*
X00335Y00443*
X00329Y0045*
X00322Y00456*
X00313Y00459*
X00304Y0046*
G37*
G36*
X01127Y00435D02*
X01101D01*
Y00402*
X01127*
Y00435*
G37*
G36*
X01091D02*
X01065D01*
Y00402*
X01091*
Y00435*
G37*
G36*
X00964Y00423D02*
X00945D01*
Y004*
X00964*
Y00423*
G37*
G36*
X00935D02*
X00917D01*
Y004*
X00935*
Y00423*
G37*
G36*
X00239Y0046D02*
X00168D01*
Y00389*
X00239*
Y0046*
G37*
G36*
X01432Y00431D02*
X01394D01*
X01357*
Y0042*
X01361*
Y00384*
Y00345*
X01383*
Y00321*
X0137*
Y00276*
X01359*
Y00293*
X0133*
X01301*
Y00276*
X01244*
X01239Y00276*
X01236Y00273*
X01226Y00263*
X01223Y0026*
X01223Y00255*
Y00182*
X01195Y00155*
X01193Y00152*
X01183Y00141*
X0118Y00138*
X01179Y00133*
X01179*
Y00103*
X01164*
Y00056*
X0116Y00053*
X01152*
X01148Y00056*
Y00058*
Y00103*
X01135*
Y00133*
X01134Y00138*
X01131Y00141*
X0108Y00192*
X01077Y00195*
X01072Y00196*
X00999*
X00969Y00226*
X00965Y00228*
X00961Y00229*
X00916*
Y00256*
X00865*
Y00207*
X00862Y00204*
X00851*
X00845Y00209*
Y00218*
X00845Y00219*
Y00256*
X00794*
Y00207*
X00819*
X00823Y00204*
X00824Y002*
X00826Y00197*
X00838Y00185*
X00842Y00182*
X00846Y00181*
X00956*
X00967Y0017*
Y00102*
X00953*
Y00055*
X00949Y00053*
X00937*
X00921Y00069*
Y00101*
X00872*
Y00054*
X00905*
X00925Y00034*
X00928Y00032*
X00933Y00031*
X01044*
X01183*
X01187Y00032*
X0119Y00034*
X01196Y0004*
X01199Y00043*
X012Y00048*
Y00056*
X01213*
Y00103*
X01202*
Y00129*
X01211Y00138*
X01213Y00141*
X01223Y00151*
X01228Y00149*
Y00073*
X01303*
Y0016*
X01305Y00164*
X01344*
Y00254*
X01358*
Y00227*
X01375*
Y00222*
X0138*
Y00185*
X01393*
Y00189*
X01492*
Y0025*
X0153Y00289*
X01575*
X01578Y00282*
X01584Y00274*
X01592Y00268*
X016Y00265*
X0161Y00263*
X01619Y00265*
X01628Y00268*
X01635Y00274*
X01641Y00282*
X01645Y0029*
X01646Y003*
X01645Y00309*
X01641Y00318*
X01635Y00325*
X01628Y00331*
X01619Y00335*
X0161Y00336*
X016Y00335*
X01592Y00331*
X01584Y00325*
X01578Y00318*
X01575Y00311*
X01526*
X01521Y0031*
X01518Y00308*
X01477Y00267*
X01471Y00273*
X01467Y00276*
X01463Y00276*
X0142*
Y00321*
X01405*
Y00345*
X01428*
Y00385*
X01448*
X01448Y00385*
X01449Y00378*
X01453Y00372*
X01459Y00368*
X01466Y00367*
X01473Y00368*
X01479Y00372*
X01483Y00378*
X01484Y00385*
X01483Y00391*
X01479Y00397*
X01474Y00401*
X01474Y00405*
X01475Y00406*
X01487*
X01495Y00398*
X01494Y00396*
X01496Y00389*
X01499Y00383*
X01505Y0038*
X01512Y00378*
X01519Y0038*
X01525Y00383*
X01529Y00389*
X0153Y00396*
X01529Y00403*
X01525Y00409*
X01519Y00413*
X01512Y00414*
X0151Y00414*
X01499Y00425*
X01496Y00427*
X01492Y00428*
X01432*
Y00431*
G37*
G36*
X00614Y00392D02*
Y00376D01*
X0063*
X00629Y00379*
X00624Y00386*
X00617Y00391*
X00614Y00392*
G37*
G36*
X00604D02*
X006Y00391D01*
X00593Y00386*
X00588Y00379*
X00588Y00376*
X00604*
Y00392*
G37*
G36*
X00416Y00394D02*
X00393D01*
Y00374*
X00416*
Y00394*
G37*
G36*
X00383D02*
X00361D01*
Y00374*
X00383*
Y00394*
G37*
G36*
X00678Y00499D02*
D01*
X00642*
Y0044*
X00678*
X0068*
X00686*
Y00416*
X00686Y00415*
Y0039*
Y00253*
X00685Y00253*
X00684Y00251*
X00645*
X00645Y00251*
X00645Y00251*
X00622*
Y00264*
X00575*
Y00251*
X00538*
Y00264*
X00498*
Y00217*
X00538*
Y00229*
X00575*
Y00221*
X00622*
Y00229*
X00645*
X00645Y00229*
X00645Y00229*
X00684*
X00685Y00227*
X00691Y00223*
X00698Y00222*
X00705Y00223*
X0071Y00227*
X00714Y00233*
X00716Y0024*
X00714Y00247*
X0071Y00253*
X00708Y00254*
Y00379*
X00753*
Y0037*
X00793*
Y004*
X00793Y00401*
X00793Y00403*
Y00416*
Y00417*
X00795Y00421*
X008Y00422*
X00806Y00426*
X0081Y00432*
X00811Y00438*
X0081Y00445*
X00806Y00451*
X008Y00455*
X00793Y00457*
X00786Y00455*
X0078Y00451*
X00779Y0045*
X00758*
X00752Y00455*
Y00499*
X00717*
X00712*
X0068*
X00678*
G37*
G36*
X00964Y0039D02*
X00945D01*
Y00367*
X00964*
Y0039*
G37*
G36*
X00935D02*
X00917D01*
Y00367*
X00935*
Y0039*
G37*
G36*
X01649Y00395D02*
X01615D01*
Y0036*
X0162Y00361*
X0163Y00365*
X01638Y00371*
X01645Y0038*
X01649Y00389*
X01649Y00395*
G37*
G36*
X01605D02*
X0157D01*
X01571Y00389*
X01575Y0038*
X01581Y00371*
X0159Y00365*
X01599Y00361*
X01605Y0036*
Y00395*
G37*
G36*
X0063Y00366D02*
X00614D01*
Y00349*
X00617Y0035*
X00624Y00355*
X00629Y00362*
X0063Y00366*
G37*
G36*
X00604D02*
X00588D01*
X00588Y00362*
X00593Y00355*
X006Y0035*
X00604Y00349*
Y00366*
G37*
G36*
X00416Y00364D02*
X00393D01*
Y00343*
X00416*
Y00364*
G37*
G36*
X00383D02*
X00361D01*
Y00343*
X00383*
Y00364*
G37*
G36*
X02029Y0076D02*
X02003D01*
X01977*
Y00738*
X01985*
Y00692*
Y00687*
Y00685*
Y00639*
X02025*
Y00652*
X02032*
X02034Y0065*
X02039Y00646*
X02046Y00645*
X02053Y00646*
X02059Y0065*
X0206Y00652*
X02092*
X02116Y00628*
Y00388*
X02063Y00335*
X02062Y00335*
X02055Y00334*
X02049Y0033*
X02045Y00324*
X02043Y00317*
X02045Y00311*
X02049Y00305*
X02055Y00301*
X02062Y00299*
X02064Y003*
X02066Y00295*
X02065Y00295*
X02062Y00289*
X0206Y00282*
X02062Y00275*
X02065Y00269*
X02071Y00265*
X02078Y00264*
X02085Y00265*
X02091Y00269*
X02095Y00275*
X02096Y00282*
X02096Y00284*
X02161Y00349*
X02163Y00353*
X02164Y00357*
Y00641*
X02163Y00645*
X02161Y00649*
X021Y0071*
X021Y0071*
X02098Y00717*
X02095Y00723*
X02089Y00727*
X02082Y00728*
X02075Y00727*
X02069Y00723*
X02068Y00721*
X02025*
Y00738*
X02029*
Y0076*
G37*
G36*
X01015Y00528D02*
X01008Y00527D01*
X01002Y00523*
X00999Y00517*
X00997Y0051*
X00999Y00503*
X01002Y00498*
X01005Y00496*
Y00473*
X00989*
Y00406*
X01004*
Y0039*
X00989*
Y00323*
X01042*
Y0039*
X01026*
Y00406*
X01042*
Y00473*
X01027*
Y00497*
X01028Y00498*
X01032Y00503*
X01033Y0051*
X01032Y00517*
X01028Y00523*
X01022Y00527*
X01015Y00528*
G37*
G36*
X01359Y00326D02*
X01335D01*
Y00303*
X01359*
Y00326*
G37*
G36*
X01325D02*
X01301D01*
Y00303*
X01325*
Y00326*
G37*
G36*
X00627Y00324D02*
X00604D01*
Y00303*
X00627*
Y00324*
G37*
G36*
X00594D02*
X00571D01*
Y00303*
X00594*
Y00324*
G37*
G36*
X0106Y00311D02*
X01036D01*
Y00288*
X0106*
Y00311*
G37*
G36*
X01026D02*
X01002D01*
Y00288*
X01026*
Y00311*
G37*
G36*
X00541Y00437D02*
X00494D01*
Y00397*
X00504*
Y00319*
X00502Y00317*
X00499Y00312*
X00497Y00305*
X00499Y00298*
X00502Y00292*
X00508Y00288*
X00515Y00287*
X00522Y00288*
X00528Y00292*
X00532Y00298*
X00533Y00305*
X00532Y00312*
X00528Y00317*
X00526Y00319*
Y00397*
X00541*
Y00437*
G37*
G36*
X00627Y00293D02*
X00604D01*
Y00272*
X00627*
Y00293*
G37*
G36*
X00594D02*
X00571D01*
Y00272*
X00594*
Y00293*
G37*
G36*
X0089Y00363D02*
X00883Y00362D01*
X00877Y00358*
X00873Y00352*
X00872Y00345*
X00873Y00338*
X00877Y00332*
X00879Y00331*
Y00317*
X00865*
Y00268*
X00916*
Y00317*
X00901*
Y00331*
X00903Y00332*
X00907Y00338*
X00908Y00345*
X00907Y00352*
X00903Y00358*
X00897Y00362*
X0089Y00363*
G37*
G36*
X00819D02*
X00812Y00362D01*
X00807Y00358*
X00803Y00352*
X00801Y00345*
X00803Y00338*
X00807Y00332*
X00808Y00331*
Y00317*
X00794*
Y00268*
X00845*
Y00317*
X0083*
Y00331*
X00832Y00332*
X00836Y00338*
X00837Y00345*
X00836Y00352*
X00832Y00358*
X00826Y00362*
X00819Y00363*
G37*
G36*
X00748D02*
X00742Y00362D01*
X00736Y00358*
X00732Y00352*
X0073Y00345*
X00732Y00338*
X00736Y00332*
X00737Y00331*
Y00317*
X00723*
Y00268*
X00774*
Y00317*
X0076*
Y00331*
X00761Y00332*
X00765Y00338*
X00767Y00345*
X00765Y00352*
X00761Y00358*
X00755Y00362*
X00748Y00363*
G37*
G36*
X0106Y00278D02*
X01036D01*
Y00255*
X0106*
Y00278*
G37*
G36*
X01026D02*
X01002D01*
Y00255*
X01026*
Y00278*
G37*
G36*
X00479Y00264D02*
X00439D01*
Y00251*
X00395*
X00394Y00253*
X00388Y00256*
X00381Y00258*
X00374Y00256*
X00369Y00253*
X00365Y00247*
X00363Y0024*
X00365Y00233*
X00369Y00227*
X00374Y00223*
X00381Y00222*
X00388Y00223*
X00394Y00227*
X00395Y00229*
X00439*
Y00217*
X00479*
Y00264*
G37*
G36*
X0137Y00217D02*
X01358D01*
Y00185*
X0137*
Y00217*
G37*
G36*
X01812Y00298D02*
X01805Y00297D01*
X01799Y00293*
X01795Y00287*
X01793Y0028*
X01795Y00273*
X01799Y00267*
X018Y00266*
Y00127*
X01797Y00123*
X01789*
X01784*
X01746*
Y00062*
X01784*
X01789*
X01794*
X01828*
Y00058*
X01849*
Y00093*
Y00127*
X01828*
Y00123*
X01823*
Y00266*
X01824Y00267*
X01828Y00273*
X0183Y0028*
X01828Y00287*
X01824Y00293*
X01818Y00297*
X01812Y00298*
G37*
G36*
X00749Y00117D02*
Y00101D01*
X00765*
X00764Y00104*
X00759Y00112*
X00752Y00117*
X00749Y00117*
G37*
G36*
X00739D02*
X00735Y00117D01*
X00728Y00112*
X00723Y00104*
X00722Y00101*
X00739*
Y00117*
G37*
G36*
X00765Y00091D02*
X00749D01*
Y00075*
X00752Y00075*
X00759Y0008*
X00764Y00087*
X00765Y00091*
G37*
G36*
X00739D02*
X00722D01*
X00723Y00087*
X00728Y0008*
X00735Y00075*
X00739Y00075*
Y00091*
G37*
G36*
X01604Y00254D02*
X01509D01*
Y00164*
X01548*
X01551Y0016*
Y00159*
Y00073*
X01625*
Y0016*
X01606*
X01604Y00164*
Y00165*
Y00254*
G37*
G36*
X0149Y0016D02*
X01431D01*
Y00073*
X0149*
Y0016*
G37*
G36*
X01423D02*
X01364D01*
Y00073*
X01423*
Y0016*
G37*
G36*
X00619Y00133D02*
X00548D01*
Y00062*
X00619*
Y00133*
G37*
G36*
X02266Y00173D02*
X02217D01*
Y00062*
X02266*
Y00173*
G37*
G36*
X0172Y00227D02*
X01662D01*
Y00166*
Y00166*
X01662Y00161*
X01647*
Y00062*
X01704*
Y00161*
Y00161*
X01704Y00166*
X0172*
Y00227*
G37*
G36*
X00483Y00134D02*
X00474Y00132D01*
X00465Y00129*
X00458Y00123*
X00452Y00116*
X00449Y00107*
X00447Y00098*
X00449Y00089*
X00452Y0008*
X00458Y00073*
X00465Y00067*
X00474Y00063*
X00483Y00062*
X00492Y00063*
X00501Y00067*
X00508Y00073*
X00514Y0008*
X00518Y00089*
X00519Y00098*
X00518Y00107*
X00514Y00116*
X00508Y00123*
X00501Y00129*
X00492Y00132*
X00483Y00134*
G37*
G36*
X00383D02*
X00374Y00132D01*
X00365Y00129*
X00358Y00123*
X00352Y00116*
X00349Y00107*
X00347Y00098*
X00349Y00089*
X00352Y0008*
X00358Y00073*
X00365Y00067*
X00374Y00063*
X00383Y00062*
X00392Y00063*
X00401Y00067*
X00408Y00073*
X00414Y0008*
X00418Y00089*
X00419Y00098*
X00418Y00107*
X00414Y00116*
X00408Y00123*
X00401Y00129*
X00392Y00132*
X00383Y00134*
G37*
G36*
X00774Y00256D02*
X00723D01*
Y00207*
X00752*
Y00192*
X00753Y00187*
X00755Y00184*
X00766Y00173*
X0077Y0017*
X00774Y00169*
X00804*
X0082Y00153*
Y00101*
X00807*
Y00054*
X00856*
Y00101*
X00842*
Y00158*
X00841Y00162*
X00839Y00166*
X00816Y00188*
X00813Y00191*
X00808Y00192*
X00779*
X00774Y00196*
Y00218*
X00774Y00219*
Y00256*
G37*
G36*
X02421Y00306D02*
X02401Y00304D01*
X02381Y003*
X02362Y00292*
X02345Y00281*
X02329Y00268*
X02316Y00253*
X02305Y00235*
X02298Y00217*
X02293Y00197*
X02291Y00177*
X02293Y00156*
X02298Y00137*
X02305Y00118*
X02316Y00101*
X02329Y00085*
X02345Y00072*
X02362Y00061*
X02381Y00054*
X02401Y00049*
X02421Y00047*
X02441Y00049*
X02461Y00054*
X0248Y00061*
X02497Y00072*
X02512Y00085*
X02525Y00101*
X02536Y00118*
X02544Y00137*
X02549Y00156*
X0255Y00177*
X02549Y00197*
X02544Y00217*
X02536Y00235*
X02525Y00253*
X02512Y00268*
X02497Y00281*
X0248Y00292*
X02461Y003*
X02441Y00304*
X02421Y00306*
G37*
G36*
X00177D02*
X00156Y00304D01*
X00137Y003*
X00118Y00292*
X00101Y00281*
X00085Y00268*
X00072Y00253*
X00061Y00235*
X00054Y00217*
X00049Y00197*
X00047Y00177*
X00049Y00156*
X00054Y00137*
X00061Y00118*
X00072Y00101*
X00085Y00085*
X00101Y00072*
X00118Y00061*
X00137Y00054*
X00156Y00049*
X00177Y00047*
X00197Y00049*
X00217Y00054*
X00235Y00061*
X00253Y00072*
X00268Y00085*
X00281Y00101*
X00292Y00118*
X003Y00137*
X00304Y00156*
X00306Y00177*
X00304Y00197*
X003Y00217*
X00292Y00235*
X00281Y00253*
X00268Y00268*
X00253Y00281*
X00235Y00292*
X00217Y003*
X00197Y00304*
X00177Y00306*
G37*
%LNmoveh_messkette_einseitig_v2-3*%
%LPD*%
G36*
X01654Y0138D02*
Y01072D01*
X01655Y01068*
X01657Y01064*
X01678Y01044*
X01677Y01043*
X01672Y01041*
X01669Y01043*
X01662Y01044*
X01655Y01043*
X01649Y01039*
X01648Y01039*
X01644Y01041*
Y01376*
X01646Y01377*
X01649Y01381*
X01654Y0138*
G37*
G36*
X01571Y00946D02*
Y00819D01*
X01566Y00817*
X01562Y00819*
X01555Y00821*
X01553Y0082*
X01549Y00824*
X01545Y00827*
X01541Y00827*
X01498*
Y00845*
X01518*
X01518Y00845*
X01524Y00841*
X01531Y0084*
X01538Y00841*
X01544Y00845*
X01548Y00851*
X01549Y00858*
X01548Y00865*
X01544Y00871*
X01538Y00874*
X01539Y00879*
X01546Y0088*
X01552Y00884*
X01556Y0089*
X01557Y00897*
X01556Y00904*
X01552Y0091*
X01546Y00914*
X0154Y00915*
X01538Y00918*
X01538Y0092*
X01566Y00948*
X01571Y00946*
G37*
G36*
X01785Y0077D02*
X01784Y00765D01*
X01786Y00758*
X01789Y00752*
X01795Y00749*
X01802Y00747*
X01809Y00749*
X01815Y00752*
X01816Y00754*
X01822*
Y00751*
X01869*
X01873*
X0192*
Y00754*
X01926*
Y00742*
Y00738*
Y0069*
Y00687*
Y00678*
X01921Y00678*
X01917Y00684*
X01912Y00687*
X01912Y00692*
X0192*
Y00732*
X01874*
X01869*
X01868*
X01822*
Y00727*
X01743*
X01716Y00754*
X01718Y0076*
X01722Y0076*
X01728Y00764*
X01729Y00766*
X01769*
X01773Y00767*
X01777Y00769*
X01781Y00773*
X01785Y0077*
G37*
G36*
X01067Y01031D02*
Y0095D01*
X01068Y00946*
X0107Y00942*
X01084Y00929*
Y00929*
X01088Y00926*
X01092Y00925*
X01098*
Y00915*
X01096Y00911*
X01093Y00911*
X01086Y0091*
X0108Y00906*
X01076Y009*
X01075Y00893*
X01076Y00886*
X0108Y0088*
X01086Y00877*
X0109Y00876*
X0109Y00871*
X01084Y00869*
X01076Y00865*
X01071Y00857*
X01071Y00854*
X01092*
Y00849*
X01097*
Y00828*
X01101Y00828*
X01104Y00831*
X01156*
X0116Y00832*
X01164Y00834*
X0117Y0084*
X01175Y0084*
X01179Y00838*
Y00812*
X01175*
Y00802*
X01202*
X0123*
Y00812*
X01226*
Y00824*
Y0084*
X0123*
Y00851*
X01202*
Y00861*
X0123*
Y00872*
X01226*
Y00883*
Y00903*
Y00923*
Y00934*
X01246*
Y00938*
X0145*
Y00923*
Y00903*
Y00883*
Y00863*
Y00844*
Y00824*
Y00804*
Y00785*
Y00765*
Y00745*
Y00726*
Y00714*
X01226*
Y00722*
X0123*
Y00732*
X01202*
X01175*
Y00729*
X01167*
Y00759*
X01124*
Y00712*
X01127*
X01129Y00707*
X01127Y00703*
X01125Y00696*
X01127Y00689*
X0113Y00684*
X01133Y00682*
X01131Y00677*
X01098*
X01071Y00703*
X01073Y00708*
X01085*
Y00736*
Y00763*
X01064*
X01062Y00767*
Y01028*
X01067Y01031*
X01067Y01031*
G37*
G36*
X02438Y02408D02*
X02454Y02404D01*
X02469Y02398*
X02484Y02389*
X02496Y02378*
X02507Y02366*
X02516Y02351*
X02523Y02336*
X02526Y02319*
X02528Y02303*
X02526Y02286*
X02523Y0227*
X02516Y02254*
X02507Y0224*
X02496Y02227*
X02484Y02216*
X02469Y02207*
X02454Y02201*
X02438Y02197*
X02421Y02196*
X02404Y02197*
X02388Y02201*
X02372Y02207*
X02358Y02216*
X02345Y02227*
X02334Y0224*
X02325Y02254*
X02319Y0227*
X02315Y02286*
X02314Y02303*
X02315Y02319*
X02319Y02336*
X02325Y02351*
X02334Y02366*
X02345Y02378*
X02358Y02389*
X02372Y02398*
X02388Y02404*
X02404Y02408*
X02421Y0241*
X02438Y02408*
G37*
G36*
X00193D02*
X0021Y02404D01*
X00225Y02398*
X0024Y02389*
X00252Y02378*
X00263Y02366*
X00272Y02351*
X00278Y02336*
X00282Y02319*
X00284Y02303*
X00282Y02286*
X00278Y0227*
X00272Y02254*
X00263Y0224*
X00252Y02227*
X0024Y02216*
X00225Y02207*
X0021Y02201*
X00193Y02197*
X00177Y02196*
X0016Y02197*
X00144Y02201*
X00128Y02207*
X00114Y02216*
X00101Y02227*
X0009Y0224*
X00081Y02254*
X00075Y0227*
X00071Y02286*
X0007Y02303*
X00071Y02319*
X00075Y02336*
X00081Y02351*
X0009Y02366*
X00101Y02378*
X00114Y02389*
X00128Y02398*
X00144Y02404*
X0016Y02408*
X00177Y0241*
X00193Y02408*
G37*
G36*
X00995Y00173D02*
D01*
X01068*
X01112Y00129*
Y00103*
X01099*
Y00058*
Y00056*
X01095Y00053*
X01072*
X01067Y00055*
Y00102*
X01018*
Y00055*
X01014Y00053*
X01007*
X01002Y00055*
Y00058*
Y00102*
X00989*
Y0017*
X00994Y00174*
X00995Y00173*
G37*
G36*
X02438Y00282D02*
X02454Y00278D01*
X02469Y00272*
X02484Y00263*
X02496Y00252*
X02507Y0024*
X02516Y00225*
X02523Y0021*
X02526Y00193*
X02528Y00177*
X02526Y0016*
X02523Y00144*
X02516Y00128*
X02507Y00114*
X02496Y00101*
X02484Y0009*
X02469Y00081*
X02454Y00075*
X02438Y00071*
X02421Y0007*
X02404Y00071*
X02388Y00075*
X02372Y00081*
X02358Y0009*
X02345Y00101*
X02334Y00114*
X02325Y00128*
X02319Y00144*
X02315Y0016*
X02314Y00177*
X02315Y00193*
X02319Y0021*
X02325Y00225*
X02334Y0024*
X02345Y00252*
X02358Y00263*
X02372Y00272*
X02388Y00278*
X02404Y00282*
X02421Y00284*
X02438Y00282*
G37*
G36*
X00193D02*
X0021Y00278D01*
X00225Y00272*
X0024Y00263*
X00252Y00252*
X00263Y0024*
X00272Y00225*
X00278Y0021*
X00282Y00193*
X00284Y00177*
X00282Y0016*
X00278Y00144*
X00272Y00128*
X00263Y00114*
X00252Y00101*
X0024Y0009*
X00225Y00081*
X0021Y00075*
X00193Y00071*
X00177Y0007*
X0016Y00071*
X00144Y00075*
X00128Y00081*
X00114Y0009*
X00101Y00101*
X0009Y00114*
X00081Y00128*
X00075Y00144*
X00071Y0016*
X0007Y00177*
X00071Y00193*
X00075Y0021*
X00081Y00225*
X0009Y0024*
X00101Y00252*
X00114Y00263*
X00128Y00272*
X00144Y00278*
X0016Y00282*
X00177Y00284*
X00193Y00282*
G37*
%LNmoveh_messkette_einseitig_v2-4*%
%LPC*%
G36*
X01431Y00919D02*
X01343D01*
Y00831*
X01431*
Y00919*
G37*
G36*
X01333D02*
X01245D01*
Y00831*
X01333*
Y00919*
G37*
G36*
X01087Y00844D02*
X01071D01*
X01071Y0084*
X01076Y00833*
X01084Y00828*
X01087Y00828*
Y00844*
G37*
G36*
X01098Y00818D02*
Y00802D01*
X01114*
X01114Y00805*
X01109Y00812*
X01102Y00817*
X01098Y00818*
G37*
G36*
X01088D02*
X01084Y00817D01*
X01077Y00812*
X01072Y00805*
X01072Y00802*
X01088*
Y00818*
G37*
G36*
X01114Y00792D02*
X01098D01*
Y00776*
X01102Y00776*
X01109Y00781*
X01114Y00788*
X01114Y00792*
G37*
G36*
X01088D02*
X01072D01*
X01072Y00788*
X01077Y00781*
X01084Y00776*
X01088Y00776*
Y00792*
G37*
G36*
X0123Y00792D02*
X01202D01*
X01175*
Y00781*
X01179*
Y00753*
X01175*
Y00742*
X01202*
X0123*
Y00753*
X01226*
Y00765*
Y00781*
X0123*
Y00792*
G37*
G36*
X01095Y00763D02*
Y00741D01*
X01116*
Y00763*
X01095*
G37*
G36*
X01431Y00821D02*
X01343D01*
Y00733*
X01431*
Y00821*
G37*
G36*
X01333D02*
X01245D01*
Y00733*
X01333*
Y00821*
G37*
G36*
X01116Y00731D02*
X01095D01*
Y00708*
X01116*
Y00731*
G37*
G36*
X02421Y02372D02*
X02407Y02371D01*
X02394Y02367*
X02382Y0236*
X02372Y02352*
X02363Y02341*
X02357Y02329*
X02353Y02316*
X02352Y02303*
X02353Y02289*
X02357Y02276*
X02363Y02264*
X02372Y02254*
X02382Y02245*
X02394Y02239*
X02407Y02235*
X02421Y02233*
X02434Y02235*
X02447Y02239*
X02459Y02245*
X0247Y02254*
X02478Y02264*
X02485Y02276*
X02489Y02289*
X0249Y02303*
X02489Y02316*
X02485Y02329*
X02478Y02341*
X0247Y02352*
X02459Y0236*
X02447Y02367*
X02434Y02371*
X02421Y02372*
G37*
G36*
X00177D02*
X00163Y02371D01*
X0015Y02367*
X00138Y0236*
X00128Y02352*
X00119Y02341*
X00113Y02329*
X00109Y02316*
X00107Y02303*
X00109Y02289*
X00113Y02276*
X00119Y02264*
X00128Y02254*
X00138Y02245*
X0015Y02239*
X00163Y02235*
X00177Y02233*
X0019Y02235*
X00203Y02239*
X00215Y02245*
X00226Y02254*
X00234Y02264*
X00241Y02276*
X00245Y02289*
X00246Y02303*
X00245Y02316*
X00241Y02329*
X00234Y02341*
X00226Y02352*
X00215Y0236*
X00203Y02367*
X0019Y02371*
X00177Y02372*
G37*
G36*
X02421Y00246D02*
X02407Y00245D01*
X02394Y00241*
X02382Y00234*
X02372Y00226*
X02363Y00215*
X02357Y00203*
X02353Y0019*
X02352Y00177*
X02353Y00163*
X02357Y0015*
X02363Y00138*
X02372Y00128*
X02382Y00119*
X02394Y00113*
X02407Y00109*
X02421Y00107*
X02434Y00109*
X02447Y00113*
X02459Y00119*
X0247Y00128*
X02478Y00138*
X02485Y0015*
X02489Y00163*
X0249Y00177*
X02489Y0019*
X02485Y00203*
X02478Y00215*
X0247Y00226*
X02459Y00234*
X02447Y00241*
X02434Y00245*
X02421Y00246*
G37*
G36*
X00177D02*
X00163Y00245D01*
X0015Y00241*
X00138Y00234*
X00128Y00226*
X00119Y00215*
X00113Y00203*
X00109Y0019*
X00107Y00177*
X00109Y00163*
X00113Y0015*
X00119Y00138*
X00128Y00128*
X00138Y00119*
X0015Y00113*
X00163Y00109*
X00177Y00107*
X0019Y00109*
X00203Y00113*
X00215Y00119*
X00226Y00128*
X00234Y00138*
X00241Y0015*
X00245Y00163*
X00246Y00177*
X00245Y0019*
X00241Y00203*
X00234Y00215*
X00226Y00226*
X00215Y00234*
X00203Y00241*
X0019Y00245*
X00177Y00246*
G37*
%LNmoveh_messkette_einseitig_v2-5*%
%LPD*%
G54D10*
X00722Y00973D02*
X00722Y00973D01*
Y01047*
X00723Y01047*
X00812Y00978D02*
X00815Y00975D01*
X00767Y00978D02*
X00812D01*
X00752Y01006D02*
X00765Y00994D01*
Y0098D02*
Y00994D01*
Y0098D02*
X00767Y00978D01*
X00752Y01006D02*
Y01043D01*
X00749Y01047D02*
X00752Y01043D01*
X00722Y00973D02*
X00728Y00967D01*
X00702Y00913D02*
D01*
X0064Y00949D02*
X00664Y00973D01*
X00641Y01052D02*
Y01273D01*
X00614Y01024D02*
X00641Y01052D01*
Y01273D02*
X00645Y01277D01*
X00728D02*
X00763D01*
X00972Y02134D02*
Y02187D01*
X00865Y0122D02*
X0097D01*
X00697Y01221D02*
X007Y01225D01*
X00774Y0122D02*
X00865D01*
X00972Y0197D02*
Y02134D01*
X01938Y00445D02*
X01941Y00442D01*
Y00099D02*
Y00442D01*
X01938Y00662D02*
X01946Y00669D01*
Y00763*
X0194Y00765D02*
X01944Y00761D01*
X01802Y00765D02*
X0194D01*
X01078Y0095D02*
Y01225D01*
X01946Y00763D02*
Y00769D01*
X00703Y01277D02*
X00728D01*
X00749Y01183D02*
X00773Y01158D01*
X00749Y01183D02*
Y01221D01*
X00773Y01158D02*
X00886D01*
X00723Y01177D02*
X00773Y01126D01*
X00679Y01024D02*
X00693D01*
X00664Y0101D02*
X00679Y01024D01*
X00693D02*
X00697Y01028D01*
X00664Y00973D02*
Y0101D01*
X00983Y00836D02*
Y00945D01*
X00963Y00816D02*
X00983Y00836D01*
X0094Y00816D02*
X00963D01*
X00938Y00814D02*
X0094Y00816D01*
X00952Y00975D02*
X00983Y00945D01*
X00872Y00975D02*
X00952D01*
X0064Y0081D02*
Y00949D01*
X00587Y00756D02*
X0064Y0081D01*
X00587Y0069D02*
Y00756D01*
X00937Y00813D02*
X00938Y00814D01*
Y00691D02*
Y00814D01*
X00765Y00734D02*
X00769Y00738D01*
X00764Y00733D02*
X00765Y00734D01*
X00764Y00691D02*
Y00733D01*
X00222Y00558D02*
Y00651D01*
X00207Y00543D02*
X00222Y00558D01*
X01328Y01139D02*
X01357Y01168D01*
X01328Y00962D02*
Y01139D01*
X01309Y01168D02*
X01342Y01201D01*
X01309Y00962D02*
Y01168D01*
X00939Y01157D02*
X00985D01*
X00773Y01126D02*
X00905D01*
X00936Y01157*
X00939*
X00723Y01177D02*
Y01221D01*
X00645Y01277D02*
X00703D01*
X00774Y01221D02*
Y01266D01*
X00641Y01273D02*
Y01992D01*
X0097Y0122D02*
X00985Y01235D01*
Y01264*
X01011Y01291*
X007Y01274D02*
X00703Y01277D01*
X007Y01225D02*
Y01274D01*
X00763Y01277D02*
X00774Y01266D01*
X00385Y00637D02*
Y00708D01*
X00415Y0058D02*
Y00711D01*
X00305Y00424D02*
X00441D01*
X00442Y00423*
X00304Y00425D02*
X00305Y00424D01*
X00735Y00567D02*
Y00648D01*
X00735Y00648*
X00515Y0042D02*
X00519Y00416D01*
X00515Y00305D02*
Y0042D01*
X00525Y0048D02*
X00588D01*
X00753Y00438D02*
X00793D01*
X00735Y00457D02*
X00753Y00438D01*
X00735Y00457D02*
Y00469D01*
X00803Y00481D02*
X00846D01*
X00853Y00474*
Y00469D02*
Y00474D01*
X01946Y00763D02*
D01*
X01944Y00761D02*
X01946Y00763D01*
X00771Y0039D02*
X00782Y00401D01*
X00767D02*
X00782D01*
X00697Y00469D02*
X00697Y00469D01*
X00519Y0024D02*
X00645D01*
X00697Y0039D02*
X00771D01*
X00697Y0024D02*
Y0039D01*
Y00416*
X00697Y00416D02*
Y00469D01*
Y00416D02*
X00697Y00416D01*
X00765Y00567D02*
X00798Y00535D01*
X00735Y00567D02*
X00765D01*
X01407Y01016D02*
X01411Y0102D01*
X01407Y00962D02*
Y01016D01*
X01032Y02187D02*
Y02244D01*
X01271Y01232D02*
X01296Y01257D01*
X01143Y01061D02*
Y01119D01*
X01145Y01121*
X02044Y00663D02*
Y00667D01*
X02062Y00317D02*
X02127Y00383D01*
Y00632*
X02097Y00663D02*
X02127Y00632D01*
X02046Y00663D02*
X02097D01*
X0208Y00714D02*
X02153Y00641D01*
Y00357D02*
Y00641D01*
X02078Y00282D02*
X02153Y00357D01*
X01903Y00672D02*
Y00675D01*
Y00347D02*
Y00672D01*
X01905Y00671*
X01902Y00673D02*
X01903Y00672D01*
X01902Y00346D02*
X01903Y00347D01*
X01988Y00102D02*
Y00322D01*
X01985Y00099D02*
X01988Y00102D01*
X01846Y00478D02*
Y00712D01*
X01897Y00679D02*
X01902Y00673D01*
X01903Y00675D02*
X01903Y00675D01*
X01901Y00102D02*
Y00302D01*
X01898Y00099D02*
X01901Y00102D01*
X02044Y00663D02*
X02046D01*
X02005D02*
X02044D01*
X02025Y00102D02*
Y0048D01*
Y00102D02*
X02028Y00099D01*
X01812D02*
Y0028D01*
X01938Y00445D02*
Y00662D01*
X01265Y01877D02*
X01289Y01854D01*
X00873Y00401D02*
X00874Y004D01*
X00826Y00401D02*
X00873D01*
X00874Y004D02*
Y00404D01*
X0089Y0042*
Y00469*
X01016Y0044D02*
Y0051D01*
X02195Y01421D02*
X02195Y0142D01*
X02196Y0142*
X02146Y00901D02*
Y00975D01*
X02067Y00822D02*
X02146Y00901D01*
X02109Y00806D02*
X02169Y00866D01*
X02009Y0071D02*
X02082D01*
X00697Y0024D02*
X00698Y0024D01*
X02047Y00877D02*
Y00893D01*
X02027Y00857D02*
X02047Y00877D01*
X0177Y00857D02*
X02027D01*
X01757Y0087D02*
X0177Y00857D01*
X01477Y00223D02*
Y00251D01*
Y00223D02*
X01478Y00222D01*
X01394Y00358D02*
X01395Y00357D01*
X01384Y00289D02*
X01394Y00299D01*
X01477Y00251D02*
X01526Y003D01*
X01463Y00265D02*
X01477Y00251D01*
X01384Y00265D02*
X01463D01*
X01526Y003D02*
X0161D01*
X01384Y00265D02*
Y00289D01*
X01244Y00265D02*
X01384D01*
X01234Y00255D02*
X01244Y00265D01*
X00831Y00077D02*
Y00158D01*
X00808Y00181D02*
X00831Y00158D01*
X00978Y00078D02*
Y00175D01*
X0096Y00192D02*
X00978Y00175D01*
X01124Y00079D02*
Y00133D01*
X01188Y00079D02*
X0119Y00081D01*
Y00133*
X01044Y00042D02*
X01183D01*
X00933D02*
X01044D01*
X01043Y00043D02*
X01044Y00042D01*
X01043Y00043D02*
Y00078D01*
X00897Y00077D02*
X00933Y00042D01*
X00896Y00077D02*
X00897D01*
X00774Y00181D02*
X00808D01*
X00763Y00192D02*
X00774Y00181D01*
X00763Y00192D02*
Y00218D01*
X00749Y00232D02*
X00763Y00218D01*
X00748Y00232D02*
X00749D01*
X00995Y00185D02*
X01072D01*
X01124Y00133*
X00961Y00218D02*
X00995Y00185D01*
X00834Y00204D02*
X00846Y00192D01*
X00834Y00204D02*
Y00218D01*
X0082Y00232D02*
X00834Y00218D01*
X00819Y00232D02*
X0082D01*
X00846Y00192D02*
X0096D01*
X01183Y00042D02*
X01188Y00048D01*
Y00079*
X01234Y00178D02*
Y00255D01*
X01203Y00147D02*
X01234Y00178D01*
X01203Y00146D02*
Y00147D01*
X0119Y00133D02*
X01203Y00146D01*
X00697Y00469D02*
X00697D01*
X0066D02*
X00697D01*
X01551Y01047D02*
Y01258D01*
X01143Y00696D02*
Y00722D01*
X01147Y00726*
X01454Y00396D02*
X01466Y00385D01*
X01394Y00396D02*
X01454D01*
X00496Y01429D02*
X00543Y01476D01*
X00496Y01399D02*
Y01429D01*
X01411Y0102D02*
Y01024D01*
X01511Y00875D02*
X0152Y00885D01*
X01523*
X01535Y00897*
X01539*
X01769Y00804D02*
X01787Y00822D01*
X01704Y00804D02*
X01769D01*
X01685Y00824D02*
X01704Y00804D01*
X01685Y00824D02*
Y00889D01*
X01738Y00716D02*
X01844D01*
X01658Y00797D02*
X01738Y00716D01*
X01658Y00797D02*
Y01022D01*
X01769Y00777D02*
X01798Y00806D01*
X01715Y00777D02*
X01769D01*
X01715Y00831D02*
X01773D01*
X0178Y00838*
X01474Y00875D02*
X01511D01*
X01598Y00769D02*
Y01317D01*
X01582Y01332D02*
X01598Y01317D01*
X01597Y01367D02*
X01614Y0135D01*
X00535Y01417D02*
Y01421D01*
Y01417D02*
X00543Y01409D01*
X01582Y00779D02*
Y01282D01*
X01559Y01305D02*
X01582Y01282D01*
X01532Y01277D02*
X01551Y01258D01*
X00423Y01313D02*
X00491D01*
X00389Y01279D02*
X00423Y01313D01*
X01658Y01022D02*
X01662Y01026D01*
X01665Y01072D02*
X01691Y01046D01*
Y00995D02*
Y01046D01*
X01685Y00988D02*
X01691Y00995D01*
X01665Y01072D02*
Y01425D01*
X01146Y01058D02*
X01189D01*
X01143Y01061D02*
X01146Y01058D01*
X0144Y00592D02*
Y00626D01*
Y00592D02*
X01441Y0059D01*
X01407Y00615D02*
Y0069D01*
Y00615D02*
X01409Y00613D01*
X0117Y00856D02*
X01202D01*
X01156Y00842D02*
X0117Y00856D01*
X01099Y00842D02*
X01156D01*
X01202Y00797D02*
X01202Y00797D01*
X01092Y00849D02*
X01099Y00842D01*
X01093Y00893D02*
X0111D01*
X01118Y00901*
X01155*
X0212Y0142D02*
X02137D01*
X02097Y01397D02*
X0212Y0142D01*
X02097Y01348D02*
Y01397D01*
X02096Y01346D02*
X02097Y01348D01*
X01996Y01405D02*
X02003Y01413D01*
X01996Y01399D02*
Y01405D01*
Y01346D02*
Y01399D01*
X02198Y0096D02*
X02203D01*
X02198Y00901D02*
Y0096D01*
X02196Y00968D02*
X02203Y0096D01*
X02196Y00968D02*
Y00975D01*
X01849Y01447D02*
X01855D01*
X01826Y01425D02*
X01849Y01447D01*
X01855D02*
X01864Y01456D01*
Y0146*
X01944Y01348D02*
Y01431D01*
Y01348D02*
X01946Y01346D01*
X01923Y01452D02*
X01944Y01431D01*
X01923Y01452D02*
Y01456D01*
X01562Y0096D02*
Y01035D01*
X01551Y01047D02*
X01562Y01035D01*
X01498Y00896D02*
X01562Y0096D01*
X01161Y00895D02*
X01202D01*
X01155Y00901D02*
X01161Y00895D01*
X01062Y0065D02*
X01228D01*
X01035Y00677D02*
X01062Y0065D01*
X01228D02*
X01249Y0067D01*
Y00689*
X0125Y0069*
X01268Y00666D02*
Y00689D01*
X01236Y00633D02*
X01268Y00666D01*
X01024Y00633D02*
X01236D01*
X01003Y00654D02*
X01024Y00633D01*
X01268Y00689D02*
X01269Y0069D01*
X01517Y00777D02*
X01523Y00783D01*
X01507Y00777D02*
X01517D01*
X01474D02*
X01507D01*
X01474Y00757D02*
X0156D01*
X01582Y00779*
X01541Y00816D02*
X01555Y00803D01*
X01474Y00816D02*
X01541D01*
X01523Y01042D02*
Y01066D01*
X015Y01019D02*
X01523Y01042D01*
X01487Y01006D02*
X015Y01019D01*
X01487Y00935D02*
Y01006D01*
X01486Y00934D02*
X01487Y00935D01*
X01474Y00934D02*
X01486D01*
X01476Y01028D02*
Y01066D01*
X01446Y00999D02*
X01476Y01028D01*
X01446Y00962D02*
Y00999D01*
X01444Y01019D02*
Y01047D01*
X01427Y01001D02*
X01444Y01019D01*
X01427Y00962D02*
Y01001D01*
X01148Y00718D02*
X01202D01*
X01148D02*
Y00727D01*
X01093Y00666D02*
X01177D01*
X01051Y00708D02*
X01093Y00666D01*
X01051Y01452D02*
Y00708D01*
X01141Y00732D02*
X01147Y00726D01*
X01143Y00732D02*
X01148Y00727D01*
X01141Y00732D02*
X01143D01*
X01384Y01044D02*
X01407Y01066D01*
X01384Y01002D02*
Y01044D01*
Y01002D02*
X01387Y00999D01*
Y00962D02*
Y00999D01*
X01368Y01077D02*
X01392Y01102D01*
X01368Y00995D02*
Y01077D01*
Y00962D02*
Y00995D01*
X01348Y01104D02*
X01375Y01131D01*
X01348Y00995D02*
Y01104D01*
Y00962D02*
Y00995D01*
X01289Y01198D02*
X01318Y01228D01*
X01289Y00995D02*
Y01198D01*
Y00962D02*
Y00995D01*
X01318Y02248D02*
Y02251D01*
X01405Y02338*
Y02372*
X01414Y02381*
X02019Y015D02*
X02177D01*
X01972Y01452D02*
X02019Y015D01*
X02177D02*
X02198Y01521D01*
Y01846*
X00523Y02283D02*
X00582Y02224D01*
Y01114D02*
Y02224D01*
X00563Y01129D02*
Y02216D01*
X00547Y02232D02*
X00563Y02216D01*
X00451Y02232D02*
X00547D01*
X004Y02283D02*
X00451Y02232D01*
X005Y02283D02*
X00523D01*
X00669Y02275D02*
X00692D01*
X007Y02283*
X00622Y02228D02*
X00669Y02275D01*
X00622Y01094D02*
Y02228D01*
X00602Y01102D02*
Y02281D01*
X006Y02283D02*
X00602Y02281D01*
X01027Y02244D02*
Y02329D01*
X00974Y02383D02*
X01027Y02329D01*
X01096Y0236D02*
Y02381D01*
X0107Y02334D02*
X01096Y0236D01*
X0107Y02157D02*
Y02334D01*
X01194Y02248D02*
X01195Y02248D01*
Y02381*
X01196Y02381*
X00523Y00846D02*
Y01089D01*
X01414Y02381D02*
X01417Y02379D01*
X00523Y01089D02*
X00563Y01129D01*
X00614Y00815D02*
Y01024D01*
X00555Y00756D02*
X00614Y00815D01*
X00555Y00511D02*
Y00756D01*
X00543Y01131D02*
Y01409D01*
X00488Y01076D02*
X00543Y01131D01*
X00641Y01992D02*
X00649Y02D01*
X01011Y01291D02*
Y01923D01*
X0097Y01964D02*
X01011Y01923D01*
X00972Y02187D02*
X00972Y02187D01*
X00291Y01655D02*
X00323Y01623D01*
X00291Y01655D02*
Y01864D01*
X00326Y019*
X00275Y02048D02*
X00326Y021D01*
X00275Y01571D02*
Y02048D01*
Y01571D02*
X00323Y01523D01*
X01614Y00756D02*
Y0135D01*
X01446Y00696D02*
X01586D01*
X00543Y01476D02*
Y01677D01*
X00535Y01685D02*
X00543Y01677D01*
Y01074D02*
X00582Y01114D01*
X00223Y01323D02*
X00267Y01279D01*
X00389*
X01318Y01318D02*
Y01503D01*
X0125Y0125D02*
X01318Y01318D01*
X01019Y01259D02*
X01029Y01269D01*
X01018Y01255D02*
X01019Y01259D01*
X01051Y01452D02*
Y01452D01*
X01271Y01228D02*
Y01232D01*
X01193Y02249D02*
X01194Y02248D01*
X01196Y02381D02*
X01197Y0238D01*
X01051Y01452D02*
Y02137D01*
X0107Y02157*
X01029Y01269D02*
Y02184D01*
X01032Y02187*
X0125Y00962D02*
Y0125D01*
X00858Y01968D02*
X00911D01*
X00858Y02023D02*
X00911D01*
X00858Y02078D02*
X00911D01*
X00858Y02134D02*
X0091D01*
X00902Y02131D02*
X00904Y02133D01*
X00385Y00708D02*
X00523Y00846D01*
X00499Y00618D02*
Y00734D01*
X0059Y00825*
X00543Y00838D02*
Y01074D01*
X00415Y00711D02*
X00543Y00838D01*
X00566Y01066D02*
X00602Y01102D01*
X00566Y0083D02*
Y01066D01*
X0059Y01062D02*
X00622Y01094D01*
X0059Y00825D02*
Y01062D01*
X00452Y00716D02*
X00566Y0083D01*
X00452Y00595D02*
Y00716D01*
X00214Y01514D02*
X00223Y01523D01*
X00216Y0143D02*
X00223Y01423D01*
X0022Y01621D02*
X00223Y01623D01*
X00211Y01123D02*
X00223D01*
X00216Y0133D02*
X00223Y01323D01*
X01519Y00941D02*
Y00996D01*
X01494Y00916D02*
X01519Y00941D01*
X01633Y00744D02*
Y01395D01*
X01586Y00696D02*
X01633Y00744D01*
X02198Y01865D02*
Y01877D01*
X01446Y0069D02*
Y00696D01*
X01566Y00737D02*
X01598Y00769D01*
X01474Y00737D02*
X01566D01*
X01576Y00718D02*
X01614Y00756D01*
X01474Y00718D02*
X01576D01*
X01269Y00962D02*
X01271Y01228D01*
X01092Y00937D02*
X01122D01*
X01078Y0095D02*
X01092Y00937D01*
X00865Y0122D02*
X00866Y0122D01*
X00907Y02082D02*
X00911Y02078D01*
X01427Y00639D02*
X0144Y00626D01*
X01427Y00639D02*
Y0069D01*
X01377Y00641D02*
Y00644D01*
X01407Y0069D02*
X01408Y00689D01*
X01289Y00648D02*
Y0069D01*
X01177Y00666D02*
X01189Y00678D01*
X01229*
X0123Y00678*
Y0069*
X01377Y00644D02*
X01387Y00654D01*
Y0069*
X01122Y00937D02*
X01124Y00934D01*
X01202*
X01942Y01275D02*
X01999D01*
X0194D02*
X01942D01*
X01999D02*
X02046Y01321D01*
Y01346*
X02045Y01437D02*
Y01455D01*
X02047Y01456*
X01475Y00896D02*
X01498D01*
X01474Y00895D02*
X01475Y00896D01*
Y00916D02*
X01494D01*
X01474Y00915D02*
X01475Y00916D01*
X0178Y00838D02*
X02042D01*
X02097Y00893*
X01787Y00822D02*
X02067D01*
X01798Y00806D02*
X02109D01*
X01141Y00874D02*
X01142Y00874D01*
X01201*
X01202Y00875*
X0153Y00857D02*
X01531Y00858D01*
X01475Y00857D02*
X0153D01*
X01474Y00856D02*
X01475Y00857D01*
X01996Y00892D02*
Y00975D01*
X02046Y00901D02*
Y00975D01*
X02196Y01346D02*
Y0142D01*
X02046Y01346D02*
Y01436D01*
X02045Y01437D02*
X02046Y01436D01*
X01996Y00975D02*
Y01055D01*
Y00892D02*
X01998Y00889D01*
X02096Y00901D02*
Y00975D01*
X01897Y00679D02*
Y00712D01*
X01889Y00708D02*
X01893Y00712D01*
X02046Y00663D02*
D01*
X02005Y00714D02*
X02009Y0071D01*
X00645Y0024D02*
X00698D01*
X00518Y00241D02*
X00519Y0024D01*
X01394Y00299D02*
Y00357D01*
X0066Y00567D02*
Y00646D01*
X00662Y00648*
X00853Y00567D02*
Y00642D01*
X00851Y00644D02*
X00853Y00642D01*
X00458Y0024D02*
X00459Y00241D01*
X00381Y0024D02*
X00458D01*
X01015Y0044D02*
X01016Y0044D01*
X01096Y00216D02*
Y00283D01*
X01158Y00416D02*
X01221D01*
X01492Y00417D02*
X01512Y00396D01*
X01395Y00417D02*
X01492D01*
X01394Y00416D02*
X01395Y00417D01*
X00748Y00293D02*
Y00345D01*
X0089Y00293D02*
Y00345D01*
X00819Y00293D02*
Y00345D01*
X01401Y00485D02*
Y00521D01*
X01391Y00475D02*
X01401Y00485D01*
X01245Y00475D02*
X01391D01*
X01233Y00463D02*
X01245Y00475D01*
X01233Y00437D02*
Y00463D01*
X01232Y00436D02*
X01233Y00437D01*
X01221Y00436D02*
X01232D01*
X01015Y00357D02*
D01*
Y0044D01*
X01096Y00283D02*
X01142D01*
X01158Y00299*
Y00345*
X01188Y00376*
X0122*
X01221Y00377*
X01147Y00358D02*
X01185Y00395D01*
X01097Y00358D02*
X01147D01*
X01185Y00395D02*
X0122D01*
X01096Y00357D02*
X01097Y00358D01*
X0122Y00395D02*
X01221Y00396D01*
X00904Y00218D02*
X00961D01*
X0089Y00232D02*
X00904Y00218D01*
X00747Y00232D02*
X00748D01*
X01394Y00357D02*
X01395D01*
X01394Y00358D02*
Y00377D01*
G54D12*
X00753Y00941D02*
X0077D01*
X00728Y00967D02*
X00753Y00941D01*
X0077D02*
X0078Y00932D01*
Y00913D02*
Y00932D01*
X00702Y00913D02*
X00765D01*
X00781Y0076D02*
Y00799D01*
X00765Y00734D02*
Y00744D01*
X00813Y00745D02*
Y00799D01*
Y00745D02*
X00823Y00735D01*
X00865Y00813D02*
X00937D01*
X00765Y00744D02*
X00781Y0076D01*
G54D53*
X00517Y00476D03*
Y00417D03*
X00939Y01157D03*
Y01216D03*
X00841Y01157D03*
Y01216D03*
X01897Y00712D03*
Y00771D03*
X01846D03*
Y00712D03*
G54D54*
X00851Y00644D03*
X00906D03*
X012Y01121D03*
X01145D03*
X02047Y0146D03*
X02102D03*
X01943Y00889D03*
X01998D03*
X01145Y00736D03*
X0109D03*
X00714Y00738D03*
X00769D03*
X00878Y00735D03*
X00823D03*
X01027Y02244D03*
X00972D03*
X01948Y00765D03*
X02003D03*
X00606Y00647D03*
X00661D03*
X0079Y00648D03*
X00735D03*
G54D55*
X00697Y01221D03*
X00723D03*
X00749D03*
X00774D03*
Y01047D03*
X00749D03*
X00723D03*
X00697D03*
G54D56*
X00663Y00973D03*
X00722D03*
X00875Y00975D03*
X00815D03*
X00832Y00393D03*
X00773D03*
X00881Y00395D03*
X0094D03*
X01864Y0146D03*
X01923D03*
X0091Y02134D03*
X00969D03*
X00911Y02078D03*
X0097D03*
X00911Y01968D03*
X0097D03*
Y02023D03*
X00911D03*
X01194Y02248D03*
X01135D03*
X01143Y01061D03*
X01084D03*
X00972Y02187D03*
X01032D03*
X01946Y00663D03*
X02005D03*
Y00714D03*
X01946D03*
X00518Y00241D03*
X00459D03*
X01259Y02248D03*
X01318D03*
G54D57*
X01732Y01846D03*
G54D58*
X02198Y01846D03*
X01265D03*
G54D59*
X02196Y00975D03*
X02146D03*
X02096D03*
X02046D03*
X01996D03*
X01946D03*
X01896D03*
X01846D03*
X01796D03*
X01746D03*
Y01346D03*
X01796D03*
X01846D03*
X01896D03*
X01946D03*
X01996D03*
X02046D03*
X02096D03*
X02146D03*
X02196D03*
G54D60*
X01122Y00937D03*
Y00992D03*
X00938Y00814D03*
Y0087D03*
X00599Y00298D03*
Y00243D03*
X00388Y00369D03*
Y00424D03*
G54D61*
X01338Y00826D03*
G54D62*
X01202Y00718D03*
Y00737D03*
Y00757D03*
Y00777D03*
Y00797D03*
Y00816D03*
Y00836D03*
Y00856D03*
Y00875D03*
Y00895D03*
Y00915D03*
Y00934D03*
X01474D03*
Y00915D03*
Y00895D03*
Y00875D03*
Y00856D03*
Y00836D03*
Y00816D03*
Y00797D03*
Y00777D03*
Y00757D03*
Y00737D03*
Y00718D03*
G54D63*
X0123Y00962D03*
X0125D03*
X01269D03*
X01289D03*
X01309D03*
X01328D03*
X01348D03*
X01368D03*
X01387D03*
X01407D03*
X01427D03*
X01446D03*
Y0069D03*
X01427D03*
X01407D03*
X01387D03*
X01368D03*
X01348D03*
X01328D03*
X01309D03*
X01289D03*
X01269D03*
X0125D03*
X0123D03*
G54D64*
X00743Y00891D03*
Y00876D03*
Y0086D03*
Y00844D03*
Y00828D03*
Y00813D03*
X00865D03*
Y00828D03*
Y00844D03*
Y0086D03*
Y00876D03*
Y00891D03*
G54D65*
X00765Y00791D03*
X0078D03*
X00796D03*
X00812D03*
X00828D03*
X00843D03*
Y00913D03*
X00828D03*
X00812D03*
X00796D03*
X0078D03*
X00765D03*
G54D66*
X02071Y00093D03*
X02027D03*
X01984D03*
X01941D03*
X01898D03*
X01854D03*
X01811D03*
X01768D03*
G54D67*
X02242Y00118D03*
G54D68*
X01675Y00112D03*
X02242Y00564D03*
G54D69*
X01691Y00196D03*
G54D70*
X01693Y00551D03*
G54D71*
X01766Y00595D03*
X02072D03*
G54D72*
X00853Y00469D03*
X0089D03*
X00928D03*
Y00567D03*
X00853D03*
G54D73*
X00735Y00567D03*
X00697D03*
X0066D03*
Y00469D03*
X00697D03*
X00735D03*
G54D74*
X01015Y0044D03*
X01096D03*
Y00357D03*
X01015D03*
X01401Y00521D03*
X01482D03*
G54D75*
X01096Y00283D03*
X01031D03*
X01395Y00298D03*
X0133D03*
X00896Y00077D03*
X00831D03*
X01043Y00078D03*
X00978D03*
X01188Y00079D03*
X01124D03*
G54D76*
X0089Y00232D03*
Y00293D03*
X00819Y00232D03*
Y00293D03*
X00748Y00232D03*
Y00293D03*
G54D77*
X01394Y00357D03*
Y00377D03*
Y00396D03*
Y00416D03*
Y00436D03*
X01221D03*
Y00416D03*
Y00396D03*
Y00377D03*
Y00357D03*
G54D78*
X01478Y00222D03*
X01452D03*
X01427D03*
X01401D03*
X01375D03*
G54D79*
X01297Y00209D03*
X01557D03*
G54D80*
X01265Y00117D03*
X01588D03*
G54D81*
X01393Y00117D03*
X0146D03*
G54D82*
X00304Y00543D03*
Y00425D03*
X02131Y02385D03*
X02404Y00471D03*
X02483D03*
X01196Y02381D03*
X007Y02283D03*
X006Y02383D03*
Y02283D03*
X005Y02383D03*
Y02283D03*
X004Y02383D03*
Y02283D03*
X00874Y02383D03*
X01414Y02381D03*
X00483Y00098D03*
X00383D03*
X00323Y01023D03*
X00223D03*
X00323Y01123D03*
X00223D03*
X00323Y01223D03*
X00223D03*
X00323Y01323D03*
X00223D03*
X00323Y01423D03*
X00223D03*
X00323Y01523D03*
X00223D03*
X00323Y01623D03*
X00326Y02D03*
Y021D03*
G54D83*
X00204Y00543D03*
Y00425D03*
X02231Y02385D03*
X01096Y02381D03*
X007Y02383D03*
X00974D03*
X01314Y02381D03*
X00583Y00098D03*
G54D84*
X0161Y004D03*
Y003D03*
G54D85*
X00223Y01623D03*
X00326Y019D03*
G54D86*
X00767Y00978D03*
X00702Y00913D03*
X01093Y00797D03*
X01306Y00517D03*
X00609Y00371D03*
X00641Y00744D03*
X0145Y01189D03*
X01999Y02381D03*
X02476Y02019D03*
X01577Y02375D03*
X00176Y02085D03*
X01522Y00606D03*
X00744Y00096D03*
X00133Y00736D03*
X00999Y00764D03*
X00943Y01046D03*
X02176Y00745D03*
X00587Y0069D03*
X00938Y00691D03*
X00764D03*
X00222Y00651D03*
X01079Y01225D03*
X01357Y01168D03*
X01342Y01201D03*
X00985Y01157D03*
X00886Y01158D03*
X00985Y01235D03*
X00385Y00637D03*
X00442Y00423D03*
X00515Y00305D03*
X00588Y0048D03*
X00793Y00438D03*
X00803Y00481D03*
X01902Y00346D03*
X01988Y00322D03*
X01901Y00302D03*
X02025Y0048D03*
X01812Y0028D03*
X01846Y00478D03*
X02062Y00317D03*
X02078Y00282D03*
X01938Y00442D03*
X01015Y0051D03*
X02195Y0142D03*
X02146Y00901D03*
X02169Y00866D03*
X02082Y0071D03*
X00798Y00535D03*
X01143Y00696D03*
X01466Y00385D03*
X01521Y00786D03*
X02199Y00901D03*
X01715Y00777D03*
X01757Y0087D03*
X01539Y00897D03*
X01411Y01024D03*
X00496Y01399D03*
X00535Y01421D03*
X00491Y01313D03*
X01552D03*
X01532Y01277D03*
X01662Y01026D03*
X01665Y01425D03*
X01093Y00893D03*
X01092Y00849D03*
X01407Y01066D03*
X01476Y01066D03*
X01606Y00603D03*
X02137Y0142D03*
X02003Y01413D03*
X01826Y01425D03*
X01035Y00678D03*
X01003Y00654D03*
X01555Y00803D03*
X01523Y01066D03*
X01444Y01047D03*
X01392Y01102D03*
X01374Y01133D03*
X01318Y01228D03*
X00649Y02D03*
X00535Y01685D03*
X00488Y01076D03*
X01318Y01503D03*
X01018Y01255D03*
X01298D03*
X00858Y01968D03*
Y02023D03*
Y02078D03*
Y02134D03*
X01519Y00996D03*
X01189Y01058D03*
X01633Y0139D03*
X01597Y01367D03*
X01972Y01452D03*
X01574Y0134D03*
X01685Y00988D03*
X00555Y00511D03*
X01441Y0059D03*
X01409Y00613D03*
X01377Y00641D03*
X00452Y00595D03*
X00492Y00614D03*
X00417Y00574D03*
X01287Y0064D03*
X01715Y00831D03*
X01942Y01275D03*
X01685Y00889D03*
X01802Y00765D03*
X01531Y00858D03*
X01141Y00874D03*
X02046Y00901D03*
X01996Y01055D03*
X02096Y00901D03*
X01905Y00671D03*
X02046Y00663D03*
X00698Y0024D03*
X00381D03*
X01096Y00216D03*
X01158Y00416D03*
X01512Y00396D03*
X00748Y00345D03*
X0089D03*
X00819D03*
X01607Y00507D03*
G54D87*
X00177Y00177D03*
Y02303D03*
X02421D03*
Y00177D03*
M02*