%FSTAX23Y23*%
%MOIN*%
%SFA1B1*%

%IPPOS*%
%ADD47C,0.067060*%
%ADD48R,0.067060X0.067060*%
%ADD49C,0.068000*%
%ADD50R,0.067060X0.067060*%
%ADD51C,0.031620*%
%ADD52C,0.133980*%
%ADD89R,0.063120X0.067060*%
%LNmoveh_messkette_einseitig_v2-1*%
%LPD*%
G54D47*
X00304Y00543D03*
Y00425D03*
X02131Y02385D03*
X02404Y00471D03*
X02483D03*
X01196Y02381D03*
X007Y02283D03*
X006Y02383D03*
Y02283D03*
X005Y02383D03*
Y02283D03*
X004Y02383D03*
Y02283D03*
X00874Y02383D03*
X01414Y02381D03*
X00483Y00098D03*
X00383D03*
X00323Y01023D03*
X00223D03*
X00323Y01123D03*
X00223D03*
X00323Y01223D03*
X00223D03*
X00323Y01323D03*
X00223D03*
X00323Y01423D03*
X00223D03*
X00323Y01523D03*
X00223D03*
X00323Y01623D03*
X00326Y02D03*
Y021D03*
G54D48*
X00204Y00543D03*
Y00425D03*
X02231Y02385D03*
X01096Y02381D03*
X007Y02383D03*
X00974D03*
X01314Y02381D03*
X00583Y00098D03*
G54D49*
X0161Y004D03*
Y003D03*
G54D50*
X00223Y01623D03*
X00326Y019D03*
G54D51*
X00767Y00978D03*
X00702Y00913D03*
X01093Y00797D03*
X01306Y00517D03*
X00609Y00371D03*
X00641Y00744D03*
X0145Y01189D03*
X01999Y02381D03*
X02476Y02019D03*
X01577Y02375D03*
X00176Y02085D03*
X01522Y00606D03*
X00744Y00096D03*
X00133Y00736D03*
X00999Y00764D03*
X00943Y01046D03*
X02176Y00745D03*
X00587Y0069D03*
X00938Y00691D03*
X00764D03*
X00222Y00651D03*
X01079Y01225D03*
X01357Y01168D03*
X01342Y01201D03*
X00985Y01157D03*
X00886Y01158D03*
X00985Y01235D03*
X00385Y00637D03*
X00442Y00423D03*
X00515Y00305D03*
X00588Y0048D03*
X00793Y00438D03*
X00803Y00481D03*
X01902Y00346D03*
X01988Y00322D03*
X01901Y00302D03*
X02025Y0048D03*
X01812Y0028D03*
X01846Y00478D03*
X02062Y00317D03*
X02078Y00282D03*
X01938Y00442D03*
X01015Y0051D03*
X02195Y0142D03*
X02146Y00901D03*
X02169Y00866D03*
X02082Y0071D03*
X00798Y00535D03*
X01143Y00696D03*
X01466Y00385D03*
X01521Y00786D03*
X02199Y00901D03*
X01715Y00777D03*
X01757Y0087D03*
X01539Y00897D03*
X01411Y01024D03*
X00496Y01399D03*
X00535Y01421D03*
X00491Y01313D03*
X01552D03*
X01532Y01277D03*
X01662Y01026D03*
X01665Y01425D03*
X01093Y00893D03*
X01092Y00849D03*
X01407Y01066D03*
X01476Y01066D03*
X01606Y00603D03*
X02137Y0142D03*
X02003Y01413D03*
X01826Y01425D03*
X01035Y00678D03*
X01003Y00654D03*
X01555Y00803D03*
X01523Y01066D03*
X01444Y01047D03*
X01392Y01102D03*
X01374Y01133D03*
X01318Y01228D03*
X00649Y02D03*
X00535Y01685D03*
X00488Y01076D03*
X01318Y01503D03*
X01018Y01255D03*
X01298D03*
X00858Y01968D03*
Y02023D03*
Y02078D03*
Y02134D03*
X01519Y00996D03*
X01189Y01058D03*
X01633Y0139D03*
X01597Y01367D03*
X01972Y01452D03*
X01574Y0134D03*
X01685Y00988D03*
X00555Y00511D03*
X01441Y0059D03*
X01409Y00613D03*
X01377Y00641D03*
X00452Y00595D03*
X00492Y00614D03*
X00417Y00574D03*
X01287Y0064D03*
X01715Y00831D03*
X01942Y01275D03*
X01685Y00889D03*
X01802Y00765D03*
X01531Y00858D03*
X01141Y00874D03*
X02046Y00901D03*
X01996Y01055D03*
X02096Y00901D03*
X01905Y00671D03*
X02046Y00663D03*
X00698Y0024D03*
X00381D03*
X01096Y00216D03*
X01158Y00416D03*
X01512Y00396D03*
X00748Y00345D03*
X0089D03*
X00819D03*
X01607Y00507D03*
G54D52*
X00177Y00177D03*
Y02303D03*
X02421D03*
Y00177D03*
G54D89*
X01221Y00512D03*
X01142D03*
M02*