%FSTAX23Y23*%
%MOIN*%
%SFA1B1*%

%IPPOS*%
%ADD10C,0.010000*%
%ADD82C,0.059060*%
%ADD83R,0.059060X0.059060*%
%ADD84C,0.060000*%
%ADD85R,0.059060X0.059060*%
%ADD86C,0.023620*%
%ADD87C,0.125980*%
%ADD88R,0.055120X0.059060*%
%LNmoveh_messkette_einseitig_v2-1*%
%LPD*%
G36*
X02587Y01822D02*
X02362D01*
X02357Y01821*
X02354Y01818*
X02351Y01815*
X02351Y01811*
Y0059*
X02351Y00586*
X02354Y00582*
X02357Y0058*
X02362Y00579*
X02587*
Y00011*
X00011*
Y02469*
X02587*
Y01822*
G37*
%LNmoveh_messkette_einseitig_v2-2*%
%LPC*%
G36*
X00879Y02422D02*
Y02388D01*
X00913*
X00912Y02393*
X00908Y02403*
X00902Y02411*
X00893Y02417*
X00884Y02421*
X00879Y02422*
G37*
G36*
X00739Y02422D02*
X00705D01*
Y02388*
X00739*
Y02422*
G37*
G36*
X00505Y02422D02*
Y02388D01*
X00539*
X00538Y02393*
X00534Y02403*
X00528Y02411*
X00519Y02417*
X0051Y02421*
X00505Y02422*
G37*
G36*
X00405D02*
Y02388D01*
X00439*
X00438Y02393*
X00434Y02403*
X00428Y02411*
X00419Y02417*
X0041Y02421*
X00405Y02422*
G37*
G36*
X00605D02*
Y02388D01*
X00639*
X00638Y02393*
X00634Y02403*
X00628Y02411*
X00619Y02417*
X0061Y02421*
X00605Y02422*
G37*
G36*
X00395D02*
X00389Y02421D01*
X0038Y02417*
X00371Y02411*
X00365Y02403*
X00361Y02393*
X0036Y02388*
X00395*
Y02422*
G37*
G36*
X00595D02*
X00589Y02421D01*
X0058Y02417*
X00571Y02411*
X00565Y02403*
X00561Y02393*
X0056Y02388*
X00595*
Y02422*
G37*
G36*
X00495D02*
X00489Y02421D01*
X0048Y02417*
X00471Y02411*
X00465Y02403*
X00461Y02393*
X0046Y02388*
X00495*
Y02422*
G37*
G36*
X00869D02*
X00863Y02421D01*
X00854Y02417*
X00845Y02411*
X00839Y02403*
X00835Y02393*
X00834Y02388*
X00869*
Y02422*
G37*
G36*
X00695Y02422D02*
X0066D01*
Y02388*
X00695*
Y02422*
G37*
G36*
X02004Y02402D02*
Y02386D01*
X0202*
X02019Y02389*
X02014Y02396*
X02007Y02401*
X02004Y02402*
G37*
G36*
X01994D02*
X0199Y02401D01*
X01983Y02396*
X01978Y02389*
X01977Y02386*
X01994*
Y02402*
G37*
G36*
X01582Y02396D02*
Y0238D01*
X01599*
X01598Y02383*
X01593Y0239*
X01586Y02395*
X01582Y02396*
G37*
G36*
X01572D02*
X01569Y02395D01*
X01562Y0239*
X01557Y02383*
X01556Y0238*
X01572*
Y02396*
G37*
G36*
X0202Y02376D02*
X02004D01*
Y02359*
X02007Y0236*
X02014Y02365*
X02019Y02372*
X0202Y02376*
G37*
G36*
X01994D02*
X01977D01*
X01978Y02372*
X01983Y02365*
X0199Y0236*
X01994Y02359*
Y02376*
G37*
G36*
X01599Y0237D02*
X01582D01*
Y02353*
X01586Y02354*
X01593Y02359*
X01598Y02366*
X01599Y0237*
G37*
G36*
X01572D02*
X01556D01*
X01557Y02366*
X01562Y02359*
X01569Y02354*
X01572Y02353*
Y0237*
G37*
G36*
X01009Y02418D02*
X00938D01*
Y02348*
X01009*
Y02418*
G37*
G36*
X01131Y02417D02*
X0106D01*
Y02346*
X01131*
Y02417*
G37*
G36*
X01414Y02417D02*
X01405Y02416D01*
X01397Y02412*
X01389Y02407*
X01384Y02399*
X0138Y02391*
X01379Y02381*
X0138Y02372*
X01384Y02364*
X01389Y02356*
X01397Y0235*
X01405Y02347*
X01414Y02346*
X01424Y02347*
X01432Y0235*
X0144Y02356*
X01445Y02364*
X01449Y02372*
X0145Y02381*
X01449Y02391*
X01445Y02399*
X0144Y02407*
X01432Y02412*
X01424Y02416*
X01414Y02417*
G37*
G36*
X01196D02*
X01187Y02416D01*
X01178Y02412*
X01171Y02407*
X01165Y02399*
X01161Y02391*
X0116Y02381*
X01161Y02372*
X01165Y02364*
X01171Y02356*
X01178Y0235*
X01187Y02347*
X01196Y02346*
X01205Y02347*
X01214Y0235*
X01221Y02356*
X01227Y02364*
X0123Y02372*
X01232Y02381*
X0123Y02391*
X01227Y02399*
X01221Y02407*
X01214Y02412*
X01205Y02416*
X01196Y02417*
G37*
G36*
X00595Y02378D02*
X0056D01*
X00561Y02373*
X00565Y02363*
X00571Y02355*
X0058Y02348*
X00589Y02344*
X00595Y02344*
Y02378*
G37*
G36*
X00495D02*
X0046D01*
X00461Y02373*
X00465Y02363*
X00471Y02355*
X0048Y02348*
X00489Y02344*
X00495Y02344*
Y02378*
G37*
G36*
X00395D02*
X0036D01*
X00361Y02373*
X00365Y02363*
X00371Y02355*
X0038Y02348*
X00389Y02344*
X00395Y02344*
Y02378*
G37*
G36*
X00913D02*
X00879D01*
Y02344*
X00884Y02344*
X00893Y02348*
X00902Y02355*
X00908Y02363*
X00912Y02373*
X00913Y02378*
G37*
G36*
X00869D02*
X00834D01*
X00835Y02373*
X00839Y02363*
X00845Y02355*
X00854Y02348*
X00863Y02344*
X00869Y02344*
Y02378*
G37*
G36*
X00639D02*
X00605D01*
Y02344*
X0061Y02344*
X00619Y02348*
X00628Y02355*
X00634Y02363*
X00638Y02373*
X00639Y02378*
G37*
G36*
X00539D02*
X00505D01*
Y02344*
X0051Y02344*
X00519Y02348*
X00528Y02355*
X00534Y02363*
X00538Y02373*
X00539Y02378*
G37*
G36*
X00439D02*
X00405D01*
Y02344*
X0041Y02344*
X00419Y02348*
X00428Y02355*
X00434Y02363*
X00438Y02373*
X00439Y02378*
G37*
G36*
X00739D02*
X00705D01*
Y02343*
X00739*
Y02378*
G37*
G36*
X00695D02*
X0066D01*
Y02343*
X00695*
Y02378*
G37*
G36*
X007Y02319D02*
X0069Y02317D01*
X00682Y02314*
X00674Y02308*
X00669Y02301*
X00665Y02292*
X00664Y02283*
X00665Y02274*
X00669Y02265*
X00674Y02258*
X00682Y02252*
X0069Y02248*
X00694Y02248*
X00694Y02243*
X00655*
X00631Y02267*
X00634Y02274*
X00635Y02283*
X00634Y02292*
X0063Y02301*
X00625Y02308*
X00617Y02314*
X00609Y02317*
X006Y02319*
X0059Y02317*
X00582Y02314*
X00574Y02308*
X00569Y02301*
X00565Y02292*
X00564Y02283*
X00565Y02274*
X00569Y02265*
X00574Y02258*
X00582Y02252*
X0059Y02248*
X006Y02247*
X00609Y02248*
X00616Y02251*
X00639Y02228*
X00636Y02223*
X00575*
X00531Y02267*
X00534Y02274*
X00535Y02283*
X00534Y02292*
X0053Y02301*
X00525Y02308*
X00517Y02314*
X00509Y02317*
X005Y02319*
X0049Y02317*
X00482Y02314*
X00474Y02308*
X00469Y02301*
X00465Y02292*
X00464Y02283*
X00465Y02274*
X00469Y02265*
X00474Y02258*
X00482Y02252*
X0049Y02248*
X005Y02247*
X00509Y02248*
X00516Y02251*
X00562Y02205*
X00562Y02203*
X0056Y022*
X00499*
X00431Y02267*
X00434Y02274*
X00435Y02283*
X00434Y02292*
X0043Y02301*
X00425Y02308*
X00417Y02314*
X00409Y02317*
X004Y02319*
X0039Y02317*
X00382Y02314*
X00374Y02308*
X00369Y02301*
X00365Y02292*
X00364Y02283*
X00365Y02274*
X00369Y02265*
X00374Y02258*
X00382Y02252*
X0039Y02248*
X004Y02247*
X00409Y02248*
X00416Y02251*
X00486Y02181*
X0049Y02178*
X00494Y02177*
X00723*
X00768Y02133*
Y02047*
Y02047*
X00769Y02042*
X00771Y02039*
X0084Y0197*
X0084Y01968*
X00841Y01961*
X00845Y01955*
X00851Y01951*
X00858Y0195*
X00865Y01951*
X00871Y01955*
X00874Y01961*
X00876Y01968*
X00874Y01975*
X00871Y01981*
X00865Y01985*
X00858Y01986*
X00856Y01986*
X0079Y02051*
Y02068*
X00794Y0207*
X00795Y0207*
X0084Y02025*
X0084Y02023*
X00841Y02016*
X00845Y0201*
X00851Y02006*
X00858Y02005*
X00865Y02006*
X00871Y0201*
X00874Y02016*
X00876Y02023*
X00874Y0203*
X00871Y02036*
X00865Y0204*
X00858Y02041*
X00856Y02041*
X00814Y02083*
Y02099*
X00819Y02102*
X0084Y0208*
X0084Y02078*
X00841Y02071*
X00845Y02065*
X00851Y02062*
X00858Y0206*
X00865Y02062*
X00871Y02065*
X00874Y02071*
X00876Y02078*
X00874Y02085*
X00871Y02091*
X00865Y02095*
X00858Y02096*
X00856Y02096*
X00833Y02118*
Y02173*
X00833Y02175*
X00838Y02177*
X00847Y02168*
Y02148*
X00845Y02147*
X00841Y02141*
X0084Y02134*
X00841Y02127*
X00845Y02122*
X00851Y02118*
X00858Y02116*
X00865Y02118*
X00871Y02122*
X00874Y02127*
X00876Y02134*
X00874Y02141*
X00871Y02147*
X00869Y02148*
Y02173*
X00868Y02177*
X00866Y02181*
X00755Y02291*
X00752Y02293*
X00748Y02294*
X00733*
X0073Y02301*
X00725Y02308*
X00717Y02314*
X00709Y02317*
X007Y02319*
G37*
G36*
X02421Y02432D02*
X02401Y0243D01*
X02381Y02426*
X02362Y02418*
X02345Y02407*
X02329Y02394*
X02316Y02379*
X02305Y02361*
X02298Y02343*
X02293Y02323*
X02291Y02303*
X02293Y02282*
X02298Y02263*
X02305Y02244*
X02316Y02227*
X02329Y02211*
X02345Y02198*
X02362Y02187*
X02381Y0218*
X02401Y02175*
X02421Y02173*
X02441Y02175*
X02461Y0218*
X0248Y02187*
X02497Y02198*
X02512Y02211*
X02525Y02227*
X02536Y02244*
X02544Y02263*
X02549Y02282*
X0255Y02303*
X02549Y02323*
X02544Y02343*
X02536Y02361*
X02525Y02379*
X02512Y02394*
X02497Y02407*
X0248Y02418*
X02461Y02426*
X02441Y0243*
X02421Y02432*
G37*
G36*
X00177D02*
X00156Y0243D01*
X00137Y02426*
X00118Y02418*
X00101Y02407*
X00085Y02394*
X00072Y02379*
X00061Y02361*
X00054Y02343*
X00049Y02323*
X00047Y02303*
X00049Y02282*
X00054Y02263*
X00061Y02244*
X00072Y02227*
X00085Y02211*
X00101Y02198*
X00118Y02187*
X00137Y0218*
X00156Y02175*
X00177Y02173*
X00197Y02175*
X00217Y0218*
X00235Y02187*
X00253Y02198*
X00268Y02211*
X00281Y02227*
X00292Y02244*
X003Y02263*
X00304Y02282*
X00306Y02303*
X00304Y02323*
X003Y02343*
X00292Y02361*
X00281Y02379*
X00268Y02394*
X00253Y02407*
X00235Y02418*
X00217Y02426*
X00197Y0243*
X00177Y02432*
G37*
G36*
X00181Y02106D02*
Y0209D01*
X00197*
X00196Y02094*
X00191Y02101*
X00184Y02106*
X00181Y02106*
G37*
G36*
X00171D02*
X00167Y02106D01*
X0016Y02101*
X00155Y02094*
X00154Y0209*
X00171*
Y02106*
G37*
G36*
X00197Y0208D02*
X00181D01*
Y02064*
X00184Y02065*
X00191Y02069*
X00196Y02077*
X00197Y0208*
G37*
G36*
X00171D02*
X00154D01*
X00155Y02077*
X0016Y02069*
X00167Y02065*
X00171Y02064*
Y0208*
G37*
G36*
X00326Y02135D02*
X00317Y02134D01*
X00308Y0213*
X00301Y02125*
X00295Y02117*
X00292Y02109*
X00291Y021*
X00292Y0209*
X00295Y02082*
X00301Y02074*
X00308Y02069*
X00317Y02065*
X00326Y02064*
X00336Y02065*
X00344Y02069*
X00352Y02074*
X00357Y02082*
X00361Y0209*
X00362Y021*
X00361Y02109*
X00357Y02117*
X00352Y02125*
X00344Y0213*
X00336Y02134*
X00326Y02135*
G37*
G36*
X02481Y0204D02*
Y02024D01*
X02497*
X02496Y02028*
X02492Y02035*
X02484Y0204*
X02481Y0204*
G37*
G36*
X02471D02*
X02467Y0204D01*
X0246Y02035*
X02455Y02028*
X02455Y02024*
X02471*
Y0204*
G37*
G36*
X02497Y02014D02*
X02481D01*
Y01998*
X02484Y01999*
X02492Y02003*
X02496Y02011*
X02497Y02014*
G37*
G36*
X02471D02*
X02455D01*
X02455Y02011*
X0246Y02003*
X02467Y01999*
X02471Y01998*
Y02014*
G37*
G36*
X00326Y02035D02*
X00317Y02034D01*
X00308Y0203*
X00301Y02025*
X00295Y02017*
X00292Y02009*
X00291Y02*
X00292Y0199*
X00295Y01982*
X00301Y01974*
X00308Y01969*
X00317Y01965*
X00326Y01964*
X00336Y01965*
X00344Y01969*
X00352Y01974*
X00357Y01982*
X0036Y01988*
X00635*
X00636Y01987*
X00642Y01983*
X00649Y01981*
X00656Y01983*
X00662Y01987*
X00666Y01993*
X00667Y02*
X00666Y02006*
X00662Y02012*
X00656Y02016*
X00649Y02018*
X00642Y02016*
X00636Y02012*
X00635Y02011*
X0036*
X00357Y02017*
X00352Y02025*
X00344Y0203*
X00336Y02034*
X00326Y02035*
G37*
G36*
X00362Y01935D02*
X00291D01*
Y01864*
X00362*
Y01935*
G37*
G36*
X00535Y01703D02*
X00528Y01701D01*
X00522Y01697*
X00521Y01696*
X00284*
X0028Y01695*
X00276Y01692*
X00242Y01659*
X00187*
Y01588*
X00258*
Y01643*
X00288Y01673*
X00521*
X00522Y01672*
X00528Y01668*
X00535Y01666*
X00542Y01668*
X00548Y01672*
X00552Y01678*
X00553Y01685*
X00552Y01691*
X00548Y01697*
X00542Y01701*
X00535Y01703*
G37*
G36*
X00323Y01659D02*
X00314Y01658D01*
X00305Y01654*
X00298Y01649*
X00292Y01641*
X00288Y01633*
X00287Y01623*
X00288Y01614*
X00292Y01606*
X00298Y01598*
X00305Y01593*
X00314Y01589*
X00323Y01588*
X00332Y01589*
X00341Y01593*
X00348Y01598*
X00354Y01606*
X00357Y01614*
X00359Y01623*
X00357Y01633*
X00354Y01641*
X00348Y01649*
X00341Y01654*
X00332Y01658*
X00323Y01659*
G37*
G36*
Y01559D02*
X00314Y01558D01*
X00305Y01554*
X00298Y01549*
X00292Y01541*
X00288Y01533*
X00287Y01523*
X00288Y01514*
X00292Y01506*
X00298Y01498*
X00305Y01493*
X00306Y01492*
X00305Y01487*
X00275*
X00254Y01507*
X00257Y01514*
X00259Y01523*
X00257Y01533*
X00254Y01541*
X00248Y01549*
X00241Y01554*
X00232Y01558*
X00223Y01559*
X00214Y01558*
X00205Y01554*
X00198Y01549*
X00192Y01541*
X00188Y01533*
X00187Y01523*
X00188Y01514*
X00192Y01506*
X00198Y01498*
X00205Y01493*
X00214Y01489*
X00223Y01488*
X00232Y01489*
X00239Y01492*
X00263Y01468*
X00266Y01466*
X0027Y01465*
X00348*
X00451Y01362*
X00451*
X00455Y01359*
X00459Y01358*
X00472*
X01555*
X01558Y01353*
X01557Y01353*
X00398*
X00374Y01377*
X0037Y0138*
X00366Y01381*
X00281*
X00254Y01407*
X00257Y01414*
X00259Y01423*
X00257Y01433*
X00254Y01441*
X00248Y01449*
X00241Y01454*
X00232Y01458*
X00223Y01459*
X00214Y01458*
X00205Y01454*
X00198Y01449*
X00192Y01441*
X00188Y01433*
X00187Y01423*
X00188Y01414*
X00192Y01406*
X00198Y01398*
X00205Y01393*
X00214Y01389*
X00223Y01388*
X00232Y01389*
X00239Y01392*
X00269Y01362*
X00272Y01359*
X00277Y01358*
X00302*
X00304Y01353*
X00298Y01349*
X00292Y01341*
X00288Y01333*
X00287Y01323*
X00288Y01314*
X00292Y01306*
X00298Y01298*
X00305Y01293*
X00314Y01289*
X00323Y01288*
X00332Y01289*
X00339Y01292*
X00356Y01274*
X0036Y01272*
X00364Y01271*
X01001*
X01004Y01266*
X01002Y01262*
X01Y01255*
X01001Y01251*
X01Y0125*
X00996Y01248*
X00992Y01251*
X00985Y01253*
X00978Y01251*
X00972Y01248*
X00968Y01242*
X00967Y01235*
X00968Y01228*
X00972Y01222*
X00978Y01218*
X00985Y01217*
X0099Y01218*
X00993Y01214*
X00997Y01212*
X01001Y01211*
X01063*
X01063Y01211*
X01061Y01206*
X01023*
X01018Y01205*
X01015Y01202*
X00987Y01174*
X00985Y01175*
X00978Y01173*
X00972Y01169*
X00968Y01163*
X00967Y01157*
X00967Y01155*
X00962Y01153*
X00952Y01164*
X00948Y01166*
X00944Y01167*
X00902*
X00899Y01171*
X00893Y01175*
X00886Y01176*
X00879Y01175*
X00874Y01171*
X0087Y01165*
X00868Y01158*
X0087Y01151*
X00874Y01145*
X00879Y01141*
X00886Y0114*
X00893Y01141*
X00898Y01145*
X00939*
X00965Y01119*
X00969Y01116*
X00973Y01115*
X00973*
X00999*
X00999*
X01003Y01116*
X01006Y01119*
X01044Y01157*
X01343*
X01344Y01155*
X0135Y01151*
X01357Y0115*
X01358Y0115*
X01359Y01148*
X0136Y01145*
X01357Y0114*
X01355Y01133*
X01357Y01126*
X01361Y01121*
X01367Y01117*
X01374Y01115*
X01374Y01115*
X01377Y01111*
X01375Y01109*
X01374Y01102*
X01375Y01095*
X01379Y01089*
X01385Y01085*
X01392Y01084*
X01392Y01084*
X01394Y01079*
X01394Y01079*
X0139Y01073*
X01389Y01066*
X0139Y01059*
X01394Y01054*
X014Y0105*
X01407Y01048*
X01414Y0105*
X0142Y01054*
X01424Y01059*
X01425Y01066*
X01424Y01073*
X0142Y01079*
X01414Y01083*
X01407Y01084*
X01407Y01084*
X01405Y01089*
X01405Y01089*
X01409Y01095*
X0141Y01102*
X01409Y01109*
X01405Y01115*
X01399Y01119*
X01392Y0112*
X01392Y0112*
X01389Y01124*
X0139Y01126*
X01392Y01133*
X0139Y0114*
X01386Y01146*
X0138Y0115*
X01374Y01151*
X01373Y01151*
X01371Y01153*
X0137Y01156*
X01373Y01161*
X01375Y01168*
X01373Y01175*
X0137Y01181*
X01364Y01185*
X01359Y01186*
X01356Y0119*
X01356Y01191*
X01359Y01194*
X0136Y01201*
X01359Y01208*
X01355Y01214*
X01349Y01218*
X01342Y01219*
X01339Y01219*
X01339Y01219*
X01336Y01223*
X01336Y01228*
X01335Y01235*
X01331Y01241*
X01325Y01245*
X01318Y01246*
X01318Y01246*
X01315Y0125*
X01316Y01255*
X01314Y01262*
X01312Y01266*
X01314Y01271*
X01515*
X01515Y0127*
X01519Y01264*
X01525Y0126*
X01532Y01259*
X01539Y0126*
X01545Y01264*
X01549Y0127*
X0155Y01277*
X01549Y01284*
X01545Y0129*
X01539Y01294*
X01532Y01295*
X01525Y01294*
X01524Y01293*
X00503*
X00502Y01298*
X00503Y013*
X00503Y013*
X00504Y01301*
X00505Y01301*
X01538*
X01539Y013*
X01545Y01296*
X01552Y01294*
X01559Y01296*
X01564Y013*
X01568Y01306*
X0157Y01313*
X01569Y01318*
X01571Y01321*
X01572Y01322*
X01574Y01322*
X01581Y01323*
X01587Y01327*
X01591Y01333*
X01592Y0134*
X01591Y01345*
X01595Y01349*
X01595Y01349*
X01597Y01349*
X01604Y0135*
X0161Y01354*
X01614Y0136*
X01615Y01367*
X01614Y01374*
X01612Y01376*
X01615Y0138*
X01619Y0138*
X01621Y01377*
X01626Y01374*
X01633Y01372*
X0164Y01374*
X01646Y01377*
X0165Y01383*
X01651Y0139*
X0165Y01397*
X01646Y01403*
X01644Y01405*
X01645Y0141*
X01656*
X01658Y01408*
X01665Y01407*
X01672Y01408*
X01674Y0141*
X01817*
X01819Y01408*
X01826Y01407*
X01833Y01408*
X01839Y01412*
X01843Y01418*
X01844Y01425*
X01843Y01432*
X01839Y01437*
X01833Y01441*
X01826Y01443*
X01819Y01441*
X01814Y01437*
X0181Y01432*
X01681*
X01678Y01437*
X01672Y01441*
X01665Y01443*
X01658Y01441*
X01652Y01437*
X01648Y01432*
X00549*
X00548Y01434*
X00542Y01437*
X00535Y01439*
X00528Y01437*
X00522Y01434*
X00518Y01428*
X00517Y01421*
X00518Y01414*
X00519Y01413*
X00516Y01408*
X00511*
X00508Y01412*
X00503Y01416*
X00496Y01417*
X00489Y01416*
X00483Y01412*
X00479Y01406*
X00478Y01399*
X00479Y01392*
X00483Y01386*
X00484Y01386*
X00482Y01381*
X00464*
X00361Y01484*
X00357Y01486*
X00353Y01487*
X0034*
X00339Y01492*
X00341Y01493*
X00348Y01498*
X00354Y01506*
X00357Y01514*
X00359Y01523*
X00357Y01533*
X00354Y01541*
X00348Y01549*
X00341Y01554*
X00332Y01558*
X00323Y01559*
G37*
G36*
X0135Y02417D02*
X01279D01*
Y02346*
X01307*
Y01517*
X01306Y01516*
X01302Y0151*
X013Y01503*
X01302Y01497*
X01306Y01491*
X01311Y01487*
X01318Y01485*
X01325Y01487*
X01331Y01491*
X01335Y01497*
X01336Y01503*
X01335Y0151*
X01331Y01516*
X0133Y01517*
Y02346*
X0135*
Y02417*
G37*
G36*
X02195Y01439D02*
X02188Y01437D01*
X02183Y01433*
X02179Y01427*
X02177Y0142*
X02178Y01419*
X02165Y01405*
X02162Y01402*
X02161Y01398*
Y00918*
X02156Y00915*
X02152Y00918*
X02146Y00919*
X02139Y00918*
X02133Y00914*
X02129Y00908*
X02128Y00901*
X02129Y00894*
X0213Y00892*
X02113Y00875*
X02108Y00877*
Y00888*
X02108Y00888*
X02112Y00894*
X02114Y00901*
X02112Y00908*
X02108Y00914*
X02102Y00918*
X02096Y00919*
X02089Y00918*
X02083Y00914*
X02079Y00908*
X02078Y00901*
X02079Y00894*
X02083Y00888*
X02086Y00886*
Y0087*
X02062Y00847*
X02058Y00849*
Y00888*
X02058Y00888*
X02062Y00894*
X02064Y00901*
X02062Y00908*
X02058Y00914*
X02052Y00918*
X02046Y00919*
X02039Y00918*
X02033Y00914*
X02029Y00908*
X02028Y00901*
X02029Y00894*
X02033Y00888*
X02036Y00886*
Y00843*
X02015Y00822*
X02013Y00819*
X02012Y00814*
Y00701*
X01997Y00686*
X01914*
X01912Y00687*
X01905Y00689*
X01898Y00687*
X01892Y00684*
X01888Y00678*
X01887Y00671*
X01888Y00664*
X01892Y00658*
X01898Y00654*
X01905Y00653*
X01912Y00654*
X01917Y00658*
X01921Y00664*
X02002*
X02006Y00665*
X0201Y00667*
X02028Y00686*
X02033Y00684*
Y00675*
X0203Y0067*
X02028Y00663*
X0203Y00656*
X02034Y0065*
X02039Y00646*
X02046Y00645*
X02053Y00646*
X02059Y0065*
X02063Y00656*
X02064Y00663*
X02063Y0067*
X02059Y00676*
X02056Y00678*
Y00809*
X02064Y00817*
X02069Y00815*
Y00722*
X02065Y00717*
X02064Y0071*
X02065Y00703*
X02069Y00697*
X02075Y00693*
X02082Y00692*
X02089Y00693*
X02095Y00697*
X02098Y00703*
X021Y0071*
X02098Y00717*
X02095Y00723*
X02091Y00725*
Y00821*
X02153Y00884*
X02158Y00882*
X02159Y0088*
X02156Y00878*
X02152Y00873*
X02151Y00866*
X02152Y00859*
X02156Y00853*
X02162Y00849*
X02169Y00848*
X02176Y00849*
X02182Y00853*
X02185Y00859*
X02187Y00866*
X02185Y00873*
X02183Y00876*
Y00885*
X02188Y00887*
X02193Y00884*
X02199Y00883*
X02206Y00884*
X02212Y00888*
X02216Y00894*
X02217Y00901*
X02216Y00908*
X02212Y00914*
X02206Y00918*
X02199Y00919*
X02193Y00918*
X02188Y00915*
X02183Y00918*
Y01393*
X02193Y01403*
X02195Y01402*
X02202Y01404*
X02208Y01408*
X02212Y01414*
X02213Y0142*
X02212Y01427*
X02208Y01433*
X02202Y01437*
X02195Y01439*
G37*
G36*
X02137Y01438D02*
X0213Y01437D01*
X02124Y01433*
X0212Y01427*
X02119Y0142*
X0212Y01413*
X02124Y01407*
X0213Y01403*
X02137Y01402*
X02144Y01403*
X02149Y01407*
X02153Y01413*
X02155Y0142*
X02153Y01427*
X02149Y01433*
X02144Y01437*
X02137Y01438*
G37*
G36*
X01972Y0147D02*
X01965Y01469D01*
X01959Y01465*
X01955Y01459*
X01954Y01452*
X01955Y01445*
X01959Y01439*
X01961Y01438*
Y01288*
X01956Y01286*
X01955Y01288*
X01949Y01292*
X01942Y01293*
X01935Y01292*
X01929Y01288*
X01925Y01282*
X01924Y01275*
X01925Y01268*
X01929Y01262*
X01931Y01261*
Y00791*
X0192Y00781*
X01811*
X01809Y00782*
X01802Y00783*
X01795Y00782*
X01789Y00778*
X01786Y00772*
X01785Y0077*
X01723Y00707*
X01157*
X01156Y00709*
X0115Y00713*
X01143Y00714*
X01136Y00713*
X0113Y00709*
X01127Y00703*
X01125Y00696*
X01127Y00689*
X0113Y00684*
X01136Y0068*
X01143Y00678*
X0115Y0068*
X01156Y00684*
X01157Y00685*
X01727*
X01727*
X01732Y00686*
X01735Y00688*
X01795Y00749*
X01795Y00749*
X01802Y00747*
X01809Y00749*
X01815Y00752*
X01819Y00758*
X01925*
X01929Y00759*
X01933Y00762*
X0195Y00779*
X01952Y00782*
X01953Y00787*
Y0126*
X01956Y01262*
X01961Y0126*
Y01078*
X01962Y01074*
X01964Y0107*
X01978Y01057*
X01978Y01055*
X01979Y01048*
X01983Y01042*
X01989Y01038*
X01996Y01037*
X02002Y01038*
X02008Y01042*
X02012Y01048*
X02014Y01055*
X02012Y01062*
X02008Y01067*
X02002Y01071*
X01996Y01073*
X01994Y01072*
X01983Y01083*
Y01402*
X01988Y01404*
X01991Y014*
X01997Y01396*
X02003Y01395*
X0201Y01396*
X02016Y014*
X0202Y01406*
X02022Y01413*
X0202Y0142*
X02016Y01426*
X0201Y0143*
X02003Y01431*
X01997Y0143*
X01991Y01426*
X01988Y01422*
X01983Y01423*
Y01438*
X01985Y01439*
X01989Y01445*
X0199Y01452*
X01989Y01459*
X01985Y01465*
X01979Y01469*
X01972Y0147*
G37*
G36*
X00323Y01459D02*
X00314Y01458D01*
X00305Y01454*
X00298Y01449*
X00292Y01441*
X00288Y01433*
X00287Y01423*
X00288Y01414*
X00292Y01406*
X00298Y01398*
X00305Y01393*
X00314Y01389*
X00323Y01388*
X00332Y01389*
X00341Y01393*
X00348Y01398*
X00354Y01406*
X00357Y01414*
X00359Y01423*
X00357Y01433*
X00354Y01441*
X00348Y01449*
X00341Y01454*
X00332Y01458*
X00323Y01459*
G37*
G36*
X00223Y01359D02*
X00214Y01358D01*
X00205Y01354*
X00198Y01349*
X00192Y01341*
X00188Y01333*
X00187Y01323*
X00188Y01314*
X00192Y01306*
X00198Y01298*
X00205Y01293*
X00214Y01289*
X00223Y01288*
X00232Y01289*
X00241Y01293*
X00248Y01298*
X00254Y01306*
X00257Y01314*
X00259Y01323*
X00257Y01333*
X00254Y01341*
X00248Y01349*
X00241Y01354*
X00232Y01358*
X00223Y01359*
G37*
G36*
X00228Y01263D02*
Y01228D01*
X00262*
X00261Y01234*
X00257Y01243*
X00251Y01252*
X00243Y01258*
X00233Y01262*
X00228Y01263*
G37*
G36*
X00218D02*
X00212Y01262D01*
X00203Y01258*
X00195Y01252*
X00188Y01243*
X00184Y01234*
X00184Y01228*
X00218*
Y01263*
G37*
G36*
X01455Y01211D02*
Y01194D01*
X01472*
X01471Y01198*
X01466Y01205*
X01459Y0121*
X01455Y01211*
G37*
G36*
X01445D02*
X01442Y0121D01*
X01435Y01205*
X0143Y01198*
X01429Y01194*
X01445*
Y01211*
G37*
G36*
X00323Y01259D02*
X00314Y01258D01*
X00305Y01254*
X00298Y01249*
X00292Y01241*
X00288Y01233*
X00287Y01223*
X00288Y01214*
X00292Y01206*
X00298Y01198*
X00305Y01193*
X00314Y01189*
X00323Y01188*
X00332Y01189*
X00341Y01193*
X00348Y01198*
X00354Y01206*
X00357Y01214*
X00359Y01223*
X00357Y01233*
X00354Y01241*
X00348Y01249*
X00341Y01254*
X00332Y01258*
X00323Y01259*
G37*
G36*
X00262Y01218D02*
X00228D01*
Y01184*
X00233Y01185*
X00243Y01189*
X00251Y01195*
X00257Y01204*
X00261Y01213*
X00262Y01218*
G37*
G36*
X00218D02*
X00184D01*
X00184Y01213*
X00188Y01204*
X00195Y01195*
X00203Y01189*
X00212Y01185*
X00218Y01184*
Y01218*
G37*
G36*
X01472Y01184D02*
X01455D01*
Y01168*
X01459Y01169*
X01466Y01174*
X01471Y01181*
X01472Y01184*
G37*
G36*
X01445D02*
X01429D01*
X0143Y01181*
X01435Y01174*
X01442Y01169*
X01445Y01168*
Y01184*
G37*
G36*
X00323Y01159D02*
X00314Y01158D01*
X00305Y01154*
X00298Y01149*
X00292Y01141*
X00288Y01133*
X00287Y01123*
X00288Y01114*
X00292Y01106*
X00298Y01098*
X00305Y01093*
X00306Y01092*
X00305Y01087*
X00275*
X00254Y01107*
X00257Y01114*
X00259Y01123*
X00257Y01133*
X00254Y01141*
X00248Y01149*
X00241Y01154*
X00232Y01158*
X00223Y01159*
X00214Y01158*
X00205Y01154*
X00198Y01149*
X00192Y01141*
X00188Y01133*
X00187Y01123*
X00188Y01114*
X00192Y01106*
X00198Y01098*
X00205Y01093*
X00214Y01089*
X00223Y01088*
X00232Y01089*
X00239Y01092*
X00262Y01068*
X00266Y01066*
X0027Y01065*
X00474*
X00475Y01063*
X00481Y01059*
X00488Y01058*
X00495Y01059*
X005Y01063*
X00504Y01069*
X00506Y01076*
X00504Y01083*
X005Y01089*
X00495Y01093*
X00488Y01094*
X00481Y01093*
X00475Y01089*
X00474Y01087*
X00341*
X0034Y01092*
X00341Y01093*
X00348Y01098*
X00354Y01106*
X00357Y01114*
X00359Y01123*
X00357Y01133*
X00354Y01141*
X00348Y01149*
X00341Y01154*
X00332Y01158*
X00323Y01159*
G37*
G36*
X01476Y01084D02*
X01469Y01083D01*
X01463Y01079*
X01459Y01073*
X01458Y01066*
X01458Y01065*
X01454Y01062*
X01451Y01063*
X01444Y01065*
X01437Y01063*
X01432Y0106*
X01428Y01054*
X01426Y01047*
X01428Y0104*
X01428Y0104*
X01424Y01037*
X01418Y01041*
X01411Y01042*
X01404Y01041*
X01398Y01037*
X01394Y01031*
X01393Y01024*
X01394Y01017*
X01396Y01014*
X01392Y01011*
X01338Y01065*
X01334Y01068*
X0133Y01069*
X01203*
X01202Y0107*
X01196Y01074*
X01189Y01076*
X01183Y01074*
X01177Y0107*
X01173Y01064*
X01171Y01058*
X01173Y01051*
X01177Y01045*
X01183Y01041*
X01189Y0104*
X01196Y01041*
X01202Y01045*
X01203Y01046*
X01326*
X01384Y00988*
X01388Y00985*
X01392Y00984*
X01505*
X01506Y00983*
X01512Y00979*
X01519Y00978*
X01526Y00979*
X01532Y00983*
X01533Y00984*
X01667*
X01668Y00981*
X01672Y00975*
X01678Y00971*
X01685Y0097*
X01691Y00971*
X01697Y00975*
X01701Y00981*
X01703Y00988*
X01701Y00995*
X01697Y01*
X01691Y01004*
X01685Y01006*
X01682Y01005*
X01681Y01006*
X01677Y01007*
X01674*
X01672Y01012*
X01675Y01013*
X01679Y01019*
X0168Y01026*
X01679Y01033*
X01675Y01039*
X01669Y01043*
X01662Y01044*
X01655Y01043*
X01649Y01039*
X01648Y01037*
X01465*
X01465Y01038*
X01462Y01042*
X01462Y01047*
X01462Y01048*
X01467Y01051*
X01469Y0105*
X01476Y01048*
X01483Y0105*
X01489Y01054*
X01493Y0106*
X01494Y01066*
X01493Y01073*
X01489Y01079*
X01483Y01083*
X01476Y01084*
G37*
G36*
X00948Y01067D02*
Y01051D01*
X00965*
X00964Y01054*
X00959Y01061*
X00952Y01066*
X00948Y01067*
G37*
G36*
X00938D02*
X00935Y01066D01*
X00928Y01061*
X00923Y01054*
X00922Y01051*
X00938*
Y01067*
G37*
G36*
X01523Y01084D02*
X01516Y01083D01*
X0151Y01079*
X01506Y01073*
X01505Y01066*
X01506Y01059*
X0151Y01054*
X01516Y0105*
X01523Y01048*
X0153Y0105*
X01536Y01054*
X0154Y01059*
X01541Y01066*
X0154Y01073*
X01536Y01079*
X0153Y01083*
X01523Y01084*
G37*
G36*
X00965Y01041D02*
X00948D01*
Y01025*
X00952Y01025*
X00959Y0103*
X00964Y01037*
X00965Y01041*
G37*
G36*
X00938D02*
X00922D01*
X00923Y01037*
X00928Y0103*
X00935Y01025*
X00938Y01025*
Y01041*
G37*
G36*
X00323Y01059D02*
X00314Y01058D01*
X00305Y01054*
X00298Y01049*
X00292Y01041*
X00288Y01033*
X00287Y01023*
X00288Y01014*
X00292Y01006*
X00298Y00998*
X00305Y00993*
X00314Y00989*
X00323Y00988*
X00332Y00989*
X00341Y00993*
X00348Y00998*
X00354Y01006*
X00357Y01014*
X00359Y01023*
X00357Y01033*
X00354Y01041*
X00348Y01049*
X00341Y01054*
X00332Y01058*
X00323Y01059*
G37*
G36*
X00223D02*
X00214Y01058D01*
X00205Y01054*
X00198Y01049*
X00192Y01041*
X00188Y01033*
X00187Y01023*
X00188Y01014*
X00192Y01006*
X00198Y00998*
X00205Y00993*
X00214Y00989*
X00223Y00988*
X00232Y00989*
X00241Y00993*
X00248Y00998*
X00254Y01006*
X00257Y01014*
X00259Y01023*
X00257Y01033*
X00254Y01041*
X00248Y01049*
X00241Y01054*
X00232Y01058*
X00223Y01059*
G37*
G36*
X00767Y00996D02*
X0076Y00995D01*
X00754Y00991*
X00751Y00985*
X00749Y00978*
X0075Y00976*
X00704Y00931*
X00702Y00931*
X00695Y0093*
X00689Y00926*
X00686Y0092*
X00684Y00913*
X00686Y00906*
X00689Y009*
X00695Y00896*
X00702Y00895*
X00709Y00896*
X00715Y009*
X00719Y00906*
X0072Y00913*
X0072Y00915*
X00765Y0096*
X00767Y0096*
X00774Y00961*
X0078Y00965*
X00784Y00971*
X00785Y00978*
X00784Y00985*
X0078Y00991*
X00774Y00995*
X00767Y00996*
G37*
G36*
X01093Y00911D02*
X01086Y0091D01*
X0108Y00906*
X01076Y009*
X01075Y00893*
X01076Y00886*
X0108Y0088*
X01086Y00877*
X0109Y00876*
X0109Y00871*
X01084Y00869*
X01076Y00865*
X01071Y00857*
X01071Y00854*
X01113*
X01113Y00857*
X01108Y00865*
X01101Y00869*
X01095Y00871*
Y00876*
X011Y00877*
X01106Y0088*
X0111Y00886*
X01111Y00893*
X0111Y009*
X01106Y00906*
X011Y0091*
X01093Y00911*
G37*
G36*
X01539Y00915D02*
X01532Y00914D01*
X01526Y0091*
X01522Y00904*
X01521Y00897*
X01522Y0089*
X01526Y00884*
X01532Y0088*
X01531Y00876*
X01524Y00874*
X01518Y00871*
X01514Y00865*
X01513Y00858*
X01514Y00851*
X01517Y00847*
X01514Y00842*
X01275*
X01236Y00881*
X01232Y00884*
X01228Y00885*
X01155*
X01154Y00886*
X01148Y0089*
X01141Y00892*
X01134Y0089*
X01128Y00886*
X01125Y0088*
X01123Y00874*
X01125Y00867*
X01128Y00861*
X01134Y00857*
X01141Y00855*
X01148Y00857*
X01154Y00861*
X01155Y00862*
X01223*
X01263Y00823*
X01266Y00821*
X0127Y0082*
X01539*
X01541Y00817*
X01541Y00815*
X01538Y0081*
X01537Y00803*
X01532Y008*
X01528Y00803*
X01521Y00804*
X01514Y00803*
X01508Y00799*
X01504Y00793*
X01503Y00786*
X01504Y00779*
X01508Y00773*
X01514Y00769*
X01521Y00768*
X01528Y00769*
X01534Y00773*
X01538Y00779*
X01539Y00786*
X01544Y00789*
X01548Y00786*
X01555Y00785*
X01562Y00786*
X01567Y0079*
X01569Y00792*
X01685*
X01697Y00779*
X01697Y00777*
X01698Y0077*
X01702Y00764*
X01708Y0076*
X01715Y00759*
X01722Y0076*
X01728Y00764*
X01732Y0077*
X01733Y00777*
X01732Y00784*
X01728Y0079*
X01722Y00794*
X01715Y00795*
X01713Y00795*
X01697Y00811*
X01694Y00813*
X0169Y00814*
X01573*
X01571Y00815*
X01572Y00817*
X01574Y0082*
X01701*
X01702Y00818*
X01708Y00814*
X01715Y00813*
X01722Y00814*
X01728Y00818*
X01732Y00824*
X01733Y00831*
X01732Y00838*
X01729Y00842*
X01732Y00847*
X01742*
X01746Y00848*
X0175Y0085*
X01752Y00853*
X01757Y00852*
X01764Y00853*
X0177Y00857*
X01774Y00863*
X01775Y0087*
X01774Y00876*
X0177Y00882*
X01764Y00886*
X01757Y00888*
X0175Y00886*
X01745Y00882*
X01741Y00876*
X0174Y00871*
X01737Y00869*
X01695*
X01694Y00874*
X01697Y00876*
X01701Y00882*
X01703Y00889*
X01701Y00896*
X01697Y00902*
X01691Y00906*
X01685Y00907*
X01679Y00906*
X01677Y00907*
X01673Y00908*
X01553*
X01552Y0091*
X01546Y00914*
X01539Y00915*
G37*
G36*
X01113Y00844D02*
X01097D01*
Y00828*
X01101Y00828*
X01108Y00833*
X01113Y0084*
X01113Y00844*
G37*
G36*
X01087D02*
X01071D01*
X01071Y0084*
X01076Y00833*
X01084Y00828*
X01087Y00828*
Y00844*
G37*
G36*
X00837Y00889D02*
X00771D01*
X00766Y00887*
X00764Y00882*
Y00822*
X00766Y00817*
X00771Y00815*
X00837*
X00842Y00817*
X00844Y00822*
Y00882*
X00842Y00887*
X00837Y00889*
G37*
G36*
X01098Y00818D02*
Y00802D01*
X01114*
X01114Y00805*
X01109Y00812*
X01102Y00817*
X01098Y00818*
G37*
G36*
X01088D02*
X01084Y00817D01*
X01077Y00812*
X01072Y00805*
X01072Y00802*
X01088*
Y00818*
G37*
G36*
X01114Y00792D02*
X01098D01*
Y00776*
X01102Y00776*
X01109Y00781*
X01114Y00788*
X01114Y00792*
G37*
G36*
X01088D02*
X01072D01*
X01072Y00788*
X01077Y00781*
X01084Y00776*
X01088Y00776*
Y00792*
G37*
G36*
X01004Y00786D02*
Y00769D01*
X0102*
X01019Y00773*
X01014Y0078*
X01007Y00785*
X01004Y00786*
G37*
G36*
X00994D02*
X0099Y00785D01*
X00983Y0078*
X00978Y00773*
X00977Y00769*
X00994*
Y00786*
G37*
G36*
X02181Y00766D02*
Y0075D01*
X02197*
X02196Y00753*
X02191Y0076*
X02184Y00765*
X02181Y00766*
G37*
G36*
X02171D02*
X02167Y00765D01*
X0216Y0076*
X02155Y00753*
X02154Y0075*
X02171*
Y00766*
G37*
G36*
X00646Y00766D02*
Y00749D01*
X00662*
X00662Y00753*
X00657Y0076*
X0065Y00765*
X00646Y00766*
G37*
G36*
X00636D02*
X00633Y00765D01*
X00626Y0076*
X00621Y00753*
X0062Y00749*
X00636*
Y00766*
G37*
G36*
X0102Y00759D02*
X01004D01*
Y00743*
X01007Y00744*
X01014Y00749*
X01019Y00756*
X0102Y00759*
G37*
G36*
X00994D02*
X00977D01*
X00978Y00756*
X00983Y00749*
X0099Y00744*
X00994Y00743*
Y00759*
G37*
G36*
X00138Y00757D02*
Y00741D01*
X00155*
X00154Y00744*
X00149Y00751*
X00142Y00756*
X00138Y00757*
G37*
G36*
X00128D02*
X00125Y00756D01*
X00118Y00751*
X00113Y00744*
X00112Y00741*
X00128*
Y00757*
G37*
G36*
X02197Y0074D02*
X02181D01*
Y00723*
X02184Y00724*
X02191Y00729*
X02196Y00736*
X02197Y0074*
G37*
G36*
X02171D02*
X02154D01*
X02155Y00736*
X0216Y00729*
X02167Y00724*
X02171Y00723*
Y0074*
G37*
G36*
X00662Y00739D02*
X00646D01*
Y00723*
X0065Y00724*
X00657Y00729*
X00662Y00736*
X00662Y00739*
G37*
G36*
X00636D02*
X0062D01*
X00621Y00736*
X00626Y00729*
X00633Y00724*
X00636Y00723*
Y00739*
G37*
G36*
X00155Y00731D02*
X00138D01*
Y00714*
X00142Y00715*
X00149Y0072*
X00154Y00727*
X00155Y00731*
G37*
G36*
X00128D02*
X00112D01*
X00113Y00727*
X00118Y0072*
X00125Y00715*
X00128Y00714*
Y00731*
G37*
G36*
X00938Y00709D02*
X00932Y00708D01*
X00926Y00704*
X00925Y00703*
X00778*
X00777Y00704*
X00771Y00708*
X00764Y00709*
X00757Y00708*
X00751Y00704*
X0075Y00703*
X006*
X006Y00703*
X00594Y00707*
X00587Y00709*
X0058Y00707*
X00574Y00703*
X00574Y00703*
X00402*
X00402*
X00397Y00702*
X00394Y00699*
X00357Y00662*
X00236*
X00235Y00664*
X00229Y00668*
X00222Y00669*
X00215Y00668*
X00209Y00664*
X00205Y00658*
X00204Y00651*
X00205Y00644*
X00209Y00638*
X00215Y00634*
X00222Y00633*
X00229Y00634*
X00235Y00638*
X00236Y0064*
X00361*
X00363Y0064*
X00366Y00638*
X00367Y00637*
X00367Y00636*
X00369Y0063*
X00373Y00625*
X00378Y00621*
X00385Y00619*
X00392Y00621*
X00398Y00625*
X00401Y00629*
X00475*
X00477Y00624*
X00475Y00621*
X00474Y00614*
X00475Y00607*
X00479Y00601*
X00484Y00597*
X00485Y00597*
X00482Y00592*
X00475*
X0047Y00597*
X00469Y00602*
X00465Y00608*
X00459Y00612*
X00452Y00613*
X00445Y00612*
X00439Y00608*
X00436Y00602*
X00434Y00595*
X00436Y00588*
X00439Y00583*
X00442Y00581*
X00441Y00576*
X00435*
X00434Y00581*
X0043Y00587*
X00424Y00591*
X00417Y00592*
X0041Y00591*
X00404Y00587*
X004Y00581*
X00399Y00574*
X004Y00567*
X00404Y00562*
X00408Y00559*
X00406Y00554*
X00337*
X00335Y00561*
X00329Y00568*
X00322Y00574*
X00313Y00577*
X00304Y00579*
X00294Y00577*
X00286Y00574*
X00278Y00568*
X00273Y00561*
X00269Y00552*
X00268Y00543*
X00269Y00534*
X00273Y00525*
X00278Y00518*
X00286Y00512*
X00294Y00508*
X00304Y00507*
X00313Y00508*
X00322Y00512*
X00329Y00518*
X00335Y00525*
X00337Y00532*
X00544*
X00546Y00527*
X00542Y00524*
X00541Y00522*
X00493*
X00488Y00522*
X00485Y00519*
X00442Y00476*
X00244*
X0024Y00475*
X00236Y00473*
X00223Y0046*
X00168*
Y00389*
X00239*
Y00444*
X00249Y00454*
X00276*
X00278Y00449*
X00273Y00443*
X00269Y00434*
X00268Y00425*
X00269Y00415*
X00273Y00407*
X00278Y00399*
X00286Y00394*
X00294Y0039*
X00304Y00389*
X00313Y0039*
X00322Y00394*
X00329Y00399*
X00335Y00407*
X00338Y00415*
X00339Y00425*
X00338Y00434*
X00335Y00443*
X0033Y00449*
X00331Y00454*
X00446*
X00451Y00455*
X00454Y00457*
X00497Y005*
X00541*
X00542Y00499*
X00548Y00495*
X00555Y00493*
X00562Y00495*
X00567Y00499*
X00569Y005*
X00578*
X00579Y00495*
X00575Y00493*
X00571Y00487*
X0057Y0048*
X00571Y00473*
X00575Y00467*
X00581Y00463*
X00588Y00462*
X00595Y00463*
X00601Y00467*
X00603Y0047*
X00789*
X0079Y00468*
X00796Y00464*
X00803Y00463*
X0081Y00464*
X00815Y00468*
X00819Y00474*
X00821Y00481*
X00819Y00488*
X00817Y00492*
X00819Y00497*
X0083*
X0089Y00437*
X00894Y00434*
X00898Y00433*
X01143*
X01144Y0043*
X01145Y00428*
X01141Y00423*
X0114Y00416*
X0114Y00414*
X01131Y00404*
X00797*
X00792Y00403*
X00789Y00401*
X0075Y00363*
X00748Y00363*
X00742Y00362*
X00736Y00358*
X00732Y00352*
X0073Y00345*
X00732Y00338*
X00736Y00332*
X00742Y00328*
X00748Y00327*
X00755Y00328*
X00761Y00332*
X00765Y00338*
X00767Y00345*
X00766Y00347*
X00801Y00382*
X00834*
X00836Y00377*
X00821Y00363*
X00819Y00363*
X00812Y00362*
X00807Y00358*
X00803Y00352*
X00801Y00345*
X00803Y00338*
X00807Y00332*
X00812Y00328*
X00819Y00327*
X00826Y00328*
X00832Y00332*
X00836Y00338*
X00837Y00345*
X00837Y00347*
X00856Y00366*
X00882*
X00882Y00365*
X00882Y00361*
X00877Y00358*
X00873Y00352*
X00872Y00345*
X00873Y00338*
X00877Y00332*
X00883Y00328*
X0089Y00327*
X00897Y00328*
X00903Y00332*
X00907Y00338*
X00908Y00345*
X0091Y00347*
X01477*
X01481Y00348*
X01485Y0035*
X01514Y00378*
X01519Y0038*
X01525Y00383*
X01529Y00389*
X0153Y00396*
X01529Y00403*
X01525Y00409*
X01519Y00413*
X01512Y00414*
X01505Y00413*
X01499Y00409*
X01496Y00403*
X01494Y00396*
X01495Y00391*
X01489Y00385*
X01484Y00387*
X01483Y00391*
X01479Y00397*
X01473Y00401*
X01466Y00403*
X01459Y00401*
X01453Y00397*
X01452Y00396*
X01169*
X01167Y00401*
X01171Y00403*
X01175Y00409*
X01176Y00416*
X01175Y00423*
X01171Y00428*
X01171Y0043*
X01173Y00433*
X0158*
X01582Y00429*
X01581Y00428*
X01575Y0042*
X01571Y0041*
X0157Y00405*
X01649*
X01649Y0041*
X01645Y0042*
X01638Y00428*
X01638Y00429*
X01639Y00433*
X01923*
X01926Y0043*
X01932Y00426*
X01938Y00424*
X01945Y00426*
X01951Y0043*
X01955Y00436*
X01957Y00442*
X01955Y00449*
X01951Y00455*
X01945Y00459*
X01938Y0046*
X01932Y00459*
X01926Y00456*
X0185*
X01849Y00461*
X01852Y00461*
X01858Y00465*
X01859Y00467*
X02013*
X02018Y00463*
X02025Y00462*
X02032Y00463*
X02038Y00467*
X02042Y00473*
X02043Y0048*
X02042Y00487*
X02038Y00493*
X02032Y00497*
X02025Y00498*
X02018Y00497*
X02012Y00493*
X0201Y00489*
X01859*
X01858Y00491*
X01852Y00495*
X01846Y00496*
X01839Y00495*
X01833Y00491*
X01829Y00485*
X01828Y00478*
X01829Y00471*
X01833Y00465*
X01839Y00461*
X01842Y00461*
X01841Y00456*
X00903*
X00843Y00516*
X00839Y00518*
X00835Y00519*
X00814*
X00812Y00524*
X00814Y00528*
X00816Y00535*
X00814Y00542*
X00811Y00548*
X00809Y00549*
X00811Y00554*
X01179*
X01183Y00549*
Y00517*
X01221*
X01259*
Y00549*
Y00552*
X01263Y00554*
X01314*
X01319Y00554*
X01322Y00557*
X01338Y00572*
X01435*
X01438Y00573*
X01441Y00572*
X01448Y00573*
X01454Y00577*
X01458Y00583*
X01459Y0059*
X01458Y00597*
X01454Y00603*
X01448Y00607*
X01441Y00608*
X01435Y00607*
X0143Y00604*
X01429Y00604*
X01426Y00607*
X01427Y00613*
X01426Y0062*
X01422Y00625*
X01416Y00629*
X01409Y00631*
X01402Y00629*
X01397Y00626*
X01395Y00626*
X01393Y0063*
X01393Y00632*
X01394Y00634*
X01396Y00641*
X01394Y00647*
X0139Y00653*
X01384Y00657*
X01377Y00659*
X01371Y00657*
X01365Y00653*
X01364Y00652*
X01332*
X01328Y00651*
X01324Y00648*
X01309Y00633*
X01304Y00636*
X01305Y0064*
X01304Y00647*
X013Y00653*
X01294Y00657*
X01287Y00658*
X0128Y00657*
X01274Y00653*
X0127Y00647*
X0127Y00647*
X01248Y00625*
X00547*
X00524Y00648*
X0052Y00651*
X00516Y00652*
X00396*
X00392Y00654*
X00388Y00655*
X00386Y0066*
X00406Y0068*
X00573*
X00574Y00678*
X0058Y00674*
X00587Y00672*
X00594Y00674*
X006Y00678*
X00602Y0068*
X0075*
X00751Y00679*
X00757Y00675*
X00764Y00673*
X00771Y00675*
X00777Y00679*
X00778Y0068*
X00925*
X00926Y00679*
X00932Y00675*
X00938Y00673*
X00945Y00675*
X00951Y00679*
X00955Y00685*
X00957Y00691*
X00955Y00698*
X00951Y00704*
X00945Y00708*
X00938Y00709*
G37*
G36*
X01035Y00696D02*
X01028Y00694D01*
X01022Y0069*
X01018Y00684*
X01017Y00678*
X01018Y00672*
X01016Y00669*
X01014Y00668*
X0101Y00671*
X01003Y00672*
X00997Y00671*
X00991Y00667*
X00987Y00661*
X00985Y00654*
X00987Y00647*
X00991Y00641*
X00997Y00637*
X01003Y00636*
X0101Y00637*
X01016Y00641*
X0102Y00647*
X01022Y00654*
X0102Y0066*
X01023Y00662*
X01024Y00663*
X01028Y00661*
X01035Y00659*
X01042Y00661*
X01048Y00665*
X01052Y00671*
X01053Y00678*
X01052Y00684*
X01048Y0069*
X01042Y00694*
X01035Y00696*
G37*
G36*
X01527Y00627D02*
Y00611D01*
X01543*
X01543Y00614*
X01538Y00622*
X01531Y00626*
X01527Y00627*
G37*
G36*
X01517D02*
X01514Y00626D01*
X01506Y00622*
X01502Y00614*
X01501Y00611*
X01517*
Y00627*
G37*
G36*
X01611Y00624D02*
Y00608D01*
X01627*
X01626Y00611*
X01622Y00619*
X01614Y00623*
X01611Y00624*
G37*
G36*
X01601D02*
X01597Y00623D01*
X0159Y00619*
X01585Y00611*
X01585Y00608*
X01601*
Y00624*
G37*
G36*
X01543Y00601D02*
X01527D01*
Y00585*
X01531Y00585*
X01538Y0059*
X01543Y00597*
X01543Y00601*
G37*
G36*
X01517D02*
X01501D01*
X01502Y00597*
X01506Y0059*
X01514Y00585*
X01517Y00585*
Y00601*
G37*
G36*
X01627Y00598D02*
X01611D01*
Y00582*
X01614Y00582*
X01622Y00587*
X01626Y00594*
X01627Y00598*
G37*
G36*
X01601D02*
X01585D01*
X01585Y00594*
X0159Y00587*
X01597Y00582*
X01601Y00582*
Y00598*
G37*
G36*
X01311Y00538D02*
Y00522D01*
X01327*
X01326Y00526*
X01321Y00533*
X01314Y00538*
X01311Y00538*
G37*
G36*
X01301D02*
X01297Y00538D01*
X0129Y00533*
X01285Y00526*
X01284Y00522*
X01301*
Y00538*
G37*
G36*
X01176Y00548D02*
X01109D01*
Y00521*
X01029*
X01028Y00523*
X01022Y00527*
X01015Y00528*
X01008Y00527*
X01002Y00523*
X00999Y00517*
X00997Y0051*
X00999Y00503*
X01002Y00498*
X01008Y00494*
X01015Y00492*
X01022Y00494*
X01028Y00498*
X01029Y00499*
X01109*
Y00477*
X01176*
Y00548*
G37*
G36*
X00239Y00578D02*
X00168D01*
Y00507*
X00239*
Y00578*
G37*
G36*
X01327Y00512D02*
X01311D01*
Y00496*
X01314Y00497*
X01321Y00501*
X01326Y00509*
X01327Y00512*
G37*
G36*
X01301D02*
X01284D01*
X01285Y00509*
X0129Y00501*
X01297Y00497*
X01301Y00496*
Y00512*
G37*
G36*
X01607Y00525D02*
X016Y00524D01*
X01594Y0052*
X0159Y00514*
X01589Y00507*
X0159Y005*
X01594Y00495*
X016Y00491*
X01607Y00489*
X01614Y00491*
X0162Y00495*
X01623Y005*
X01625Y00507*
X01623Y00514*
X0162Y0052*
X01614Y00524*
X01607Y00525*
G37*
G36*
X02399Y0051D02*
X02394Y00509D01*
X02384Y00505*
X02376Y00499*
X0237Y00491*
X02366Y00481*
X02365Y00476*
X02399*
Y0051*
G37*
G36*
X01259Y00507D02*
X01226D01*
Y00473*
X01259*
Y00507*
G37*
G36*
X01216D02*
X01183D01*
Y00473*
X01216*
Y00507*
G37*
G36*
X00793Y00457D02*
X00786Y00455D01*
X0078Y00451*
X00776Y00445*
X00775Y0044*
X00771Y00436*
X00455*
X00449Y00439*
X00442Y00441*
X00436Y00439*
X0043Y00436*
X00426Y0043*
X00424Y00423*
X00426Y00416*
X0043Y0041*
X00436Y00406*
X00442Y00405*
X00449Y00406*
X00455Y0041*
X00458Y00414*
X00775*
X0078Y00414*
X00783Y00417*
X00788Y00421*
X00793Y0042*
X008Y00422*
X00806Y00426*
X0081Y00432*
X00811Y00438*
X0081Y00445*
X00806Y00451*
X008Y00455*
X00793Y00457*
G37*
G36*
X02131Y02421D02*
X02122Y0242D01*
X02113Y02416*
X02106Y02411*
X021Y02403*
X02096Y02395*
X02095Y02385*
X02096Y02376*
X021Y02367*
X02106Y0236*
X02113Y02354*
X02122Y02351*
X02131Y0235*
X0214Y02351*
X02149Y02354*
X02149Y02355*
X02226Y02278*
X02226Y00401*
X021Y00275*
X02095Y00278*
X02096Y00282*
X02095Y00289*
X02091Y00295*
X02085Y00299*
X02078Y003*
X02076Y003*
X02074Y00304*
X02074Y00305*
X02078Y00311*
X0208Y00317*
X02078Y00324*
X02074Y0033*
X02068Y00334*
X02062Y00335*
X02055Y00334*
X02049Y0033*
X02045Y00324*
X02043Y00317*
X02044Y00312*
X02039Y00304*
X02001*
X02Y00309*
X02Y0031*
X02004Y00315*
X02006Y00322*
X02004Y00329*
X02Y00335*
X01995Y00339*
X01988Y0034*
X01981Y00339*
X01975Y00335*
X01974Y00333*
X0193*
X01919Y00344*
X0192Y00346*
X01918Y00353*
X01914Y00359*
X01909Y00363*
X01902Y00364*
X01895Y00363*
X01889Y00359*
X01885Y00353*
X01884Y00346*
X01885Y00339*
X01889Y00333*
X01895Y00329*
X01902Y00328*
X01904Y00328*
X01909Y00323*
X01907Y00319*
X01901Y0032*
X01894Y00318*
X01888Y00314*
X01884Y00309*
X01883Y00302*
X01884Y00295*
X01888Y00289*
X01891Y00287*
X01889Y00282*
X01829*
X01828Y00287*
X01824Y00293*
X01818Y00297*
X01812Y00298*
X01805Y00297*
X01799Y00293*
X01795Y00287*
X01793Y0028*
X01795Y00273*
X01799Y00267*
X01805Y00263*
X01808Y00263*
X01807Y00258*
X0121*
X01155Y00312*
X01151Y00315*
X01147Y00316*
X00529*
X00528Y00317*
X00522Y00321*
X00515Y00323*
X00508Y00321*
X00502Y00317*
X00499Y00312*
X00497Y00305*
X00499Y00298*
X00502Y00292*
X00508Y00288*
X00515Y00287*
X00522Y00288*
X00528Y00292*
X00529Y00294*
X01143*
X01193Y00243*
X01191Y00238*
X01127*
X01115Y00251*
X01111Y00253*
X01107Y00254*
X01085*
X01081Y00253*
X01077Y00251*
X00711*
X0071Y00253*
X00705Y00256*
X00698Y00258*
X00691Y00256*
X00685Y00253*
X00681Y00247*
X0068Y0024*
X00681Y00233*
X00685Y00227*
X00691Y00223*
X00693Y00218*
X00693Y00217*
X00688Y00216*
X00685Y00214*
X00633Y00162*
X0063Y0016*
X00603Y00133*
X00548*
Y00062*
X00544Y0006*
X00531*
X00513Y00078*
X00514Y0008*
X00518Y00089*
X00519Y00098*
X00518Y00107*
X00514Y00116*
X00508Y00123*
X00501Y00129*
X00492Y00132*
X00483Y00134*
X00474Y00132*
X00465Y00129*
X00458Y00123*
X00452Y00116*
X00449Y00107*
X00447Y00098*
X00449Y00089*
X00452Y0008*
X00458Y00073*
X00465Y00067*
X00474Y00063*
X00483Y00062*
X00492Y00063*
X00495Y00064*
X00518Y00041*
X00522Y00038*
X00526Y00038*
X00625*
X0063Y00038*
X00633Y00041*
X00657Y00065*
X00659Y00068*
X0066Y00072*
Y00136*
X007Y00175*
X01129*
X01134Y00176*
X01137Y00179*
X0115Y00191*
X02098*
X02102Y00192*
X02106Y00194*
X02318Y00407*
X02439*
X02444Y00408*
X02447Y0041*
X02474Y00436*
X02483Y00435*
X02492Y00436*
X02501Y0044*
X02508Y00446*
X02514Y00453*
X02517Y00462*
X02519Y00471*
X02517Y0048*
X02514Y00489*
X02508Y00496*
X02501Y00502*
X02492Y00505*
X02483Y00507*
X02474Y00505*
X02465Y00502*
X02458Y00496*
X02452Y00489*
X02448Y0048*
X02448Y00478*
X02443*
X02443Y00481*
X02439Y00491*
X02432Y00499*
X02424Y00505*
X02414Y00509*
X02409Y0051*
Y00471*
X02404*
Y00466*
X02365*
X02366Y00461*
X0237Y00451*
X02376Y00443*
X02384Y00436*
X0239Y00434*
X02389Y00429*
X02313*
X02309Y00428*
X02306Y00426*
X02276Y00397*
X02271Y00399*
Y00445*
Y02215*
Y02296*
X02271Y023*
X02268Y02304*
X02242Y0233*
Y0235*
X02266*
Y02421*
X02195*
Y0235*
X0222*
Y02325*
X0222Y02322*
X02216Y02319*
X02216Y02319*
X02164Y02372*
X02165Y02376*
X02167Y02385*
X02165Y02395*
X02162Y02403*
X02156Y02411*
X02149Y02416*
X0214Y0242*
X02131Y02421*
G37*
G36*
X00614Y00392D02*
Y00376D01*
X0063*
X00629Y00379*
X00624Y00386*
X00617Y00391*
X00614Y00392*
G37*
G36*
X00604D02*
X006Y00391D01*
X00593Y00386*
X00588Y00379*
X00588Y00376*
X00604*
Y00392*
G37*
G36*
X01649Y00395D02*
X01615D01*
Y0036*
X0162Y00361*
X0163Y00365*
X01638Y00371*
X01645Y0038*
X01649Y00389*
X01649Y00395*
G37*
G36*
X01605D02*
X0157D01*
X01571Y00389*
X01575Y0038*
X01581Y00371*
X0159Y00365*
X01599Y00361*
X01605Y0036*
Y00395*
G37*
G36*
X0063Y00366D02*
X00614D01*
Y00349*
X00617Y0035*
X00624Y00355*
X00629Y00362*
X0063Y00366*
G37*
G36*
X00604D02*
X00588D01*
X00588Y00362*
X00593Y00355*
X006Y0035*
X00604Y00349*
Y00366*
G37*
G36*
X0161Y00336D02*
X016Y00335D01*
X01592Y00331*
X01584Y00325*
X01578Y00318*
X01575Y00309*
X01574Y003*
X01575Y0029*
X01578Y00282*
X01584Y00274*
X01592Y00268*
X016Y00265*
X0161Y00263*
X01619Y00265*
X01628Y00268*
X01635Y00274*
X01641Y00282*
X01645Y0029*
X01646Y003*
X01645Y00309*
X01641Y00318*
X01635Y00325*
X01628Y00331*
X01619Y00335*
X0161Y00336*
G37*
G36*
X00749Y00117D02*
Y00101D01*
X00765*
X00764Y00104*
X00759Y00112*
X00752Y00117*
X00749Y00117*
G37*
G36*
X00739D02*
X00735Y00117D01*
X00728Y00112*
X00723Y00104*
X00722Y00101*
X00739*
Y00117*
G37*
G36*
X00765Y00091D02*
X00749D01*
Y00075*
X00752Y00075*
X00759Y0008*
X00764Y00087*
X00765Y00091*
G37*
G36*
X00739D02*
X00722D01*
X00723Y00087*
X00728Y0008*
X00735Y00075*
X00739Y00075*
Y00091*
G37*
G36*
X00381Y00258D02*
X00374Y00256D01*
X00369Y00253*
X00365Y00247*
X00363Y0024*
X00365Y00233*
X00369Y00227*
X0037Y00226*
Y00131*
X00365Y00129*
X00358Y00123*
X00352Y00116*
X00349Y00107*
X00347Y00098*
X00349Y00089*
X00352Y0008*
X00358Y00073*
X00365Y00067*
X00374Y00063*
X00383Y00062*
X00392Y00063*
X00401Y00067*
X00408Y00073*
X00414Y0008*
X00418Y00089*
X00419Y00098*
X00418Y00107*
X00414Y00116*
X00408Y00123*
X00401Y00129*
X00392Y00132*
Y00226*
X00394Y00227*
X00398Y00233*
X00399Y0024*
X00398Y00247*
X00394Y00253*
X00388Y00256*
X00381Y00258*
G37*
G36*
X02421Y00306D02*
X02401Y00304D01*
X02381Y003*
X02362Y00292*
X02345Y00281*
X02329Y00268*
X02316Y00253*
X02305Y00235*
X02298Y00217*
X02293Y00197*
X02291Y00177*
X02293Y00156*
X02298Y00137*
X02305Y00118*
X02316Y00101*
X02329Y00085*
X02345Y00072*
X02362Y00061*
X02381Y00054*
X02401Y00049*
X02421Y00047*
X02441Y00049*
X02461Y00054*
X0248Y00061*
X02497Y00072*
X02512Y00085*
X02525Y00101*
X02536Y00118*
X02544Y00137*
X02549Y00156*
X0255Y00177*
X02549Y00197*
X02544Y00217*
X02536Y00235*
X02525Y00253*
X02512Y00268*
X02497Y00281*
X0248Y00292*
X02461Y003*
X02441Y00304*
X02421Y00306*
G37*
G36*
X00177D02*
X00156Y00304D01*
X00137Y003*
X00118Y00292*
X00101Y00281*
X00085Y00268*
X00072Y00253*
X00061Y00235*
X00054Y00217*
X00049Y00197*
X00047Y00177*
X00049Y00156*
X00054Y00137*
X00061Y00118*
X00072Y00101*
X00085Y00085*
X00101Y00072*
X00118Y00061*
X00137Y00054*
X00156Y00049*
X00177Y00047*
X00197Y00049*
X00217Y00054*
X00235Y00061*
X00253Y00072*
X00268Y00085*
X00281Y00101*
X00292Y00118*
X003Y00137*
X00304Y00156*
X00306Y00177*
X00304Y00197*
X003Y00217*
X00292Y00235*
X00281Y00253*
X00268Y00268*
X00253Y00281*
X00235Y00292*
X00217Y003*
X00197Y00304*
X00177Y00306*
G37*
%LNmoveh_messkette_einseitig_v2-3*%
%LPD*%
G36*
X02438Y02408D02*
X02454Y02404D01*
X02469Y02398*
X02484Y02389*
X02496Y02378*
X02507Y02366*
X02516Y02351*
X02523Y02336*
X02526Y02319*
X02528Y02303*
X02526Y02286*
X02523Y0227*
X02516Y02254*
X02507Y0224*
X02496Y02227*
X02484Y02216*
X02469Y02207*
X02454Y02201*
X02438Y02197*
X02421Y02196*
X02404Y02197*
X02388Y02201*
X02372Y02207*
X02358Y02216*
X02345Y02227*
X02334Y0224*
X02325Y02254*
X02319Y0227*
X02315Y02286*
X02314Y02303*
X02315Y02319*
X02319Y02336*
X02325Y02351*
X02334Y02366*
X02345Y02378*
X02358Y02389*
X02372Y02398*
X02388Y02404*
X02404Y02408*
X02421Y0241*
X02438Y02408*
G37*
G36*
X00193D02*
X0021Y02404D01*
X00225Y02398*
X0024Y02389*
X00252Y02378*
X00263Y02366*
X00272Y02351*
X00278Y02336*
X00282Y02319*
X00284Y02303*
X00282Y02286*
X00278Y0227*
X00272Y02254*
X00263Y0224*
X00252Y02227*
X0024Y02216*
X00225Y02207*
X0021Y02201*
X00193Y02197*
X00177Y02196*
X0016Y02197*
X00144Y02201*
X00128Y02207*
X00114Y02216*
X00101Y02227*
X0009Y0224*
X00081Y02254*
X00075Y0227*
X00071Y02286*
X0007Y02303*
X00071Y02319*
X00075Y02336*
X00081Y02351*
X0009Y02366*
X00101Y02378*
X00114Y02389*
X00128Y02398*
X00144Y02404*
X0016Y02408*
X00177Y0241*
X00193Y02408*
G37*
G36*
X01618Y01405D02*
X01618Y01404D01*
X01611*
X01608Y01405*
X00557*
X00554Y0141*
X00554Y0141*
X01616*
X01618Y01405*
G37*
G36*
X01535Y01331D02*
X01537Y01326D01*
X01536Y01324*
X00507*
X00505Y01326*
X00507Y01331*
X01535*
G37*
G36*
X00385Y01334D02*
D01*
X00389Y01332*
X00393Y01331*
X00477*
X00479Y01326*
X00478Y01325*
X00474Y01319*
X00473Y01313*
X00474Y01306*
X00478Y013*
X0048Y01298*
X00479Y01293*
X00369*
X00354Y01307*
X00357Y01314*
X00359Y01323*
X00357Y01333*
X00354Y01341*
X00348Y01349*
X00342Y01353*
X00343Y01358*
X00361*
X00385Y01334*
G37*
G36*
X01285Y01243D02*
X01291Y01239D01*
X01298Y01237*
X01298Y01237*
X01301Y01233*
X013Y01228*
X01302Y01221*
X01306Y01215*
X01311Y01211*
X01315Y01211*
X01314Y01206*
X01092*
X0109Y01211*
X01092Y01212*
X01096Y01218*
X01097Y01225*
X01096Y01231*
X01092Y01237*
X01089Y01239*
X01091Y01244*
X01284*
X01285Y01243*
G37*
G36*
X0108Y00224D02*
X01079Y00223D01*
X01078Y00217*
X00701*
X00701Y00222*
X00705Y00223*
X0071Y00227*
X00711Y00229*
X01077*
X0108Y00224*
G37*
G36*
X02438Y00282D02*
X02454Y00278D01*
X02469Y00272*
X02484Y00263*
X02496Y00252*
X02507Y0024*
X02516Y00225*
X02523Y0021*
X02526Y00193*
X02528Y00177*
X02526Y0016*
X02523Y00144*
X02516Y00128*
X02507Y00114*
X02496Y00101*
X02484Y0009*
X02469Y00081*
X02454Y00075*
X02438Y00071*
X02421Y0007*
X02404Y00071*
X02388Y00075*
X02372Y00081*
X02358Y0009*
X02345Y00101*
X02334Y00114*
X02325Y00128*
X02319Y00144*
X02315Y0016*
X02314Y00177*
X02315Y00193*
X02319Y0021*
X02325Y00225*
X02334Y0024*
X02345Y00252*
X02358Y00263*
X02372Y00272*
X02388Y00278*
X02404Y00282*
X02421Y00284*
X02438Y00282*
G37*
G36*
X00193D02*
X0021Y00278D01*
X00225Y00272*
X0024Y00263*
X00252Y00252*
X00263Y0024*
X00272Y00225*
X00278Y0021*
X00282Y00193*
X00284Y00177*
X00282Y0016*
X00278Y00144*
X00272Y00128*
X00263Y00114*
X00252Y00101*
X0024Y0009*
X00225Y00081*
X0021Y00075*
X00193Y00071*
X00177Y0007*
X0016Y00071*
X00144Y00075*
X00128Y00081*
X00114Y0009*
X00101Y00101*
X0009Y00114*
X00081Y00128*
X00075Y00144*
X00071Y0016*
X0007Y00177*
X00071Y00193*
X00075Y0021*
X00081Y00225*
X0009Y0024*
X00101Y00252*
X00114Y00263*
X00128Y00272*
X00144Y00278*
X0016Y00282*
X00177Y00284*
X00193Y00282*
G37*
%LNmoveh_messkette_einseitig_v2-4*%
%LPC*%
G36*
X02421Y02372D02*
X02407Y02371D01*
X02394Y02367*
X02382Y0236*
X02372Y02352*
X02363Y02341*
X02357Y02329*
X02353Y02316*
X02352Y02303*
X02353Y02289*
X02357Y02276*
X02363Y02264*
X02372Y02254*
X02382Y02245*
X02394Y02239*
X02407Y02235*
X02421Y02233*
X02434Y02235*
X02447Y02239*
X02459Y02245*
X0247Y02254*
X02478Y02264*
X02485Y02276*
X02489Y02289*
X0249Y02303*
X02489Y02316*
X02485Y02329*
X02478Y02341*
X0247Y02352*
X02459Y0236*
X02447Y02367*
X02434Y02371*
X02421Y02372*
G37*
G36*
X00177D02*
X00163Y02371D01*
X0015Y02367*
X00138Y0236*
X00128Y02352*
X00119Y02341*
X00113Y02329*
X00109Y02316*
X00107Y02303*
X00109Y02289*
X00113Y02276*
X00119Y02264*
X00128Y02254*
X00138Y02245*
X0015Y02239*
X00163Y02235*
X00177Y02233*
X0019Y02235*
X00203Y02239*
X00215Y02245*
X00226Y02254*
X00234Y02264*
X00241Y02276*
X00245Y02289*
X00246Y02303*
X00245Y02316*
X00241Y02329*
X00234Y02341*
X00226Y02352*
X00215Y0236*
X00203Y02367*
X0019Y02371*
X00177Y02372*
G37*
G36*
X02421Y00246D02*
X02407Y00245D01*
X02394Y00241*
X02382Y00234*
X02372Y00226*
X02363Y00215*
X02357Y00203*
X02353Y0019*
X02352Y00177*
X02353Y00163*
X02357Y0015*
X02363Y00138*
X02372Y00128*
X02382Y00119*
X02394Y00113*
X02407Y00109*
X02421Y00107*
X02434Y00109*
X02447Y00113*
X02459Y00119*
X0247Y00128*
X02478Y00138*
X02485Y0015*
X02489Y00163*
X0249Y00177*
X02489Y0019*
X02485Y00203*
X02478Y00215*
X0247Y00226*
X02459Y00234*
X02447Y00241*
X02434Y00245*
X02421Y00246*
G37*
G36*
X00177D02*
X00163Y00245D01*
X0015Y00241*
X00138Y00234*
X00128Y00226*
X00119Y00215*
X00113Y00203*
X00109Y0019*
X00107Y00177*
X00109Y00163*
X00113Y0015*
X00119Y00138*
X00128Y00128*
X00138Y00119*
X0015Y00113*
X00163Y00109*
X00177Y00107*
X0019Y00109*
X00203Y00113*
X00215Y00119*
X00226Y00128*
X00234Y00138*
X00241Y0015*
X00245Y00163*
X00246Y00177*
X00245Y0019*
X00241Y00203*
X00234Y00215*
X00226Y00226*
X00215Y00234*
X00203Y00241*
X0019Y00245*
X00177Y00246*
G37*
%LNmoveh_messkette_einseitig_v2-5*%
%LPD*%
G54D10*
X00767Y00978D02*
D01*
X00702Y00913D02*
X00767Y00978D01*
X00402Y00691D02*
X00764D01*
X00898Y00444D02*
X01938D01*
X01727Y00696D02*
X018Y00769D01*
X01925*
X00973Y01126D02*
X00999D01*
X00944Y01156D02*
X00973Y01126D01*
X00889Y01156D02*
X00944D01*
X02098Y00202D02*
X02313Y00418D01*
X02439*
X02483Y00461*
Y00471*
X00361Y00651D02*
X00402Y00691D01*
X00222Y00651D02*
X00361D01*
X00764Y00691D02*
X00938D01*
X00543Y00614D02*
X01253D01*
X00516Y0064D02*
X00543Y00614D01*
X00999Y01126D02*
X0104Y01168D01*
X01357*
X00886Y01158D02*
X00889Y01156D01*
X01023Y01194D02*
X01335D01*
X00985Y01157D02*
X01023Y01194D01*
X01335D02*
X01342Y01201D01*
X00988Y01235D02*
X01001Y01222D01*
X00985Y01235D02*
X00988D01*
X01001Y01222D02*
X01078D01*
X00385Y00637D02*
X00389Y0064D01*
X00446Y00465D02*
X00493Y00511D01*
X00244Y00465D02*
X00446D01*
X00204Y00425D02*
X00244Y00465D01*
X00493Y00511D02*
X00555D01*
X00437Y00425D02*
X00775D01*
X01147Y00305D02*
X01205Y00247D01*
X00515Y00305D02*
X01147D01*
X00789Y00438D02*
X00793D01*
X00775Y00425D02*
X00789Y00438D01*
X0059Y00481D02*
X00803D01*
X00698Y00508D02*
X00835D01*
X00695Y00511D02*
X00698Y00508D01*
X00555Y00511D02*
X00695D01*
X00835Y00508D02*
X00898Y00444D01*
X00307Y00543D02*
X0057D01*
X00578Y00535*
X00798*
X01903Y00675D02*
X02002D01*
X01902Y00346D02*
X01926Y00322D01*
X01988*
X02045Y00293D02*
X02062Y00317D01*
X0191Y00293D02*
X02045D01*
X01901Y00302D02*
X0191Y00293D01*
X0182Y00271D02*
X02067D01*
X01812Y0028D02*
X0182Y00271D01*
X02067D02*
X02078Y00282D01*
X02023Y00478D02*
X02025Y0048D01*
X01846Y00478D02*
X02023D01*
X0114Y0051D02*
X01142Y00512D01*
X01015Y0051D02*
X0114D01*
X01145Y00202D02*
X02098D01*
X01129Y00187D02*
X01145Y00202D01*
X00695Y00187D02*
X01129D01*
X02231Y02325D02*
Y02385D01*
Y02325D02*
X0226Y02296D01*
Y02215D02*
Y02296D01*
X02147Y02373D02*
Y02384D01*
Y02373D02*
X02237Y02283D01*
Y00396*
X0226Y02215D02*
Y00445D01*
Y00392D02*
Y00445D01*
X02095Y00227D02*
X0226Y00392D01*
X01123Y00227D02*
X02095D01*
X02087Y00247D02*
X02237Y00396D01*
X02172Y01398D02*
X02195Y0142D01*
X02172Y00869D02*
Y01398D01*
X02169Y00866D02*
X02172Y00869D01*
X0208Y00826D02*
X02147Y00893D01*
X0208Y00714D02*
Y00826D01*
X02047Y00838D02*
Y00893D01*
X02023Y00814D02*
X02047Y00838D01*
X02023Y00696D02*
Y00814D01*
X02002Y00675D02*
X02023Y00696D01*
X01205Y00247D02*
X02087D01*
X01107Y00243D02*
X01123Y00227D01*
X01085Y00243D02*
X01107D01*
X01082Y0024D02*
X01085Y00243D01*
X00698Y0024D02*
X01082D01*
X00483Y00092D02*
X00526Y00049D01*
X00483Y00092D02*
Y00098D01*
X00526Y00049D02*
X00625D01*
X00649Y00072*
Y0014*
X00583Y00098D02*
X00637Y00152D01*
X00639*
X00649Y0014D02*
X00695Y00187D01*
X00381Y001D02*
X00383Y00098D01*
X00639Y00152D02*
X00693Y00206D01*
X01086*
X01253Y00614D02*
X01285Y00646D01*
X00364Y01282D02*
X01527D01*
X00323Y01323D02*
X00364Y01282D01*
X01527D02*
X01532Y01277D01*
X01143Y00696D02*
X01727D01*
X01086Y00206D02*
X01096Y00216D01*
X01477Y00358D02*
X01512Y00393D01*
Y00396*
X00903Y00358D02*
X01477D01*
X0089Y00345D02*
X00903Y00358D01*
X01164Y00385D02*
X01466D01*
X01157Y00377D02*
X01164Y00385D01*
X00852Y00377D02*
X01157D01*
X01285Y00646D02*
X01289D01*
X00389Y0064D02*
X00516D01*
X01414Y0102D02*
Y01021D01*
X01411Y01024D02*
X01414Y01021D01*
X01681Y00889D02*
X01685D01*
X01673Y00897D02*
X01681Y00889D01*
X01539Y00897D02*
X01673D01*
X01631Y01393D02*
X01632Y01394D01*
X01609Y01393D02*
X01631D01*
X01608Y01393D02*
X01609Y01393D01*
X00524Y01393D02*
X01608D01*
X00521Y01397D02*
X00524Y01393D01*
X00498Y01397D02*
X00521D01*
X00496Y01399D02*
X00498Y01397D01*
X01754Y0087D02*
X01757D01*
X01742Y00858D02*
X01754Y0087D01*
X01531Y00858D02*
X01742D01*
X01414Y0102D02*
X01455D01*
X0169Y00803D02*
X01715Y00777D01*
X01555Y00803D02*
X0169D01*
X01531Y00858D02*
X01531Y00858D01*
X0127Y00831D02*
X01715D01*
X01228Y00874D02*
X0127Y00831D01*
X01715D02*
X01715Y00831D01*
X00393Y01342D02*
X01574D01*
X00472Y0137D02*
X01597D01*
X00535Y01421D02*
X01657D01*
X01822*
X00491Y01313D02*
X01552D01*
X01462Y01026D02*
X01662D01*
X01455Y0102D02*
X01462Y01026D01*
X01189Y01058D02*
X0133D01*
X01185D02*
X01189D01*
X0133D02*
X01392Y00996D01*
X01314Y00565D02*
X01333Y00583D01*
X01309Y00565D02*
X01314D01*
X01333Y00583D02*
X01435D01*
X01295Y00581D02*
X01326Y00613D01*
X01435Y00583D02*
X01441Y0059D01*
X01326Y00613D02*
X01409D01*
X00519Y00597D02*
X01288D01*
X01332Y00641*
X00858Y02134D02*
Y02173D01*
X00748Y02283D02*
X00858Y02173D01*
X007Y02283D02*
X00748D01*
X004D02*
X00494Y02188D01*
X006Y02283D02*
X00651Y02232D01*
X005Y02283D02*
X0057Y02212D01*
X00744*
X00803Y02153*
X01318Y01503D02*
Y02381D01*
X00326Y02D02*
X00649D01*
X00459Y0137D02*
X00472D01*
X00353Y01476D02*
X00459Y0137D01*
X0027Y01476D02*
X00353D01*
X00223Y01523D02*
X0027Y01476D01*
X00284Y01685D02*
X00535D01*
X00223Y01623D02*
X00284Y01685D01*
X0027Y01076D02*
X00488D01*
X00223Y01123D02*
X0027Y01076D01*
X00366Y0137D02*
X00393Y01342D01*
X00277Y0137D02*
X00366D01*
X00223Y01423D02*
X00277Y0137D01*
X00779Y02047D02*
Y02137D01*
Y02047D02*
D01*
X00858Y01968D01*
X00822Y02114D02*
X00858Y02078D01*
X00822Y02114D02*
Y02173D01*
X00803Y02078D02*
X00858Y02023D01*
X00728Y02188D02*
X00779Y02137D01*
X00494Y02188D02*
X00728D01*
X00803Y02078D02*
Y02153D01*
X00763Y02232D02*
X00822Y02173D01*
X00651Y02232D02*
X00763D01*
X01018Y01255D02*
X01298D01*
X01972Y01453D02*
X01972Y01452D01*
X01392Y00996D02*
X01519D01*
X01677*
X01685Y00988*
X00323Y01623D02*
X00347D01*
X00326Y019D02*
X00328Y01898D01*
X00326Y021D02*
X00327Y021D01*
X01972Y01078D02*
Y01452D01*
Y01078D02*
X01996Y01055D01*
X00429Y00565D02*
X0046D01*
X00424Y0057D02*
X00429Y00565D01*
X0047Y00581D02*
X00478D01*
X00456Y00595D02*
X0047Y00581D01*
X00452Y00595D02*
X00456D01*
X00478Y00581D02*
X01295D01*
X00512Y00597D02*
X00519D01*
X00495Y00614D02*
X00512Y00597D01*
X00492Y00614D02*
X00495D01*
X0046Y00565D02*
X01309D01*
X01332Y00641D02*
X01377D01*
X01925Y00769D02*
X01942Y00787D01*
Y01275*
X02044Y00813D02*
X02097Y00866D01*
X02044Y00667D02*
Y00813D01*
X02097Y00866D02*
Y00893D01*
X01141Y00874D02*
X01228D01*
X02047Y00893D02*
X02047Y00893D01*
X01135Y00393D02*
X01158Y00416D01*
X00797Y00393D02*
X01135D01*
X00819Y00345D02*
X00852Y00377D01*
X00748Y00345D02*
X00797Y00393D01*
X00381Y001D02*
Y0024D01*
G54D82*
X00304Y00543D03*
Y00425D03*
X02131Y02385D03*
X02404Y00471D03*
X02483D03*
X01196Y02381D03*
X007Y02283D03*
X006Y02383D03*
Y02283D03*
X005Y02383D03*
Y02283D03*
X004Y02383D03*
Y02283D03*
X00874Y02383D03*
X01414Y02381D03*
X00483Y00098D03*
X00383D03*
X00323Y01023D03*
X00223D03*
X00323Y01123D03*
X00223D03*
X00323Y01223D03*
X00223D03*
X00323Y01323D03*
X00223D03*
X00323Y01423D03*
X00223D03*
X00323Y01523D03*
X00223D03*
X00323Y01623D03*
X00326Y02D03*
Y021D03*
G54D83*
X00204Y00543D03*
Y00425D03*
X02231Y02385D03*
X01096Y02381D03*
X007Y02383D03*
X00974D03*
X01314Y02381D03*
X00583Y00098D03*
G54D84*
X0161Y004D03*
Y003D03*
G54D85*
X00223Y01623D03*
X00326Y019D03*
G54D86*
X00767Y00978D03*
X00702Y00913D03*
X01093Y00797D03*
X01306Y00517D03*
X00609Y00371D03*
X00641Y00744D03*
X0145Y01189D03*
X01999Y02381D03*
X02476Y02019D03*
X01577Y02375D03*
X00176Y02085D03*
X01522Y00606D03*
X00744Y00096D03*
X00133Y00736D03*
X00999Y00764D03*
X00943Y01046D03*
X02176Y00745D03*
X00587Y0069D03*
X00938Y00691D03*
X00764D03*
X00222Y00651D03*
X01079Y01225D03*
X01357Y01168D03*
X01342Y01201D03*
X00985Y01157D03*
X00886Y01158D03*
X00985Y01235D03*
X00385Y00637D03*
X00442Y00423D03*
X00515Y00305D03*
X00588Y0048D03*
X00793Y00438D03*
X00803Y00481D03*
X01902Y00346D03*
X01988Y00322D03*
X01901Y00302D03*
X02025Y0048D03*
X01812Y0028D03*
X01846Y00478D03*
X02062Y00317D03*
X02078Y00282D03*
X01938Y00442D03*
X01015Y0051D03*
X02195Y0142D03*
X02146Y00901D03*
X02169Y00866D03*
X02082Y0071D03*
X00798Y00535D03*
X01143Y00696D03*
X01466Y00385D03*
X01521Y00786D03*
X02199Y00901D03*
X01715Y00777D03*
X01757Y0087D03*
X01539Y00897D03*
X01411Y01024D03*
X00496Y01399D03*
X00535Y01421D03*
X00491Y01313D03*
X01552D03*
X01532Y01277D03*
X01662Y01026D03*
X01665Y01425D03*
X01093Y00893D03*
X01092Y00849D03*
X01407Y01066D03*
X01476Y01066D03*
X01606Y00603D03*
X02137Y0142D03*
X02003Y01413D03*
X01826Y01425D03*
X01035Y00678D03*
X01003Y00654D03*
X01555Y00803D03*
X01523Y01066D03*
X01444Y01047D03*
X01392Y01102D03*
X01374Y01133D03*
X01318Y01228D03*
X00649Y02D03*
X00535Y01685D03*
X00488Y01076D03*
X01318Y01503D03*
X01018Y01255D03*
X01298D03*
X00858Y01968D03*
Y02023D03*
Y02078D03*
Y02134D03*
X01519Y00996D03*
X01189Y01058D03*
X01633Y0139D03*
X01597Y01367D03*
X01972Y01452D03*
X01574Y0134D03*
X01685Y00988D03*
X00555Y00511D03*
X01441Y0059D03*
X01409Y00613D03*
X01377Y00641D03*
X00452Y00595D03*
X00492Y00614D03*
X00417Y00574D03*
X01287Y0064D03*
X01715Y00831D03*
X01942Y01275D03*
X01685Y00889D03*
X01802Y00765D03*
X01531Y00858D03*
X01141Y00874D03*
X02046Y00901D03*
X01996Y01055D03*
X02096Y00901D03*
X01905Y00671D03*
X02046Y00663D03*
X00698Y0024D03*
X00381D03*
X01096Y00216D03*
X01158Y00416D03*
X01512Y00396D03*
X00748Y00345D03*
X0089D03*
X00819D03*
X01607Y00507D03*
G54D87*
X00177Y00177D03*
Y02303D03*
X02421D03*
Y00177D03*
G54D88*
X01221Y00512D03*
X01142D03*
M02*