G04*
G04 #@! TF.GenerationSoftware,Altium Limited,Altium Designer,19.0.14 (431)*
G04*
G04 Layer_Color=16711935*
%FSLAX25Y25*%
%MOIN*%
G70*
G01*
G75*
%ADD47R,0.06706X0.06706*%
%ADD48C,0.06706*%
%ADD49C,0.06800*%
%ADD50R,0.06706X0.06706*%
%ADD51C,0.03162*%
%ADD52C,0.13398*%
%ADD89R,0.06312X0.06706*%
D47*
X31102Y73425D02*
D03*
X20413Y54331D02*
D03*
Y42520D02*
D03*
X223130Y238583D02*
D03*
X109638Y238189D02*
D03*
X70000Y238347D02*
D03*
X97402D02*
D03*
X131496Y238189D02*
D03*
X58366Y9843D02*
D03*
D48*
X21102Y73425D02*
D03*
X11102D02*
D03*
X30413Y54331D02*
D03*
Y42520D02*
D03*
X213130Y238583D02*
D03*
X240453Y47146D02*
D03*
X248327D02*
D03*
X119638Y238189D02*
D03*
X70000Y228346D02*
D03*
X60000Y238347D02*
D03*
Y228346D02*
D03*
X50000Y238347D02*
D03*
Y228346D02*
D03*
X40000Y238347D02*
D03*
Y228346D02*
D03*
X87402Y238347D02*
D03*
X141496Y238189D02*
D03*
X48366Y9843D02*
D03*
X38366D02*
D03*
X32327Y102398D02*
D03*
X22327D02*
D03*
X32327Y112398D02*
D03*
X22327D02*
D03*
X32327Y122398D02*
D03*
X22327D02*
D03*
X32327Y132398D02*
D03*
X22327D02*
D03*
X32327Y142398D02*
D03*
X22327D02*
D03*
X32327Y152398D02*
D03*
X22327D02*
D03*
X32327Y162398D02*
D03*
X32677Y200000D02*
D03*
Y210000D02*
D03*
D49*
X161024Y40020D02*
D03*
Y30020D02*
D03*
D50*
X22327Y162398D02*
D03*
X32677Y190000D02*
D03*
D51*
X93012Y92716D02*
D03*
X8858Y62205D02*
D03*
X79661Y73658D02*
D03*
X202559Y48031D02*
D03*
X198819Y32283D02*
D03*
X181201Y28051D02*
D03*
X190157Y30217D02*
D03*
X77208Y98819D02*
D03*
X70276Y91339D02*
D03*
X109350Y79724D02*
D03*
X130610Y51772D02*
D03*
X60925Y37106D02*
D03*
X63287Y75295D02*
D03*
X145079Y118996D02*
D03*
X199902Y238114D02*
D03*
X247638Y201969D02*
D03*
X157776Y237500D02*
D03*
X17618Y208563D02*
D03*
X152264Y60630D02*
D03*
X74410Y9646D02*
D03*
X99902Y76476D02*
D03*
X94390Y104626D02*
D03*
X217618Y74508D02*
D03*
X58760Y69095D02*
D03*
X93898Y69193D02*
D03*
X73917Y69173D02*
D03*
X22244Y65158D02*
D03*
X107972Y122505D02*
D03*
X135728Y116831D02*
D03*
X134252Y120177D02*
D03*
X98524Y115707D02*
D03*
X88681Y115847D02*
D03*
X98524Y123524D02*
D03*
X38583Y63779D02*
D03*
X44291Y42323D02*
D03*
X51575Y30512D02*
D03*
X58861Y48034D02*
D03*
X79331Y43898D02*
D03*
X80319Y48132D02*
D03*
X190217Y34654D02*
D03*
X184606Y47835D02*
D03*
X206201Y31791D02*
D03*
X207874Y28248D02*
D03*
X193898Y44291D02*
D03*
X101575Y51083D02*
D03*
X219577Y142096D02*
D03*
X214606Y90158D02*
D03*
X216929Y86619D02*
D03*
X208228Y71063D02*
D03*
X79823Y53543D02*
D03*
X114370Y69685D02*
D03*
X146653Y38508D02*
D03*
X152165Y78642D02*
D03*
X219991Y90162D02*
D03*
X171563Y77760D02*
D03*
X175787Y87008D02*
D03*
X153937Y89764D02*
D03*
X141157Y102451D02*
D03*
X49609Y139968D02*
D03*
X53543Y142126D02*
D03*
X49117Y131306D02*
D03*
X155217D02*
D03*
X153248Y127756D02*
D03*
X166240Y102657D02*
D03*
X166535Y142520D02*
D03*
X109350Y89370D02*
D03*
X109252Y84941D02*
D03*
X140748Y106685D02*
D03*
X147638Y106693D02*
D03*
X160630Y60335D02*
D03*
X213720Y142067D02*
D03*
X200394Y141339D02*
D03*
X182677Y142520D02*
D03*
X103543Y67803D02*
D03*
X100394Y65455D02*
D03*
X155512Y80315D02*
D03*
X152362Y106685D02*
D03*
X144488Y104724D02*
D03*
X139264Y110236D02*
D03*
X137402Y113386D02*
D03*
X131890Y122835D02*
D03*
X64961Y200000D02*
D03*
X53543Y168504D02*
D03*
X48819Y107658D02*
D03*
X131890Y150394D02*
D03*
X101870Y125591D02*
D03*
X129823D02*
D03*
X85827Y196850D02*
D03*
Y202362D02*
D03*
Y207874D02*
D03*
Y213484D02*
D03*
X151969Y99606D02*
D03*
X118996Y105807D02*
D03*
X163386Y139075D02*
D03*
X159744Y136713D02*
D03*
X197244Y145276D02*
D03*
X157480Y134055D02*
D03*
X168504Y98819D02*
D03*
X55512Y51181D02*
D03*
X144193Y59055D02*
D03*
X140945Y61319D02*
D03*
X137795Y64102D02*
D03*
X45276Y59581D02*
D03*
X49213Y61417D02*
D03*
X41732Y57480D02*
D03*
X128740Y64075D02*
D03*
X171563Y83161D02*
D03*
X194252Y127559D02*
D03*
X168504Y88969D02*
D03*
X180276Y76575D02*
D03*
X153150Y85827D02*
D03*
X114173Y87402D02*
D03*
X204606Y90158D02*
D03*
X199606Y105512D02*
D03*
X209606Y90158D02*
D03*
X190512Y67126D02*
D03*
X204685Y66339D02*
D03*
X69809Y24024D02*
D03*
X38181D02*
D03*
X109638Y21654D02*
D03*
X115839Y41642D02*
D03*
X151272Y39673D02*
D03*
X74894Y34555D02*
D03*
X89067D02*
D03*
X81980D02*
D03*
X160728Y50787D02*
D03*
D52*
X17717Y17717D02*
D03*
Y230315D02*
D03*
X242126D02*
D03*
Y17717D02*
D03*
D89*
X122146Y51279D02*
D03*
X114272D02*
D03*
M02*
