G04*
G04 #@! TF.GenerationSoftware,Altium Limited,Altium Designer,19.0.14 (431)*
G04*
G04 Layer_Color=32896*
%FSLAX25Y25*%
%MOIN*%
G70*
G01*
G75*
%ADD12C,0.00787*%
%ADD14C,0.00394*%
D12*
X118209Y48720D02*
Y53839D01*
X197835Y241142D02*
Y245077D01*
X196523Y243765D01*
X195211Y245077D01*
Y241142D01*
X193243D02*
X191931D01*
X191275Y241798D01*
Y243110D01*
X191931Y243765D01*
X193243D01*
X193899Y243110D01*
Y241798D01*
X193243Y241142D01*
X189963Y243765D02*
X188651Y241142D01*
X187339Y243765D01*
X184060Y241142D02*
X185371D01*
X186027Y241798D01*
Y243110D01*
X185371Y243765D01*
X184060D01*
X183404Y243110D01*
Y242454D01*
X186027D01*
X182092Y245077D02*
Y241142D01*
Y243110D01*
X179468D01*
Y245077D01*
Y241142D01*
X174220Y245077D02*
Y242454D01*
X172908Y241142D01*
X171596Y242454D01*
Y245077D01*
X167661Y241142D02*
X170284D01*
X167661Y243765D01*
Y244422D01*
X168317Y245077D01*
X169629D01*
X170284Y244422D01*
X166349Y240486D02*
X163725D01*
X159789Y241142D02*
X162413D01*
X159789Y243765D01*
Y244422D01*
X160445Y245077D01*
X161757D01*
X162413Y244422D01*
D14*
X109153Y46949D02*
X109678D01*
X109416D01*
Y45375D01*
X109153Y45637D01*
X110466D02*
X110728Y45375D01*
X111253D01*
X111515Y45637D01*
Y46686D01*
X111253Y46949D01*
X110728D01*
X110466Y46686D01*
Y45637D01*
X112040Y46949D02*
Y45375D01*
Y46424D02*
X112827Y45899D01*
X112040Y46424D02*
X112827Y46949D01*
X115188Y45375D02*
X116238D01*
X115713D01*
Y46949D01*
X116763Y45375D02*
Y46949D01*
Y46162D01*
X117025Y45899D01*
X117550D01*
X117812Y46162D01*
Y46949D01*
X119124D02*
X118599D01*
X118337Y46686D01*
Y46162D01*
X118599Y45899D01*
X119124D01*
X119386Y46162D01*
Y46424D01*
X118337D01*
X119911Y45899D02*
Y46949D01*
Y46424D01*
X120174Y46162D01*
X120436Y45899D01*
X120698D01*
X121485Y46949D02*
Y45899D01*
X121748D01*
X122010Y46162D01*
Y46949D01*
Y46162D01*
X122273Y45899D01*
X122535Y46162D01*
Y46949D01*
M02*
