M48
;Layer_Color=9474304
;FILE_FORMAT=2:4
INCH,TZ
;TYPE=PLATED
T1F00S00C0.0118
T2F00S00C0.0354
T3F00S00C0.1260
%
T01
X3818Y2402
X4606Y3593
X4045Y5118
X5551
X5945Y5354
X7982
X7962Y4952
X7982Y4498
X8198Y3456
X8907
X7489
X6976Y4166
X6981Y2402
X10157Y5108
X11584Y4164
X10964Y2165
X14665Y3851
X15127Y3967
X16073Y5079
X19705Y4429
X20449Y6675
X20803Y7148
X21437Y6487
X21693Y8662
X21461Y9016
X20961
X20461
X21999Y9016
X19961Y10551
X19425Y12756
X20039Y14134
X19724Y14528
X18268Y14252
X16654Y14252
X16339Y13907
X15974Y13671
X15748Y13406
X15522Y13131
X15325Y12776
X15236Y10668
X14764Y10669
X14449Y10472
X14116Y10245
X14075Y10668
X13926Y11024
X13740Y11339
X13543Y11654
X13386Y11968
X13189Y12283
X12982Y12559
X12895Y14535
X13189Y15039
X11900Y10581
X10787Y11394
X10935Y8937
X10925Y8494
X11417Y8740
X11437Y6969
X12874Y6407
X13780Y6410
X14094Y6132
X14419Y5906
X15217Y7864
X15551Y8031
X15315Y8583
X15394Y8976
X15197Y9961
X16624Y10266
X16850Y9882
Y8897
X17156Y8316
X17156Y7776
X18008Y7699
X17579Y8701
X18346Y6496
X19031Y6754
X21372Y14207
X21958Y14210
X10187Y12559
X9730Y11396
X8465
X7883Y11986
X7372Y11742
X6811Y11396
X4882Y10766
X4912Y13131
X4961Y13997
X5354Y14213
Y16850
X6496Y20000
X8583Y20236
Y19685
Y20787
X10039Y6546
X10354Y6780
X4921Y6142
X4528Y5958
X4173Y5748
X3858Y6378
X8583Y21348
T02
X3837Y984
X4837
X5837
X16102Y3002
Y4002
X24045Y4715
X24833
X3233Y10240
X2233
Y11240
X3233
Y12240
X2233
Y13240
X3233
Y14240
X2233
Y15240
X3233
Y16240
X2233
X3268Y19000
Y20000
Y21000
X4000Y22835
X5000
X6000
X7000
Y23835
X6000
X5000
X4000
X8740
X9740
X10964Y23819
X11964
X13150
X14150
X21313Y23858
X22313
T03
X1772Y1772
X24213
X1772Y23031
X24213
M30
