M48
;Layer_Color=9474304
;FILE_FORMAT=2:4
INCH,TZ
;TYPE=PLATED
T1F00S00C0.0118
T2F00S00C0.0354
T3F00S00C0.1260
%
T01
X3818Y2402
X5157Y3051
X6093Y3711
X5886Y4803
X5551Y5118
X4429Y4232
X7933Y4390
X8032Y4813
X7982Y5354
X8198Y3456
X8907
X7489
X6981Y2402
X7441Y965
X10157Y5108
X11584Y4164
X13061Y5177
X14665Y3851
X15127Y3967
X16073Y5079
X18461Y4783
X19390Y4429
X20256Y4803
X19882Y3228
X20620Y3179
X20787Y2825
X19016Y3022
X19022Y3465
X18120Y2805
X10964Y2165
X11437Y6969
X10935Y7972
X10925Y8494
X10935Y8937
X11417Y8740
X11900Y10581
X14075Y10668
X14116Y10245
X14449Y10472
X14764Y10669
X15236Y10668
X15197Y9961
X15394Y8976
X15315Y8583
X15551Y8031
X15217Y7864
X15226Y6063
X16063Y6033
X14419Y5906
X14094Y6132
X13780Y6410
X12874Y6407
X17156Y7776
X17156Y8316
X17579Y8701
X16850Y8897
Y9882
X16624Y10266
X13926Y11024
X13740Y11339
X13573Y11683
X13425Y12018
X13189Y12283
X12982Y12559
X14508Y11900
X15325Y12776
X15522Y13131
X15748Y13406
X15974Y13671
X16339Y13907
X16654Y14252
X18268Y14252
X19724Y14528
X20039Y14134
X21372Y14207
X21958Y14210
X19425Y12756
X19961Y10551
X20461Y9016
X20961
X21461
X21999Y9016
X21693Y8662
X21762Y7451
X20823Y7106
X20469Y6634
X19051Y6713
X18028Y7657
X10797Y12251
X13189Y15039
X24764Y20197
X8583Y20236
Y19685
Y20787
X6496Y20000
X5354Y16850
Y14213
X4961Y13997
X4912Y13131
X4882Y10766
X7721Y9882
X7028Y9134
X6329Y7530
X5876Y6909
X7392Y6917
X7966Y7366
X9390Y6919
X10039Y6546
X10354Y6780
X9990Y7648
X9301Y9272
X9439Y10463
X9852Y11571
Y12352
X10187Y12559
X8868Y11585
X4921Y6142
X4528Y5958
X4173Y5748
X3858Y6378
X2224Y6516
X886Y6220
X1762Y20856
X8583Y21348
X15778Y23750
X19990Y23811
T02
X3837Y984
X4837
X5837
X3041Y4252
X2041
Y5433
X3041
X16102Y4002
Y3002
X24045Y4715
X24833
X3110Y7343
X2110
X1110
X2233Y10240
X3233
Y11240
X2233
Y12240
X3233
Y13240
X2233
Y14240
X3233
Y15240
X2233
Y16240
X3233
X3268Y19000
Y20000
Y21000
X4000Y22835
X5000
X6000
X7000
Y23835
X6000
X5000
X4000
X8740
X9740
X10964Y23819
X11964
X13150
X14150
X21313Y23858
X22313
T03
X1772Y1772
X24213
X1772Y23031
X24213
M30
