G04*
G04 #@! TF.GenerationSoftware,Altium Limited,Altium Designer,19.0.14 (431)*
G04*
G04 Layer_Color=8388736*
%FSLAX25Y25*%
%MOIN*%
G70*
G01*
G75*
%ADD18R,0.04343X0.03556*%
%ADD19R,0.03950X0.04343*%
%ADD20R,0.02572X0.06410*%
%ADD21R,0.03556X0.04343*%
%ADD22R,0.30721X0.30721*%
%ADD23R,0.23241X0.25800*%
%ADD24R,0.03359X0.08379*%
%ADD25R,0.04343X0.03950*%
%ADD26R,0.17335X0.17335*%
%ADD27R,0.04343X0.01981*%
%ADD28R,0.01981X0.04343*%
G04:AMPARAMS|DCode=29|XSize=33.2mil|YSize=16.66mil|CornerRadius=5.08mil|HoleSize=0mil|Usage=FLASHONLY|Rotation=0.000|XOffset=0mil|YOffset=0mil|HoleType=Round|Shape=RoundedRectangle|*
%AMROUNDEDRECTD29*
21,1,0.03320,0.00650,0,0,0.0*
21,1,0.02303,0.01666,0,0,0.0*
1,1,0.01016,0.01152,-0.00325*
1,1,0.01016,-0.01152,-0.00325*
1,1,0.01016,-0.01152,0.00325*
1,1,0.01016,0.01152,0.00325*
%
%ADD29ROUNDEDRECTD29*%
G04:AMPARAMS|DCode=30|XSize=33.2mil|YSize=16.66mil|CornerRadius=5.08mil|HoleSize=0mil|Usage=FLASHONLY|Rotation=90.000|XOffset=0mil|YOffset=0mil|HoleType=Round|Shape=RoundedRectangle|*
%AMROUNDEDRECTD30*
21,1,0.03320,0.00650,0,0,90.0*
21,1,0.02303,0.01666,0,0,90.0*
1,1,0.01016,0.00325,0.01152*
1,1,0.01016,0.00325,-0.01152*
1,1,0.01016,-0.00325,-0.01152*
1,1,0.01016,-0.00325,0.01152*
%
%ADD30ROUNDEDRECTD30*%
%ADD31R,0.03950X0.05682*%
%ADD32R,0.04540X0.10642*%
%ADD33R,0.05328X0.09461*%
%ADD34R,0.05367X0.05721*%
%ADD35R,0.05367X0.05524*%
%ADD36R,0.06706X0.05328*%
%ADD37R,0.03162X0.05721*%
%ADD38R,0.03162X0.05524*%
%ADD39R,0.04934X0.06312*%
%ADD40R,0.04540X0.04343*%
%ADD41R,0.04737X0.04540*%
%ADD42R,0.06312X0.01981*%
%ADD43R,0.02375X0.06115*%
%ADD44R,0.09068X0.08674*%
%ADD45R,0.07099X0.08280*%
%ADD46R,0.05524X0.08280*%
%ADD47R,0.06706X0.06706*%
%ADD48C,0.06706*%
%ADD49C,0.06800*%
%ADD50R,0.06706X0.06706*%
%ADD51C,0.03162*%
%ADD52C,0.13398*%
D18*
X51772Y47638D02*
D03*
Y41732D02*
D03*
X93996Y115707D02*
D03*
Y121612D02*
D03*
X84153Y115748D02*
D03*
Y121653D02*
D03*
X189724Y71260D02*
D03*
Y77165D02*
D03*
X184606Y77165D02*
D03*
Y71260D02*
D03*
D19*
X85130Y64476D02*
D03*
X90642D02*
D03*
X120079Y112106D02*
D03*
X114567D02*
D03*
X204724Y146063D02*
D03*
X210236D02*
D03*
X194350Y88976D02*
D03*
X199862D02*
D03*
X114567Y73622D02*
D03*
X109055D02*
D03*
X68898Y73799D02*
D03*
X74409D02*
D03*
X89961Y73721D02*
D03*
X84449D02*
D03*
X102756Y224410D02*
D03*
X97244D02*
D03*
X194843Y76575D02*
D03*
X200354D02*
D03*
X60630Y64764D02*
D03*
X66142D02*
D03*
X79035Y64862D02*
D03*
X73524D02*
D03*
D20*
X69784Y122193D02*
D03*
X72342D02*
D03*
X74902D02*
D03*
X77461D02*
D03*
Y104776D02*
D03*
X74902D02*
D03*
X72342D02*
D03*
X69784D02*
D03*
D21*
X66339Y97342D02*
D03*
X72244D02*
D03*
X87936Y98524D02*
D03*
X82030D02*
D03*
X83268Y39370D02*
D03*
X77362D02*
D03*
X88189Y39567D02*
D03*
X94095D02*
D03*
X186417Y146063D02*
D03*
X192323D02*
D03*
X91035Y213484D02*
D03*
X96941D02*
D03*
X91142Y207874D02*
D03*
X97047D02*
D03*
X91142Y196850D02*
D03*
X97047D02*
D03*
Y202362D02*
D03*
X91142D02*
D03*
X119488Y224803D02*
D03*
X113583D02*
D03*
X114370Y106102D02*
D03*
X108465D02*
D03*
X97295Y218709D02*
D03*
X103201D02*
D03*
X194646Y66339D02*
D03*
X200551D02*
D03*
X200551Y71457D02*
D03*
X194646D02*
D03*
X51862Y24122D02*
D03*
X45957D02*
D03*
X125984Y224803D02*
D03*
X131890D02*
D03*
D22*
X173228Y184646D02*
D03*
D23*
X219882D02*
D03*
X126575D02*
D03*
D24*
X219606Y97591D02*
D03*
X214606D02*
D03*
X209606D02*
D03*
X204606D02*
D03*
X199606D02*
D03*
X194606D02*
D03*
X189606D02*
D03*
X184606D02*
D03*
X179606D02*
D03*
X174606D02*
D03*
Y134693D02*
D03*
X179606D02*
D03*
X184606D02*
D03*
X189606D02*
D03*
X194606D02*
D03*
X199606D02*
D03*
X204606D02*
D03*
X209606D02*
D03*
X214606D02*
D03*
X219606D02*
D03*
D25*
X112205Y93701D02*
D03*
Y99213D02*
D03*
X93898Y81496D02*
D03*
Y87008D02*
D03*
X59933Y29831D02*
D03*
Y24319D02*
D03*
X38878Y36917D02*
D03*
Y42429D02*
D03*
D26*
X133858Y82657D02*
D03*
D27*
X120276Y71831D02*
D03*
Y73799D02*
D03*
Y75768D02*
D03*
Y77736D02*
D03*
Y79705D02*
D03*
Y81673D02*
D03*
Y83642D02*
D03*
Y85610D02*
D03*
Y87579D02*
D03*
Y89547D02*
D03*
Y91516D02*
D03*
Y93484D02*
D03*
X147441D02*
D03*
Y91516D02*
D03*
Y89547D02*
D03*
Y87579D02*
D03*
Y85610D02*
D03*
Y83642D02*
D03*
Y81673D02*
D03*
Y79705D02*
D03*
Y77736D02*
D03*
Y75768D02*
D03*
Y73799D02*
D03*
Y71831D02*
D03*
D28*
X123031Y96240D02*
D03*
X125000D02*
D03*
X126969D02*
D03*
X128937D02*
D03*
X130905D02*
D03*
X132874D02*
D03*
X134843D02*
D03*
X136811D02*
D03*
X138779D02*
D03*
X140748D02*
D03*
X142717D02*
D03*
X144685D02*
D03*
Y69075D02*
D03*
X142717D02*
D03*
X140748D02*
D03*
X138779D02*
D03*
X136811D02*
D03*
X134843D02*
D03*
X132874D02*
D03*
X130905D02*
D03*
X128937D02*
D03*
X126969D02*
D03*
X125000D02*
D03*
X123031D02*
D03*
D29*
X74366Y89193D02*
D03*
Y87618D02*
D03*
Y86043D02*
D03*
Y84469D02*
D03*
Y82894D02*
D03*
Y81319D02*
D03*
X86532D02*
D03*
Y82894D02*
D03*
Y84469D02*
D03*
Y86043D02*
D03*
Y87618D02*
D03*
Y89193D02*
D03*
D30*
X76512Y79173D02*
D03*
X78087D02*
D03*
X79661D02*
D03*
X81236D02*
D03*
X82811D02*
D03*
X84386D02*
D03*
Y91339D02*
D03*
X82811D02*
D03*
X81236D02*
D03*
X79661D02*
D03*
X78087D02*
D03*
X76512D02*
D03*
D31*
X207776Y3937D02*
D03*
X203445D02*
D03*
X199114D02*
D03*
X194783D02*
D03*
X190453D02*
D03*
X186122D02*
D03*
X181791D02*
D03*
X177461D02*
D03*
D32*
X224882Y6417D02*
D03*
D33*
X168228Y5827D02*
D03*
X224882Y51024D02*
D03*
D34*
X169803Y14291D02*
D03*
D35*
X170020Y49724D02*
D03*
D36*
X177303Y54154D02*
D03*
X207933D02*
D03*
D37*
X85327Y46957D02*
D03*
X89067D02*
D03*
X92807D02*
D03*
Y56799D02*
D03*
X85327D02*
D03*
D38*
X73516D02*
D03*
X69776D02*
D03*
X66035D02*
D03*
Y46957D02*
D03*
X69776D02*
D03*
X73516D02*
D03*
D39*
X101567Y44004D02*
D03*
X109638D02*
D03*
X109638Y35736D02*
D03*
X101567D02*
D03*
X140150Y52173D02*
D03*
X148221D02*
D03*
D40*
X109638Y28336D02*
D03*
X103142D02*
D03*
X139559Y29831D02*
D03*
X133063D02*
D03*
X89665Y7776D02*
D03*
X83169D02*
D03*
X104331Y7874D02*
D03*
X97835D02*
D03*
X118898Y7972D02*
D03*
X112402D02*
D03*
D41*
X89067Y23236D02*
D03*
Y29339D02*
D03*
X81980Y23236D02*
D03*
Y29339D02*
D03*
X74894Y23236D02*
D03*
Y29339D02*
D03*
D42*
X139461Y35736D02*
D03*
Y37705D02*
D03*
Y39673D02*
D03*
Y41642D02*
D03*
Y43610D02*
D03*
X122138D02*
D03*
Y41642D02*
D03*
Y39673D02*
D03*
Y37705D02*
D03*
Y35736D02*
D03*
D43*
X147835Y22244D02*
D03*
X145276D02*
D03*
X142717D02*
D03*
X140157D02*
D03*
X137598D02*
D03*
D44*
X129724Y20965D02*
D03*
X155709D02*
D03*
D45*
X126575Y11713D02*
D03*
X158858D02*
D03*
D46*
X139370D02*
D03*
X146063D02*
D03*
D47*
X31102Y73425D02*
D03*
X20413Y54331D02*
D03*
Y42520D02*
D03*
X223130Y238583D02*
D03*
X109638Y238189D02*
D03*
X70000Y238347D02*
D03*
X97402D02*
D03*
X131496Y238189D02*
D03*
X58366Y9843D02*
D03*
D48*
X21102Y73425D02*
D03*
X11102D02*
D03*
X30413Y54331D02*
D03*
Y42520D02*
D03*
X213130Y238583D02*
D03*
X240453Y47146D02*
D03*
X248327D02*
D03*
X119638Y238189D02*
D03*
X70000Y228346D02*
D03*
X60000Y238347D02*
D03*
Y228346D02*
D03*
X50000Y238347D02*
D03*
Y228346D02*
D03*
X40000Y238347D02*
D03*
Y228346D02*
D03*
X87402Y238347D02*
D03*
X141496Y238189D02*
D03*
X48366Y9843D02*
D03*
X38366D02*
D03*
X32327Y102398D02*
D03*
X22327D02*
D03*
X32327Y112398D02*
D03*
X22327D02*
D03*
X32327Y122398D02*
D03*
X22327D02*
D03*
X32327Y132398D02*
D03*
X22327D02*
D03*
X32327Y142398D02*
D03*
X22327D02*
D03*
X32327Y152398D02*
D03*
X22327D02*
D03*
X32327Y162398D02*
D03*
X32677Y200000D02*
D03*
Y210000D02*
D03*
D49*
X161024Y40020D02*
D03*
Y30020D02*
D03*
D50*
X22327Y162398D02*
D03*
X32677Y190000D02*
D03*
D51*
X93012Y92716D02*
D03*
X8858Y62205D02*
D03*
X79661Y73658D02*
D03*
X202559Y48031D02*
D03*
X198819Y32283D02*
D03*
X181201Y28051D02*
D03*
X190157Y30217D02*
D03*
X77208Y98819D02*
D03*
X70276Y91339D02*
D03*
X109350Y79724D02*
D03*
X130610Y51772D02*
D03*
X60925Y37106D02*
D03*
X63287Y75295D02*
D03*
X145079Y118996D02*
D03*
X199902Y238114D02*
D03*
X247638Y201969D02*
D03*
X157776Y237500D02*
D03*
X17618Y208563D02*
D03*
X152264Y60630D02*
D03*
X74410Y9646D02*
D03*
X99902Y76476D02*
D03*
X94390Y104626D02*
D03*
X217618Y74508D02*
D03*
X58760Y69095D02*
D03*
X93898Y69193D02*
D03*
X73917Y69173D02*
D03*
X22244Y65158D02*
D03*
X107972Y122505D02*
D03*
X135728Y116831D02*
D03*
X134252Y120177D02*
D03*
X98524Y115707D02*
D03*
X88681Y115847D02*
D03*
X98524Y123524D02*
D03*
X38583Y63779D02*
D03*
X44291Y42323D02*
D03*
X51575Y30512D02*
D03*
X58861Y48034D02*
D03*
X79331Y43898D02*
D03*
X80319Y48132D02*
D03*
X190217Y34654D02*
D03*
X184606Y47835D02*
D03*
X206201Y31791D02*
D03*
X207874Y28248D02*
D03*
X193898Y44291D02*
D03*
X101575Y51083D02*
D03*
X219577Y142096D02*
D03*
X214606Y90158D02*
D03*
X216929Y86619D02*
D03*
X208228Y71063D02*
D03*
X79823Y53543D02*
D03*
X114370Y69685D02*
D03*
X146653Y38508D02*
D03*
X152165Y78642D02*
D03*
X219991Y90162D02*
D03*
X171563Y77760D02*
D03*
X175787Y87008D02*
D03*
X153937Y89764D02*
D03*
X141157Y102451D02*
D03*
X49609Y139968D02*
D03*
X53543Y142126D02*
D03*
X49117Y131306D02*
D03*
X155217D02*
D03*
X153248Y127756D02*
D03*
X166240Y102657D02*
D03*
X166535Y142520D02*
D03*
X109350Y89370D02*
D03*
X109252Y84941D02*
D03*
X140748Y106685D02*
D03*
X147638Y106693D02*
D03*
X160630Y60335D02*
D03*
X213720Y142067D02*
D03*
X200394Y141339D02*
D03*
X182677Y142520D02*
D03*
X103543Y67803D02*
D03*
X100394Y65455D02*
D03*
X155512Y80315D02*
D03*
X152362Y106685D02*
D03*
X144488Y104724D02*
D03*
X139264Y110236D02*
D03*
X137402Y113386D02*
D03*
X131890Y122835D02*
D03*
X64961Y200000D02*
D03*
X53543Y168504D02*
D03*
X48819Y107658D02*
D03*
X131890Y150394D02*
D03*
X101870Y125591D02*
D03*
X129823D02*
D03*
X85827Y196850D02*
D03*
Y202362D02*
D03*
Y207874D02*
D03*
Y213484D02*
D03*
X151969Y99606D02*
D03*
X118996Y105807D02*
D03*
X163386Y139075D02*
D03*
X159744Y136713D02*
D03*
X197244Y145276D02*
D03*
X157480Y134055D02*
D03*
X168504Y98819D02*
D03*
X55512Y51181D02*
D03*
X144193Y59055D02*
D03*
X140945Y61319D02*
D03*
X137795Y64102D02*
D03*
X45276Y59581D02*
D03*
X49213Y61417D02*
D03*
X41732Y57480D02*
D03*
X128740Y64075D02*
D03*
X171563Y83161D02*
D03*
X194252Y127559D02*
D03*
X168504Y88969D02*
D03*
X180276Y76575D02*
D03*
X153150Y85827D02*
D03*
X114173Y87402D02*
D03*
X204606Y90158D02*
D03*
X199606Y105512D02*
D03*
X209606Y90158D02*
D03*
X190512Y67126D02*
D03*
X204685Y66339D02*
D03*
X69809Y24024D02*
D03*
X38181D02*
D03*
X109638Y21654D02*
D03*
X115839Y41642D02*
D03*
X151272Y39673D02*
D03*
X74894Y34555D02*
D03*
X89067D02*
D03*
X81980D02*
D03*
X160728Y50787D02*
D03*
D52*
X17717Y17717D02*
D03*
Y230315D02*
D03*
X242126D02*
D03*
Y17717D02*
D03*
M02*
