%FSTAX23Y23*%
%MOIN*%
%SFA1B1*%

%IPPOS*%
%ADD12C,0.007870*%
%ADD14C,0.003940*%
%LNmoveh_messkette_einseitig_v2-1*%
%LPD*%
G54D12*
X01182Y00487D02*
Y00538D01*
X01978Y02411D02*
Y0245D01*
X01965Y02437*
X01952Y0245*
Y02411*
X01932D02*
X01919D01*
X01912Y02417*
Y02431*
X01919Y02437*
X01932*
X01938Y02431*
Y02417*
X01932Y02411*
X01899Y02437D02*
X01886Y02411D01*
X01873Y02437*
X0184Y02411D02*
X01853D01*
X0186Y02417*
Y02431*
X01853Y02437*
X0184*
X01834Y02431*
Y02424*
X0186*
X0182Y0245D02*
Y02411D01*
Y02431*
X01794*
Y0245*
Y02411*
X01742Y0245D02*
Y02424D01*
X01729Y02411*
X01715Y02424*
Y0245*
X01676Y02411D02*
X01702D01*
X01676Y02437*
Y02444*
X01683Y0245*
X01696*
X01702Y02444*
X01663Y02404D02*
X01637D01*
X01597Y02411D02*
X01624D01*
X01597Y02437*
Y02444*
X01604Y0245*
X01617*
X01624Y02444*
G54D14*
X01091Y00469D02*
X01096D01*
X01094*
Y00453*
X01091Y00456*
X01104D02*
X01107Y00453D01*
X01112*
X01115Y00456*
Y00466*
X01112Y00469*
X01107*
X01104Y00466*
Y00456*
X0112Y00469D02*
Y00453D01*
Y00464D02*
X01128Y00458D01*
X0112Y00464D02*
X01128Y00469D01*
X01151Y00453D02*
X01162D01*
X01157*
Y00469*
X01167Y00453D02*
Y00469D01*
Y00461*
X0117Y00458*
X01175*
X01178Y00461*
Y00469*
X01191D02*
X01185D01*
X01183Y00466*
Y00461*
X01185Y00458*
X01191*
X01193Y00461*
Y00464*
X01183*
X01199Y00458D02*
Y00469D01*
Y00464*
X01201Y00461*
X01204Y00458*
X01206*
X01214Y00469D02*
Y00458D01*
X01217*
X0122Y00461*
Y00469*
Y00461*
X01222Y00458*
X01225Y00461*
Y00469*
M02*