G04*
G04 #@! TF.GenerationSoftware,Altium Limited,Altium Designer,19.0.14 (431)*
G04*
G04 Layer_Physical_Order=2*
G04 Layer_Color=16711680*
%FSLAX25Y25*%
%MOIN*%
G70*
G01*
G75*
%ADD10C,0.01000*%
%ADD80R,0.05906X0.05906*%
%ADD81C,0.05906*%
%ADD82C,0.06000*%
%ADD83R,0.05906X0.05906*%
%ADD84C,0.02362*%
%ADD85C,0.12598*%
%ADD86R,0.05512X0.05906*%
G36*
X258731Y182214D02*
X236221D01*
X235795Y182130D01*
X235434Y181889D01*
X235193Y181528D01*
X235109Y181102D01*
Y59055D01*
X235193Y58630D01*
X235434Y58269D01*
X235795Y58028D01*
X236221Y57943D01*
X258731D01*
Y1112D01*
X1112D01*
Y246920D01*
X258731D01*
Y182214D01*
D02*
G37*
%LPC*%
G36*
X87902Y242267D02*
Y238846D01*
X91323D01*
X91253Y239378D01*
X90854Y240340D01*
X90221Y241166D01*
X89395Y241799D01*
X88433Y242197D01*
X87902Y242267D01*
D02*
G37*
G36*
X73953Y242299D02*
X70500D01*
Y238846D01*
X73953D01*
Y242299D01*
D02*
G37*
G36*
X50500Y242267D02*
Y238846D01*
X53921D01*
X53851Y239378D01*
X53453Y240340D01*
X52819Y241166D01*
X51993Y241799D01*
X51032Y242197D01*
X50500Y242267D01*
D02*
G37*
G36*
X40500D02*
Y238846D01*
X43921D01*
X43851Y239378D01*
X43453Y240340D01*
X42819Y241166D01*
X41993Y241799D01*
X41032Y242197D01*
X40500Y242267D01*
D02*
G37*
G36*
X60500D02*
Y238846D01*
X63921D01*
X63851Y239378D01*
X63453Y240340D01*
X62819Y241166D01*
X61993Y241799D01*
X61032Y242197D01*
X60500Y242267D01*
D02*
G37*
G36*
X39500Y242267D02*
X38968Y242197D01*
X38007Y241799D01*
X37181Y241166D01*
X36547Y240340D01*
X36149Y239378D01*
X36079Y238846D01*
X39500D01*
Y242267D01*
D02*
G37*
G36*
X59500D02*
X58968Y242197D01*
X58007Y241799D01*
X57181Y241166D01*
X56547Y240340D01*
X56149Y239378D01*
X56079Y238846D01*
X59500D01*
Y242267D01*
D02*
G37*
G36*
X49500D02*
X48968Y242197D01*
X48007Y241799D01*
X47181Y241166D01*
X46547Y240340D01*
X46149Y239378D01*
X46079Y238846D01*
X49500D01*
Y242267D01*
D02*
G37*
G36*
X86902D02*
X86370Y242197D01*
X85408Y241799D01*
X84582Y241166D01*
X83949Y240340D01*
X83551Y239378D01*
X83481Y238846D01*
X86902D01*
Y242267D01*
D02*
G37*
G36*
X69500Y242299D02*
X66047D01*
Y238846D01*
X69500D01*
Y242299D01*
D02*
G37*
G36*
X100945Y241890D02*
X93858D01*
Y234803D01*
X100945D01*
Y241890D01*
D02*
G37*
G36*
X113181Y241732D02*
X106095D01*
Y234646D01*
X113181D01*
Y241732D01*
D02*
G37*
G36*
X141496Y241763D02*
X140571Y241641D01*
X139709Y241284D01*
X138969Y240716D01*
X138401Y239976D01*
X138044Y239114D01*
X137922Y238189D01*
X138044Y237264D01*
X138401Y236402D01*
X138969Y235662D01*
X139709Y235094D01*
X140571Y234737D01*
X141496Y234615D01*
X142421Y234737D01*
X143283Y235094D01*
X144023Y235662D01*
X144591Y236402D01*
X144948Y237264D01*
X145070Y238189D01*
X144948Y239114D01*
X144591Y239976D01*
X144023Y240716D01*
X143283Y241284D01*
X142421Y241641D01*
X141496Y241763D01*
D02*
G37*
G36*
X119638D02*
X118713Y241641D01*
X117851Y241284D01*
X117111Y240716D01*
X116543Y239976D01*
X116186Y239114D01*
X116064Y238189D01*
X116186Y237264D01*
X116543Y236402D01*
X117111Y235662D01*
X117851Y235094D01*
X118713Y234737D01*
X119638Y234615D01*
X120563Y234737D01*
X121425Y235094D01*
X122165Y235662D01*
X122733Y236402D01*
X123090Y237264D01*
X123212Y238189D01*
X123090Y239114D01*
X122733Y239976D01*
X122165Y240716D01*
X121425Y241284D01*
X120563Y241641D01*
X119638Y241763D01*
D02*
G37*
G36*
X59500Y237846D02*
X56079D01*
X56149Y237315D01*
X56547Y236353D01*
X57181Y235527D01*
X58007Y234894D01*
X58968Y234495D01*
X59500Y234425D01*
Y237846D01*
D02*
G37*
G36*
X49500D02*
X46079D01*
X46149Y237315D01*
X46547Y236353D01*
X47181Y235527D01*
X48007Y234894D01*
X48968Y234495D01*
X49500Y234425D01*
Y237846D01*
D02*
G37*
G36*
X39500D02*
X36079D01*
X36149Y237315D01*
X36547Y236353D01*
X37181Y235527D01*
X38007Y234894D01*
X38968Y234495D01*
X39500Y234425D01*
Y237846D01*
D02*
G37*
G36*
X91323D02*
X87902D01*
Y234425D01*
X88433Y234495D01*
X89395Y234894D01*
X90221Y235527D01*
X90854Y236353D01*
X91253Y237315D01*
X91323Y237846D01*
D02*
G37*
G36*
X86902D02*
X83481D01*
X83551Y237315D01*
X83949Y236353D01*
X84582Y235527D01*
X85408Y234894D01*
X86370Y234495D01*
X86902Y234425D01*
Y237846D01*
D02*
G37*
G36*
X63921D02*
X60500D01*
Y234425D01*
X61032Y234495D01*
X61993Y234894D01*
X62819Y235527D01*
X63453Y236353D01*
X63851Y237315D01*
X63921Y237846D01*
D02*
G37*
G36*
X53921D02*
X50500D01*
Y234425D01*
X51032Y234495D01*
X51993Y234894D01*
X52819Y235527D01*
X53453Y236353D01*
X53851Y237315D01*
X53921Y237846D01*
D02*
G37*
G36*
X43921D02*
X40500D01*
Y234425D01*
X41032Y234495D01*
X41993Y234894D01*
X42819Y235527D01*
X43453Y236353D01*
X43851Y237315D01*
X43921Y237846D01*
D02*
G37*
G36*
X73953D02*
X70500D01*
Y234394D01*
X73953D01*
Y237846D01*
D02*
G37*
G36*
X69500D02*
X66047D01*
Y234394D01*
X69500D01*
Y237846D01*
D02*
G37*
G36*
X70000Y231920D02*
X69075Y231799D01*
X68213Y231441D01*
X67473Y230874D01*
X66905Y230133D01*
X66548Y229272D01*
X66426Y228346D01*
X66548Y227421D01*
X66905Y226559D01*
X67473Y225819D01*
X68213Y225251D01*
X69075Y224894D01*
X69486Y224840D01*
X69453Y224340D01*
X65579D01*
X63173Y226747D01*
X63452Y227421D01*
X63574Y228346D01*
X63452Y229272D01*
X63095Y230133D01*
X62527Y230874D01*
X61787Y231441D01*
X60925Y231799D01*
X60000Y231920D01*
X59075Y231799D01*
X58213Y231441D01*
X57473Y230874D01*
X56905Y230133D01*
X56548Y229272D01*
X56426Y228346D01*
X56548Y227421D01*
X56905Y226559D01*
X57473Y225819D01*
X58213Y225251D01*
X59075Y224894D01*
X60000Y224773D01*
X60925Y224894D01*
X61600Y225174D01*
X63902Y222872D01*
X63695Y222372D01*
X57547D01*
X53172Y226747D01*
X53452Y227421D01*
X53574Y228346D01*
X53452Y229272D01*
X53095Y230133D01*
X52527Y230874D01*
X51787Y231441D01*
X50925Y231799D01*
X50000Y231920D01*
X49075Y231799D01*
X48213Y231441D01*
X47473Y230874D01*
X46905Y230133D01*
X46548Y229272D01*
X46426Y228346D01*
X46548Y227421D01*
X46905Y226559D01*
X47473Y225819D01*
X48213Y225251D01*
X49075Y224894D01*
X50000Y224773D01*
X50925Y224894D01*
X51600Y225174D01*
X56264Y220510D01*
X56249Y220357D01*
X56095Y220010D01*
X49909D01*
X43172Y226747D01*
X43452Y227421D01*
X43574Y228346D01*
X43452Y229272D01*
X43095Y230133D01*
X42527Y230874D01*
X41787Y231441D01*
X40925Y231799D01*
X40000Y231920D01*
X39075Y231799D01*
X38213Y231441D01*
X37473Y230874D01*
X36905Y230133D01*
X36548Y229272D01*
X36426Y228346D01*
X36548Y227421D01*
X36905Y226559D01*
X37473Y225819D01*
X38213Y225251D01*
X39075Y224894D01*
X40000Y224773D01*
X40925Y224894D01*
X41600Y225174D01*
X48663Y218111D01*
X49023Y217870D01*
X49449Y217786D01*
X49449Y217786D01*
X72374D01*
X76841Y213319D01*
Y204725D01*
X76841Y204724D01*
X76925Y204299D01*
X77166Y203938D01*
X84059Y197046D01*
X84020Y196850D01*
X84158Y196159D01*
X84549Y195573D01*
X85136Y195182D01*
X85827Y195044D01*
X86518Y195182D01*
X87104Y195573D01*
X87496Y196159D01*
X87633Y196850D01*
X87496Y197542D01*
X87104Y198128D01*
X86518Y198519D01*
X85827Y198657D01*
X85632Y198618D01*
X79065Y205185D01*
Y206882D01*
X79413Y207036D01*
X79565Y207052D01*
X84059Y202557D01*
X84020Y202362D01*
X84158Y201671D01*
X84549Y201085D01*
X85136Y200693D01*
X85827Y200556D01*
X86518Y200693D01*
X87104Y201085D01*
X87496Y201671D01*
X87633Y202362D01*
X87496Y203053D01*
X87104Y203640D01*
X86518Y204031D01*
X85827Y204169D01*
X85632Y204130D01*
X81427Y208335D01*
Y209994D01*
X81927Y210201D01*
X84059Y208069D01*
X84020Y207874D01*
X84158Y207183D01*
X84549Y206597D01*
X85136Y206205D01*
X85827Y206068D01*
X86518Y206205D01*
X87104Y206597D01*
X87496Y207183D01*
X87633Y207874D01*
X87496Y208565D01*
X87104Y209151D01*
X86518Y209543D01*
X85827Y209680D01*
X85632Y209642D01*
X83395Y211878D01*
Y217323D01*
X83358Y217512D01*
X83819Y217759D01*
X84715Y216862D01*
Y214872D01*
X84549Y214761D01*
X84158Y214176D01*
X84020Y213484D01*
X84158Y212793D01*
X84549Y212207D01*
X85136Y211815D01*
X85827Y211678D01*
X86518Y211815D01*
X87104Y212207D01*
X87496Y212793D01*
X87633Y213484D01*
X87496Y214176D01*
X87104Y214761D01*
X86939Y214872D01*
Y217323D01*
X86939Y217323D01*
X86854Y217748D01*
X86613Y218109D01*
X86613Y218109D01*
X75589Y229133D01*
X75229Y229374D01*
X74803Y229458D01*
X74803Y229458D01*
X73375D01*
X73095Y230133D01*
X72527Y230874D01*
X71787Y231441D01*
X70925Y231799D01*
X70000Y231920D01*
D02*
G37*
G36*
X242126Y243256D02*
X240102Y243097D01*
X238127Y242623D01*
X236251Y241846D01*
X234519Y240785D01*
X232975Y239466D01*
X231656Y237922D01*
X230595Y236190D01*
X229818Y234314D01*
X229344Y232339D01*
X229185Y230315D01*
X229344Y228291D01*
X229818Y226316D01*
X230595Y224440D01*
X231656Y222708D01*
X232975Y221164D01*
X234519Y219845D01*
X236251Y218784D01*
X238127Y218007D01*
X240102Y217533D01*
X242126Y217373D01*
X244150Y217533D01*
X246125Y218007D01*
X248001Y218784D01*
X249733Y219845D01*
X251277Y221164D01*
X252596Y222708D01*
X253657Y224440D01*
X254434Y226316D01*
X254908Y228291D01*
X255067Y230315D01*
X254908Y232339D01*
X254434Y234314D01*
X253657Y236190D01*
X252596Y237922D01*
X251277Y239466D01*
X249733Y240785D01*
X248001Y241846D01*
X246125Y242623D01*
X244150Y243097D01*
X242126Y243256D01*
D02*
G37*
G36*
X17717D02*
X15692Y243097D01*
X13717Y242623D01*
X11841Y241846D01*
X10110Y240785D01*
X8566Y239466D01*
X7247Y237922D01*
X6186Y236190D01*
X5409Y234314D01*
X4934Y232339D01*
X4775Y230315D01*
X4934Y228291D01*
X5409Y226316D01*
X6186Y224440D01*
X7247Y222708D01*
X8566Y221164D01*
X10110Y219845D01*
X11841Y218784D01*
X13717Y218007D01*
X15692Y217533D01*
X17717Y217373D01*
X19741Y217533D01*
X21716Y218007D01*
X23592Y218784D01*
X25323Y219845D01*
X26867Y221164D01*
X28186Y222708D01*
X29247Y224440D01*
X30025Y226316D01*
X30499Y228291D01*
X30658Y230315D01*
X30499Y232339D01*
X30025Y234314D01*
X29247Y236190D01*
X28186Y237922D01*
X26867Y239466D01*
X25323Y240785D01*
X23592Y241846D01*
X21716Y242623D01*
X19741Y243097D01*
X17717Y243256D01*
D02*
G37*
G36*
X32677Y213574D02*
X31752Y213452D01*
X30890Y213095D01*
X30150Y212527D01*
X29582Y211787D01*
X29225Y210925D01*
X29103Y210000D01*
X29225Y209075D01*
X29582Y208213D01*
X30150Y207473D01*
X30890Y206905D01*
X31752Y206548D01*
X32677Y206426D01*
X33602Y206548D01*
X34464Y206905D01*
X35204Y207473D01*
X35772Y208213D01*
X36129Y209075D01*
X36251Y210000D01*
X36129Y210925D01*
X35772Y211787D01*
X35204Y212527D01*
X34464Y213095D01*
X33602Y213452D01*
X32677Y213574D01*
D02*
G37*
G36*
Y203574D02*
X31752Y203452D01*
X30890Y203095D01*
X30150Y202527D01*
X29582Y201787D01*
X29225Y200925D01*
X29103Y200000D01*
X29225Y199075D01*
X29582Y198213D01*
X30150Y197473D01*
X30890Y196905D01*
X31752Y196548D01*
X32677Y196426D01*
X33602Y196548D01*
X34464Y196905D01*
X35204Y197473D01*
X35772Y198213D01*
X36052Y198888D01*
X63573D01*
X63683Y198723D01*
X64269Y198331D01*
X64961Y198194D01*
X65652Y198331D01*
X66238Y198723D01*
X66629Y199309D01*
X66767Y200000D01*
X66629Y200691D01*
X66238Y201277D01*
X65652Y201669D01*
X64961Y201806D01*
X64269Y201669D01*
X63683Y201277D01*
X63573Y201112D01*
X36052D01*
X35772Y201787D01*
X35204Y202527D01*
X34464Y203095D01*
X33602Y203452D01*
X32677Y203574D01*
D02*
G37*
G36*
X36220Y193543D02*
X29134D01*
Y186457D01*
X36220D01*
Y193543D01*
D02*
G37*
G36*
X53543Y170310D02*
X52852Y170173D01*
X52266Y169781D01*
X52156Y169616D01*
X28433D01*
X28433Y169616D01*
X28008Y169531D01*
X27647Y169290D01*
X27647Y169290D01*
X24298Y165941D01*
X18783D01*
Y158854D01*
X25870D01*
Y164368D01*
X28894Y167392D01*
X52156D01*
X52266Y167227D01*
X52852Y166835D01*
X53543Y166698D01*
X54235Y166835D01*
X54821Y167227D01*
X55212Y167813D01*
X55350Y168504D01*
X55212Y169195D01*
X54821Y169781D01*
X54235Y170173D01*
X53543Y170310D01*
D02*
G37*
G36*
X32327Y165972D02*
X31402Y165850D01*
X30540Y165493D01*
X29800Y164925D01*
X29232Y164185D01*
X28875Y163323D01*
X28753Y162398D01*
X28875Y161473D01*
X29232Y160611D01*
X29800Y159871D01*
X30540Y159303D01*
X31402Y158946D01*
X32327Y158824D01*
X33252Y158946D01*
X34114Y159303D01*
X34854Y159871D01*
X35422Y160611D01*
X35779Y161473D01*
X35901Y162398D01*
X35779Y163323D01*
X35422Y164185D01*
X34854Y164925D01*
X34114Y165493D01*
X33252Y165850D01*
X32327Y165972D01*
D02*
G37*
G36*
Y155972D02*
X31402Y155850D01*
X30540Y155493D01*
X29800Y154925D01*
X29232Y154185D01*
X28875Y153323D01*
X28753Y152398D01*
X28875Y151473D01*
X29232Y150611D01*
X29800Y149871D01*
X30540Y149303D01*
X30667Y149250D01*
X30568Y148750D01*
X27547D01*
X25499Y150798D01*
X25779Y151473D01*
X25901Y152398D01*
X25779Y153323D01*
X25422Y154185D01*
X24854Y154925D01*
X24114Y155493D01*
X23252Y155850D01*
X22327Y155972D01*
X21402Y155850D01*
X20540Y155493D01*
X19800Y154925D01*
X19232Y154185D01*
X18875Y153323D01*
X18753Y152398D01*
X18875Y151473D01*
X19232Y150611D01*
X19800Y149871D01*
X20540Y149303D01*
X21402Y148945D01*
X22327Y148824D01*
X23252Y148945D01*
X23927Y149225D01*
X26300Y146852D01*
X26300Y146852D01*
X26661Y146610D01*
X27087Y146526D01*
X27087Y146526D01*
X34858D01*
X45162Y136222D01*
X45163Y136222D01*
X45523Y135981D01*
X45949Y135896D01*
X45949Y135896D01*
X47244D01*
X155557Y135896D01*
X155809Y135396D01*
X155785Y135364D01*
X39831Y135364D01*
X37400Y137794D01*
X37040Y138035D01*
X36614Y138120D01*
X36614Y138120D01*
X28177D01*
X25499Y140798D01*
X25779Y141473D01*
X25901Y142398D01*
X25779Y143323D01*
X25422Y144185D01*
X24854Y144925D01*
X24114Y145493D01*
X23252Y145850D01*
X22327Y145972D01*
X21402Y145850D01*
X20540Y145493D01*
X19800Y144925D01*
X19232Y144185D01*
X18875Y143323D01*
X18753Y142398D01*
X18875Y141473D01*
X19232Y140611D01*
X19800Y139871D01*
X20540Y139303D01*
X21402Y138945D01*
X22327Y138824D01*
X23252Y138945D01*
X23927Y139225D01*
X26930Y136222D01*
X26930Y136222D01*
X27291Y135981D01*
X27716Y135896D01*
X30260D01*
X30414Y135396D01*
X29800Y134925D01*
X29232Y134185D01*
X28875Y133323D01*
X28753Y132398D01*
X28875Y131473D01*
X29232Y130611D01*
X29800Y129870D01*
X30540Y129303D01*
X31402Y128946D01*
X32327Y128824D01*
X33252Y128946D01*
X33927Y129225D01*
X35666Y127485D01*
X35666Y127485D01*
X36027Y127244D01*
X36453Y127160D01*
X36453Y127160D01*
X100198D01*
X100454Y126660D01*
X100201Y126282D01*
X100064Y125591D01*
X100201Y124899D01*
X100593Y124313D01*
X101179Y123922D01*
X101870Y123784D01*
X102561Y123922D01*
X103147Y124313D01*
X103258Y124479D01*
X128435D01*
X128545Y124313D01*
X129132Y123922D01*
X129823Y123784D01*
X129840Y123788D01*
X130185Y123346D01*
X130083Y122835D01*
X130221Y122143D01*
X130613Y121557D01*
X130737Y121474D01*
X130585Y120974D01*
X80218D01*
X80108Y121140D01*
X79522Y121531D01*
X78831Y121669D01*
X78139Y121531D01*
X77553Y121140D01*
X77162Y120554D01*
X77024Y119862D01*
X77162Y119171D01*
X77553Y118585D01*
X77619Y118541D01*
X77467Y118041D01*
X75403D01*
X75389Y118113D01*
X74998Y118699D01*
X74412Y119090D01*
X73721Y119228D01*
X73029Y119090D01*
X72443Y118699D01*
X72052Y118113D01*
X71914Y117421D01*
X72052Y116730D01*
X72443Y116144D01*
X73029Y115752D01*
X73721Y115615D01*
X74412Y115752D01*
X74509Y115817D01*
X83070D01*
X83298Y115317D01*
X83099Y115069D01*
X69498D01*
X69388Y115234D01*
X68801Y115626D01*
X68110Y115763D01*
X67419Y115626D01*
X66833Y115234D01*
X66441Y114648D01*
X66304Y113957D01*
X66441Y113265D01*
X66833Y112679D01*
X67419Y112288D01*
X68110Y112150D01*
X68801Y112288D01*
X69388Y112679D01*
X69498Y112845D01*
X83258D01*
X83368Y112679D01*
X83954Y112288D01*
X84646Y112150D01*
X85337Y112288D01*
X85923Y112679D01*
X86033Y112845D01*
X95907D01*
X96018Y112679D01*
X96604Y112288D01*
X97295Y112150D01*
X97987Y112288D01*
X98573Y112679D01*
X98683Y112845D01*
X106473D01*
X106597Y112660D01*
X107183Y112268D01*
X107874Y112131D01*
X108565Y112268D01*
X109151Y112660D01*
X109543Y113246D01*
X109680Y113937D01*
X109543Y114628D01*
X109151Y115214D01*
X108997Y115317D01*
X109149Y115817D01*
X133782D01*
X134156Y115258D01*
X134742Y114867D01*
X135433Y114729D01*
X135588Y114760D01*
X135888Y114310D01*
X135733Y114077D01*
X135595Y113386D01*
X135733Y112695D01*
X136124Y112109D01*
X136710Y111717D01*
X137402Y111580D01*
X137433Y111586D01*
X137734Y111136D01*
X137595Y110927D01*
X137457Y110236D01*
X137595Y109545D01*
X137987Y108959D01*
X138573Y108567D01*
X139264Y108430D01*
X139273Y108432D01*
X139469Y107967D01*
X139470Y107961D01*
X139079Y107376D01*
X138942Y106685D01*
X139079Y105994D01*
X139471Y105408D01*
X140057Y105016D01*
X140748Y104879D01*
X141439Y105016D01*
X142025Y105408D01*
X142417Y105994D01*
X142554Y106685D01*
X142417Y107376D01*
X142025Y107962D01*
X141439Y108354D01*
X140748Y108491D01*
X140738Y108490D01*
X140543Y108954D01*
X140542Y108960D01*
X140933Y109545D01*
X141070Y110236D01*
X140933Y110927D01*
X140541Y111513D01*
X139955Y111905D01*
X139264Y112043D01*
X139232Y112036D01*
X138931Y112486D01*
X139070Y112695D01*
X139208Y113386D01*
X139070Y114077D01*
X138679Y114663D01*
X138093Y115055D01*
X137402Y115192D01*
X137247Y115162D01*
X136946Y115612D01*
X137102Y115844D01*
X137239Y116535D01*
X137102Y117227D01*
X136710Y117813D01*
X136124Y118204D01*
X135662Y118296D01*
X135411Y118790D01*
X135409Y118817D01*
X135527Y118994D01*
X135665Y119685D01*
X135527Y120376D01*
X135136Y120962D01*
X134549Y121354D01*
X133858Y121491D01*
X133704Y121461D01*
X133403Y121911D01*
X133559Y122143D01*
X133696Y122835D01*
X133559Y123526D01*
X133167Y124112D01*
X132581Y124504D01*
X131890Y124641D01*
X131872Y124638D01*
X131527Y125079D01*
X131629Y125591D01*
X131492Y126282D01*
X131239Y126660D01*
X131495Y127160D01*
X151560D01*
X151579Y127065D01*
X151971Y126479D01*
X152557Y126087D01*
X153248Y125950D01*
X153939Y126087D01*
X154525Y126479D01*
X154917Y127065D01*
X155054Y127756D01*
X154917Y128447D01*
X154525Y129033D01*
X153939Y129425D01*
X153248Y129562D01*
X152557Y129425D01*
X152495Y129384D01*
X50353D01*
X50206Y129833D01*
X50352Y130000D01*
X50394Y130028D01*
X50452Y130115D01*
X50520Y130194D01*
X153829D01*
X153939Y130028D01*
X154525Y129637D01*
X155217Y129499D01*
X155908Y129637D01*
X156494Y130028D01*
X156885Y130614D01*
X157023Y131306D01*
X156914Y131851D01*
X157168Y132197D01*
X157294Y132286D01*
X157480Y132249D01*
X158172Y132386D01*
X158758Y132778D01*
X159149Y133364D01*
X159287Y134055D01*
X159197Y134505D01*
X159570Y134933D01*
X159582Y134939D01*
X159744Y134906D01*
X160435Y135044D01*
X161021Y135435D01*
X161413Y136021D01*
X161550Y136713D01*
X161413Y137404D01*
X161270Y137617D01*
X161509Y138072D01*
X161917Y138084D01*
X162109Y137797D01*
X162695Y137406D01*
X163386Y137268D01*
X164077Y137406D01*
X164663Y137797D01*
X165055Y138383D01*
X165192Y139075D01*
X165055Y139766D01*
X164663Y140352D01*
X164421Y140514D01*
X164572Y141014D01*
X165600D01*
X165844Y140851D01*
X166535Y140713D01*
X167227Y140851D01*
X167471Y141014D01*
X181742D01*
X181986Y140851D01*
X182677Y140713D01*
X183368Y140851D01*
X183955Y141242D01*
X184346Y141828D01*
X184484Y142520D01*
X184346Y143211D01*
X184017Y143703D01*
X184126Y144042D01*
X184239Y144203D01*
X195830D01*
X195967Y143998D01*
X196132Y143888D01*
Y128834D01*
X195632Y128682D01*
X195529Y128836D01*
X194943Y129228D01*
X194252Y129365D01*
X193561Y129228D01*
X192975Y128836D01*
X192583Y128250D01*
X192446Y127559D01*
X192583Y126868D01*
X192975Y126282D01*
X193140Y126171D01*
Y79181D01*
X192059Y78100D01*
X181466D01*
X181356Y78266D01*
X180770Y78657D01*
X180079Y78794D01*
X179387Y78657D01*
X178801Y78266D01*
X178410Y77679D01*
X178272Y76988D01*
X178311Y76793D01*
X172315Y70797D01*
X115758D01*
X115647Y70962D01*
X115061Y71354D01*
X114370Y71491D01*
X113679Y71354D01*
X113093Y70962D01*
X112701Y70376D01*
X112564Y69685D01*
X112701Y68994D01*
X113093Y68408D01*
X113679Y68016D01*
X114370Y67879D01*
X115061Y68016D01*
X115647Y68408D01*
X115758Y68573D01*
X172775D01*
X172776Y68573D01*
X173201Y68658D01*
X173562Y68899D01*
X179884Y75221D01*
X180079Y75182D01*
X180770Y75319D01*
X181356Y75711D01*
X181466Y75876D01*
X192520D01*
X192520Y75876D01*
X192945Y75961D01*
X193306Y76202D01*
X195038Y77934D01*
X195038Y77934D01*
X195279Y78295D01*
X195364Y78720D01*
X195364Y78720D01*
Y126058D01*
X195632Y126279D01*
X196132Y126087D01*
Y107874D01*
X196132Y107874D01*
X196217Y107448D01*
X196458Y107088D01*
X197839Y105707D01*
X197800Y105512D01*
X197937Y104821D01*
X198329Y104235D01*
X198915Y103843D01*
X199606Y103705D01*
X200298Y103843D01*
X200884Y104235D01*
X201275Y104821D01*
X201413Y105512D01*
X201275Y106203D01*
X200884Y106789D01*
X200298Y107181D01*
X199606Y107318D01*
X199411Y107279D01*
X198356Y108335D01*
Y140299D01*
X198856Y140451D01*
X199116Y140061D01*
X199702Y139670D01*
X200394Y139532D01*
X201085Y139670D01*
X201671Y140061D01*
X202063Y140647D01*
X202200Y141339D01*
X202063Y142030D01*
X201671Y142616D01*
X201085Y143007D01*
X200394Y143145D01*
X199702Y143007D01*
X199116Y142616D01*
X198856Y142226D01*
X198356Y142378D01*
Y143888D01*
X198521Y143998D01*
X198913Y144584D01*
X199050Y145276D01*
X198913Y145967D01*
X198521Y146553D01*
X197935Y146944D01*
X197244Y147082D01*
X196553Y146944D01*
X195967Y146553D01*
X195883Y146427D01*
X130362D01*
X130225Y146632D01*
X129639Y147024D01*
X128948Y147161D01*
X128257Y147024D01*
X127671Y146632D01*
X127279Y146046D01*
X127142Y145355D01*
X127279Y144664D01*
X127671Y144078D01*
X128179Y143738D01*
X128155Y143401D01*
X128096Y143238D01*
X54931Y143238D01*
X54821Y143403D01*
X54235Y143795D01*
X53543Y143932D01*
X52852Y143795D01*
X52266Y143403D01*
X51875Y142817D01*
X51737Y142126D01*
X51875Y141435D01*
X51952Y141319D01*
X51685Y140819D01*
X51171D01*
X50886Y141245D01*
X50300Y141636D01*
X49609Y141774D01*
X48917Y141636D01*
X48331Y141245D01*
X47940Y140659D01*
X47802Y139968D01*
X47940Y139276D01*
X48331Y138690D01*
X48437Y138620D01*
X48285Y138120D01*
X46409D01*
X36105Y148424D01*
X35744Y148665D01*
X35319Y148750D01*
X35319Y148750D01*
X34086D01*
X33986Y149250D01*
X34114Y149303D01*
X34854Y149871D01*
X35422Y150611D01*
X35779Y151473D01*
X35901Y152398D01*
X35779Y153323D01*
X35422Y154185D01*
X34854Y154925D01*
X34114Y155493D01*
X33252Y155850D01*
X32327Y155972D01*
D02*
G37*
G36*
X135039Y241732D02*
X127953D01*
Y234646D01*
X130778D01*
Y151781D01*
X130613Y151671D01*
X130221Y151085D01*
X130083Y150394D01*
X130221Y149702D01*
X130613Y149116D01*
X131199Y148725D01*
X131890Y148587D01*
X132581Y148725D01*
X133167Y149116D01*
X133559Y149702D01*
X133696Y150394D01*
X133559Y151085D01*
X133167Y151671D01*
X133002Y151781D01*
Y234646D01*
X135039D01*
Y241732D01*
D02*
G37*
G36*
X219577Y143903D02*
X218885Y143765D01*
X218300Y143374D01*
X217908Y142788D01*
X217770Y142096D01*
X217809Y141901D01*
X216501Y140593D01*
X216260Y140233D01*
X216176Y139807D01*
X216176Y139807D01*
Y91829D01*
X215675Y91574D01*
X215298Y91826D01*
X214606Y91964D01*
X213915Y91826D01*
X213329Y91435D01*
X212937Y90849D01*
X212800Y90158D01*
X212937Y89466D01*
X213070Y89268D01*
X211318Y87516D01*
X210856Y87708D01*
Y88862D01*
X210884Y88880D01*
X211275Y89466D01*
X211413Y90158D01*
X211275Y90849D01*
X210884Y91435D01*
X210298Y91826D01*
X209606Y91964D01*
X208915Y91826D01*
X208329Y91435D01*
X207937Y90849D01*
X207800Y90158D01*
X207937Y89466D01*
X208329Y88880D01*
X208632Y88678D01*
Y87080D01*
X206298Y84746D01*
X205836Y84938D01*
Y88849D01*
X205884Y88880D01*
X206275Y89466D01*
X206413Y90158D01*
X206275Y90849D01*
X205884Y91435D01*
X205298Y91826D01*
X204606Y91964D01*
X203915Y91826D01*
X203329Y91435D01*
X202937Y90849D01*
X202800Y90158D01*
X202937Y89466D01*
X203329Y88880D01*
X203612Y88691D01*
Y84319D01*
X201576Y82282D01*
X201335Y81922D01*
X201250Y81496D01*
X201250Y81496D01*
Y70146D01*
X199756Y68651D01*
X191703D01*
X191592Y68817D01*
X191006Y69208D01*
X190315Y69346D01*
X189624Y69208D01*
X189038Y68817D01*
X188646Y68231D01*
X188509Y67539D01*
X188646Y66848D01*
X189038Y66262D01*
X189624Y65870D01*
X190315Y65733D01*
X191006Y65870D01*
X191592Y66262D01*
X191703Y66427D01*
X200217D01*
X200217Y66427D01*
X200642Y66512D01*
X201003Y66753D01*
X202610Y68360D01*
X203134Y68229D01*
X203162Y68205D01*
X203168Y67965D01*
X202819Y67443D01*
X202682Y66752D01*
X202819Y66061D01*
X203211Y65475D01*
X203797Y65083D01*
X204488Y64946D01*
X205179Y65083D01*
X205766Y65475D01*
X206157Y66061D01*
X206294Y66752D01*
X206157Y67443D01*
X205766Y68029D01*
X205600Y68140D01*
Y80903D01*
X206458Y81761D01*
X206920Y81569D01*
Y72864D01*
X206754Y72754D01*
X206363Y72168D01*
X206225Y71476D01*
X206363Y70785D01*
X206754Y70199D01*
X207340Y69807D01*
X208032Y69670D01*
X208723Y69807D01*
X209309Y70199D01*
X209700Y70785D01*
X209838Y71476D01*
X209700Y72168D01*
X209309Y72754D01*
X209143Y72864D01*
Y82197D01*
X215380Y88433D01*
X215891Y88248D01*
X215902Y88064D01*
X215652Y87897D01*
X215260Y87311D01*
X215123Y86619D01*
X215260Y85928D01*
X215652Y85342D01*
X216238Y84951D01*
X216929Y84813D01*
X217620Y84951D01*
X218206Y85342D01*
X218598Y85928D01*
X218736Y86619D01*
X218598Y87311D01*
X218399Y87608D01*
Y88524D01*
X218899Y88761D01*
X219300Y88493D01*
X219991Y88355D01*
X220682Y88493D01*
X221268Y88885D01*
X221660Y89471D01*
X221797Y90162D01*
X221660Y90853D01*
X221268Y91439D01*
X220682Y91831D01*
X219991Y91968D01*
X219300Y91831D01*
X218899Y91563D01*
X218399Y91800D01*
Y139347D01*
X219382Y140329D01*
X219577Y140290D01*
X220268Y140428D01*
X220854Y140819D01*
X221246Y141405D01*
X221383Y142096D01*
X221246Y142788D01*
X220854Y143374D01*
X220268Y143765D01*
X219577Y143903D01*
D02*
G37*
G36*
X213720Y143873D02*
X213029Y143736D01*
X212443Y143344D01*
X212052Y142758D01*
X211914Y142067D01*
X212052Y141376D01*
X212443Y140790D01*
X213029Y140398D01*
X213720Y140261D01*
X214412Y140398D01*
X214998Y140790D01*
X215389Y141376D01*
X215527Y142067D01*
X215389Y142758D01*
X214998Y143344D01*
X214412Y143736D01*
X213720Y143873D01*
D02*
G37*
G36*
X32327Y145972D02*
X31402Y145850D01*
X30540Y145493D01*
X29800Y144925D01*
X29232Y144185D01*
X28875Y143323D01*
X28753Y142398D01*
X28875Y141473D01*
X29232Y140611D01*
X29800Y139871D01*
X30540Y139303D01*
X31402Y138945D01*
X32327Y138824D01*
X33252Y138945D01*
X34114Y139303D01*
X34854Y139871D01*
X35422Y140611D01*
X35779Y141473D01*
X35901Y142398D01*
X35779Y143323D01*
X35422Y144185D01*
X34854Y144925D01*
X34114Y145493D01*
X33252Y145850D01*
X32327Y145972D01*
D02*
G37*
G36*
X22327Y135971D02*
X21402Y135850D01*
X20540Y135493D01*
X19800Y134925D01*
X19232Y134185D01*
X18875Y133323D01*
X18753Y132398D01*
X18875Y131473D01*
X19232Y130611D01*
X19800Y129870D01*
X20540Y129303D01*
X21402Y128946D01*
X22327Y128824D01*
X23252Y128946D01*
X24114Y129303D01*
X24854Y129870D01*
X25422Y130611D01*
X25779Y131473D01*
X25901Y132398D01*
X25779Y133323D01*
X25422Y134185D01*
X24854Y134925D01*
X24114Y135493D01*
X23252Y135850D01*
X22327Y135971D01*
D02*
G37*
G36*
X22827Y126319D02*
Y122898D01*
X26248D01*
X26178Y123430D01*
X25780Y124391D01*
X25146Y125217D01*
X24320Y125850D01*
X23359Y126249D01*
X22827Y126319D01*
D02*
G37*
G36*
X21827D02*
X21295Y126249D01*
X20333Y125850D01*
X19508Y125217D01*
X18874Y124391D01*
X18476Y123430D01*
X18406Y122898D01*
X21827D01*
Y126319D01*
D02*
G37*
G36*
X32327Y125971D02*
X31402Y125850D01*
X30540Y125493D01*
X29800Y124925D01*
X29232Y124185D01*
X28875Y123323D01*
X28753Y122398D01*
X28875Y121473D01*
X29232Y120611D01*
X29800Y119870D01*
X30540Y119303D01*
X31402Y118946D01*
X32327Y118824D01*
X33252Y118946D01*
X34114Y119303D01*
X34854Y119870D01*
X35422Y120611D01*
X35779Y121473D01*
X35901Y122398D01*
X35779Y123323D01*
X35422Y124185D01*
X34854Y124925D01*
X34114Y125493D01*
X33252Y125850D01*
X32327Y125971D01*
D02*
G37*
G36*
X26248Y121898D02*
X22827D01*
Y118477D01*
X23359Y118547D01*
X24320Y118945D01*
X25146Y119579D01*
X25780Y120404D01*
X26178Y121366D01*
X26248Y121898D01*
D02*
G37*
G36*
X21827D02*
X18406D01*
X18476Y121366D01*
X18874Y120404D01*
X19508Y119579D01*
X20333Y118945D01*
X21295Y118547D01*
X21827Y118477D01*
Y121898D01*
D02*
G37*
G36*
X32327Y115972D02*
X31402Y115850D01*
X30540Y115493D01*
X29800Y114925D01*
X29232Y114185D01*
X28875Y113323D01*
X28753Y112398D01*
X28875Y111473D01*
X29232Y110611D01*
X29800Y109871D01*
X30540Y109303D01*
X30620Y109269D01*
X30520Y108769D01*
X27527D01*
X25499Y110798D01*
X25779Y111473D01*
X25901Y112398D01*
X25779Y113323D01*
X25422Y114185D01*
X24854Y114925D01*
X24114Y115493D01*
X23252Y115850D01*
X22327Y115972D01*
X21402Y115850D01*
X20540Y115493D01*
X19800Y114925D01*
X19232Y114185D01*
X18875Y113323D01*
X18753Y112398D01*
X18875Y111473D01*
X19232Y110611D01*
X19800Y109871D01*
X20540Y109303D01*
X21402Y108946D01*
X22327Y108824D01*
X23252Y108946D01*
X23927Y109225D01*
X26281Y106871D01*
X26281Y106871D01*
X26641Y106630D01*
X27067Y106546D01*
X47431D01*
X47542Y106380D01*
X48128Y105989D01*
X48819Y105851D01*
X49510Y105989D01*
X50096Y106380D01*
X50488Y106966D01*
X50625Y107658D01*
X50488Y108349D01*
X50096Y108935D01*
X49510Y109326D01*
X48819Y109464D01*
X48128Y109326D01*
X47542Y108935D01*
X47431Y108769D01*
X34133D01*
X34034Y109269D01*
X34114Y109303D01*
X34854Y109871D01*
X35422Y110611D01*
X35779Y111473D01*
X35901Y112398D01*
X35779Y113323D01*
X35422Y114185D01*
X34854Y114925D01*
X34114Y115493D01*
X33252Y115850D01*
X32327Y115972D01*
D02*
G37*
G36*
X147638Y108499D02*
X146947Y108362D01*
X146361Y107970D01*
X145969Y107384D01*
X145831Y106693D01*
X145862Y106538D01*
X145412Y106238D01*
X145179Y106393D01*
X144488Y106531D01*
X143797Y106393D01*
X143211Y106002D01*
X142819Y105416D01*
X142682Y104724D01*
X142819Y104033D01*
X142827Y104022D01*
X142435Y103728D01*
X141849Y104120D01*
X141157Y104257D01*
X140466Y104120D01*
X139880Y103728D01*
X139489Y103142D01*
X139351Y102451D01*
X139489Y101760D01*
X139671Y101486D01*
X139283Y101168D01*
X133857Y106593D01*
X133496Y106834D01*
X133071Y106919D01*
X133071Y106919D01*
X120384D01*
X120273Y107084D01*
X119687Y107476D01*
X118996Y107613D01*
X118305Y107476D01*
X117719Y107084D01*
X117327Y106498D01*
X117190Y105807D01*
X117327Y105116D01*
X117719Y104530D01*
X118305Y104138D01*
X118996Y104001D01*
X119687Y104138D01*
X120273Y104530D01*
X120384Y104695D01*
X132610D01*
X138485Y98820D01*
X138846Y98579D01*
X139272Y98494D01*
X150581D01*
X150691Y98329D01*
X151277Y97937D01*
X151969Y97800D01*
X152660Y97937D01*
X153246Y98329D01*
X153356Y98494D01*
X166762D01*
X166835Y98128D01*
X167227Y97542D01*
X167813Y97150D01*
X168504Y97013D01*
X169195Y97150D01*
X169781Y97542D01*
X170173Y98128D01*
X170310Y98819D01*
X170173Y99510D01*
X169781Y100096D01*
X169195Y100488D01*
X168504Y100625D01*
X168235Y100572D01*
X168142Y100634D01*
X167717Y100718D01*
X167717Y100718D01*
X167427D01*
X167275Y101218D01*
X167517Y101380D01*
X167909Y101966D01*
X168046Y102657D01*
X167909Y103349D01*
X167517Y103935D01*
X166931Y104326D01*
X166240Y104464D01*
X165549Y104326D01*
X164963Y103935D01*
X164852Y103769D01*
X146576D01*
X146508Y103812D01*
X146203Y104265D01*
X146295Y104724D01*
X146264Y104879D01*
X146714Y105180D01*
X146947Y105024D01*
X147638Y104887D01*
X148329Y105024D01*
X148915Y105416D01*
X149307Y106002D01*
X149444Y106693D01*
X149307Y107384D01*
X148915Y107970D01*
X148329Y108362D01*
X147638Y108499D01*
D02*
G37*
G36*
X152362Y108491D02*
X151671Y108354D01*
X151085Y107962D01*
X150693Y107376D01*
X150556Y106685D01*
X150693Y105994D01*
X151085Y105408D01*
X151671Y105016D01*
X152362Y104879D01*
X153053Y105016D01*
X153639Y105408D01*
X154031Y105994D01*
X154169Y106685D01*
X154031Y107376D01*
X153639Y107962D01*
X153053Y108354D01*
X152362Y108491D01*
D02*
G37*
G36*
X32327Y105972D02*
X31402Y105850D01*
X30540Y105493D01*
X29800Y104925D01*
X29232Y104185D01*
X28875Y103323D01*
X28753Y102398D01*
X28875Y101473D01*
X29232Y100611D01*
X29800Y99871D01*
X30540Y99303D01*
X31402Y98945D01*
X32327Y98824D01*
X33252Y98945D01*
X34114Y99303D01*
X34854Y99871D01*
X35422Y100611D01*
X35779Y101473D01*
X35901Y102398D01*
X35779Y103323D01*
X35422Y104185D01*
X34854Y104925D01*
X34114Y105493D01*
X33252Y105850D01*
X32327Y105972D01*
D02*
G37*
G36*
X22327D02*
X21402Y105850D01*
X20540Y105493D01*
X19800Y104925D01*
X19232Y104185D01*
X18875Y103323D01*
X18753Y102398D01*
X18875Y101473D01*
X19232Y100611D01*
X19800Y99871D01*
X20540Y99303D01*
X21402Y98945D01*
X22327Y98824D01*
X23252Y98945D01*
X24114Y99303D01*
X24854Y99871D01*
X25422Y100611D01*
X25779Y101473D01*
X25901Y102398D01*
X25779Y103323D01*
X25422Y104185D01*
X24854Y104925D01*
X24114Y105493D01*
X23252Y105850D01*
X22327Y105972D01*
D02*
G37*
G36*
X83555Y100521D02*
X76862D01*
X76410Y100334D01*
X76223Y99882D01*
Y93819D01*
X76410Y93367D01*
X76862Y93180D01*
X83555D01*
X84007Y93367D01*
X84194Y93819D01*
Y99882D01*
X84007Y100334D01*
X83555Y100521D01*
D02*
G37*
G36*
X109350Y91176D02*
X108659Y91039D01*
X108073Y90647D01*
X107682Y90061D01*
X107544Y89370D01*
X107682Y88679D01*
X108073Y88093D01*
X108659Y87701D01*
X109022Y87629D01*
X109023Y87119D01*
X108401Y86996D01*
X107679Y86513D01*
X107197Y85792D01*
X107128Y85441D01*
X111376D01*
X111307Y85792D01*
X110825Y86513D01*
X110103Y86996D01*
X109580Y87100D01*
Y87609D01*
X110042Y87701D01*
X110628Y88093D01*
X111019Y88679D01*
X111157Y89370D01*
X111019Y90061D01*
X110628Y90647D01*
X110042Y91039D01*
X109350Y91176D01*
D02*
G37*
G36*
X153937Y91570D02*
X153246Y91433D01*
X152660Y91041D01*
X152268Y90455D01*
X152131Y89764D01*
X152268Y89073D01*
X152660Y88486D01*
X153246Y88095D01*
X153150Y87633D01*
X152458Y87496D01*
X151872Y87104D01*
X151481Y86518D01*
X151343Y85827D01*
X151481Y85136D01*
X151733Y84758D01*
X151478Y84258D01*
X127551D01*
X123621Y88188D01*
X123260Y88429D01*
X122835Y88513D01*
X122835Y88513D01*
X115561D01*
X115451Y88679D01*
X114865Y89070D01*
X114173Y89208D01*
X113482Y89070D01*
X112896Y88679D01*
X112504Y88093D01*
X112367Y87402D01*
X112504Y86710D01*
X112896Y86124D01*
X113482Y85733D01*
X114173Y85595D01*
X114865Y85733D01*
X115451Y86124D01*
X115561Y86290D01*
X122374D01*
X126304Y82359D01*
X126665Y82118D01*
X127091Y82034D01*
X153995D01*
X154129Y81788D01*
X154195Y81534D01*
X153843Y81006D01*
X153705Y80315D01*
X153249Y80049D01*
X152857Y80311D01*
X152165Y80448D01*
X151474Y80311D01*
X150888Y79919D01*
X150496Y79333D01*
X150359Y78642D01*
X150496Y77951D01*
X150888Y77364D01*
X151474Y76973D01*
X152165Y76835D01*
X152857Y76973D01*
X153443Y77364D01*
X153834Y77951D01*
X153972Y78642D01*
X154429Y78908D01*
X154821Y78646D01*
X155512Y78509D01*
X156203Y78646D01*
X156789Y79038D01*
X156900Y79203D01*
X168548D01*
X169796Y77955D01*
X169757Y77760D01*
X169895Y77068D01*
X170286Y76482D01*
X170872Y76091D01*
X171563Y75953D01*
X172255Y76091D01*
X172841Y76482D01*
X173232Y77068D01*
X173370Y77760D01*
X173232Y78451D01*
X172841Y79037D01*
X172255Y79429D01*
X171563Y79566D01*
X171368Y79527D01*
X169794Y81101D01*
X169434Y81342D01*
X169008Y81427D01*
X169008Y81427D01*
X157317D01*
X157192Y81534D01*
X157235Y81758D01*
X157468Y82034D01*
X170186D01*
X170286Y81884D01*
X170872Y81493D01*
X171563Y81355D01*
X172254Y81493D01*
X172840Y81884D01*
X173232Y82470D01*
X173369Y83161D01*
X173232Y83853D01*
X172979Y84231D01*
X173235Y84731D01*
X174253D01*
X174253Y84731D01*
X174679Y84815D01*
X175040Y85056D01*
X175285Y85302D01*
X175787Y85202D01*
X176479Y85339D01*
X177065Y85731D01*
X177456Y86317D01*
X177594Y87008D01*
X177456Y87699D01*
X177065Y88285D01*
X176479Y88677D01*
X175787Y88814D01*
X175096Y88677D01*
X174510Y88285D01*
X174118Y87699D01*
X174014Y87176D01*
X173793Y86954D01*
X169577D01*
X169425Y87454D01*
X169781Y87692D01*
X170173Y88278D01*
X170310Y88969D01*
X170173Y89661D01*
X169781Y90247D01*
X169195Y90638D01*
X168504Y90776D01*
X167953Y90666D01*
X167767Y90791D01*
X167341Y90876D01*
X167341Y90876D01*
X155325D01*
X155214Y91041D01*
X154628Y91433D01*
X153937Y91570D01*
D02*
G37*
G36*
X111376Y84441D02*
X109752D01*
Y82817D01*
X110103Y82886D01*
X110825Y83368D01*
X111307Y84090D01*
X111376Y84441D01*
D02*
G37*
G36*
X108752D02*
X107128D01*
X107197Y84090D01*
X107679Y83368D01*
X108401Y82886D01*
X108752Y82817D01*
Y84441D01*
D02*
G37*
G36*
X103543Y69609D02*
X102852Y69472D01*
X102266Y69080D01*
X101874Y68494D01*
X101737Y67803D01*
X101855Y67211D01*
X101610Y66968D01*
X101450Y66881D01*
X101085Y67124D01*
X100394Y67262D01*
X99702Y67124D01*
X99116Y66733D01*
X98725Y66146D01*
X98587Y65455D01*
X98725Y64764D01*
X99116Y64178D01*
X99702Y63786D01*
X100394Y63649D01*
X101085Y63786D01*
X101671Y64178D01*
X102063Y64764D01*
X102200Y65455D01*
X102082Y66047D01*
X102327Y66290D01*
X102488Y66378D01*
X102852Y66134D01*
X103543Y65997D01*
X104235Y66134D01*
X104821Y66526D01*
X105212Y67112D01*
X105350Y67803D01*
X105212Y68494D01*
X104821Y69080D01*
X104235Y69472D01*
X103543Y69609D01*
D02*
G37*
G36*
X137795Y65909D02*
X137104Y65771D01*
X136518Y65380D01*
X136407Y65214D01*
X133226D01*
X132800Y65130D01*
X132439Y64889D01*
X130915Y63364D01*
X130454Y63611D01*
X130546Y64075D01*
X130409Y64766D01*
X130017Y65352D01*
X129431Y65744D01*
X128740Y65881D01*
X128049Y65744D01*
X127463Y65352D01*
X127071Y64766D01*
X127067Y64744D01*
X124852Y62529D01*
X54791D01*
X52436Y64885D01*
X52075Y65126D01*
X51650Y65210D01*
X51650Y65210D01*
X39630D01*
X39274Y65448D01*
X38583Y65586D01*
X37891Y65448D01*
X37305Y65057D01*
X36914Y64471D01*
X36776Y63779D01*
X36914Y63088D01*
X37305Y62502D01*
X37891Y62111D01*
X38583Y61973D01*
X39274Y62111D01*
X39860Y62502D01*
X40183Y62986D01*
X47541D01*
X47796Y62486D01*
X47544Y62109D01*
X47406Y61417D01*
X47544Y60726D01*
X47935Y60140D01*
X48494Y59767D01*
X48500Y59730D01*
X48272Y59267D01*
X47531D01*
X47049Y59749D01*
X46944Y60273D01*
X46553Y60859D01*
X45967Y61250D01*
X45276Y61388D01*
X44584Y61250D01*
X43998Y60859D01*
X43607Y60273D01*
X43469Y59581D01*
X43607Y58890D01*
X43998Y58304D01*
X44268Y58124D01*
X44116Y57624D01*
X43510D01*
X43401Y58172D01*
X43010Y58758D01*
X42423Y59149D01*
X41732Y59287D01*
X41041Y59149D01*
X40455Y58758D01*
X40063Y58172D01*
X39926Y57480D01*
X40063Y56789D01*
X40455Y56203D01*
X41041Y55812D01*
X41732Y55674D01*
X42105Y55748D01*
X42127Y55726D01*
X42127Y55726D01*
X42488Y55484D01*
X42913Y55400D01*
X42913Y55400D01*
X46063D01*
X58139D01*
X58290Y54900D01*
X58171Y54821D01*
X57780Y54235D01*
X57643Y53543D01*
X57780Y52852D01*
X57819Y52793D01*
X57552Y52293D01*
X56900D01*
X56789Y52458D01*
X56203Y52850D01*
X55512Y52987D01*
X54821Y52850D01*
X54234Y52458D01*
X53843Y51872D01*
X53705Y51181D01*
X53843Y50490D01*
X54096Y50112D01*
X53840Y49612D01*
X43594D01*
X42220Y50986D01*
X42259Y51181D01*
X42122Y51872D01*
X41730Y52458D01*
X41144Y52850D01*
X40453Y52987D01*
X39761Y52850D01*
X39176Y52458D01*
X38784Y51872D01*
X38646Y51181D01*
X38784Y50490D01*
X39176Y49904D01*
X39761Y49512D01*
X40453Y49375D01*
X40648Y49413D01*
X42348Y47714D01*
X42348Y47714D01*
X42708Y47473D01*
X43134Y47388D01*
X43134Y47388D01*
X64640D01*
X64640Y47388D01*
X65065Y47473D01*
X65416Y47707D01*
X75524D01*
X78055Y45175D01*
X78017Y44980D01*
X78154Y44289D01*
X78545Y43703D01*
X79132Y43312D01*
X79823Y43174D01*
X80514Y43312D01*
X81100Y43703D01*
X81492Y44289D01*
X81629Y44980D01*
X81492Y45672D01*
X81100Y46258D01*
X80514Y46649D01*
X79823Y46787D01*
X79628Y46748D01*
X79066Y47309D01*
X79313Y47770D01*
X79618Y47709D01*
X80309Y47847D01*
X80895Y48239D01*
X81006Y48404D01*
X84374D01*
X89076Y43702D01*
X89076Y43702D01*
X89437Y43461D01*
X89862Y43376D01*
X114346D01*
X114483Y43084D01*
X114533Y42876D01*
X114170Y42333D01*
X114032Y41642D01*
X114071Y41447D01*
X113106Y40482D01*
X79709D01*
X79283Y40397D01*
X78922Y40156D01*
X78922Y40156D01*
X75089Y36323D01*
X74894Y36362D01*
X74202Y36224D01*
X73616Y35832D01*
X73225Y35246D01*
X73087Y34555D01*
X73225Y33864D01*
X73616Y33278D01*
X74202Y32886D01*
X74894Y32749D01*
X75585Y32886D01*
X76171Y33278D01*
X76563Y33864D01*
X76700Y34555D01*
X76661Y34750D01*
X80169Y38258D01*
X83458D01*
X83649Y37796D01*
X82175Y36323D01*
X81980Y36362D01*
X81289Y36224D01*
X80703Y35832D01*
X80312Y35246D01*
X80174Y34555D01*
X80312Y33864D01*
X80703Y33278D01*
X81289Y32886D01*
X81980Y32749D01*
X82672Y32886D01*
X83258Y33278D01*
X83649Y33864D01*
X83787Y34555D01*
X83748Y34750D01*
X85665Y36668D01*
X88208D01*
X88250Y36557D01*
X88291Y36168D01*
X87790Y35832D01*
X87398Y35246D01*
X87261Y34555D01*
X87398Y33864D01*
X87790Y33278D01*
X88376Y32886D01*
X89067Y32749D01*
X89758Y32886D01*
X90344Y33278D01*
X90736Y33864D01*
X90873Y34555D01*
X91005Y34715D01*
X147764D01*
X147764Y34715D01*
X148190Y34800D01*
X148550Y35041D01*
X151403Y37893D01*
X151963Y38004D01*
X152549Y38396D01*
X152940Y38982D01*
X153078Y39673D01*
X152940Y40365D01*
X152549Y40951D01*
X151963Y41342D01*
X151272Y41480D01*
X150580Y41342D01*
X149994Y40951D01*
X149603Y40365D01*
X149465Y39673D01*
X149560Y39196D01*
X148945Y38581D01*
X148411Y38754D01*
X148322Y39199D01*
X147931Y39785D01*
X147345Y40177D01*
X146653Y40314D01*
X145962Y40177D01*
X145376Y39785D01*
X145266Y39620D01*
X116902D01*
X116750Y40120D01*
X117116Y40364D01*
X117507Y40951D01*
X117645Y41642D01*
X117507Y42333D01*
X117144Y42876D01*
X117194Y43084D01*
X117332Y43376D01*
X158049D01*
X158210Y42903D01*
X158171Y42873D01*
X157530Y42037D01*
X157127Y41064D01*
X157055Y40520D01*
X164992D01*
X164921Y41064D01*
X164518Y42037D01*
X163876Y42873D01*
X163837Y42903D01*
X163998Y43376D01*
X195528D01*
X195770Y43014D01*
X196356Y42623D01*
X197047Y42485D01*
X197739Y42623D01*
X198325Y43014D01*
X198716Y43600D01*
X198854Y44291D01*
X198716Y44983D01*
X198325Y45569D01*
X197739Y45960D01*
X197047Y46098D01*
X196356Y45960D01*
X195817Y45600D01*
X90323D01*
X85621Y50302D01*
X85260Y50543D01*
X84835Y50628D01*
X84835Y50628D01*
X81006D01*
X80895Y50793D01*
X80309Y51185D01*
X79959Y51254D01*
Y51764D01*
X80514Y51875D01*
X81100Y52266D01*
X81492Y52852D01*
X81629Y53543D01*
X81492Y54235D01*
X81100Y54821D01*
X80981Y54900D01*
X81133Y55400D01*
X117959Y55400D01*
X118390Y54900D01*
Y51780D01*
X122146D01*
X125902D01*
Y54900D01*
X125902Y55232D01*
X126332Y55400D01*
X131496D01*
X131496Y55400D01*
X131922Y55484D01*
X132282Y55726D01*
X133811Y57254D01*
X143504D01*
X143504Y57254D01*
X143835Y57320D01*
X144193Y57249D01*
X144884Y57386D01*
X145470Y57778D01*
X145862Y58364D01*
X145999Y59055D01*
X145862Y59746D01*
X145470Y60332D01*
X144884Y60724D01*
X144193Y60861D01*
X143502Y60724D01*
X143043Y60417D01*
X142948Y60464D01*
X142638Y60748D01*
X142751Y61319D01*
X142614Y62010D01*
X142222Y62596D01*
X141636Y62988D01*
X140945Y63125D01*
X140254Y62988D01*
X139739Y62644D01*
X139573Y62674D01*
X139369Y63033D01*
X139356Y63250D01*
X139464Y63411D01*
X139602Y64102D01*
X139464Y64794D01*
X139073Y65380D01*
X138487Y65771D01*
X137795Y65909D01*
D02*
G37*
G36*
X183465Y66767D02*
X182773Y66629D01*
X182187Y66238D01*
X181796Y65652D01*
X181658Y64961D01*
X181796Y64269D01*
X182187Y63683D01*
X182773Y63292D01*
X183465Y63154D01*
X184156Y63292D01*
X184742Y63683D01*
X185133Y64269D01*
X185271Y64961D01*
X185133Y65652D01*
X184742Y66238D01*
X184156Y66629D01*
X183465Y66767D01*
D02*
G37*
G36*
X214370Y66676D02*
X213679Y66539D01*
X213093Y66147D01*
X212701Y65561D01*
X212564Y64870D01*
X212701Y64179D01*
X213093Y63593D01*
X213679Y63201D01*
X214370Y63064D01*
X215061Y63201D01*
X215647Y63593D01*
X216039Y64179D01*
X216176Y64870D01*
X216039Y65561D01*
X215647Y66147D01*
X215061Y66539D01*
X214370Y66676D01*
D02*
G37*
G36*
X117618Y54823D02*
X110925D01*
Y52195D01*
X102963D01*
X102852Y52360D01*
X102266Y52751D01*
X101575Y52889D01*
X100883Y52751D01*
X100297Y52360D01*
X99906Y51774D01*
X99768Y51083D01*
X99906Y50391D01*
X100297Y49805D01*
X100883Y49414D01*
X101575Y49276D01*
X102266Y49414D01*
X102852Y49805D01*
X102963Y49971D01*
X110925D01*
Y47736D01*
X117618D01*
Y54823D01*
D02*
G37*
G36*
X160728Y52594D02*
X160037Y52456D01*
X159451Y52065D01*
X159060Y51479D01*
X158922Y50787D01*
X159060Y50096D01*
X159451Y49510D01*
X160037Y49119D01*
X160728Y48981D01*
X161420Y49119D01*
X162006Y49510D01*
X162397Y50096D01*
X162535Y50787D01*
X162397Y51479D01*
X162006Y52065D01*
X161420Y52456D01*
X160728Y52594D01*
D02*
G37*
G36*
X248827Y51067D02*
Y47646D01*
X252248D01*
X252178Y48178D01*
X251780Y49139D01*
X251146Y49965D01*
X250320Y50598D01*
X249359Y50997D01*
X248827Y51067D01*
D02*
G37*
G36*
X125902Y50779D02*
X122646D01*
Y47327D01*
X125902D01*
Y50779D01*
D02*
G37*
G36*
X121646D02*
X118390D01*
Y47327D01*
X121646D01*
Y50779D01*
D02*
G37*
G36*
X252248Y46646D02*
X248827D01*
Y43225D01*
X249359Y43295D01*
X250320Y43693D01*
X251146Y44326D01*
X251780Y45152D01*
X252178Y46114D01*
X252248Y46646D01*
D02*
G37*
G36*
X213130Y242157D02*
X212205Y242035D01*
X211343Y241678D01*
X210603Y241110D01*
X210035Y240370D01*
X209678Y239508D01*
X209556Y238583D01*
X209678Y237658D01*
X210035Y236796D01*
X210603Y236056D01*
X211343Y235488D01*
X212205Y235131D01*
X213130Y235009D01*
X214055Y235131D01*
X214917Y235488D01*
X214968Y235527D01*
X222608Y227886D01*
X222609Y40126D01*
X208299Y25817D01*
X121031D01*
X119093Y27755D01*
X118733Y27996D01*
X118307Y28080D01*
X118307Y28080D01*
X72705D01*
X64074Y36711D01*
X63713Y36952D01*
X63287Y37037D01*
X63287Y37037D01*
X47451D01*
X47340Y37203D01*
X46754Y37594D01*
X46063Y37732D01*
X45372Y37594D01*
X44786Y37203D01*
X44394Y36617D01*
X44257Y35925D01*
X44394Y35234D01*
X44786Y34648D01*
X45372Y34256D01*
X46063Y34119D01*
X46754Y34256D01*
X47340Y34648D01*
X47451Y34813D01*
X62827D01*
X71458Y26182D01*
X71458Y26182D01*
X71819Y25941D01*
X72244Y25857D01*
X72244Y25857D01*
X107725D01*
X107927Y25357D01*
X107699Y25135D01*
X71197D01*
X71086Y25301D01*
X70500Y25692D01*
X69809Y25830D01*
X69117Y25692D01*
X68531Y25301D01*
X68140Y24715D01*
X68002Y24024D01*
X68140Y23332D01*
X68531Y22746D01*
X69117Y22355D01*
X69315Y21805D01*
X69306Y21781D01*
X68880Y21697D01*
X68520Y21455D01*
X68520Y21455D01*
X63341Y16277D01*
X63001Y16050D01*
X60337Y13386D01*
X54823D01*
Y6299D01*
X54433Y6033D01*
X53118D01*
X51302Y7849D01*
X51461Y8056D01*
X51818Y8918D01*
X51940Y9843D01*
X51818Y10768D01*
X51461Y11630D01*
X50893Y12370D01*
X50153Y12938D01*
X49291Y13295D01*
X48366Y13416D01*
X47441Y13295D01*
X46579Y12938D01*
X45839Y12370D01*
X45271Y11630D01*
X44914Y10768D01*
X44792Y9843D01*
X44914Y8918D01*
X45271Y8056D01*
X45839Y7315D01*
X46579Y6747D01*
X47441Y6390D01*
X48366Y6269D01*
X49291Y6390D01*
X49521Y6486D01*
X51871Y4135D01*
X52232Y3894D01*
X52658Y3809D01*
X62596D01*
X62596Y3809D01*
X63022Y3894D01*
X63383Y4135D01*
X65755Y6507D01*
X65996Y6868D01*
X66080Y7294D01*
Y13622D01*
X70047Y17589D01*
X112992D01*
X112992Y17589D01*
X113418Y17673D01*
X113778Y17914D01*
X115027Y19164D01*
X209842D01*
X209842Y19164D01*
X210268Y19248D01*
X210629Y19489D01*
X236461Y45321D01*
X237386D01*
X237926Y44619D01*
X238666Y44051D01*
X239528Y43694D01*
X240453Y43572D01*
X241378Y43694D01*
X242240Y44051D01*
X242980Y44619D01*
X243548Y45359D01*
X243905Y46221D01*
X243931Y46420D01*
X244435Y46420D01*
X244476Y46114D01*
X244874Y45152D01*
X245508Y44326D01*
X246333Y43693D01*
X247295Y43295D01*
X247827Y43225D01*
Y47146D01*
Y51067D01*
X247295Y50997D01*
X246333Y50598D01*
X245508Y49965D01*
X244874Y49139D01*
X244476Y48178D01*
X244435Y47871D01*
X243931Y47871D01*
X243905Y48071D01*
X243548Y48933D01*
X242980Y49673D01*
X242240Y50241D01*
X241378Y50598D01*
X240453Y50719D01*
X239528Y50598D01*
X238666Y50241D01*
X237926Y49673D01*
X237358Y48933D01*
X237001Y48071D01*
X236931Y47545D01*
X236000D01*
X236000Y47545D01*
X235575Y47460D01*
X235214Y47219D01*
X227695Y39700D01*
X227195Y39907D01*
Y44587D01*
X227195Y221555D01*
Y229626D01*
X227195Y229626D01*
X227110Y230051D01*
X226869Y230412D01*
X224242Y233039D01*
Y235039D01*
X226673D01*
Y242126D01*
X219587D01*
Y235039D01*
X222018D01*
Y232579D01*
X222018Y232579D01*
X222080Y232266D01*
X221678Y231976D01*
X221668Y231972D01*
X216406Y237233D01*
X216582Y237658D01*
X216704Y238583D01*
X216582Y239508D01*
X216225Y240370D01*
X215657Y241110D01*
X214917Y241678D01*
X214055Y242035D01*
X213130Y242157D01*
D02*
G37*
G36*
X69760Y43464D02*
X69068Y43326D01*
X68483Y42935D01*
X68091Y42349D01*
X67953Y41658D01*
X68091Y40966D01*
X68483Y40380D01*
X69068Y39989D01*
X69760Y39851D01*
X70451Y39989D01*
X71037Y40380D01*
X71429Y40966D01*
X71566Y41658D01*
X71429Y42349D01*
X71037Y42935D01*
X70451Y43326D01*
X69760Y43464D01*
D02*
G37*
G36*
X164992Y39520D02*
X161524D01*
Y36051D01*
X162068Y36123D01*
X163041Y36526D01*
X163876Y37167D01*
X164518Y38002D01*
X164921Y38976D01*
X164992Y39520D01*
D02*
G37*
G36*
X160524D02*
X157055D01*
X157127Y38976D01*
X157530Y38002D01*
X158171Y37167D01*
X159006Y36526D01*
X159979Y36123D01*
X160524Y36051D01*
Y39520D01*
D02*
G37*
G36*
X161024Y33641D02*
X160086Y33518D01*
X159213Y33156D01*
X158463Y32581D01*
X157887Y31830D01*
X157526Y30957D01*
X157402Y30020D01*
X157526Y29082D01*
X157887Y28209D01*
X158463Y27459D01*
X159213Y26883D01*
X160086Y26522D01*
X161024Y26398D01*
X161961Y26522D01*
X162834Y26883D01*
X163584Y27459D01*
X164160Y28209D01*
X164522Y29082D01*
X164645Y30020D01*
X164522Y30957D01*
X164160Y31830D01*
X163584Y32581D01*
X162834Y33156D01*
X161961Y33518D01*
X161024Y33641D01*
D02*
G37*
G36*
X38181Y25830D02*
X37490Y25692D01*
X36904Y25301D01*
X36512Y24715D01*
X36375Y24024D01*
X36512Y23332D01*
X36904Y22746D01*
X37069Y22636D01*
Y13140D01*
X36579Y12938D01*
X35839Y12370D01*
X35271Y11630D01*
X34914Y10768D01*
X34792Y9843D01*
X34914Y8918D01*
X35271Y8056D01*
X35839Y7315D01*
X36579Y6747D01*
X37441Y6390D01*
X38366Y6269D01*
X39291Y6390D01*
X40153Y6747D01*
X40893Y7315D01*
X41461Y8056D01*
X41818Y8918D01*
X41940Y9843D01*
X41818Y10768D01*
X41461Y11630D01*
X40893Y12370D01*
X40153Y12938D01*
X39293Y13294D01*
Y22636D01*
X39458Y22746D01*
X39850Y23332D01*
X39987Y24024D01*
X39850Y24715D01*
X39458Y25301D01*
X38872Y25692D01*
X38181Y25830D01*
D02*
G37*
G36*
X242126Y30658D02*
X240102Y30499D01*
X238127Y30025D01*
X236251Y29247D01*
X234519Y28186D01*
X232975Y26867D01*
X231656Y25323D01*
X230595Y23592D01*
X229818Y21716D01*
X229344Y19741D01*
X229185Y17717D01*
X229344Y15692D01*
X229818Y13717D01*
X230595Y11841D01*
X231656Y10110D01*
X232975Y8566D01*
X234519Y7247D01*
X236251Y6186D01*
X238127Y5409D01*
X240102Y4934D01*
X242126Y4775D01*
X244150Y4934D01*
X246125Y5409D01*
X248001Y6186D01*
X249733Y7247D01*
X251277Y8566D01*
X252596Y10110D01*
X253657Y11841D01*
X254434Y13717D01*
X254908Y15692D01*
X255067Y17717D01*
X254908Y19741D01*
X254434Y21716D01*
X253657Y23592D01*
X252596Y25323D01*
X251277Y26867D01*
X249733Y28186D01*
X248001Y29247D01*
X246125Y30025D01*
X244150Y30499D01*
X242126Y30658D01*
D02*
G37*
G36*
X17717D02*
X15692Y30499D01*
X13717Y30025D01*
X11841Y29247D01*
X10110Y28186D01*
X8566Y26867D01*
X7247Y25323D01*
X6186Y23592D01*
X5409Y21716D01*
X4934Y19741D01*
X4775Y17717D01*
X4934Y15692D01*
X5409Y13717D01*
X6186Y11841D01*
X7247Y10110D01*
X8566Y8566D01*
X10110Y7247D01*
X11841Y6186D01*
X13717Y5409D01*
X15692Y4934D01*
X17717Y4775D01*
X19741Y4934D01*
X21716Y5409D01*
X23592Y6186D01*
X25323Y7247D01*
X26867Y8566D01*
X28186Y10110D01*
X29247Y11841D01*
X30025Y13717D01*
X30499Y15692D01*
X30658Y17717D01*
X30499Y19741D01*
X30025Y21716D01*
X29247Y23592D01*
X28186Y25323D01*
X26867Y26867D01*
X25323Y28186D01*
X23592Y29247D01*
X21716Y30025D01*
X19741Y30499D01*
X17717Y30658D01*
D02*
G37*
%LPD*%
G36*
X243800Y240887D02*
X245433Y240495D01*
X246985Y239852D01*
X248417Y238974D01*
X249694Y237883D01*
X250785Y236606D01*
X251663Y235174D01*
X252306Y233623D01*
X252698Y231989D01*
X252829Y230315D01*
X252698Y228641D01*
X252306Y227007D01*
X251663Y225456D01*
X250785Y224024D01*
X249694Y222746D01*
X248417Y221656D01*
X246985Y220778D01*
X245433Y220135D01*
X243800Y219743D01*
X242126Y219612D01*
X240452Y219743D01*
X238818Y220135D01*
X237267Y220778D01*
X235835Y221656D01*
X234558Y222746D01*
X233467Y224024D01*
X232589Y225456D01*
X231946Y227007D01*
X231554Y228641D01*
X231422Y230315D01*
X231554Y231989D01*
X231946Y233623D01*
X232589Y235174D01*
X233467Y236606D01*
X234558Y237883D01*
X235835Y238974D01*
X237267Y239852D01*
X238818Y240495D01*
X240452Y240887D01*
X242126Y241018D01*
X243800Y240887D01*
D02*
G37*
%LPC*%
G36*
X242126Y237238D02*
X240775Y237105D01*
X239477Y236711D01*
X238280Y236071D01*
X237231Y235210D01*
X236370Y234161D01*
X235730Y232964D01*
X235336Y231666D01*
X235203Y230315D01*
X235336Y228964D01*
X235730Y227666D01*
X236370Y226469D01*
X237231Y225420D01*
X238280Y224559D01*
X239477Y223919D01*
X240775Y223525D01*
X242126Y223392D01*
X243477Y223525D01*
X244775Y223919D01*
X245972Y224559D01*
X247021Y225420D01*
X247882Y226469D01*
X248522Y227666D01*
X248916Y228964D01*
X249049Y230315D01*
X248916Y231666D01*
X248522Y232964D01*
X247882Y234161D01*
X247021Y235210D01*
X245972Y236071D01*
X244775Y236711D01*
X243477Y237105D01*
X242126Y237238D01*
D02*
G37*
%LPD*%
G36*
X19391Y240887D02*
X21024Y240495D01*
X22576Y239852D01*
X24008Y238974D01*
X25285Y237883D01*
X26376Y236606D01*
X27253Y235174D01*
X27896Y233623D01*
X28288Y231989D01*
X28420Y230315D01*
X28288Y228641D01*
X27896Y227007D01*
X27253Y225456D01*
X26376Y224024D01*
X25285Y222746D01*
X24008Y221656D01*
X22576Y220778D01*
X21024Y220135D01*
X19391Y219743D01*
X17717Y219612D01*
X16042Y219743D01*
X14409Y220135D01*
X12857Y220778D01*
X11425Y221656D01*
X10148Y222746D01*
X9057Y224024D01*
X8180Y225456D01*
X7537Y227007D01*
X7145Y228641D01*
X7013Y230315D01*
X7145Y231989D01*
X7537Y233623D01*
X8180Y235174D01*
X9057Y236606D01*
X10148Y237883D01*
X11425Y238974D01*
X12857Y239852D01*
X14409Y240495D01*
X16042Y240887D01*
X17717Y241018D01*
X19391Y240887D01*
D02*
G37*
%LPC*%
G36*
X17717Y237238D02*
X16366Y237105D01*
X15067Y236711D01*
X13870Y236071D01*
X12821Y235210D01*
X11960Y234161D01*
X11320Y232964D01*
X10926Y231666D01*
X10793Y230315D01*
X10926Y228964D01*
X11320Y227666D01*
X11960Y226469D01*
X12821Y225420D01*
X13870Y224559D01*
X15067Y223919D01*
X16366Y223525D01*
X17717Y223392D01*
X19067Y223525D01*
X20366Y223919D01*
X21563Y224559D01*
X22612Y225420D01*
X23473Y226469D01*
X24113Y227666D01*
X24507Y228964D01*
X24640Y230315D01*
X24507Y231666D01*
X24113Y232964D01*
X23473Y234161D01*
X22612Y235210D01*
X21563Y236071D01*
X20366Y236711D01*
X19067Y237105D01*
X17717Y237238D01*
D02*
G37*
%LPD*%
G36*
X165087Y144042D02*
X165196Y143703D01*
X164885Y143238D01*
X129800D01*
X129742Y143401D01*
X129717Y143738D01*
X130225Y144078D01*
X130309Y144203D01*
X164974D01*
X165087Y144042D01*
D02*
G37*
G36*
X161898Y140514D02*
X161849Y140447D01*
X161147D01*
X160855Y140506D01*
X160855Y140506D01*
X55729D01*
X55460Y141006D01*
X55465Y141014D01*
X161646Y141014D01*
X161898Y140514D01*
D02*
G37*
G36*
X153537Y133140D02*
X153782Y132640D01*
X153610Y132418D01*
X50723D01*
X50551Y132640D01*
X50796Y133140D01*
X153537Y133140D01*
D02*
G37*
G36*
X38584Y133466D02*
X38584Y133466D01*
X38945Y133225D01*
X39370Y133140D01*
X39370Y133140D01*
X47773D01*
X47925Y132640D01*
X47839Y132583D01*
X47448Y131997D01*
X47310Y131306D01*
X47448Y130614D01*
X47839Y130028D01*
X48056Y129884D01*
X47904Y129384D01*
X36913D01*
X35499Y130798D01*
X35779Y131473D01*
X35901Y132398D01*
X35779Y133323D01*
X35422Y134185D01*
X34854Y134925D01*
X34240Y135396D01*
X34394Y135896D01*
X36154D01*
X38584Y133466D01*
D02*
G37*
G36*
X132196Y118541D02*
X131931Y118041D01*
X80555D01*
X80308Y118541D01*
X80468Y118750D01*
X132053D01*
X132196Y118541D01*
D02*
G37*
G36*
X108014Y22412D02*
X107969Y22345D01*
X107857Y21781D01*
X70180D01*
X70130Y22281D01*
X70500Y22355D01*
X71086Y22746D01*
X71197Y22912D01*
X107746D01*
X108014Y22412D01*
D02*
G37*
G36*
X243800Y28288D02*
X245433Y27896D01*
X246985Y27253D01*
X248417Y26376D01*
X249694Y25285D01*
X250785Y24008D01*
X251663Y22576D01*
X252306Y21024D01*
X252698Y19391D01*
X252829Y17717D01*
X252698Y16042D01*
X252306Y14409D01*
X251663Y12857D01*
X250785Y11425D01*
X249694Y10148D01*
X248417Y9057D01*
X246985Y8180D01*
X245433Y7537D01*
X243800Y7145D01*
X242126Y7013D01*
X240452Y7145D01*
X238818Y7537D01*
X237267Y8180D01*
X235835Y9057D01*
X234558Y10148D01*
X233467Y11425D01*
X232589Y12857D01*
X231946Y14409D01*
X231554Y16042D01*
X231422Y17717D01*
X231554Y19391D01*
X231946Y21024D01*
X232589Y22576D01*
X233467Y24008D01*
X234558Y25285D01*
X235835Y26376D01*
X237267Y27253D01*
X238818Y27896D01*
X240452Y28288D01*
X242126Y28420D01*
X243800Y28288D01*
D02*
G37*
%LPC*%
G36*
X242126Y24640D02*
X240775Y24507D01*
X239477Y24113D01*
X238280Y23473D01*
X237231Y22612D01*
X236370Y21563D01*
X235730Y20366D01*
X235336Y19067D01*
X235203Y17717D01*
X235336Y16366D01*
X235730Y15067D01*
X236370Y13870D01*
X237231Y12821D01*
X238280Y11960D01*
X239477Y11320D01*
X240775Y10926D01*
X242126Y10793D01*
X243477Y10926D01*
X244775Y11320D01*
X245972Y11960D01*
X247021Y12821D01*
X247882Y13870D01*
X248522Y15067D01*
X248916Y16366D01*
X249049Y17717D01*
X248916Y19067D01*
X248522Y20366D01*
X247882Y21563D01*
X247021Y22612D01*
X245972Y23473D01*
X244775Y24113D01*
X243477Y24507D01*
X242126Y24640D01*
D02*
G37*
%LPD*%
G36*
X19391Y28288D02*
X21024Y27896D01*
X22576Y27253D01*
X24008Y26376D01*
X25285Y25285D01*
X26376Y24008D01*
X27253Y22576D01*
X27896Y21024D01*
X28288Y19391D01*
X28420Y17717D01*
X28288Y16042D01*
X27896Y14409D01*
X27253Y12857D01*
X26376Y11425D01*
X25285Y10148D01*
X24008Y9057D01*
X22576Y8180D01*
X21024Y7537D01*
X19391Y7145D01*
X17717Y7013D01*
X16042Y7145D01*
X14409Y7537D01*
X12857Y8180D01*
X11425Y9057D01*
X10148Y10148D01*
X9057Y11425D01*
X8180Y12857D01*
X7537Y14409D01*
X7145Y16042D01*
X7013Y17717D01*
X7145Y19391D01*
X7537Y21024D01*
X8180Y22576D01*
X9057Y24008D01*
X10148Y25285D01*
X11425Y26376D01*
X12857Y27253D01*
X14409Y27896D01*
X16042Y28288D01*
X17717Y28420D01*
X19391Y28288D01*
D02*
G37*
%LPC*%
G36*
X17717Y24640D02*
X16366Y24507D01*
X15067Y24113D01*
X13870Y23473D01*
X12821Y22612D01*
X11960Y21563D01*
X11320Y20366D01*
X10926Y19067D01*
X10793Y17717D01*
X10926Y16366D01*
X11320Y15067D01*
X11960Y13870D01*
X12821Y12821D01*
X13870Y11960D01*
X15067Y11320D01*
X16366Y10926D01*
X17717Y10793D01*
X19067Y10926D01*
X20366Y11320D01*
X21563Y11960D01*
X22612Y12821D01*
X23473Y13870D01*
X24113Y15067D01*
X24507Y16366D01*
X24640Y17717D01*
X24507Y19067D01*
X24113Y20366D01*
X23473Y21563D01*
X22612Y22612D01*
X21563Y23473D01*
X20366Y24113D01*
X19067Y24507D01*
X17717Y24640D01*
D02*
G37*
%LPD*%
D10*
X114075Y51083D02*
X114272Y51279D01*
X101575Y51083D02*
X114075D01*
X209842Y20276D02*
X236000Y46433D01*
X239740D01*
X240453Y47146D01*
X114567Y20276D02*
X209842D01*
X112992Y18701D02*
X114567Y20276D01*
X69587Y18701D02*
X112992D01*
X223130Y232579D02*
Y238583D01*
Y232579D02*
X226083Y229626D01*
Y221555D02*
Y229626D01*
X69779Y41648D02*
X69791Y41673D01*
X214705Y237362D02*
Y238484D01*
Y237362D02*
X223721Y228346D01*
X223721Y39665D01*
X226083Y221555D02*
X226083Y44587D01*
Y39296D02*
Y44587D01*
X209551Y22764D02*
X226083Y39296D01*
X112319Y22764D02*
X209551D01*
X208760Y24705D02*
X223721Y39665D01*
X217287Y139807D02*
X219577Y142096D01*
X217287Y86978D02*
Y139807D01*
X216929Y86619D02*
X217287Y86978D01*
X208032Y82657D02*
X214744Y89370D01*
X208032Y71476D02*
Y82657D01*
X204724Y83858D02*
Y89350D01*
X202362Y81496D02*
X204724Y83858D01*
X202362Y69685D02*
Y81496D01*
X200217Y67539D02*
X202362Y69685D01*
X190315Y67539D02*
X200217D01*
X120571Y24705D02*
X208760D01*
X118307Y26969D02*
X120571Y24705D01*
X72244Y26969D02*
X118307D01*
X63287Y35925D02*
X72244Y26969D01*
X110748Y24335D02*
X112319Y22764D01*
X108527Y24335D02*
X110748D01*
X108216Y24024D02*
X108527Y24335D01*
X46063Y35925D02*
X63287D01*
X69809Y24024D02*
X108216D01*
X48366Y9213D02*
X52658Y4921D01*
X48366Y9213D02*
Y9843D01*
X52658Y4921D02*
X62596D01*
X64969Y7294D01*
Y14083D01*
X58366Y9843D02*
X63787Y15264D01*
X63900D01*
X64969Y14083D02*
X69587Y18701D01*
X38181Y10028D02*
X38366Y9843D01*
X63900Y15264D02*
X69306Y20669D01*
X108653D01*
X89862Y44488D02*
X197047D01*
X84835Y49516D02*
X89862Y44488D01*
X40453Y51181D02*
X43134Y48500D01*
X64640D01*
X64959Y48819D01*
X75984D01*
X79823Y44980D01*
X79618Y49516D02*
X84835D01*
X59449Y53543D02*
X79823D01*
X125312Y61417D02*
X128568Y64673D01*
X54331Y61417D02*
X125312D01*
X51650Y64098D02*
X54331Y61417D01*
X77953Y51181D02*
X79618Y49516D01*
X60878Y51181D02*
X77953D01*
X60559Y50862D02*
X60878Y51181D01*
X58338Y50862D02*
X60559D01*
X58019Y51181D02*
X58338Y50862D01*
X55512Y51181D02*
X58019D01*
X36453Y128272D02*
X152732D01*
X32327Y132398D02*
X36453Y128272D01*
X152732D02*
X153248Y127756D01*
X172776Y69685D02*
X180079Y76988D01*
X114370Y69685D02*
X172776D01*
X108653Y20669D02*
X109638Y21654D01*
X147764Y35827D02*
X151272Y39334D01*
Y39673D01*
X90339Y35827D02*
X147764D01*
X89067Y34555D02*
X90339Y35827D01*
X116497Y38508D02*
X146653D01*
X115768Y37780D02*
X116497Y38508D01*
X85205Y37780D02*
X115768D01*
X128568Y64673D02*
X128937D01*
X38902Y64098D02*
X51650D01*
X38583Y63779D02*
X38902Y64098D01*
X73721Y117421D02*
X74213Y116929D01*
X135039D01*
X141453Y102043D02*
Y102156D01*
X141157Y102451D02*
X141453Y102156D01*
X168135Y88969D02*
X168504D01*
X167341Y89764D02*
X168135Y88969D01*
X153937Y89764D02*
X167341D01*
X163156Y139335D02*
X163265Y139445D01*
X160913Y139335D02*
X163156D01*
X160855Y139394D02*
X160913Y139335D01*
X52484Y139394D02*
X160855D01*
X52171Y139707D02*
X52484Y139394D01*
X49869Y139707D02*
X52171D01*
X49609Y139968D02*
X49869Y139707D01*
X175419Y87008D02*
X175787D01*
X174253Y85843D02*
X175419Y87008D01*
X153165Y85843D02*
X174253D01*
X141453Y102043D02*
X145599D01*
X169008Y80315D02*
X171563Y77760D01*
X155512Y80315D02*
X169008D01*
X153150Y85827D02*
X153165Y85843D01*
X127091Y83146D02*
X171547D01*
X122835Y87402D02*
X127091Y83146D01*
X171547D02*
X171563Y83161D01*
X39370Y134252D02*
X157480Y134252D01*
X47244Y137008D02*
X159744Y137008D01*
X53543Y142126D02*
X165748Y142126D01*
X182283D01*
X49117Y131306D02*
X155217D01*
X146213Y102657D02*
X166240D01*
X145599Y102043D02*
X146213Y102657D01*
X118996Y105807D02*
X133071D01*
X118504D02*
X118996D01*
X133071D02*
X139272Y99606D01*
X131496Y56512D02*
X133350Y58366D01*
X130921Y56512D02*
X131496D01*
X133350Y58366D02*
X143504D01*
X129528Y58155D02*
X132692Y61319D01*
X143504Y58366D02*
X144193Y59055D01*
X132692Y61319D02*
X140945D01*
X51968Y59745D02*
X128869Y59745D01*
X133226Y64102D01*
X135039Y116929D02*
X135433Y116535D01*
X129123Y145530D02*
X129337Y145315D01*
X85827Y213484D02*
Y217323D01*
X74803Y228346D02*
X85827Y217323D01*
X70000Y228346D02*
X74803D01*
X40000D02*
X49449Y218898D01*
X60000Y228346D02*
X65118Y223228D01*
X50000Y228346D02*
X57087Y221260D01*
X74410D01*
X80315Y215354D01*
X131890Y150394D02*
Y238189D01*
X32677Y200000D02*
X64961D01*
X97295Y113957D02*
X107854D01*
X84646D02*
X97295D01*
X45949Y137008D02*
X47244D01*
X35319Y147638D02*
X45949Y137008D01*
X27087Y147638D02*
X35319D01*
X22327Y152398D02*
X27087Y147638D01*
X28433Y168504D02*
X53543D01*
X22327Y162398D02*
X28433Y168504D01*
X27067Y107658D02*
X48819D01*
X22327Y112398D02*
X27067Y107658D01*
X36614Y137008D02*
X39370Y134252D01*
X27716Y137008D02*
X36614D01*
X22327Y142398D02*
X27716Y137008D01*
X77953Y204724D02*
Y213779D01*
X77953Y204724D02*
X77953Y204724D01*
X77953Y204724D02*
X85827Y196850D01*
X82284Y211417D02*
X85827Y207874D01*
X82284Y211417D02*
Y217323D01*
X80315Y207874D02*
X85827Y202362D01*
X72835Y218898D02*
X77953Y213779D01*
X49449Y218898D02*
X72835D01*
X80315Y207874D02*
Y215354D01*
X76378Y223228D02*
X82284Y217323D01*
X65118Y223228D02*
X76378D01*
X101870Y125591D02*
X129823D01*
X197204Y145315D02*
X197244Y145276D01*
X129337Y145315D02*
X197204D01*
X139272Y99606D02*
X151969D01*
X167717D01*
X168504Y98819D01*
X32327Y162398D02*
X34787D01*
X32677Y190000D02*
X32874Y189803D01*
X32677Y210000D02*
X32735Y210058D01*
X197244Y107874D02*
Y145276D01*
Y107874D02*
X199606Y105512D01*
X107854Y113957D02*
X107874Y113937D01*
X68110Y113957D02*
X84646D01*
X78831Y119862D02*
X133071D01*
X42913Y56512D02*
X46063D01*
X42417Y57009D02*
X42913Y56512D01*
X47071Y58155D02*
X47855D01*
X45644Y59581D02*
X47071Y58155D01*
X45276Y59581D02*
X45644D01*
X47855Y58155D02*
X129528Y58155D01*
X51253Y59745D02*
X51968D01*
X49581Y61417D02*
X51253Y59745D01*
X49213Y61417D02*
X49581D01*
X46063Y56512D02*
X130921Y56512D01*
X133226Y64102D02*
X137795D01*
X180079Y76988D02*
X192520D01*
X194252Y78720D01*
Y127559D01*
X204488Y81363D02*
X209744Y86619D01*
X204488Y66752D02*
Y81363D01*
X209744Y86619D02*
Y89370D01*
X114173Y87402D02*
X122835D01*
X204724Y89350D02*
X204744Y89370D01*
X69779Y41648D02*
X69779Y41648D01*
X69776Y41642D02*
X69779Y41648D01*
X69760Y41658D02*
X69791Y41673D01*
X113567Y39370D02*
X115839Y41642D01*
X79709Y39370D02*
X113567D01*
X81980Y34555D02*
X85205Y37780D01*
X74894Y34555D02*
X79709Y39370D01*
X38181Y10028D02*
Y24024D01*
D80*
X223130Y238583D02*
D03*
X109638Y238189D02*
D03*
X70000Y238347D02*
D03*
X97402D02*
D03*
X131496Y238189D02*
D03*
X58366Y9843D02*
D03*
D81*
X213130Y238583D02*
D03*
X248327Y47146D02*
D03*
X240453D02*
D03*
X119638Y238189D02*
D03*
X70000Y228346D02*
D03*
X60000Y238347D02*
D03*
Y228346D02*
D03*
X50000Y238347D02*
D03*
Y228346D02*
D03*
X40000Y238347D02*
D03*
Y228346D02*
D03*
X87402Y238347D02*
D03*
X141496Y238189D02*
D03*
X48366Y9843D02*
D03*
X38366D02*
D03*
X32327Y102398D02*
D03*
X22327D02*
D03*
X32327Y112398D02*
D03*
X22327D02*
D03*
X32327Y122398D02*
D03*
X22327D02*
D03*
X32327Y132398D02*
D03*
X22327D02*
D03*
X32327Y142398D02*
D03*
X22327D02*
D03*
X32327Y152398D02*
D03*
X22327D02*
D03*
X32327Y162398D02*
D03*
X32677Y200000D02*
D03*
Y210000D02*
D03*
D82*
X161024Y40020D02*
D03*
Y30020D02*
D03*
D83*
X22327Y162398D02*
D03*
X32677Y190000D02*
D03*
D84*
X101575Y51083D02*
D03*
X219577Y142096D02*
D03*
X214606Y90158D02*
D03*
X216929Y86619D02*
D03*
X208032Y71476D02*
D03*
X46063Y35925D02*
D03*
X214370Y64870D02*
D03*
X197047Y44291D02*
D03*
X40453Y51181D02*
D03*
X79823Y44980D02*
D03*
Y53543D02*
D03*
X114370Y69685D02*
D03*
X146653Y38508D02*
D03*
X59449Y53543D02*
D03*
X73721Y117421D02*
D03*
X152165Y78642D02*
D03*
X219991Y90162D02*
D03*
X171563Y77760D02*
D03*
X175787Y87008D02*
D03*
X153937Y89764D02*
D03*
X141157Y102451D02*
D03*
X49609Y139968D02*
D03*
X53543Y142126D02*
D03*
X49117Y131306D02*
D03*
X155217D02*
D03*
X153248Y127756D02*
D03*
X166240Y102657D02*
D03*
X166535Y142520D02*
D03*
X109350Y89370D02*
D03*
X109252Y84941D02*
D03*
X140748Y106685D02*
D03*
X147638Y106693D02*
D03*
X183465Y64961D02*
D03*
X213720Y142067D02*
D03*
X200394Y141339D02*
D03*
X182677Y142520D02*
D03*
X103543Y67803D02*
D03*
X100394Y65455D02*
D03*
X155512Y80315D02*
D03*
X152362Y106685D02*
D03*
X144488Y104724D02*
D03*
X139264Y110236D02*
D03*
X137402Y113386D02*
D03*
X131890Y122835D02*
D03*
X64961Y200000D02*
D03*
X53543Y168504D02*
D03*
X48819Y107658D02*
D03*
X131890Y150394D02*
D03*
X101870Y125591D02*
D03*
X129823D02*
D03*
X85827Y196850D02*
D03*
Y202362D02*
D03*
Y207874D02*
D03*
Y213484D02*
D03*
X38583Y63779D02*
D03*
X151969Y99606D02*
D03*
X118996Y105807D02*
D03*
X163386Y139075D02*
D03*
X159744Y136713D02*
D03*
X128948Y145355D02*
D03*
X197244Y145276D02*
D03*
X157480Y134055D02*
D03*
X168504Y98819D02*
D03*
X97295Y113957D02*
D03*
X107874Y113937D02*
D03*
X84646Y113957D02*
D03*
X68110D02*
D03*
X133858Y119685D02*
D03*
X135433Y116535D02*
D03*
X78831Y119862D02*
D03*
X55512Y51181D02*
D03*
X144193Y59055D02*
D03*
X140945Y61319D02*
D03*
X137795Y64102D02*
D03*
X45276Y59581D02*
D03*
X49213Y61417D02*
D03*
X41732Y57480D02*
D03*
X128740Y64075D02*
D03*
X171563Y83161D02*
D03*
X194252Y127559D02*
D03*
X168504Y88969D02*
D03*
X180079Y76988D02*
D03*
X153150Y85827D02*
D03*
X114173Y87402D02*
D03*
X204606Y90158D02*
D03*
X199606Y105512D02*
D03*
X209606Y90158D02*
D03*
X190315Y67539D02*
D03*
X204488Y66752D02*
D03*
X69809Y24024D02*
D03*
X79618Y49516D02*
D03*
X69760Y41658D02*
D03*
X38181Y24024D02*
D03*
X109638Y21654D02*
D03*
X115839Y41642D02*
D03*
X151272Y39673D02*
D03*
X74894Y34555D02*
D03*
X89067D02*
D03*
X81980D02*
D03*
X160728Y50787D02*
D03*
D85*
X17717Y17717D02*
D03*
Y230315D02*
D03*
X242126D02*
D03*
Y17717D02*
D03*
D86*
X122146Y51279D02*
D03*
X114272D02*
D03*
M02*
