G04*
G04 #@! TF.GenerationSoftware,Altium Limited,Altium Designer,19.0.14 (431)*
G04*
G04 Layer_Color=65535*
%FSLAX25Y25*%
%MOIN*%
G70*
G01*
G75*
%ADD10C,0.01000*%
%ADD11C,0.00984*%
%ADD12C,0.00787*%
%ADD13C,0.00787*%
%ADD14C,0.00394*%
%ADD15C,0.00500*%
%ADD16C,0.00492*%
%ADD17C,0.00800*%
D10*
X76378Y168504D02*
X76224Y169477D01*
X75776Y170355D01*
X75080Y171052D01*
X74202Y171499D01*
X73228Y171653D01*
X72255Y171499D01*
X71377Y171052D01*
X70680Y170355D01*
X70233Y169477D01*
X70079Y168504D01*
X70233Y167531D01*
X70680Y166653D01*
X71377Y165956D01*
X72255Y165508D01*
X73228Y165354D01*
X74202Y165508D01*
X75080Y165956D01*
X75776Y166653D01*
X76224Y167531D01*
X76378Y168504D01*
X73032Y182559D02*
X72244D01*
X73032D01*
X75787D02*
X75633Y183532D01*
X75186Y184410D01*
X74489Y185107D01*
X73611Y185555D01*
X72638Y185709D01*
X71665Y185555D01*
X70786Y185107D01*
X70090Y184410D01*
X69642Y183532D01*
X69488Y182559D01*
X69642Y181586D01*
X70090Y180708D01*
X70786Y180011D01*
X71665Y179564D01*
X72638Y179409D01*
X73611Y179564D01*
X74489Y180011D01*
X75186Y180708D01*
X75633Y181586D01*
X75787Y182559D01*
X197441Y184252D02*
X197421Y185249D01*
X197360Y186245D01*
X197259Y187237D01*
X197118Y188224D01*
X196937Y189205D01*
X196717Y190178D01*
X196457Y191141D01*
X196158Y192093D01*
X195821Y193031D01*
X195447Y193956D01*
X195035Y194864D01*
X194587Y195755D01*
X194103Y196627D01*
X193584Y197479D01*
X193031Y198309D01*
X192444Y199116D01*
X191826Y199898D01*
X191176Y200655D01*
X190496Y201385D01*
X189788Y202086D01*
X189051Y202759D01*
X188288Y203401D01*
X187499Y204011D01*
X186686Y204589D01*
X185851Y205134D01*
X184994Y205644D01*
X184117Y206119D01*
X183221Y206559D01*
X182309Y206961D01*
X181380Y207327D01*
X180438Y207654D01*
X179484Y207943D01*
X178518Y208193D01*
X177543Y208403D01*
X176561Y208575D01*
X175572Y208705D01*
X174579Y208796D01*
X173583Y208847D01*
X172585Y208857D01*
X171588Y208827D01*
X170594Y208756D01*
X169602Y208645D01*
X168616Y208494D01*
X167637Y208303D01*
X166667Y208073D01*
X165707Y207803D01*
X164758Y207495D01*
X163823Y207149D01*
X162902Y206765D01*
X161998Y206344D01*
X161112Y205886D01*
X160245Y205394D01*
X159398Y204866D01*
X158574Y204304D01*
X157773Y203710D01*
X156997Y203084D01*
X156247Y202426D01*
X155524Y201739D01*
X154829Y201023D01*
X154164Y200280D01*
X153530Y199510D01*
X152928Y198715D01*
X152358Y197897D01*
X151822Y197055D01*
X151320Y196194D01*
X150854Y195312D01*
X150424Y194412D01*
X150031Y193495D01*
X149675Y192564D01*
X149357Y191618D01*
X149078Y190661D01*
X148837Y189693D01*
X148637Y188716D01*
X148476Y187731D01*
X148355Y186741D01*
X148274Y185747D01*
X148233Y184751D01*
Y183753D01*
X148274Y182757D01*
X148355Y181763D01*
X148476Y180772D01*
X148637Y179788D01*
X148837Y178811D01*
X149078Y177843D01*
X149357Y176886D01*
X149675Y175940D01*
X150031Y175008D01*
X150424Y174092D01*
X150854Y173192D01*
X151320Y172310D01*
X151822Y171448D01*
X152358Y170607D01*
X152928Y169789D01*
X153530Y168994D01*
X154165Y168224D01*
X154829Y167481D01*
X155524Y166765D01*
X156247Y166077D01*
X156997Y165420D01*
X157773Y164794D01*
X158574Y164199D01*
X159398Y163638D01*
X160245Y163110D01*
X161112Y162618D01*
X161998Y162160D01*
X162902Y161739D01*
X163823Y161355D01*
X164758Y161009D01*
X165707Y160701D01*
X166667Y160431D01*
X167638Y160201D01*
X168616Y160010D01*
X169602Y159859D01*
X170594Y159748D01*
X171588Y159677D01*
X172585Y159647D01*
X173583Y159657D01*
X174579Y159708D01*
X175572Y159798D01*
X176561Y159929D01*
X177543Y160100D01*
X178518Y160311D01*
X179484Y160561D01*
X180438Y160850D01*
X181381Y161177D01*
X182309Y161543D01*
X183221Y161945D01*
X184117Y162384D01*
X184994Y162860D01*
X185851Y163370D01*
X186686Y163915D01*
X187499Y164493D01*
X188288Y165103D01*
X189051Y165745D01*
X189788Y166418D01*
X190496Y167119D01*
X191176Y167849D01*
X191826Y168606D01*
X192444Y169388D01*
X193031Y170195D01*
X193584Y171025D01*
X194103Y171877D01*
X194587Y172749D01*
X195035Y173640D01*
X195447Y174548D01*
X195821Y175473D01*
X196158Y176411D01*
X196457Y177363D01*
X196717Y178326D01*
X196937Y179299D01*
X197118Y180280D01*
X197259Y181267D01*
X197360Y182259D01*
X197421Y183255D01*
X197441Y184252D01*
X182587Y66209D02*
X181760Y66686D01*
Y65731D01*
X182587Y66209D01*
X232579Y37697D02*
Y56595D01*
X256201Y37697D02*
Y56595D01*
X232579D02*
X256201D01*
X232579Y37697D02*
X256201D01*
X244390D02*
Y40453D01*
X71153Y166535D02*
X75090Y170472D01*
X71260Y170669D02*
X75590Y166339D01*
Y166142D02*
Y166339D01*
X74697Y194961D02*
X76665Y192992D01*
X74697Y192008D02*
Y194961D01*
X72728Y192992D02*
X74697Y194961D01*
Y185406D02*
Y192008D01*
X83071Y183465D02*
X85039Y185433D01*
X83071Y187402D02*
X85039Y185433D01*
X74957D02*
X85039D01*
X75590Y166142D02*
X85433D01*
X83465Y168110D02*
X85433Y166142D01*
X83465Y164173D02*
X85433Y166142D01*
X75590Y159252D02*
Y166142D01*
Y156299D02*
X77559Y158268D01*
X75590Y156299D02*
Y159252D01*
X73622Y158268D02*
X75590Y156299D01*
X9728Y82398D02*
Y182398D01*
X167539Y62205D02*
X223209D01*
X167539Y14043D02*
Y45992D01*
X223209Y13429D02*
Y40740D01*
X188862Y3347D02*
X209957D01*
X170571D02*
X179409D01*
X45161Y82398D02*
Y182398D01*
X9728D02*
X45161D01*
X9728Y82398D02*
X45161D01*
X86417Y178622D02*
Y182621D01*
X88417Y184620D01*
X90416Y182621D01*
Y178622D01*
Y181621D01*
X86417D01*
X96414Y183620D02*
X95414Y184620D01*
X93415D01*
X92415Y183620D01*
Y179622D01*
X93415Y178622D01*
X95414D01*
X96414Y179622D01*
Y181621D01*
X94415D01*
X75878Y199750D02*
Y197782D01*
X76534Y197126D01*
X78502D01*
Y196470D01*
X77846Y195814D01*
X77190D01*
X78502Y197126D02*
Y199750D01*
X67126Y190301D02*
X69750D01*
X67126Y187677D01*
X69750D01*
X86024Y190025D02*
X88647Y187402D01*
X87335Y188714D01*
X88647Y190025D01*
X86024Y187402D01*
X88189Y155512D02*
Y161510D01*
X90188Y159511D01*
X92188Y161510D01*
Y155512D01*
X86417Y170734D02*
X89041Y168110D01*
X87729Y169422D01*
X89041Y170734D01*
X86417Y168110D01*
X68898Y163254D02*
X71522D01*
X68898Y160630D01*
X71522D01*
X72638Y154080D02*
Y152113D01*
X73294Y151457D01*
X75262D01*
Y150801D01*
X74606Y150145D01*
X73950D01*
X75262Y151457D02*
Y154080D01*
D11*
X120571Y67303D02*
X119833Y67729D01*
Y66877D01*
X120571Y67303D01*
D12*
X71153Y100787D02*
X70366D01*
X71153D01*
X78937Y38780D02*
X80512D01*
X78937Y41535D02*
X80512D01*
X89650Y41437D02*
X91224D01*
X89650Y38681D02*
X91224D01*
X208130Y233583D02*
Y243583D01*
X228130D01*
Y233583D02*
Y243583D01*
X208130Y233583D02*
X228130D01*
X43996Y47343D02*
Y48917D01*
X46752Y47343D02*
Y48917D01*
X188583Y147441D02*
X190157D01*
X188583Y144685D02*
X190157D01*
X93201Y214862D02*
X94776D01*
X93201Y212106D02*
X94776D01*
X93307Y209252D02*
X94882D01*
X93307Y206496D02*
X94882D01*
X93307Y198228D02*
X94882D01*
X93307Y195472D02*
X94882D01*
X93307Y200984D02*
X94882D01*
X93307Y203740D02*
X94882D01*
X115748Y223425D02*
X117323D01*
X115748Y226181D02*
X117323D01*
X124638Y233189D02*
Y243189D01*
X104638Y233189D02*
X124638D01*
X104638D02*
Y243189D01*
X124638D01*
X222264Y130905D02*
Y138484D01*
X171909Y129528D02*
X222303D01*
X171909Y102756D02*
Y129528D01*
Y102756D02*
X222303D01*
Y129528D01*
X110630Y104724D02*
X112205D01*
X110630Y107480D02*
X112205D01*
X80996Y111004D02*
X82571D01*
X80996Y108248D02*
X82571D01*
X70366Y108248D02*
X71941D01*
X70366Y111004D02*
X71941D01*
X99461Y220087D02*
X101035D01*
X99461Y217331D02*
X101035D01*
X35000Y223346D02*
Y243347D01*
X75000Y223346D02*
Y243347D01*
X35000Y223346D02*
X75000D01*
X35000Y243347D02*
X75000D01*
X82402Y233347D02*
X102402D01*
Y243347D01*
X82402D02*
X102402D01*
X82402Y233347D02*
Y243347D01*
X126496Y243189D02*
X146496D01*
X126496Y233189D02*
Y243189D01*
Y233189D02*
X146496D01*
Y243189D01*
X188150Y73839D02*
Y75413D01*
X190905Y73839D02*
Y75413D01*
X185787Y73839D02*
Y75413D01*
X183031Y73839D02*
Y75413D01*
X196614Y68130D02*
X198189D01*
X196614Y65374D02*
X198189D01*
X196614Y70492D02*
X198189D01*
X196614Y73248D02*
X198189D01*
X83161Y50795D02*
Y52961D01*
X94972D01*
Y50795D02*
Y52961D01*
X83161Y50795D02*
X94972D01*
X83161Y44496D02*
Y49417D01*
X75484Y50697D02*
Y53059D01*
X64067Y50697D02*
X75484D01*
X64067D02*
Y53059D01*
X75484D01*
X76075Y54437D02*
Y59161D01*
X105209Y46366D02*
X105996D01*
X105209Y41642D02*
X105996D01*
X105209Y33374D02*
X105996D01*
X105209Y38098D02*
X105996D01*
X105799Y26958D02*
X106980D01*
X105799Y29714D02*
X106980D01*
X87492Y25894D02*
Y26681D01*
X90642Y25894D02*
Y26681D01*
X80405Y25894D02*
Y26681D01*
X83555Y25894D02*
Y26681D01*
X73319Y25894D02*
Y26681D01*
X76468Y25894D02*
Y26681D01*
X33366Y14842D02*
X63366D01*
X33366Y4843D02*
Y14842D01*
Y4843D02*
X63366D01*
Y14842D01*
X48122Y22744D02*
X49697D01*
X48122Y25500D02*
X49697D01*
X143791Y54535D02*
X144579D01*
X143791Y49811D02*
X144579D01*
X126272Y33768D02*
X135327D01*
X126272D02*
Y45579D01*
X135327D01*
Y33768D02*
Y45579D01*
X136705Y33768D02*
X142217D01*
X135721Y28453D02*
X136902D01*
X135721Y31209D02*
X136902D01*
X127953Y3248D02*
X157480D01*
X127953D02*
Y6693D01*
X157480Y3248D02*
Y6693D01*
X85827Y6398D02*
X87008D01*
X85827Y9154D02*
X87008D01*
X100492Y6496D02*
X101673D01*
X100492Y9252D02*
X101673D01*
X115059Y6594D02*
X116240D01*
X115059Y9350D02*
X116240D01*
X128150Y226181D02*
X129724D01*
X128150Y223425D02*
X129724D01*
X17327Y97398D02*
Y167398D01*
X37327Y97398D02*
Y167398D01*
X17327D02*
X37327D01*
X17327Y97398D02*
X37327D01*
X37677Y185000D02*
Y215000D01*
X27677D02*
X37677D01*
X27677Y185000D02*
Y215000D01*
Y185000D02*
X37677D01*
D13*
X147784Y26835D02*
D03*
D14*
X204724Y152165D02*
X219882Y171063D01*
X141732Y152165D02*
X204724D01*
X126575Y171063D02*
X141732Y152165D01*
X219882Y200394D02*
Y218307D01*
X126575D02*
X219882D01*
X126575Y200394D02*
Y218307D01*
X237467Y33070D02*
X236942D01*
X237205D01*
Y31758D01*
X236942Y31496D01*
X236680D01*
X236417Y31758D01*
X239041Y32808D02*
X238779Y33070D01*
X238254D01*
X237992Y32808D01*
Y32546D01*
X238254Y32283D01*
X238779D01*
X239041Y32021D01*
Y31758D01*
X238779Y31496D01*
X238254D01*
X237992Y31758D01*
X239566Y33070D02*
X240615D01*
X240091D01*
Y31496D01*
X241140Y32283D02*
X242190D01*
X242715Y31496D02*
Y33070D01*
X243502D01*
X243764Y32808D01*
Y32283D01*
X243502Y32021D01*
X242715D01*
X244289Y33070D02*
Y31496D01*
Y32283D01*
X245338D01*
Y33070D01*
Y31496D01*
X248487D02*
X247437D01*
X248487Y32546D01*
Y32808D01*
X248224Y33070D01*
X247700D01*
X247437Y32808D01*
X249012Y31496D02*
Y31758D01*
X249274D01*
Y31496D01*
X249012D01*
X250324Y32808D02*
X250586Y33070D01*
X251111D01*
X251373Y32808D01*
Y31758D01*
X251111Y31496D01*
X250586D01*
X250324Y31758D01*
Y32808D01*
X251898Y31496D02*
Y32546D01*
X252160D01*
X252423Y32283D01*
Y31496D01*
Y32283D01*
X252685Y32546D01*
X252947Y32283D01*
Y31496D01*
X253472D02*
Y32546D01*
X253734D01*
X253997Y32283D01*
Y31496D01*
Y32283D01*
X254259Y32546D01*
X254522Y32283D01*
Y31496D01*
X62952Y27337D02*
X62690Y27075D01*
Y26550D01*
X62952Y26287D01*
X64001D01*
X64264Y26550D01*
Y27075D01*
X64001Y27337D01*
X64264Y27862D02*
Y28387D01*
Y28124D01*
X62690D01*
X62952Y27862D01*
X64264Y29961D02*
X62690D01*
X63477Y29174D01*
Y30223D01*
X54594Y43176D02*
X54331Y42913D01*
Y42388D01*
X54594Y42126D01*
X55643D01*
X55905Y42388D01*
Y42913D01*
X55643Y43176D01*
X54594Y43700D02*
X54331Y43963D01*
Y44487D01*
X54594Y44750D01*
X54856D01*
X55118Y44487D01*
X55381Y44750D01*
X55643D01*
X55905Y44487D01*
Y43963D01*
X55643Y43700D01*
X55381D01*
X55118Y43963D01*
X54856Y43700D01*
X54594D01*
X55118Y43963D02*
Y44487D01*
X54987Y59101D02*
X54725Y58838D01*
Y58314D01*
X54987Y58051D01*
X56037D01*
X56299Y58314D01*
Y58838D01*
X56037Y59101D01*
X54725Y59626D02*
Y60675D01*
X54987D01*
X56037Y59626D01*
X56299D01*
X72925Y33768D02*
X71351D01*
X72138Y32980D01*
Y34030D01*
X71351Y34555D02*
Y35604D01*
X71613D01*
X72663Y34555D01*
X72925D01*
X71613Y36129D02*
X71351Y36391D01*
Y36916D01*
X71613Y37178D01*
X72663D01*
X72925Y36916D01*
Y36391D01*
X72663Y36129D01*
X71613D01*
X86705Y33768D02*
X85130D01*
X85918Y32980D01*
Y34030D01*
X85130Y34555D02*
Y35604D01*
X85393D01*
X86442Y34555D01*
X86705D01*
X85393Y36129D02*
X85130Y36391D01*
Y36916D01*
X85393Y37178D01*
X86442D01*
X86705Y36916D01*
Y36391D01*
X86442Y36129D01*
X85393D01*
X112762Y13171D02*
X112500Y13433D01*
X111975D01*
X111713Y13171D01*
Y12908D01*
X111975Y12646D01*
X112500D01*
X112762Y12383D01*
Y12121D01*
X112500Y11859D01*
X111975D01*
X111713Y12121D01*
X113287Y13433D02*
X114336D01*
X113812D01*
Y11859D01*
X114861D02*
Y12908D01*
X115386Y13433D01*
X115911Y12908D01*
Y11859D01*
Y12646D01*
X114861D01*
X116436Y13433D02*
X117485D01*
X116960D01*
Y11859D01*
X119059D02*
X118010D01*
X119059Y12908D01*
Y13171D01*
X118797Y13433D01*
X118272D01*
X118010Y13171D01*
X98589Y12704D02*
X98326Y12966D01*
X97802D01*
X97539Y12704D01*
Y12442D01*
X97802Y12179D01*
X98326D01*
X98589Y11917D01*
Y11654D01*
X98326Y11392D01*
X97802D01*
X97539Y11654D01*
X99114Y12966D02*
X100163D01*
X99638D01*
Y11392D01*
X100688D02*
Y12442D01*
X101213Y12966D01*
X101737Y12442D01*
Y11392D01*
Y12179D01*
X100688D01*
X102262Y12966D02*
X103312D01*
X102787D01*
Y11392D01*
X103837D02*
X104361D01*
X104099D01*
Y12966D01*
X103837Y12704D01*
X79618Y33768D02*
X78044D01*
X78831Y32980D01*
Y34030D01*
X78044Y34555D02*
Y35604D01*
X78306D01*
X79356Y34555D01*
X79618D01*
X78306Y36129D02*
X78044Y36391D01*
Y36916D01*
X78306Y37178D01*
X79356D01*
X79618Y36916D01*
Y36391D01*
X79356Y36129D01*
X78306D01*
X141831Y56201D02*
X142356D01*
X142093D01*
Y57775D01*
X141831Y57513D01*
X143143D02*
X143405Y57775D01*
X143930D01*
X144192Y57513D01*
Y56463D01*
X143930Y56201D01*
X143405D01*
X143143Y56463D01*
Y57513D01*
X144717Y56201D02*
Y57775D01*
Y56726D02*
X145504Y57250D01*
X144717Y56726D02*
X145504Y56201D01*
X98122Y25500D02*
X96548D01*
X97335Y24713D01*
Y25762D01*
X98384Y26549D02*
X98122Y26812D01*
X97860D01*
Y26549D01*
X98122D01*
Y26812D01*
X98384Y26549D01*
X98647Y26287D01*
X96548Y27861D02*
Y28911D01*
X96810D01*
X97860Y27861D01*
X98122D01*
X97335Y29436D02*
Y29960D01*
X97597Y29436D02*
Y29960D01*
X96548D02*
X98384D01*
X96548Y31534D02*
Y30485D01*
X97335D01*
Y31010D01*
Y30485D01*
X98122D01*
X123319Y28650D02*
Y30224D01*
X122531Y29437D01*
X123581D01*
X124368Y28387D02*
X124630Y28650D01*
Y28912D01*
X124368D01*
Y28650D01*
X124630D01*
X124368Y28387D01*
X124106Y28125D01*
X125680Y30224D02*
X126730D01*
Y29961D01*
X125680Y28912D01*
Y28650D01*
X127254Y29437D02*
X127779D01*
X127254Y29174D02*
X127779D01*
Y30224D02*
Y28387D01*
X129353Y30224D02*
X128304D01*
Y29437D01*
X128829D01*
X128304D01*
Y28650D01*
X85335Y11713D02*
X86384Y12762D01*
X86909Y11713D02*
Y13287D01*
X87696D01*
X87959Y13025D01*
Y12500D01*
X87696Y12237D01*
X86909D01*
X89533Y13025D02*
X89270Y13287D01*
X88746D01*
X88483Y13025D01*
Y11975D01*
X88746Y11713D01*
X89270D01*
X89533Y11975D01*
Y12500D01*
X89008D01*
X59934Y47941D02*
X61246D01*
X61508Y48203D01*
Y48728D01*
X61246Y48990D01*
X59934D01*
X61770Y49515D02*
Y50565D01*
X61508Y51090D02*
X59934D01*
Y51877D01*
X60196Y52139D01*
X60721D01*
X60983Y51877D01*
Y51090D01*
Y51614D02*
X61508Y52139D01*
Y53451D02*
Y52926D01*
X61246Y52664D01*
X60721D01*
X60458Y52926D01*
Y53451D01*
X60721Y53713D01*
X60983D01*
Y52664D01*
X62033Y54763D02*
Y55025D01*
X61770Y55288D01*
X60458D01*
Y54501D01*
X60721Y54238D01*
X61246D01*
X61508Y54501D01*
Y55288D01*
X98122Y40854D02*
X96548D01*
Y41642D01*
X96810Y41904D01*
X97335D01*
X97597Y41642D01*
Y40854D01*
Y41379D02*
X98122Y41904D01*
Y42429D02*
Y42953D01*
Y42691D01*
X96548D01*
X96810Y42429D01*
X98122Y44790D02*
Y43740D01*
X97072Y44790D01*
X96810D01*
X96548Y44528D01*
Y44003D01*
X96810Y43740D01*
X97728Y33768D02*
X96154D01*
Y34555D01*
X96416Y34817D01*
X96941D01*
X97204Y34555D01*
Y33768D01*
Y34293D02*
X97728Y34817D01*
Y35342D02*
Y35867D01*
Y35604D01*
X96154D01*
X96416Y35342D01*
X97728Y36654D02*
Y37179D01*
Y36916D01*
X96154D01*
X96416Y36654D01*
X47728Y27075D02*
Y28649D01*
X48515D01*
X48778Y28387D01*
Y27862D01*
X48515Y27600D01*
X47728D01*
X48253D02*
X48778Y27075D01*
X49303D02*
X49827D01*
X49565D01*
Y28649D01*
X49303Y28387D01*
X50615D02*
X50877Y28649D01*
X51402D01*
X51664Y28387D01*
Y27337D01*
X51402Y27075D01*
X50877D01*
X50615Y27337D01*
Y28387D01*
X39239Y18700D02*
X38189D01*
Y17126D01*
X39239D01*
X38189Y17913D02*
X38714D01*
X39763Y18700D02*
X40288D01*
X40026D01*
Y17126D01*
X39763D01*
X40288D01*
X41075D02*
Y18700D01*
X42125Y17126D01*
Y18700D01*
X42649Y17126D02*
X43699Y18176D01*
X44224Y17126D02*
Y18176D01*
X44748Y18700D01*
X45273Y18176D01*
Y17126D01*
Y17913D01*
X44224D01*
X45798Y18700D02*
Y17388D01*
X46060Y17126D01*
X46585D01*
X46848Y17388D01*
Y18700D01*
X48422Y18438D02*
X48160Y18700D01*
X47635D01*
X47372Y18438D01*
Y18176D01*
X47635Y17913D01*
X48160D01*
X48422Y17651D01*
Y17388D01*
X48160Y17126D01*
X47635D01*
X47372Y17388D01*
X51570Y18438D02*
X51308Y18700D01*
X50783D01*
X50521Y18438D01*
Y18176D01*
X50783Y17913D01*
X51308D01*
X51570Y17651D01*
Y17388D01*
X51308Y17126D01*
X50783D01*
X50521Y17388D01*
X53145Y18176D02*
X52358D01*
X52095Y17913D01*
Y17388D01*
X52358Y17126D01*
X53145D01*
X53670Y18700D02*
Y17126D01*
Y17913D01*
X53932Y18176D01*
X54457D01*
X54719Y17913D01*
Y17126D01*
X55506Y18176D02*
X56031D01*
X56293Y17913D01*
Y17126D01*
X55506D01*
X55244Y17388D01*
X55506Y17651D01*
X56293D01*
X56818Y17126D02*
X57343D01*
X57081D01*
Y18700D01*
X56818D01*
X58392Y18438D02*
Y18176D01*
X58130D01*
X58655D01*
X58392D01*
Y17388D01*
X58655Y17126D01*
X60229D02*
X59704D01*
X59442Y17388D01*
Y17913D01*
X59704Y18176D01*
X60229D01*
X60491Y17913D01*
Y17651D01*
X59442D01*
X61016Y18176D02*
Y17126D01*
Y17651D01*
X61279Y17913D01*
X61541Y18176D01*
X61803D01*
X239469Y35629D02*
Y34055D01*
X240256D01*
X240518Y34317D01*
Y34580D01*
X240256Y34842D01*
X239469D01*
X240256D01*
X240518Y35105D01*
Y35367D01*
X240256Y35629D01*
X239469D01*
X241305Y35105D02*
X241830D01*
X242092Y34842D01*
Y34055D01*
X241305D01*
X241043Y34317D01*
X241305Y34580D01*
X242092D01*
X242880Y35367D02*
Y35105D01*
X242617D01*
X243142D01*
X242880D01*
Y34317D01*
X243142Y34055D01*
X244191Y35367D02*
Y35105D01*
X243929D01*
X244454D01*
X244191D01*
Y34317D01*
X244454Y34055D01*
X246028D02*
X245503D01*
X245241Y34317D01*
Y34842D01*
X245503Y35105D01*
X246028D01*
X246290Y34842D01*
Y34580D01*
X245241D01*
X246815Y35105D02*
Y34055D01*
Y34580D01*
X247078Y34842D01*
X247340Y35105D01*
X247602D01*
X248390D02*
Y34317D01*
X248652Y34055D01*
X249439D01*
Y33793D01*
X249177Y33530D01*
X248914D01*
X249439Y34055D02*
Y35105D01*
X98122Y55028D02*
X96810D01*
X96547Y54765D01*
Y54240D01*
X96810Y53978D01*
X98122D01*
X96285Y53453D02*
Y52404D01*
X98122Y51879D02*
X96547D01*
Y51092D01*
X96810Y50829D01*
X97859D01*
X98122Y51092D01*
Y51879D01*
X96547Y49518D02*
Y50042D01*
X96810Y50305D01*
X97334D01*
X97597Y50042D01*
Y49518D01*
X97334Y49255D01*
X97072D01*
Y50305D01*
X97859Y48468D02*
X97597D01*
Y48730D01*
Y48206D01*
Y48468D01*
X96810D01*
X96547Y48206D01*
X155208Y47941D02*
X153634D01*
Y46891D01*
X154683Y46104D02*
Y45579D01*
X154421Y45317D01*
X153634D01*
Y46104D01*
X153896Y46367D01*
X154159Y46104D01*
Y45317D01*
X155208Y43743D02*
X153634D01*
Y44530D01*
X153896Y44792D01*
X154421D01*
X154683Y44530D01*
Y43743D01*
X153634Y42431D02*
Y42956D01*
X153896Y43218D01*
X154421D01*
X154683Y42956D01*
Y42431D01*
X154421Y42169D01*
X154159D01*
Y43218D01*
X154683Y41644D02*
X153634D01*
X154159D01*
X154421Y41381D01*
X154683Y41119D01*
Y40857D01*
X153634Y39282D02*
Y39807D01*
X153896Y40069D01*
X154421D01*
X154683Y39807D01*
Y39282D01*
X154421Y39020D01*
X154159D01*
Y40069D01*
X153109Y37970D02*
Y37708D01*
X153372Y37446D01*
X154683D01*
Y38233D01*
X154421Y38495D01*
X153896D01*
X153634Y38233D01*
Y37446D01*
Y36921D02*
Y36396D01*
Y36658D01*
X155208D01*
Y36921D01*
X153634Y34822D02*
Y35347D01*
X153896Y35609D01*
X154421D01*
X154683Y35347D01*
Y34822D01*
X154421Y34560D01*
X154159D01*
Y35609D01*
X154683Y34035D02*
X153634D01*
X154159D01*
X154421Y33772D01*
X154683Y33510D01*
Y33248D01*
X66494Y69332D02*
X66232Y69594D01*
X65707D01*
X65445Y69332D01*
Y68282D01*
X65707Y68020D01*
X66232D01*
X66494Y68282D01*
X67019Y68020D02*
X67544D01*
X67282D01*
Y69594D01*
X67019Y69332D01*
X68331D02*
X68594Y69594D01*
X69118D01*
X69381Y69332D01*
Y69069D01*
X69118Y68807D01*
X68856D01*
X69118D01*
X69381Y68544D01*
Y68282D01*
X69118Y68020D01*
X68594D01*
X68331Y68282D01*
X84435Y70496D02*
X84172Y70758D01*
X83647D01*
X83385Y70496D01*
Y69447D01*
X83647Y69184D01*
X84172D01*
X84435Y69447D01*
X84959Y69184D02*
X85484D01*
X85222D01*
Y70758D01*
X84959Y70496D01*
X87321Y69184D02*
X86271D01*
X87321Y70234D01*
Y70496D01*
X87058Y70758D01*
X86534D01*
X86271Y70496D01*
D15*
X74106Y102953D02*
X75090D01*
X74106Y101969D02*
Y102953D01*
X85327D02*
X86311D01*
Y101969D02*
Y102953D01*
Y90748D02*
Y91732D01*
X85327Y90748D02*
X86311D01*
X74106D02*
Y91732D01*
Y90748D02*
X75090D01*
D16*
X74114Y38098D02*
X72052D01*
Y39130D01*
X72396Y39473D01*
X73083D01*
X73427Y39130D01*
Y38098D01*
Y38786D02*
X74114Y39473D01*
Y41536D02*
Y40161D01*
X72739Y41536D01*
X72396D01*
X72052Y41192D01*
Y40505D01*
X72396Y40161D01*
Y42223D02*
X72052Y42567D01*
Y43254D01*
X72396Y43598D01*
X73770D01*
X74114Y43254D01*
Y42567D01*
X73770Y42223D01*
X72396D01*
X93898Y32776D02*
X91835D01*
Y33807D01*
X92179Y34150D01*
X92866D01*
X93210Y33807D01*
Y32776D01*
Y33463D02*
X93898Y34150D01*
Y36213D02*
Y34838D01*
X92523Y36213D01*
X92179D01*
X91835Y35869D01*
Y35182D01*
X92179Y34838D01*
X93898Y36900D02*
Y37588D01*
Y37244D01*
X91835D01*
X92179Y36900D01*
X218701Y246747D02*
Y244685D01*
X219732D01*
X220076Y245029D01*
Y246404D01*
X219732Y246747D01*
X218701D01*
X220763Y244685D02*
X221451D01*
X221107D01*
Y246747D01*
X220763Y246404D01*
X43465Y55537D02*
Y57599D01*
X44496D01*
X44839Y57256D01*
Y56568D01*
X44496Y56225D01*
X43465D01*
X44152D02*
X44839Y55537D01*
X45527D02*
X46214D01*
X45871D01*
Y57599D01*
X45527Y57256D01*
X47245Y57599D02*
X48620D01*
Y57256D01*
X47245Y55881D01*
Y55537D01*
X186024Y149114D02*
Y151177D01*
X187055D01*
X187399Y150833D01*
Y150145D01*
X187055Y149802D01*
X186024D01*
X186711D02*
X187399Y149114D01*
X188086D02*
X188773D01*
X188430D01*
Y151177D01*
X188086Y150833D01*
X189804Y149458D02*
X190148Y149114D01*
X190836D01*
X191179Y149458D01*
Y150833D01*
X190836Y151177D01*
X190148D01*
X189804Y150833D01*
Y150489D01*
X190148Y150145D01*
X191179D01*
X148963Y118345D02*
X148619Y118688D01*
X147932D01*
X147588Y118345D01*
Y116970D01*
X147932Y116626D01*
X148619D01*
X148963Y116970D01*
X149651Y116626D02*
X150338D01*
X149994D01*
Y118688D01*
X149651Y118345D01*
X152744Y118688D02*
X151369D01*
Y117657D01*
X152057Y118001D01*
X152400D01*
X152744Y117657D01*
Y116970D01*
X152400Y116626D01*
X151713D01*
X151369Y116970D01*
X114724Y228157D02*
Y230220D01*
X115756D01*
X116099Y229876D01*
Y229189D01*
X115756Y228845D01*
X114724D01*
X115412D02*
X116099Y228157D01*
X116787Y229876D02*
X117130Y230220D01*
X117818D01*
X118162Y229876D01*
Y229532D01*
X117818Y229189D01*
X118162Y228845D01*
Y228501D01*
X117818Y228157D01*
X117130D01*
X116787Y228501D01*
Y228845D01*
X117130Y229189D01*
X116787Y229532D01*
Y229876D01*
X117130Y229189D02*
X117818D01*
X116882Y244237D02*
Y246299D01*
X115507D01*
X113445Y244237D02*
X114820D01*
Y246299D01*
X113445D01*
X114820Y245268D02*
X114132D01*
X112757Y244237D02*
Y246299D01*
X111726D01*
X111382Y245955D01*
Y244581D01*
X111726Y244237D01*
X112757D01*
X110695Y246299D02*
X110008D01*
X110351D01*
Y244237D01*
X110695Y244581D01*
X105539D02*
X105883Y244237D01*
X106570D01*
X106914Y244581D01*
Y245955D01*
X106570Y246299D01*
X105883D01*
X105539Y245955D01*
Y245268D01*
X106227D01*
X109153Y109153D02*
Y111216D01*
X110185D01*
X110528Y110872D01*
Y110185D01*
X110185Y109841D01*
X109153D01*
X109841D02*
X110528Y109153D01*
X111216D02*
X111903D01*
X111560D01*
Y111216D01*
X111216Y110872D01*
X112935D02*
X113278Y111216D01*
X113966D01*
X114309Y110872D01*
Y110528D01*
X113966Y110185D01*
X114309Y109841D01*
Y109497D01*
X113966Y109153D01*
X113278D01*
X112935Y109497D01*
Y109841D01*
X113278Y110185D01*
X112935Y110528D01*
Y110872D01*
X113278Y110185D02*
X113966D01*
X100000Y201682D02*
Y203744D01*
X101031D01*
X101375Y203400D01*
Y202713D01*
X101031Y202369D01*
X100000D01*
X100687D02*
X101375Y201682D01*
X103437D02*
X102062D01*
X103437Y203057D01*
Y203400D01*
X103094Y203744D01*
X102406D01*
X102062Y203400D01*
X161323Y20568D02*
Y19880D01*
Y20224D01*
X163042D01*
X163386Y19880D01*
Y19537D01*
X163042Y19193D01*
X163386Y21255D02*
Y21943D01*
Y21599D01*
X161323D01*
X161667Y21255D01*
X95866Y244394D02*
X94491D01*
X95179D01*
Y246457D01*
X93460Y245082D02*
X92773D01*
X92429Y245426D01*
Y246457D01*
X93460D01*
X93804Y246113D01*
X93460Y245769D01*
X92429D01*
X91742Y246457D02*
X90710D01*
X90367Y246113D01*
X90710Y245769D01*
X91398D01*
X91742Y245426D01*
X91398Y245082D01*
X90367D01*
X89336Y244738D02*
Y245082D01*
X89679D01*
X88992D01*
X89336D01*
Y246113D01*
X88992Y246457D01*
X86929D02*
X87617D01*
X87961Y246113D01*
Y245426D01*
X87617Y245082D01*
X86929D01*
X86586Y245426D01*
Y245769D01*
X87961D01*
X85898Y245082D02*
Y246457D01*
Y245769D01*
X85554Y245426D01*
X85211Y245082D01*
X84867D01*
X67474Y93599D02*
X67131Y93256D01*
Y92568D01*
X67474Y92224D01*
X67818D01*
X68162Y92568D01*
Y93256D01*
X68506Y93599D01*
X68849D01*
X69193Y93256D01*
Y92568D01*
X68849Y92224D01*
X69193Y95318D02*
Y94630D01*
X68849Y94287D01*
X68162D01*
X67818Y94630D01*
Y95318D01*
X68162Y95662D01*
X68506D01*
Y94287D01*
X69193Y96349D02*
X67818D01*
Y97380D01*
X68162Y97724D01*
X69193D01*
Y98411D02*
Y99442D01*
X68849Y99786D01*
X68506Y99442D01*
Y98755D01*
X68162Y98411D01*
X67818Y98755D01*
Y99786D01*
X69193Y100817D02*
Y101505D01*
X68849Y101849D01*
X68162D01*
X67818Y101505D01*
Y100817D01*
X68162Y100474D01*
X68849D01*
X69193Y100817D01*
X67818Y102536D02*
X69193D01*
X68506D01*
X68162Y102880D01*
X67818Y103224D01*
Y103567D01*
X227604Y28842D02*
X227948Y29185D01*
Y29873D01*
X227604Y30217D01*
X227261D01*
X226917Y29873D01*
Y29185D01*
X226573Y28842D01*
X226230D01*
X225886Y29185D01*
Y29873D01*
X226230Y30217D01*
X227948Y28154D02*
X225886D01*
Y27123D01*
X226230Y26779D01*
X227604D01*
X227948Y27123D01*
Y28154D01*
X227604Y22655D02*
X227948Y22998D01*
Y23686D01*
X227604Y24030D01*
X226230D01*
X225886Y23686D01*
Y22998D01*
X226230Y22655D01*
X227261Y21623D02*
Y20936D01*
X226917Y20592D01*
X225886D01*
Y21623D01*
X226230Y21967D01*
X226573Y21623D01*
Y20592D01*
X227261Y19905D02*
X225886D01*
X226573D01*
X226917Y19561D01*
X227261Y19218D01*
Y18874D01*
X227948Y16468D02*
X225886D01*
Y17499D01*
X226230Y17843D01*
X226917D01*
X227261Y17499D01*
Y16468D01*
X224902Y122244D02*
X226964D01*
Y121213D01*
X226620Y120869D01*
X225933D01*
X225589Y121213D01*
Y122244D01*
Y121557D02*
X224902Y120869D01*
X226964Y120182D02*
Y118807D01*
Y119494D01*
X224902D01*
X226620Y116745D02*
X226964Y117088D01*
Y117776D01*
X226620Y118120D01*
X225245D01*
X224902Y117776D01*
Y117088D01*
X225245Y116745D01*
X203543Y74016D02*
X205606D01*
Y72985D01*
X205262Y72641D01*
X204574D01*
X204231Y72985D01*
Y74016D01*
Y73328D02*
X203543Y72641D01*
Y71953D02*
Y71266D01*
Y71610D01*
X205606D01*
X205262Y71953D01*
X205606Y68860D02*
X205262Y69547D01*
X204574Y70235D01*
X203887D01*
X203543Y69891D01*
Y69204D01*
X203887Y68860D01*
X204231D01*
X204574Y69204D01*
Y70235D01*
X185984Y80925D02*
Y82987D01*
X187015D01*
X187359Y82644D01*
Y81956D01*
X187015Y81613D01*
X185984D01*
X186672D02*
X187359Y80925D01*
X188047D02*
X188734D01*
X188390D01*
Y82987D01*
X188047Y82644D01*
X191140Y82987D02*
X189765D01*
Y81956D01*
X190453Y82300D01*
X190796D01*
X191140Y81956D01*
Y81269D01*
X190796Y80925D01*
X190109D01*
X189765Y81269D01*
X179685Y80925D02*
Y82987D01*
X180716D01*
X181060Y82644D01*
Y81956D01*
X180716Y81613D01*
X179685D01*
X180373D02*
X181060Y80925D01*
X181747D02*
X182435D01*
X182091D01*
Y82987D01*
X181747Y82644D01*
X184497Y80925D02*
Y82987D01*
X183466Y81956D01*
X184841D01*
X207579Y68898D02*
X209641D01*
Y67866D01*
X209297Y67523D01*
X208610D01*
X208266Y67866D01*
Y68898D01*
Y68210D02*
X207579Y67523D01*
Y66835D02*
Y66148D01*
Y66492D01*
X209641D01*
X209297Y66835D01*
Y65117D02*
X209641Y64773D01*
Y64086D01*
X209297Y63742D01*
X208954D01*
X208610Y64086D01*
Y64429D01*
Y64086D01*
X208266Y63742D01*
X207923D01*
X207579Y64086D01*
Y64773D01*
X207923Y65117D01*
X127224Y228346D02*
Y230409D01*
X128256D01*
X128599Y230065D01*
Y229378D01*
X128256Y229034D01*
X127224D01*
X127912D02*
X128599Y228346D01*
X129287Y228690D02*
X129630Y228346D01*
X130318D01*
X130662Y228690D01*
Y230065D01*
X130318Y230409D01*
X129630D01*
X129287Y230065D01*
Y229721D01*
X129630Y229378D01*
X130662D01*
X87598Y111417D02*
X89661D01*
Y110386D01*
X89317Y110042D01*
X88630D01*
X88286Y110386D01*
Y111417D01*
Y110730D02*
X87598Y110042D01*
X89661Y109355D02*
Y107980D01*
X89317D01*
X87942Y109355D01*
X87598D01*
X64567Y107480D02*
X62505D01*
Y108511D01*
X62848Y108855D01*
X63536D01*
X63880Y108511D01*
Y107480D01*
Y108168D02*
X64567Y108855D01*
X62505Y110917D02*
X62848Y110230D01*
X63536Y109543D01*
X64223D01*
X64567Y109886D01*
Y110574D01*
X64223Y110917D01*
X63880D01*
X63536Y110574D01*
Y109543D01*
X91339Y218504D02*
Y220566D01*
X92370D01*
X92713Y220222D01*
Y219535D01*
X92370Y219191D01*
X91339D01*
X92026D02*
X92713Y218504D01*
X94776Y220566D02*
X93401D01*
Y219535D01*
X94088Y219879D01*
X94432D01*
X94776Y219535D01*
Y218848D01*
X94432Y218504D01*
X93745D01*
X93401Y218848D01*
X100394Y212598D02*
Y214661D01*
X101425D01*
X101769Y214317D01*
Y213630D01*
X101425Y213286D01*
X100394D01*
X101081D02*
X101769Y212598D01*
X103487D02*
Y214661D01*
X102456Y213630D01*
X103831D01*
X100394Y207087D02*
Y209149D01*
X101425D01*
X101769Y208805D01*
Y208118D01*
X101425Y207774D01*
X100394D01*
X101081D02*
X101769Y207087D01*
X102456Y208805D02*
X102800Y209149D01*
X103487D01*
X103831Y208805D01*
Y208461D01*
X103487Y208118D01*
X103144D01*
X103487D01*
X103831Y207774D01*
Y207430D01*
X103487Y207087D01*
X102800D01*
X102456Y207430D01*
X100394Y195472D02*
Y197535D01*
X101425D01*
X101769Y197191D01*
Y196504D01*
X101425Y196160D01*
X100394D01*
X101081D02*
X101769Y195472D01*
X102456D02*
X103144D01*
X102800D01*
Y197535D01*
X102456Y197191D01*
X27782Y217894D02*
Y219956D01*
X28813D01*
X29157Y219612D01*
Y218925D01*
X28813Y218581D01*
X27782D01*
X31219Y219956D02*
X29844D01*
Y218925D01*
X30532Y219269D01*
X30875D01*
X31219Y218925D01*
Y218237D01*
X30875Y217894D01*
X30188D01*
X29844Y218237D01*
X147736Y65256D02*
Y67318D01*
X148424Y66631D01*
X149111Y67318D01*
Y65256D01*
X151173Y66975D02*
X150830Y67318D01*
X150142D01*
X149799Y66975D01*
Y66631D01*
X150142Y66287D01*
X150830D01*
X151173Y65943D01*
Y65600D01*
X150830Y65256D01*
X150142D01*
X149799Y65600D01*
X151861Y65256D02*
Y67318D01*
X152892D01*
X153236Y66975D01*
Y66287D01*
X152892Y65943D01*
X151861D01*
X154954Y65256D02*
Y67318D01*
X153923Y66287D01*
X155298D01*
X155985Y66975D02*
X156329Y67318D01*
X157017D01*
X157360Y66975D01*
Y66631D01*
X157017Y66287D01*
X156673D01*
X157017D01*
X157360Y65943D01*
Y65600D01*
X157017Y65256D01*
X156329D01*
X155985Y65600D01*
X158048Y66975D02*
X158391Y67318D01*
X159079D01*
X159423Y66975D01*
Y65600D01*
X159079Y65256D01*
X158391D01*
X158048Y65600D01*
Y66975D01*
X141890Y244237D02*
Y246299D01*
X140515D01*
X138453Y244237D02*
X139827D01*
Y246299D01*
X138453D01*
X139827Y245268D02*
X139140D01*
X137765Y244237D02*
Y246299D01*
X136734D01*
X136390Y245955D01*
Y244581D01*
X136734Y244237D01*
X137765D01*
X134328Y246299D02*
X135703D01*
X134328Y244924D01*
Y244581D01*
X134672Y244237D01*
X135359D01*
X135703Y244581D01*
X131578Y246299D02*
Y244237D01*
X130547D01*
X130203Y244581D01*
Y245268D01*
X130547Y245612D01*
X131578D01*
X130891D02*
X130203Y246299D01*
X15154Y179228D02*
X14467D01*
X14811D01*
Y177509D01*
X14467Y177165D01*
X14123D01*
X13780Y177509D01*
X15842Y179228D02*
X17217D01*
X16529D01*
Y177165D01*
X17904D02*
Y178540D01*
X18592Y179228D01*
X19279Y178540D01*
Y177165D01*
Y178197D01*
X17904D01*
X21341Y178884D02*
X20998Y179228D01*
X20310D01*
X19966Y178884D01*
Y177509D01*
X20310Y177165D01*
X20998D01*
X21341Y177509D01*
Y178197D01*
X20654D01*
X47244Y244788D02*
Y246850D01*
X46213D01*
X45869Y246507D01*
Y245132D01*
X46213Y244788D01*
X47244D01*
X45182D02*
X44494D01*
X44838D01*
Y246850D01*
X45182D01*
X44494D01*
X43463D02*
Y244788D01*
X42432D01*
X42088Y245132D01*
Y245819D01*
X42432Y246163D01*
X43463D01*
X37964Y245132D02*
X38307Y244788D01*
X38995D01*
X39338Y245132D01*
Y245476D01*
X38995Y245819D01*
X38307D01*
X37964Y246163D01*
Y246507D01*
X38307Y246850D01*
X38995D01*
X39338Y246507D01*
X37276Y244788D02*
Y246850D01*
X36589Y246163D01*
X35901Y246850D01*
Y244788D01*
X168206Y225537D02*
X167862Y225881D01*
X167174D01*
X166831Y225537D01*
Y224163D01*
X167174Y223819D01*
X167862D01*
X168206Y224163D01*
X168893Y223819D02*
Y225881D01*
X169924D01*
X170268Y225537D01*
Y224850D01*
X169924Y224506D01*
X168893D01*
X169580D02*
X170268Y223819D01*
X170955D02*
X171643D01*
X171299D01*
Y225881D01*
X170955Y225537D01*
X174049Y223819D02*
X172674D01*
X174049Y225194D01*
Y225537D01*
X173705Y225881D01*
X173018D01*
X172674Y225537D01*
X176111Y223819D02*
X174736D01*
X176111Y225194D01*
Y225537D01*
X175767Y225881D01*
X175080D01*
X174736Y225537D01*
X178173Y225881D02*
X176799D01*
Y224850D01*
X177486Y225194D01*
X177830D01*
X178173Y224850D01*
Y224163D01*
X177830Y223819D01*
X177142D01*
X176799Y224163D01*
X197241Y82644D02*
X196897Y82987D01*
X196210D01*
X195866Y82644D01*
Y81269D01*
X196210Y80925D01*
X196897D01*
X197241Y81269D01*
X197929Y80925D02*
X198616D01*
X198272D01*
Y82987D01*
X197929Y82644D01*
X199647Y80925D02*
X200335D01*
X199991D01*
Y82987D01*
X199647Y82644D01*
X189325Y88580D02*
X188981Y88236D01*
Y87548D01*
X189325Y87205D01*
X190700D01*
X191043Y87548D01*
Y88236D01*
X190700Y88580D01*
X191043Y89267D02*
Y89955D01*
Y89611D01*
X188981D01*
X189325Y89267D01*
Y90986D02*
X188981Y91329D01*
Y92017D01*
X189325Y92361D01*
X190700D01*
X191043Y92017D01*
Y91329D01*
X190700Y90986D01*
X189325D01*
X206198Y150833D02*
X205854Y151177D01*
X205167D01*
X204823Y150833D01*
Y149458D01*
X205167Y149114D01*
X205854D01*
X206198Y149458D01*
X206885D02*
X207229Y149114D01*
X207916D01*
X208260Y149458D01*
Y150833D01*
X207916Y151177D01*
X207229D01*
X206885Y150833D01*
Y150489D01*
X207229Y150145D01*
X208260D01*
X92320Y224947D02*
X91976Y225291D01*
X91289D01*
X90945Y224947D01*
Y223572D01*
X91289Y223228D01*
X91976D01*
X92320Y223572D01*
X94382Y225291D02*
X93695Y224947D01*
X93007Y224259D01*
Y223572D01*
X93351Y223228D01*
X94038D01*
X94382Y223572D01*
Y223916D01*
X94038Y224259D01*
X93007D01*
X116778Y98231D02*
X117121Y98575D01*
Y99263D01*
X116778Y99606D01*
X115403D01*
X115059Y99263D01*
Y98575D01*
X115403Y98231D01*
X117121Y96169D02*
Y97544D01*
X116090D01*
X116434Y96856D01*
Y96513D01*
X116090Y96169D01*
X115403D01*
X115059Y96513D01*
Y97200D01*
X115403Y97544D01*
X111420Y68163D02*
X111764Y67820D01*
X112452D01*
X112795Y68163D01*
Y69538D01*
X112452Y69882D01*
X111764D01*
X111420Y69538D01*
X109702Y69882D02*
Y67820D01*
X110733Y68851D01*
X109358D01*
X85430Y86167D02*
X85086Y86511D01*
X84399D01*
X84055Y86167D01*
Y84793D01*
X84399Y84449D01*
X85086D01*
X85430Y84793D01*
X86117Y86167D02*
X86461Y86511D01*
X87149D01*
X87492Y86167D01*
Y85824D01*
X87149Y85480D01*
X86805D01*
X87149D01*
X87492Y85136D01*
Y84793D01*
X87149Y84449D01*
X86461D01*
X86117Y84793D01*
X72044Y86167D02*
X71701Y86511D01*
X71013D01*
X70669Y86167D01*
Y84793D01*
X71013Y84449D01*
X71701D01*
X72044Y84793D01*
X74107Y84449D02*
X72732D01*
X74107Y85824D01*
Y86167D01*
X73763Y86511D01*
X73075D01*
X72732Y86167D01*
X98372Y90850D02*
X98716Y91193D01*
Y91881D01*
X98372Y92224D01*
X96997D01*
X96653Y91881D01*
Y91193D01*
X96997Y90850D01*
X96653Y90162D02*
Y89475D01*
Y89818D01*
X98716D01*
X98372Y90162D01*
D17*
X33465Y222508D02*
X32631Y221675D01*
X30965D01*
X30132Y222508D01*
Y223341D01*
X30965Y224174D01*
X30132Y225007D01*
Y225840D01*
X30965Y226673D01*
X32631D01*
X33465Y225840D01*
Y225007D01*
X32631Y224174D01*
X33465Y223341D01*
Y222508D01*
X32631Y224174D02*
X30965D01*
X33760Y235356D02*
X30428D01*
Y236189D01*
X33760Y239521D01*
Y240354D01*
X78000Y240347D02*
X76334D01*
X77167D01*
Y235348D01*
X78000Y236181D01*
X76668Y230346D02*
X80000D01*
X76668Y227014D01*
Y226181D01*
X77501Y225348D01*
X79167D01*
X80000Y226181D01*
X20327Y94398D02*
Y92731D01*
Y93565D01*
X25325D01*
X24492Y94398D01*
Y90232D02*
X25325Y89399D01*
Y87733D01*
X24492Y86900D01*
X23659D01*
X22826Y87733D01*
Y88566D01*
Y87733D01*
X21993Y86900D01*
X21160D01*
X20327Y87733D01*
Y89399D01*
X21160Y90232D01*
X30327Y94398D02*
Y92731D01*
Y93565D01*
X35325D01*
X34492Y94398D01*
X30327Y87733D02*
X35325D01*
X32826Y90232D01*
Y86900D01*
X20327Y174398D02*
Y172731D01*
Y173565D01*
X25325D01*
X24492Y174398D01*
X30327Y171065D02*
Y174398D01*
X33659Y171065D01*
X34492D01*
X35325Y171898D01*
Y173565D01*
X34492Y174398D01*
M02*
