G04*
G04 #@! TF.GenerationSoftware,Altium Limited,Altium Designer,19.0.14 (431)*
G04*
G04 Layer_Physical_Order=1*
G04 Layer_Color=255*
%FSLAX25Y25*%
%MOIN*%
G70*
G01*
G75*
%ADD10C,0.01000*%
%ADD12C,0.00787*%
%ADD52R,0.02756X0.03543*%
%ADD53R,0.03543X0.02756*%
%ADD54R,0.03150X0.03543*%
%ADD55R,0.29921X0.29921*%
%ADD56R,0.22441X0.25000*%
%ADD57R,0.02559X0.07579*%
%ADD58R,0.03543X0.03150*%
%ADD59R,0.16535X0.16535*%
%ADD60R,0.03543X0.01181*%
%ADD61R,0.01181X0.03543*%
G04:AMPARAMS|DCode=62|XSize=25.2mil|YSize=8.66mil|CornerRadius=1.08mil|HoleSize=0mil|Usage=FLASHONLY|Rotation=0.000|XOffset=0mil|YOffset=0mil|HoleType=Round|Shape=RoundedRectangle|*
%AMROUNDEDRECTD62*
21,1,0.02520,0.00650,0,0,0.0*
21,1,0.02303,0.00866,0,0,0.0*
1,1,0.00217,0.01152,-0.00325*
1,1,0.00217,-0.01152,-0.00325*
1,1,0.00217,-0.01152,0.00325*
1,1,0.00217,0.01152,0.00325*
%
%ADD62ROUNDEDRECTD62*%
G04:AMPARAMS|DCode=63|XSize=25.2mil|YSize=8.66mil|CornerRadius=1.08mil|HoleSize=0mil|Usage=FLASHONLY|Rotation=90.000|XOffset=0mil|YOffset=0mil|HoleType=Round|Shape=RoundedRectangle|*
%AMROUNDEDRECTD63*
21,1,0.02520,0.00650,0,0,90.0*
21,1,0.02303,0.00866,0,0,90.0*
1,1,0.00217,0.00325,0.01152*
1,1,0.00217,0.00325,-0.01152*
1,1,0.00217,-0.00325,-0.01152*
1,1,0.00217,-0.00325,0.01152*
%
%ADD63ROUNDEDRECTD63*%
%ADD64R,0.03150X0.04882*%
%ADD65R,0.03740X0.09843*%
%ADD66R,0.04528X0.08661*%
%ADD67R,0.04567X0.04921*%
%ADD68R,0.04567X0.04724*%
%ADD69R,0.05906X0.04528*%
%ADD70R,0.02362X0.04921*%
%ADD71R,0.02362X0.04724*%
%ADD72R,0.04134X0.05512*%
%ADD73R,0.03740X0.03543*%
%ADD74R,0.03937X0.03740*%
%ADD75R,0.05512X0.01181*%
%ADD76R,0.01575X0.05315*%
%ADD77R,0.08268X0.07874*%
%ADD78R,0.06299X0.07480*%
%ADD79R,0.04724X0.07480*%
%ADD80R,0.05906X0.05906*%
%ADD81C,0.05906*%
%ADD82C,0.06000*%
%ADD83R,0.05906X0.05906*%
%ADD84C,0.02362*%
%ADD85C,0.12598*%
G36*
X258731Y182214D02*
X236221D01*
X235795Y182130D01*
X235434Y181889D01*
X235193Y181528D01*
X235109Y181102D01*
Y59055D01*
X235193Y58630D01*
X235434Y58269D01*
X235795Y58028D01*
X236221Y57943D01*
X258731D01*
Y1112D01*
X1112D01*
Y246920D01*
X258731D01*
Y182214D01*
D02*
G37*
%LPC*%
G36*
X87902Y242267D02*
Y238846D01*
X91323D01*
X91253Y239378D01*
X90854Y240340D01*
X90221Y241166D01*
X89395Y241799D01*
X88433Y242197D01*
X87902Y242267D01*
D02*
G37*
G36*
X73953Y242299D02*
X70500D01*
Y238846D01*
X73953D01*
Y242299D01*
D02*
G37*
G36*
X50500Y242267D02*
Y238846D01*
X53921D01*
X53851Y239378D01*
X53453Y240340D01*
X52819Y241166D01*
X51993Y241799D01*
X51032Y242197D01*
X50500Y242267D01*
D02*
G37*
G36*
X40500D02*
Y238846D01*
X43921D01*
X43851Y239378D01*
X43453Y240340D01*
X42819Y241166D01*
X41993Y241799D01*
X41032Y242197D01*
X40500Y242267D01*
D02*
G37*
G36*
X60500D02*
Y238846D01*
X63921D01*
X63851Y239378D01*
X63453Y240340D01*
X62819Y241166D01*
X61993Y241799D01*
X61032Y242197D01*
X60500Y242267D01*
D02*
G37*
G36*
X39500Y242267D02*
X38968Y242197D01*
X38007Y241799D01*
X37181Y241166D01*
X36547Y240340D01*
X36149Y239378D01*
X36079Y238846D01*
X39500D01*
Y242267D01*
D02*
G37*
G36*
X59500D02*
X58968Y242197D01*
X58007Y241799D01*
X57181Y241166D01*
X56547Y240340D01*
X56149Y239378D01*
X56079Y238846D01*
X59500D01*
Y242267D01*
D02*
G37*
G36*
X49500D02*
X48968Y242197D01*
X48007Y241799D01*
X47181Y241166D01*
X46547Y240340D01*
X46149Y239378D01*
X46079Y238846D01*
X49500D01*
Y242267D01*
D02*
G37*
G36*
X86902D02*
X86370Y242197D01*
X85408Y241799D01*
X84582Y241166D01*
X83949Y240340D01*
X83551Y239378D01*
X83481Y238846D01*
X86902D01*
Y242267D01*
D02*
G37*
G36*
X69500Y242299D02*
X66047D01*
Y238846D01*
X69500D01*
Y242299D01*
D02*
G37*
G36*
X226673Y242126D02*
X219587D01*
Y235039D01*
X226673D01*
Y242126D01*
D02*
G37*
G36*
X213130Y242157D02*
X212205Y242035D01*
X211343Y241678D01*
X210603Y241110D01*
X210035Y240370D01*
X209678Y239508D01*
X209556Y238583D01*
X209678Y237658D01*
X210035Y236796D01*
X210603Y236056D01*
X211343Y235488D01*
X212205Y235131D01*
X213130Y235009D01*
X214055Y235131D01*
X214917Y235488D01*
X215657Y236056D01*
X216225Y236796D01*
X216582Y237658D01*
X216704Y238583D01*
X216582Y239508D01*
X216225Y240370D01*
X215657Y241110D01*
X214917Y241678D01*
X214055Y242035D01*
X213130Y242157D01*
D02*
G37*
G36*
X135039Y241732D02*
X127953D01*
Y234646D01*
X135039D01*
Y241732D01*
D02*
G37*
G36*
X59500Y237846D02*
X56079D01*
X56149Y237315D01*
X56547Y236353D01*
X57181Y235527D01*
X58007Y234894D01*
X58968Y234495D01*
X59500Y234425D01*
Y237846D01*
D02*
G37*
G36*
X49500D02*
X46079D01*
X46149Y237315D01*
X46547Y236353D01*
X47181Y235527D01*
X48007Y234894D01*
X48968Y234495D01*
X49500Y234425D01*
Y237846D01*
D02*
G37*
G36*
X39500D02*
X36079D01*
X36149Y237315D01*
X36547Y236353D01*
X37181Y235527D01*
X38007Y234894D01*
X38968Y234495D01*
X39500Y234425D01*
Y237846D01*
D02*
G37*
G36*
X91323D02*
X87902D01*
Y234425D01*
X88433Y234495D01*
X89395Y234894D01*
X90221Y235527D01*
X90854Y236353D01*
X91253Y237315D01*
X91323Y237846D01*
D02*
G37*
G36*
X86902D02*
X83481D01*
X83551Y237315D01*
X83949Y236353D01*
X84582Y235527D01*
X85408Y234894D01*
X86370Y234495D01*
X86902Y234425D01*
Y237846D01*
D02*
G37*
G36*
X63921D02*
X60500D01*
Y234425D01*
X61032Y234495D01*
X61993Y234894D01*
X62819Y235527D01*
X63453Y236353D01*
X63851Y237315D01*
X63921Y237846D01*
D02*
G37*
G36*
X53921D02*
X50500D01*
Y234425D01*
X51032Y234495D01*
X51993Y234894D01*
X52819Y235527D01*
X53453Y236353D01*
X53851Y237315D01*
X53921Y237846D01*
D02*
G37*
G36*
X43921D02*
X40500D01*
Y234425D01*
X41032Y234495D01*
X41993Y234894D01*
X42819Y235527D01*
X43453Y236353D01*
X43851Y237315D01*
X43921Y237846D01*
D02*
G37*
G36*
X73953D02*
X70500D01*
Y234394D01*
X73953D01*
Y237846D01*
D02*
G37*
G36*
X69500D02*
X66047D01*
Y234394D01*
X69500D01*
Y237846D01*
D02*
G37*
G36*
X128362Y227575D02*
X126484D01*
Y225303D01*
X128362D01*
Y227575D01*
D02*
G37*
G36*
X115961D02*
X114083D01*
Y225303D01*
X115961D01*
Y227575D01*
D02*
G37*
G36*
X125484D02*
X123606D01*
Y225303D01*
X125484D01*
Y227575D01*
D02*
G37*
G36*
X113083D02*
X111205D01*
Y225303D01*
X113083D01*
Y227575D01*
D02*
G37*
G36*
X99819Y227181D02*
X97744D01*
Y224909D01*
X99819D01*
Y227181D01*
D02*
G37*
G36*
X96744D02*
X94669D01*
Y224909D01*
X96744D01*
Y227181D01*
D02*
G37*
G36*
X70000Y231920D02*
X69075Y231799D01*
X68213Y231441D01*
X67473Y230874D01*
X66905Y230133D01*
X66548Y229272D01*
X66453Y228553D01*
X66143Y228345D01*
X66143Y228345D01*
X61848Y224051D01*
X61348Y224258D01*
Y225070D01*
X61787Y225251D01*
X62527Y225819D01*
X63095Y226559D01*
X63452Y227421D01*
X63574Y228346D01*
X63452Y229272D01*
X63095Y230133D01*
X62527Y230874D01*
X61787Y231441D01*
X60925Y231799D01*
X60000Y231920D01*
X59075Y231799D01*
X58213Y231441D01*
X57473Y230874D01*
X56905Y230133D01*
X56548Y229272D01*
X56426Y228346D01*
X56548Y227421D01*
X56905Y226559D01*
X57473Y225819D01*
X58213Y225251D01*
X59075Y224894D01*
X59124Y224888D01*
Y223864D01*
X58624Y223657D01*
X53519Y228762D01*
X53452Y229272D01*
X53095Y230133D01*
X52527Y230874D01*
X51787Y231441D01*
X50925Y231799D01*
X50000Y231920D01*
X49075Y231799D01*
X48213Y231441D01*
X47473Y230874D01*
X46905Y230133D01*
X46548Y229272D01*
X46426Y228346D01*
X46548Y227421D01*
X46905Y226559D01*
X47473Y225819D01*
X48213Y225251D01*
X49075Y224894D01*
X49486Y224840D01*
X49453Y224340D01*
X45579D01*
X43172Y226747D01*
X43452Y227421D01*
X43574Y228346D01*
X43452Y229272D01*
X43095Y230133D01*
X42527Y230874D01*
X41787Y231441D01*
X40925Y231799D01*
X40000Y231920D01*
X39075Y231799D01*
X38213Y231441D01*
X37473Y230874D01*
X36905Y230133D01*
X36548Y229272D01*
X36426Y228346D01*
X36548Y227421D01*
X36905Y226559D01*
X37473Y225819D01*
X38213Y225251D01*
X39075Y224894D01*
X40000Y224773D01*
X40925Y224894D01*
X41600Y225174D01*
X44332Y222442D01*
X44693Y222201D01*
X45118Y222116D01*
X45118Y222116D01*
X54264D01*
X55203Y221177D01*
Y170040D01*
X54703Y169860D01*
X54235Y170173D01*
X53543Y170310D01*
X52852Y170173D01*
X52266Y169781D01*
X51875Y169195D01*
X51737Y168504D01*
X51875Y167813D01*
X52266Y167227D01*
X52852Y166835D01*
X53219Y166762D01*
Y148098D01*
X48823Y143702D01*
X48581Y143341D01*
X48497Y142916D01*
X48497Y142916D01*
Y141355D01*
X48331Y141245D01*
X47940Y140659D01*
X47802Y139968D01*
X47940Y139276D01*
X48331Y138690D01*
X48917Y138299D01*
X49609Y138161D01*
X50300Y138299D01*
X50886Y138690D01*
X51278Y139276D01*
X51415Y139968D01*
X51278Y140659D01*
X50886Y141245D01*
X50721Y141355D01*
Y142455D01*
X51657Y143391D01*
X52045Y143072D01*
X51875Y142817D01*
X51737Y142126D01*
X51875Y141435D01*
X52266Y140849D01*
X52852Y140457D01*
X53219Y140384D01*
Y113630D01*
X49014Y109425D01*
X48819Y109464D01*
X48128Y109326D01*
X47542Y108935D01*
X47150Y108349D01*
X47012Y107658D01*
X47150Y106966D01*
X47542Y106380D01*
X48128Y105989D01*
X48819Y105851D01*
X49510Y105989D01*
X50096Y106380D01*
X50488Y106966D01*
X50611Y107587D01*
X50750Y107731D01*
X50766Y107731D01*
X51250Y107452D01*
Y85106D01*
X37796Y71652D01*
X37555Y71292D01*
X37471Y70866D01*
X37471Y70866D01*
Y65167D01*
X37305Y65057D01*
X36914Y64471D01*
X36776Y63779D01*
X36914Y63088D01*
X37305Y62502D01*
X37891Y62111D01*
X38583Y61973D01*
X39274Y62111D01*
X39860Y62502D01*
X39963Y62656D01*
X40463Y62505D01*
Y58763D01*
X40455Y58758D01*
X40063Y58172D01*
X39926Y57480D01*
X40063Y56789D01*
X40455Y56203D01*
X41041Y55812D01*
X41732Y55674D01*
X42423Y55812D01*
X43010Y56203D01*
X43401Y56789D01*
X43539Y57480D01*
X43401Y58172D01*
X43010Y58758D01*
X42687Y58973D01*
Y70642D01*
X43664Y71619D01*
X44164Y71412D01*
Y60969D01*
X43998Y60859D01*
X43607Y60273D01*
X43469Y59581D01*
X43607Y58890D01*
X43998Y58304D01*
X44584Y57912D01*
X45276Y57775D01*
X45967Y57912D01*
X46553Y58304D01*
X46944Y58890D01*
X47082Y59581D01*
X46944Y60273D01*
X46553Y60859D01*
X46387Y60969D01*
Y71201D01*
X48309Y73123D01*
X48809Y72916D01*
Y63143D01*
X48521Y63086D01*
X47935Y62695D01*
X47544Y62109D01*
X47406Y61417D01*
X47544Y60726D01*
X47935Y60140D01*
X48521Y59749D01*
X49213Y59611D01*
X49904Y59749D01*
X50490Y60140D01*
X50881Y60726D01*
X51019Y61417D01*
X50987Y61578D01*
X51033Y61811D01*
Y72945D01*
X53918Y75830D01*
X54198Y75748D01*
X54400Y75604D01*
Y52569D01*
X54234Y52458D01*
X54124Y52293D01*
X53543D01*
Y52953D01*
X48819D01*
Y48622D01*
X53543D01*
Y50069D01*
X54124D01*
X54234Y49904D01*
X54821Y49512D01*
X55512Y49375D01*
X56203Y49512D01*
X56789Y49904D01*
X57181Y50490D01*
X57318Y51181D01*
X57181Y51872D01*
X56789Y52458D01*
X56624Y52569D01*
Y55619D01*
X57087Y55709D01*
X57124Y55709D01*
X58337D01*
Y54931D01*
X58171Y54821D01*
X57780Y54235D01*
X57643Y53543D01*
X57780Y52852D01*
X58171Y52266D01*
X58758Y51875D01*
X59449Y51737D01*
X60140Y51875D01*
X60726Y52266D01*
X61118Y52852D01*
X61255Y53543D01*
X61118Y54235D01*
X60726Y54821D01*
X60561Y54931D01*
Y55709D01*
X61811D01*
Y60039D01*
X57124D01*
X57087Y60039D01*
X56624Y60129D01*
Y60333D01*
X56677Y60811D01*
X57124Y60811D01*
X58949D01*
Y63386D01*
Y65961D01*
X56677Y65961D01*
X56624Y66439D01*
Y75228D01*
X62204Y80808D01*
X62204Y80808D01*
X62445Y81169D01*
X62529Y81595D01*
Y101988D01*
X67805Y107264D01*
X70169D01*
Y111988D01*
X69267D01*
Y112599D01*
X69388Y112679D01*
X69779Y113265D01*
X69917Y113957D01*
X69779Y114648D01*
X69388Y115234D01*
X68801Y115626D01*
X68110Y115763D01*
X67915Y115724D01*
X65285Y118354D01*
Y198258D01*
X65652Y198331D01*
X66238Y198723D01*
X66629Y199309D01*
X66767Y200000D01*
X66629Y200691D01*
X66238Y201277D01*
X65652Y201669D01*
X64961Y201806D01*
X64269Y201669D01*
X63817Y201366D01*
X63317Y201560D01*
Y222374D01*
X66896Y225954D01*
X67395Y225921D01*
X67473Y225819D01*
X68213Y225251D01*
X69075Y224894D01*
X70000Y224773D01*
X70925Y224894D01*
X71787Y225251D01*
X72527Y225819D01*
X73095Y226559D01*
X73452Y227421D01*
X73574Y228346D01*
X73452Y229272D01*
X73095Y230133D01*
X72527Y230874D01*
X71787Y231441D01*
X70925Y231799D01*
X70000Y231920D01*
D02*
G37*
G36*
X141496Y241763D02*
X140571Y241641D01*
X139709Y241284D01*
X138969Y240716D01*
X138401Y239976D01*
X138044Y239114D01*
X137922Y238189D01*
X138044Y237264D01*
X138401Y236402D01*
X138969Y235662D01*
X139445Y235296D01*
Y234325D01*
X132286Y227165D01*
X129921D01*
Y222441D01*
X133858D01*
Y225593D01*
X141344Y233078D01*
X141585Y233439D01*
X141669Y233864D01*
Y234638D01*
X142421Y234737D01*
X143283Y235094D01*
X144023Y235662D01*
X144591Y236402D01*
X144948Y237264D01*
X145070Y238189D01*
X144948Y239114D01*
X144591Y239976D01*
X144023Y240716D01*
X143283Y241284D01*
X142421Y241641D01*
X141496Y241763D01*
D02*
G37*
G36*
X119638D02*
X118713Y241641D01*
X117851Y241284D01*
X117111Y240716D01*
X116543Y239976D01*
X116186Y239114D01*
X116064Y238189D01*
X116186Y237264D01*
X116543Y236402D01*
X117111Y235662D01*
X117851Y235094D01*
X118451Y234845D01*
Y227165D01*
X117520D01*
Y222441D01*
X121457D01*
Y227165D01*
X120675D01*
Y234783D01*
X121425Y235094D01*
X122165Y235662D01*
X122733Y236402D01*
X123090Y237264D01*
X123212Y238189D01*
X123090Y239114D01*
X122733Y239976D01*
X122165Y240716D01*
X121425Y241284D01*
X120563Y241641D01*
X119638Y241763D01*
D02*
G37*
G36*
X128362Y224303D02*
X126484D01*
Y222031D01*
X128362D01*
Y224303D01*
D02*
G37*
G36*
X125484D02*
X123606D01*
Y222031D01*
X125484D01*
Y224303D01*
D02*
G37*
G36*
X115961D02*
X114083D01*
Y222031D01*
X115961D01*
Y224303D01*
D02*
G37*
G36*
X113083D02*
X111205D01*
Y222031D01*
X113083D01*
Y224303D01*
D02*
G37*
G36*
X99819Y223909D02*
X97744D01*
Y221638D01*
X99819D01*
Y223909D01*
D02*
G37*
G36*
X96744D02*
X94669D01*
Y221638D01*
X96744D01*
Y223909D01*
D02*
G37*
G36*
X242126Y243256D02*
X240102Y243097D01*
X238127Y242623D01*
X236251Y241846D01*
X234519Y240785D01*
X232975Y239466D01*
X231656Y237922D01*
X230595Y236190D01*
X229818Y234314D01*
X229344Y232339D01*
X229185Y230315D01*
X229344Y228291D01*
X229818Y226316D01*
X230595Y224440D01*
X231656Y222708D01*
X232975Y221164D01*
X234519Y219845D01*
X236251Y218784D01*
X238127Y218007D01*
X240102Y217533D01*
X242126Y217373D01*
X244150Y217533D01*
X246125Y218007D01*
X248001Y218784D01*
X249733Y219845D01*
X251277Y221164D01*
X252596Y222708D01*
X253657Y224440D01*
X254434Y226316D01*
X254908Y228291D01*
X255067Y230315D01*
X254908Y232339D01*
X254434Y234314D01*
X253657Y236190D01*
X252596Y237922D01*
X251277Y239466D01*
X249733Y240785D01*
X248001Y241846D01*
X246125Y242623D01*
X244150Y243097D01*
X242126Y243256D01*
D02*
G37*
G36*
X17717D02*
X15692Y243097D01*
X13717Y242623D01*
X11841Y241846D01*
X10110Y240785D01*
X8566Y239466D01*
X7247Y237922D01*
X6186Y236190D01*
X5409Y234314D01*
X4934Y232339D01*
X4775Y230315D01*
X4934Y228291D01*
X5409Y226316D01*
X6186Y224440D01*
X7247Y222708D01*
X8566Y221164D01*
X10110Y219845D01*
X11841Y218784D01*
X13717Y218007D01*
X15692Y217533D01*
X17717Y217373D01*
X19741Y217533D01*
X21716Y218007D01*
X23592Y218784D01*
X25323Y219845D01*
X26867Y221164D01*
X28186Y222708D01*
X29247Y224440D01*
X30025Y226316D01*
X30499Y228291D01*
X30658Y230315D01*
X30499Y232339D01*
X30025Y234314D01*
X29247Y236190D01*
X28186Y237922D01*
X26867Y239466D01*
X25323Y240785D01*
X23592Y241846D01*
X21716Y242623D01*
X19741Y243097D01*
X17717Y243256D01*
D02*
G37*
G36*
X93004Y215846D02*
X89067D01*
Y214596D01*
X87215D01*
X87104Y214761D01*
X86518Y215153D01*
X85827Y215291D01*
X85136Y215153D01*
X84549Y214761D01*
X84158Y214176D01*
X84020Y213484D01*
X84158Y212793D01*
X84549Y212207D01*
X85136Y211815D01*
X85827Y211678D01*
X86518Y211815D01*
X87104Y212207D01*
X87215Y212372D01*
X89067D01*
Y211122D01*
X93004D01*
Y215846D01*
D02*
G37*
G36*
X93110Y210236D02*
X89173D01*
Y208986D01*
X87215D01*
X87104Y209151D01*
X86518Y209543D01*
X85827Y209680D01*
X85136Y209543D01*
X84549Y209151D01*
X84158Y208565D01*
X84020Y207874D01*
X84158Y207183D01*
X84549Y206597D01*
X85136Y206205D01*
X85827Y206068D01*
X86518Y206205D01*
X87104Y206597D01*
X87215Y206762D01*
X89173D01*
Y205512D01*
X93110D01*
Y210236D01*
D02*
G37*
G36*
X32677Y213574D02*
X31752Y213452D01*
X30890Y213095D01*
X30150Y212527D01*
X29582Y211787D01*
X29225Y210925D01*
X29103Y210000D01*
X29225Y209075D01*
X29505Y208400D01*
X26773Y205668D01*
X26532Y205307D01*
X26447Y204882D01*
X26447Y204882D01*
Y157165D01*
X26447Y157165D01*
X26532Y156740D01*
X26773Y156379D01*
X29154Y153998D01*
X28875Y153323D01*
X28753Y152398D01*
X28875Y151473D01*
X29232Y150611D01*
X29800Y149871D01*
X30540Y149303D01*
X31402Y148945D01*
X32327Y148824D01*
X33252Y148945D01*
X34114Y149303D01*
X34854Y149871D01*
X35422Y150611D01*
X35779Y151473D01*
X35901Y152398D01*
X35779Y153323D01*
X35422Y154185D01*
X34854Y154925D01*
X34114Y155493D01*
X33252Y155850D01*
X32327Y155972D01*
X31402Y155850D01*
X30727Y155570D01*
X28671Y157626D01*
Y160658D01*
X29171Y160757D01*
X29232Y160611D01*
X29800Y159871D01*
X30540Y159303D01*
X31402Y158946D01*
X32327Y158824D01*
X33252Y158946D01*
X34114Y159303D01*
X34854Y159871D01*
X35422Y160611D01*
X35779Y161473D01*
X35901Y162398D01*
X35779Y163323D01*
X35422Y164185D01*
X34854Y164925D01*
X34114Y165493D01*
X33252Y165850D01*
X32327Y165972D01*
X31402Y165850D01*
X30727Y165570D01*
X30261Y166035D01*
Y186012D01*
X30706Y186457D01*
X36220D01*
Y193543D01*
X29134D01*
Y193543D01*
X28671Y193633D01*
Y199453D01*
X29171Y199486D01*
X29225Y199075D01*
X29582Y198213D01*
X30150Y197473D01*
X30890Y196905D01*
X31752Y196548D01*
X32677Y196426D01*
X33602Y196548D01*
X34464Y196905D01*
X35204Y197473D01*
X35772Y198213D01*
X36129Y199075D01*
X36251Y200000D01*
X36129Y200925D01*
X35772Y201787D01*
X35204Y202527D01*
X34464Y203095D01*
X33602Y203452D01*
X32677Y203574D01*
X31752Y203452D01*
X30890Y203095D01*
X30150Y202527D01*
X29582Y201787D01*
X29225Y200925D01*
X29171Y200514D01*
X28671Y200547D01*
Y204421D01*
X31077Y206827D01*
X31752Y206548D01*
X32677Y206426D01*
X33602Y206548D01*
X34464Y206905D01*
X35204Y207473D01*
X35772Y208213D01*
X36129Y209075D01*
X36251Y210000D01*
X36129Y210925D01*
X35772Y211787D01*
X35204Y212527D01*
X34464Y213095D01*
X33602Y213452D01*
X32677Y213574D01*
D02*
G37*
G36*
X93110Y204724D02*
X89173D01*
Y203474D01*
X87215D01*
X87104Y203640D01*
X86518Y204031D01*
X85827Y204169D01*
X85136Y204031D01*
X84549Y203640D01*
X84158Y203053D01*
X84020Y202362D01*
X84158Y201671D01*
X84549Y201085D01*
X85136Y200693D01*
X85827Y200556D01*
X86518Y200693D01*
X87104Y201085D01*
X87215Y201250D01*
X89173D01*
Y200000D01*
X93110D01*
Y204724D01*
D02*
G37*
G36*
Y199213D02*
X89173D01*
Y197962D01*
X87215D01*
X87104Y198128D01*
X86518Y198519D01*
X85827Y198657D01*
X85136Y198519D01*
X84549Y198128D01*
X84158Y197542D01*
X84020Y196850D01*
X84158Y196159D01*
X84549Y195573D01*
X85136Y195182D01*
X85827Y195044D01*
X86518Y195182D01*
X87104Y195573D01*
X87215Y195738D01*
X89173D01*
Y194488D01*
X93110D01*
Y199213D01*
D02*
G37*
G36*
X100945Y241890D02*
X93858D01*
Y234803D01*
X99372D01*
X101644Y232531D01*
Y226772D01*
X100591D01*
Y222047D01*
X102089D01*
Y221071D01*
X101232D01*
Y216347D01*
X101866D01*
Y193863D01*
X101405Y193672D01*
X99016Y196061D01*
Y199213D01*
X98401D01*
Y200000D01*
X99016D01*
Y204724D01*
X98401D01*
Y205512D01*
X99016D01*
Y210236D01*
X98401D01*
Y211122D01*
X98909D01*
Y215846D01*
X98401D01*
Y216347D01*
X99264D01*
Y221071D01*
X95327D01*
Y216347D01*
X96177D01*
Y215846D01*
X94972D01*
Y211122D01*
X96177D01*
Y210236D01*
X95079D01*
Y205512D01*
X96177D01*
Y204724D01*
X95079D01*
Y200000D01*
X96177D01*
Y199213D01*
X95079D01*
Y194488D01*
X97443D01*
X100069Y191862D01*
Y129594D01*
X96509Y126034D01*
X96268Y125674D01*
X96183Y125248D01*
X96183Y125248D01*
Y115345D01*
X96018Y115234D01*
X95626Y114648D01*
X95489Y113957D01*
X95626Y113265D01*
X96018Y112679D01*
X96183Y112569D01*
Y98201D01*
X93061Y95079D01*
X90158D01*
Y93968D01*
X88316D01*
X88155Y94163D01*
Y94813D01*
X88101Y95086D01*
X87974Y95276D01*
X88101Y95465D01*
X88155Y95738D01*
Y96388D01*
X88101Y96661D01*
X87974Y96850D01*
X88101Y97040D01*
X88155Y97313D01*
Y97963D01*
X88101Y98235D01*
X87974Y98425D01*
X88101Y98615D01*
X88155Y98888D01*
Y99537D01*
X88143Y99598D01*
X88242Y99664D01*
X88487Y100030D01*
X88538Y100287D01*
X86291D01*
Y100787D01*
X85791D01*
Y102242D01*
X85601D01*
Y102433D01*
X84146D01*
Y102933D01*
X83646D01*
Y105180D01*
X83389Y105129D01*
X83358Y105108D01*
X83328Y105129D01*
X83071Y105180D01*
Y102933D01*
X82071D01*
Y105180D01*
X81814Y105129D01*
X81447Y104884D01*
X81381Y104785D01*
X81321Y104797D01*
X80671D01*
X80399Y104743D01*
X80209Y104616D01*
X80019Y104743D01*
X79746Y104797D01*
X79097D01*
X78807Y105249D01*
Y105277D01*
X79737Y106208D01*
X79955Y106533D01*
X80031Y106917D01*
Y107264D01*
X80799D01*
Y111988D01*
X79943D01*
Y118474D01*
X80108Y118585D01*
X80500Y119171D01*
X80637Y119862D01*
X80500Y120554D01*
X80108Y121140D01*
X79522Y121531D01*
X78831Y121669D01*
X78139Y121531D01*
X77553Y121140D01*
X77162Y120554D01*
X77024Y119862D01*
X77162Y119171D01*
X77553Y118585D01*
X77719Y118474D01*
Y111988D01*
X76862D01*
Y107264D01*
X76862D01*
X77085Y106792D01*
X76570Y106770D01*
X76075Y107266D01*
Y111988D01*
X74832D01*
Y116033D01*
X74998Y116144D01*
X75389Y116730D01*
X75527Y117421D01*
X75389Y118113D01*
X74998Y118699D01*
X74412Y119090D01*
X73721Y119228D01*
X73029Y119090D01*
X72443Y118699D01*
X72052Y118113D01*
X71914Y117421D01*
X72052Y116730D01*
X72443Y116144D01*
X72609Y116033D01*
Y111988D01*
X72138D01*
Y107264D01*
X73343D01*
X73554Y106948D01*
X75225Y105277D01*
Y102976D01*
X75234Y102928D01*
Y101825D01*
X72974D01*
X72702Y101770D01*
X72471Y101616D01*
X72316Y101385D01*
X72262Y101112D01*
Y100463D01*
X72316Y100190D01*
X72443Y100000D01*
X72316Y99810D01*
X72262Y99537D01*
Y98888D01*
X72316Y98615D01*
X72443Y98425D01*
X72316Y98235D01*
X72262Y97963D01*
Y97313D01*
X72316Y97040D01*
X72443Y96850D01*
X72316Y96661D01*
X72262Y96388D01*
Y95738D01*
X72316Y95465D01*
X72443Y95276D01*
X72316Y95086D01*
X72262Y94813D01*
Y94163D01*
X72316Y93891D01*
X72443Y93701D01*
X72316Y93511D01*
X72262Y93238D01*
Y92589D01*
X72316Y92316D01*
X72471Y92085D01*
X72702Y91930D01*
X72974Y91876D01*
X75234D01*
Y89616D01*
X75289Y89344D01*
X75443Y89112D01*
X75674Y88958D01*
X75947Y88904D01*
X76596D01*
X76843Y88701D01*
Y87317D01*
X75464Y85938D01*
X75246Y85612D01*
X75170Y85228D01*
Y83543D01*
X73972D01*
Y78819D01*
X74963D01*
Y61000D01*
X73715Y59752D01*
X71957D01*
Y60161D01*
X70276D01*
Y56799D01*
Y53437D01*
X71957D01*
Y53847D01*
X75287D01*
Y54770D01*
X75749Y54962D01*
X77954Y52757D01*
X77954Y52757D01*
X78315Y52516D01*
X78388Y52501D01*
X78545Y52266D01*
X79132Y51875D01*
X79476Y51806D01*
X79482Y51805D01*
Y51295D01*
X79459Y51291D01*
X78927Y51185D01*
X78341Y50793D01*
X77949Y50207D01*
X77812Y49516D01*
X77851Y49321D01*
X76599Y48069D01*
X75287D01*
Y49909D01*
X72047D01*
X71744Y49909D01*
X71244Y49909D01*
X68004D01*
Y49909D01*
X67807D01*
Y49909D01*
X64264D01*
Y44004D01*
X67807D01*
Y44004D01*
X68004D01*
Y44004D01*
X68648D01*
Y43045D01*
X68483Y42935D01*
X68091Y42349D01*
X67953Y41658D01*
X68091Y40966D01*
X68483Y40380D01*
X68672Y40253D01*
Y25395D01*
X68531Y25301D01*
X68421Y25135D01*
X64571D01*
X64554Y25132D01*
X64538Y25135D01*
X62295D01*
Y26484D01*
X57571D01*
Y25135D01*
X53831D01*
Y26484D01*
X49894D01*
Y21760D01*
X53831D01*
Y22912D01*
X57571D01*
Y22153D01*
X62295D01*
Y22912D01*
X64538D01*
X64554Y22915D01*
X64571Y22912D01*
X68421D01*
X68531Y22746D01*
X69117Y22355D01*
X69809Y22217D01*
X70500Y22355D01*
X71086Y22746D01*
X71478Y23332D01*
X71615Y24024D01*
X71478Y24715D01*
X71086Y25301D01*
X70896Y25428D01*
Y40286D01*
X70943Y40317D01*
X74803D01*
Y37795D01*
X78740D01*
Y42520D01*
X76001D01*
X75894Y42541D01*
X75894Y42541D01*
X71300D01*
X71037Y42935D01*
X70872Y43045D01*
Y43650D01*
X71225Y44004D01*
X71547D01*
X72047Y44004D01*
X75287D01*
Y45845D01*
X77059D01*
X77059Y45845D01*
X77485Y45929D01*
X77845Y46170D01*
X77968Y46293D01*
X78356Y45974D01*
X78154Y45672D01*
X78017Y44980D01*
X78154Y44289D01*
X78545Y43703D01*
X79132Y43312D01*
X79823Y43174D01*
X80514Y43312D01*
X81100Y43703D01*
X81492Y44289D01*
X81565Y44658D01*
X82752Y45845D01*
X83555D01*
Y43905D01*
X86795D01*
X87098Y43905D01*
X87601Y43905D01*
X87955Y43552D01*
Y42496D01*
X87880Y42421D01*
X85516D01*
Y41269D01*
X84646D01*
Y42520D01*
X80709D01*
Y37795D01*
X84646D01*
Y39046D01*
X85516D01*
Y37697D01*
X89453D01*
Y40849D01*
X89853Y41249D01*
X89853Y41249D01*
X90094Y41610D01*
X90179Y42035D01*
X90179Y42035D01*
Y43368D01*
X90626Y43496D01*
Y43496D01*
X92307D01*
Y46957D01*
Y50417D01*
X90626D01*
Y50008D01*
X87598D01*
X87295Y50008D01*
X86795Y50008D01*
X83555D01*
Y48069D01*
X82291D01*
X81866Y47984D01*
X81505Y47743D01*
X81505Y47743D01*
X80428Y46666D01*
X79823Y46787D01*
X79132Y46649D01*
X78829Y46447D01*
X78510Y46835D01*
X79423Y47748D01*
X79618Y47709D01*
X80309Y47847D01*
X80895Y48239D01*
X81287Y48825D01*
X81424Y49516D01*
X81287Y50207D01*
X80895Y50793D01*
X80309Y51185D01*
X79965Y51253D01*
X79959Y51254D01*
Y51764D01*
X79982Y51769D01*
X80514Y51875D01*
X81100Y52266D01*
X81492Y52852D01*
X81629Y53543D01*
X81492Y54235D01*
X81100Y54821D01*
X80514Y55212D01*
X79823Y55350D01*
X79132Y55212D01*
X78839Y55017D01*
X76271Y57586D01*
X75910Y57827D01*
X75686Y57871D01*
X75506Y58345D01*
X75509Y58401D01*
X76861Y59753D01*
X76861Y59753D01*
X77102Y60114D01*
X77187Y60539D01*
X77187Y60539D01*
Y78819D01*
X78303D01*
Y83543D01*
X77177D01*
Y84813D01*
X78556Y86192D01*
X78774Y86518D01*
X78850Y86902D01*
Y88701D01*
X79097Y88904D01*
X79746D01*
X79993Y88701D01*
Y86968D01*
X80069Y86585D01*
X80287Y86259D01*
X82502Y84043D01*
X82343Y83543D01*
X81453D01*
Y78819D01*
X85783D01*
Y83543D01*
X84622D01*
Y84346D01*
X84545Y84730D01*
X84328Y85056D01*
X82000Y87384D01*
Y88701D01*
X82246Y88904D01*
X82896D01*
X83168Y88958D01*
X83358Y89085D01*
X83548Y88958D01*
X83821Y88904D01*
X84470D01*
X84743Y88958D01*
X84974Y89112D01*
X85129Y89344D01*
X85183Y89616D01*
Y91876D01*
X87443D01*
X87716Y91930D01*
X87762Y91961D01*
X90158D01*
Y90748D01*
X94882D01*
Y93754D01*
X98081Y96954D01*
X98081Y96954D01*
X98323Y97315D01*
X98407Y97740D01*
Y112569D01*
X98573Y112679D01*
X98964Y113265D01*
X99102Y113957D01*
X98964Y114648D01*
X98573Y115234D01*
X98407Y115345D01*
Y124787D01*
X99639Y126020D01*
X100100Y125773D01*
X100064Y125591D01*
X100201Y124899D01*
X100593Y124313D01*
X101179Y123922D01*
X101870Y123784D01*
X102561Y123922D01*
X103147Y124313D01*
X103242Y124454D01*
X103921Y124571D01*
X104006Y124507D01*
X104006Y70866D01*
X104006Y70866D01*
X104091Y70441D01*
X104332Y70080D01*
X104548Y69864D01*
X104235Y69472D01*
X103543Y69609D01*
X102852Y69472D01*
X102266Y69080D01*
X101874Y68494D01*
X101737Y67803D01*
X101855Y67211D01*
X101610Y66968D01*
X101450Y66881D01*
X101085Y67124D01*
X100394Y67262D01*
X99702Y67124D01*
X99116Y66733D01*
X98725Y66146D01*
X98587Y65455D01*
X98725Y64764D01*
X99116Y64178D01*
X99702Y63786D01*
X100394Y63649D01*
X100589Y63688D01*
X101677Y62600D01*
X102038Y62359D01*
X102463Y62274D01*
X123622D01*
X123622Y62274D01*
X124048Y62359D01*
X124408Y62600D01*
X126558Y64749D01*
X127019Y64503D01*
X126934Y64075D01*
X127071Y63384D01*
X127463Y62797D01*
X128049Y62406D01*
X128740Y62268D01*
X129431Y62406D01*
X130017Y62797D01*
X130409Y63384D01*
X130546Y64075D01*
X130409Y64766D01*
X130049Y65305D01*
Y66713D01*
X137668D01*
Y65916D01*
X137627Y65875D01*
X137104Y65771D01*
X136518Y65380D01*
X136126Y64794D01*
X135989Y64102D01*
X136126Y63411D01*
X136518Y62825D01*
X137104Y62433D01*
X137795Y62296D01*
X138487Y62433D01*
X138831Y62664D01*
X139406Y62494D01*
X139407Y62493D01*
X139468Y62297D01*
X139276Y62010D01*
X139138Y61319D01*
X139276Y60628D01*
X139668Y60042D01*
X140254Y59650D01*
X140945Y59513D01*
X141636Y59650D01*
X142095Y59957D01*
X142189Y59910D01*
X142500Y59626D01*
X142387Y59055D01*
X142524Y58364D01*
X142916Y57778D01*
X143502Y57386D01*
X144193Y57249D01*
X144884Y57386D01*
X145470Y57778D01*
X145862Y58364D01*
X145999Y59055D01*
X145862Y59746D01*
X145470Y60332D01*
X145130Y60560D01*
Y62675D01*
X145045Y63101D01*
X144804Y63462D01*
X144804Y63462D01*
X143828Y64437D01*
Y66713D01*
X145866D01*
Y68573D01*
X158661D01*
X158661Y68573D01*
X159087Y68658D01*
X159448Y68899D01*
X164172Y73623D01*
X164172Y73623D01*
X164413Y73984D01*
X164498Y74410D01*
Y78829D01*
X164998Y78981D01*
X165037Y78922D01*
X173072Y70887D01*
X173072Y70887D01*
X173433Y70646D01*
X173858Y70561D01*
X182047D01*
Y69705D01*
X183298D01*
Y68327D01*
X183298Y68327D01*
X183382Y67901D01*
X183623Y67541D01*
X183992Y67172D01*
X183746Y66711D01*
X183465Y66767D01*
X182773Y66629D01*
X182187Y66238D01*
X181796Y65652D01*
X181658Y64961D01*
X181796Y64269D01*
X182187Y63683D01*
X182353Y63573D01*
Y57874D01*
X181988D01*
Y51811D01*
X185819D01*
X186319Y51811D01*
X186819Y51811D01*
X194480D01*
X194980Y51811D01*
Y51811D01*
X194980D01*
Y51811D01*
X196034D01*
Y45745D01*
X195770Y45569D01*
X195378Y44983D01*
X195241Y44291D01*
X195378Y43600D01*
X195770Y43014D01*
X196356Y42623D01*
X197047Y42485D01*
X197739Y42623D01*
X198325Y43014D01*
X198716Y43600D01*
X198854Y44291D01*
X198716Y44983D01*
X198325Y45569D01*
X198258Y45613D01*
Y51811D01*
X198811D01*
X199311Y51811D01*
Y51811D01*
X199311D01*
Y51811D01*
X203232D01*
Y51402D01*
X205307D01*
Y54843D01*
Y58284D01*
X203232D01*
X203179Y58761D01*
Y58988D01*
X205274Y61084D01*
X205516Y61445D01*
X205600Y61870D01*
X205600Y61870D01*
Y65364D01*
X205766Y65475D01*
X206157Y66061D01*
X206294Y66752D01*
X206157Y67443D01*
X205766Y68029D01*
X205179Y68421D01*
X204488Y68558D01*
X203797Y68421D01*
X203211Y68029D01*
X203100Y67864D01*
X202323D01*
Y69114D01*
X202323D01*
X202323Y69508D01*
X202323D01*
Y70364D01*
X206644D01*
X206754Y70199D01*
X206920Y70089D01*
Y62047D01*
X206920Y62047D01*
X207004Y61622D01*
X207245Y61261D01*
X209026Y59480D01*
Y57874D01*
X208382D01*
Y58284D01*
X206307D01*
Y54843D01*
Y51402D01*
X208382D01*
Y51811D01*
X211803D01*
X212303Y51811D01*
X212803Y51811D01*
X216634D01*
Y57874D01*
X215482D01*
Y60823D01*
Y63482D01*
X215647Y63593D01*
X216039Y64179D01*
X216176Y64870D01*
X216039Y65561D01*
X215647Y66147D01*
X215061Y66539D01*
X214370Y66676D01*
X213679Y66539D01*
X213093Y66147D01*
X212701Y65561D01*
X212564Y64870D01*
X212701Y64179D01*
X213093Y63593D01*
X213258Y63482D01*
Y60823D01*
Y58228D01*
X212905Y57874D01*
X212303Y57874D01*
X211803Y57874D01*
X211250D01*
Y59941D01*
X211250Y59941D01*
X211165Y60366D01*
X210924Y60727D01*
X210924Y60727D01*
X209143Y62508D01*
Y70089D01*
X209309Y70199D01*
X209700Y70785D01*
X209838Y71476D01*
X209700Y72168D01*
X209309Y72754D01*
X208723Y73145D01*
X208032Y73283D01*
X207340Y73145D01*
X206754Y72754D01*
X206644Y72588D01*
X202323D01*
Y74217D01*
X202732D01*
Y76488D01*
X200157D01*
X197583D01*
Y74217D01*
X198386D01*
Y69508D01*
X198386D01*
X198386Y69114D01*
X198386D01*
Y64390D01*
X202323D01*
Y65640D01*
X203100D01*
X203211Y65475D01*
X203376Y65364D01*
Y62331D01*
X201281Y60235D01*
X201040Y59874D01*
X200955Y59449D01*
X200955Y59449D01*
Y57874D01*
X199811D01*
X199311Y57874D01*
Y57874D01*
X199311D01*
Y57874D01*
X197766D01*
Y58957D01*
X197681Y59382D01*
X197440Y59743D01*
X197440Y59743D01*
X195561Y61622D01*
Y64390D01*
X196417D01*
Y69114D01*
X196417D01*
X196417Y69508D01*
X196417D01*
Y74232D01*
X196674Y74626D01*
X196811D01*
Y79094D01*
X197298Y79382D01*
X197583Y79252D01*
Y77488D01*
X200157D01*
X202732D01*
Y79549D01*
X210971D01*
X210971Y79549D01*
X211397Y79634D01*
X211757Y79875D01*
X216734Y84852D01*
X216929Y84813D01*
X217620Y84951D01*
X218206Y85342D01*
X218598Y85928D01*
X218736Y86619D01*
X218598Y87311D01*
X218206Y87897D01*
X217620Y88288D01*
X216929Y88426D01*
X216238Y88288D01*
X215652Y87897D01*
X215260Y87311D01*
X215123Y86619D01*
X215162Y86424D01*
X210510Y81773D01*
X208448D01*
X208257Y82235D01*
X214411Y88390D01*
X214606Y88351D01*
X215298Y88489D01*
X215884Y88880D01*
X216275Y89466D01*
X216413Y90158D01*
X216275Y90849D01*
X215884Y91435D01*
X215718Y91545D01*
Y93211D01*
X216476D01*
Y101971D01*
X212736D01*
Y93211D01*
X213494D01*
Y91545D01*
X213329Y91435D01*
X212937Y90849D01*
X212800Y90158D01*
X212839Y89962D01*
X206426Y83549D01*
X206231Y83578D01*
X206056Y84109D01*
X210530Y88584D01*
X210603Y88693D01*
X210884Y88880D01*
X211275Y89466D01*
X211413Y90158D01*
X211275Y90849D01*
X210884Y91435D01*
X210718Y91545D01*
Y93211D01*
X211476D01*
Y101971D01*
X207736D01*
Y93211D01*
X208494D01*
Y91545D01*
X208329Y91435D01*
X207937Y90849D01*
X207800Y90158D01*
X207937Y89466D01*
X208070Y89268D01*
X206324Y87523D01*
X205923Y87703D01*
X205856Y87762D01*
Y88862D01*
X205884Y88880D01*
X206275Y89466D01*
X206413Y90158D01*
X206275Y90849D01*
X205884Y91435D01*
X205718Y91545D01*
Y93211D01*
X206476D01*
Y101971D01*
X202736D01*
Y93211D01*
X203494D01*
Y91545D01*
X203329Y91435D01*
X202937Y90849D01*
X202800Y90158D01*
X202937Y89466D01*
X203329Y88880D01*
X203632Y88678D01*
Y88193D01*
X202527Y87088D01*
X202028Y87295D01*
Y91339D01*
X200718D01*
Y93211D01*
X201476D01*
Y101971D01*
X200718D01*
Y104124D01*
X200884Y104235D01*
X201275Y104821D01*
X201413Y105512D01*
X201275Y106203D01*
X200884Y106789D01*
X200298Y107181D01*
X199606Y107318D01*
X198915Y107181D01*
X198329Y106789D01*
X197937Y106203D01*
X197800Y105512D01*
X197937Y104821D01*
X198329Y104235D01*
X198494Y104124D01*
Y101971D01*
X197736D01*
Y93211D01*
X198494D01*
Y91339D01*
X197697D01*
Y86840D01*
X196925D01*
Y88476D01*
X194350D01*
X191776D01*
Y86840D01*
X177731D01*
X177594Y87008D01*
X177456Y87699D01*
X177065Y88285D01*
X176479Y88677D01*
X175787Y88814D01*
X175096Y88677D01*
X174510Y88285D01*
X174118Y87699D01*
X173981Y87008D01*
X174118Y86317D01*
X174510Y85731D01*
X175096Y85339D01*
X175787Y85202D01*
X175982Y85240D01*
X176281Y84942D01*
X176281Y84942D01*
X176533Y84773D01*
X176424Y84273D01*
X172951D01*
X172840Y84439D01*
X172254Y84830D01*
X171563Y84968D01*
X170872Y84830D01*
X170286Y84439D01*
X170116Y84184D01*
X169616Y84336D01*
Y87582D01*
X169781Y87692D01*
X170173Y88278D01*
X170310Y88969D01*
X170173Y89661D01*
X169781Y90247D01*
X169195Y90638D01*
X168504Y90776D01*
X167813Y90638D01*
X167435Y90386D01*
X166935Y90641D01*
Y97147D01*
X167435Y97403D01*
X167813Y97150D01*
X168504Y97013D01*
X169195Y97150D01*
X169781Y97542D01*
X170173Y98128D01*
X170310Y98819D01*
X170239Y99177D01*
X170305Y99508D01*
Y104626D01*
X170220Y105052D01*
X169979Y105412D01*
X169979Y105412D01*
X167647Y107744D01*
Y141132D01*
X167813Y141242D01*
X168204Y141828D01*
X168342Y142520D01*
X168204Y143211D01*
X167813Y143797D01*
X167227Y144189D01*
X166535Y144326D01*
X165844Y144189D01*
X165258Y143797D01*
X164867Y143211D01*
X164729Y142520D01*
X164867Y141828D01*
X165258Y141242D01*
X165424Y141132D01*
Y140114D01*
X164924Y139962D01*
X164663Y140352D01*
X164077Y140744D01*
X163386Y140881D01*
X162695Y140744D01*
X162109Y140352D01*
X161717Y139766D01*
X161580Y139075D01*
X161717Y138383D01*
X162109Y137797D01*
X162274Y137687D01*
Y136691D01*
X161774Y136470D01*
X161544Y136678D01*
X161550Y136713D01*
X161413Y137404D01*
X161021Y137990D01*
X160435Y138382D01*
X159744Y138519D01*
X159053Y138382D01*
X158467Y137990D01*
X158075Y137404D01*
X157938Y136713D01*
X158027Y136263D01*
X157655Y135835D01*
X157642Y135829D01*
X157480Y135862D01*
X156789Y135724D01*
X156203Y135332D01*
X155811Y134746D01*
X155674Y134055D01*
X155782Y133509D01*
X155529Y133164D01*
X155403Y133075D01*
X155217Y133112D01*
X154525Y132975D01*
X153939Y132583D01*
X153548Y131997D01*
X153410Y131306D01*
X153548Y130614D01*
X153939Y130028D01*
X154525Y129637D01*
X155217Y129499D01*
X155406Y129537D01*
X157124Y127819D01*
Y114576D01*
X156890Y114173D01*
X156230D01*
Y125886D01*
X156145Y126311D01*
X155904Y126672D01*
X155904Y126672D01*
X155016Y127561D01*
X155054Y127756D01*
X154917Y128447D01*
X154525Y129033D01*
X153939Y129425D01*
X153248Y129562D01*
X152557Y129425D01*
X151971Y129033D01*
X151579Y128447D01*
X151442Y127756D01*
X151579Y127065D01*
X151971Y126479D01*
X152557Y126087D01*
X153248Y125950D01*
X153443Y125988D01*
X154006Y125425D01*
Y114173D01*
X152559D01*
Y109449D01*
X154006D01*
Y108245D01*
X153506Y108051D01*
X153053Y108354D01*
X152362Y108491D01*
X151671Y108354D01*
X151085Y107962D01*
X150693Y107376D01*
X150556Y106685D01*
X150693Y105994D01*
X151085Y105408D01*
X151250Y105297D01*
Y104752D01*
X149235Y102737D01*
X149136Y102739D01*
X149027Y102773D01*
X148750Y102958D01*
Y105305D01*
X148915Y105416D01*
X149307Y106002D01*
X149444Y106693D01*
X149307Y107384D01*
X148915Y107970D01*
X148329Y108362D01*
X147638Y108499D01*
X146947Y108362D01*
X146361Y107970D01*
X145969Y107384D01*
X145831Y106693D01*
X145862Y106538D01*
X145412Y106238D01*
X145179Y106393D01*
X144488Y106531D01*
X143797Y106393D01*
X143211Y106002D01*
X142819Y105416D01*
X142682Y104724D01*
X142819Y104033D01*
X142827Y104022D01*
X142435Y103728D01*
X141849Y104120D01*
X141157Y104257D01*
X140466Y104120D01*
X140455Y104112D01*
X140136Y104500D01*
X140553Y104918D01*
X140748Y104879D01*
X141439Y105016D01*
X142025Y105408D01*
X142417Y105994D01*
X142554Y106685D01*
X142417Y107376D01*
X142025Y107962D01*
X141439Y108354D01*
X140748Y108491D01*
X140738Y108490D01*
X140543Y108954D01*
X140542Y108960D01*
X140933Y109545D01*
X141070Y110236D01*
X140933Y110927D01*
X140541Y111513D01*
X139955Y111905D01*
X139264Y112043D01*
X139232Y112036D01*
X138931Y112486D01*
X139070Y112695D01*
X139208Y113386D01*
X139070Y114077D01*
X138679Y114663D01*
X138093Y115055D01*
X137402Y115192D01*
X137247Y115162D01*
X136946Y115612D01*
X137102Y115844D01*
X137239Y116535D01*
X137102Y117227D01*
X136710Y117813D01*
X136124Y118204D01*
X135662Y118296D01*
X135411Y118790D01*
X135409Y118817D01*
X135527Y118994D01*
X135665Y119685D01*
X135527Y120376D01*
X135136Y120962D01*
X134549Y121354D01*
X133858Y121491D01*
X133704Y121461D01*
X133403Y121911D01*
X133559Y122143D01*
X133696Y122835D01*
X133559Y123526D01*
X133167Y124112D01*
X132581Y124504D01*
X131890Y124641D01*
X131872Y124638D01*
X131527Y125079D01*
X131629Y125591D01*
X131492Y126282D01*
X131100Y126868D01*
X130514Y127259D01*
X129823Y127397D01*
X129640Y127361D01*
X129394Y127821D01*
X132676Y131104D01*
X132676Y131104D01*
X132917Y131464D01*
X133002Y131890D01*
Y149006D01*
X133167Y149116D01*
X133559Y149702D01*
X133696Y150394D01*
X133559Y151085D01*
X133167Y151671D01*
X132581Y152063D01*
X131890Y152200D01*
X131199Y152063D01*
X130613Y151671D01*
X130560Y151593D01*
X130060Y151744D01*
Y171555D01*
X138386D01*
Y197736D01*
X114764D01*
Y171555D01*
X127836D01*
Y146743D01*
X127671Y146632D01*
X127279Y146046D01*
X127142Y145355D01*
X127279Y144664D01*
X127671Y144078D01*
X128257Y143686D01*
X128948Y143549D01*
X129639Y143686D01*
X130225Y144078D01*
X130278Y144156D01*
X130778Y144004D01*
Y132350D01*
X124214Y125786D01*
X123973Y125426D01*
X123888Y125000D01*
X123888Y125000D01*
Y99012D01*
X123531D01*
Y96240D01*
X123031D01*
Y95740D01*
X121441D01*
Y94665D01*
X117913D01*
Y94596D01*
X114567D01*
Y95866D01*
X109843D01*
Y95370D01*
X109343Y95163D01*
X108986Y95520D01*
Y96510D01*
X109433Y96638D01*
X109486Y96638D01*
X111705D01*
Y99213D01*
Y101787D01*
X109486D01*
X109433Y101787D01*
X108986Y101915D01*
Y103740D01*
X110433D01*
Y108465D01*
X108986D01*
Y112549D01*
X109151Y112660D01*
X109543Y113246D01*
X109680Y113937D01*
X109543Y114628D01*
X109151Y115214D01*
X108565Y115606D01*
X107874Y115743D01*
X107183Y115606D01*
X106730Y115303D01*
X106230Y115497D01*
X106230Y145275D01*
X106230Y145276D01*
Y213319D01*
X107873Y214962D01*
X108114Y215322D01*
X108198Y215748D01*
X108198Y215748D01*
Y233004D01*
X109840Y234646D01*
X113181D01*
Y241732D01*
X106095D01*
Y234646D01*
X106095D01*
X106230Y234146D01*
X106059Y233890D01*
X105975Y233465D01*
X105975Y233465D01*
Y216209D01*
X104590Y214824D01*
X104090Y215031D01*
Y216347D01*
X105169D01*
Y221071D01*
X104313D01*
Y222047D01*
X104921D01*
Y226772D01*
X103868D01*
Y232992D01*
X103868Y232992D01*
X103783Y233418D01*
X103542Y233778D01*
X100945Y236376D01*
Y241890D01*
D02*
G37*
G36*
X189189Y200606D02*
X173728D01*
Y185146D01*
X189189D01*
Y200606D01*
D02*
G37*
G36*
X172728D02*
X157268D01*
Y185146D01*
X172728D01*
Y200606D01*
D02*
G37*
G36*
X189189Y184146D02*
X173728D01*
Y168685D01*
X189189D01*
Y184146D01*
D02*
G37*
G36*
X172728D02*
X157268D01*
Y168685D01*
X172728D01*
Y184146D01*
D02*
G37*
G36*
X25870Y165941D02*
X18783D01*
Y158854D01*
X25870D01*
Y165941D01*
D02*
G37*
G36*
X231693Y197736D02*
X208071D01*
Y171555D01*
X218770D01*
Y152626D01*
X217256Y151112D01*
X201969D01*
X201543Y151027D01*
X201182Y150786D01*
X201182Y150786D01*
X197439Y147043D01*
X197244Y147082D01*
X196553Y146944D01*
X195967Y146553D01*
X195575Y145967D01*
X195438Y145276D01*
X195575Y144584D01*
X195967Y143998D01*
X196553Y143607D01*
X197244Y143469D01*
X197935Y143607D01*
X198521Y143998D01*
X198913Y144584D01*
X199050Y145276D01*
X199012Y145471D01*
X202125Y148584D01*
X202559Y148311D01*
Y143701D01*
X203475D01*
X203494Y143602D01*
Y139073D01*
X202736D01*
Y131886D01*
X201938Y131088D01*
X201476Y131279D01*
Y139073D01*
X200718D01*
Y139597D01*
X201085Y139670D01*
X201671Y140061D01*
X202063Y140647D01*
X202200Y141339D01*
X202063Y142030D01*
X201671Y142616D01*
X201085Y143007D01*
X200394Y143145D01*
X199702Y143007D01*
X199116Y142616D01*
X198725Y142030D01*
X198587Y141339D01*
X198641Y141069D01*
X198579Y140977D01*
X198494Y140551D01*
X198494Y140551D01*
Y139073D01*
X197736D01*
Y130313D01*
X200510D01*
X200702Y129851D01*
X199522Y128671D01*
X195640D01*
X195529Y128836D01*
X194943Y129228D01*
X194252Y129365D01*
X193561Y129228D01*
X192975Y128836D01*
X192583Y128250D01*
X192446Y127559D01*
X192583Y126868D01*
X192975Y126282D01*
X193561Y125890D01*
X194252Y125753D01*
X194943Y125890D01*
X195529Y126282D01*
X195640Y126447D01*
X199982D01*
X199982Y126447D01*
X200408Y126532D01*
X200768Y126773D01*
X204309Y130313D01*
X206476D01*
Y139073D01*
X205718D01*
Y143681D01*
X205734Y143701D01*
X206890D01*
Y148388D01*
X206890Y148425D01*
X206979Y148888D01*
X207184D01*
X207661Y148835D01*
X207661Y148388D01*
Y146563D01*
X210236D01*
X212811D01*
X212811Y148835D01*
X213289Y148888D01*
X217717D01*
X217717Y148888D01*
X218142Y148973D01*
X218503Y149214D01*
X220668Y151379D01*
X220668Y151379D01*
X220909Y151740D01*
X220994Y152165D01*
X220994Y152165D01*
Y171555D01*
X231693D01*
Y197736D01*
D02*
G37*
G36*
X22327Y155972D02*
X21402Y155850D01*
X20540Y155493D01*
X19800Y154925D01*
X19232Y154185D01*
X18875Y153323D01*
X18753Y152398D01*
X18875Y151473D01*
X19232Y150611D01*
X19800Y149871D01*
X20540Y149303D01*
X21402Y148945D01*
X22327Y148824D01*
X23252Y148945D01*
X24114Y149303D01*
X24854Y149871D01*
X25422Y150611D01*
X25779Y151473D01*
X25901Y152398D01*
X25779Y153323D01*
X25422Y154185D01*
X24854Y154925D01*
X24114Y155493D01*
X23252Y155850D01*
X22327Y155972D01*
D02*
G37*
G36*
X188386Y148425D02*
X184449D01*
Y145769D01*
X184163Y145578D01*
X184163Y145578D01*
X182872Y144287D01*
X182677Y144326D01*
X181986Y144188D01*
X181400Y143797D01*
X181008Y143211D01*
X180871Y142520D01*
X181008Y141828D01*
X181400Y141242D01*
X181986Y140851D01*
X182677Y140713D01*
X183368Y140851D01*
X183955Y141242D01*
X184346Y141828D01*
X184484Y142520D01*
X184445Y142715D01*
X185409Y143679D01*
X185539D01*
X185539Y143679D01*
X185647Y143701D01*
X188386D01*
Y148425D01*
D02*
G37*
G36*
X209736Y145563D02*
X207661D01*
Y143291D01*
X209736D01*
Y145563D01*
D02*
G37*
G36*
X212811D02*
X210736D01*
Y143291D01*
X211017D01*
X211155Y143043D01*
X211199Y142791D01*
X208958Y140550D01*
X208717Y140189D01*
X208632Y139764D01*
X208632Y139764D01*
Y139073D01*
X207736D01*
Y130313D01*
X211476D01*
Y139073D01*
X211333D01*
X211126Y139573D01*
X212351Y140799D01*
X212443Y140790D01*
X213029Y140398D01*
X213720Y140261D01*
X214412Y140398D01*
X214998Y140790D01*
X215389Y141376D01*
X215527Y142067D01*
X215389Y142758D01*
X214998Y143344D01*
X214412Y143736D01*
X213720Y143873D01*
X213311Y143792D01*
X212811Y144146D01*
Y145563D01*
D02*
G37*
G36*
X187327Y139482D02*
X186886D01*
X186827Y139482D01*
X185106D01*
Y134693D01*
Y129903D01*
X186827D01*
X186886Y129903D01*
X187327D01*
X187386Y129903D01*
X189106D01*
Y134693D01*
Y139482D01*
X187386D01*
X187327Y139482D01*
D02*
G37*
G36*
X182327D02*
X181886D01*
X181827Y139482D01*
X180106D01*
Y134693D01*
Y129903D01*
X181827D01*
X181886Y129903D01*
X182327D01*
X182386Y129903D01*
X184106D01*
Y134693D01*
Y139482D01*
X182386D01*
X182327Y139482D01*
D02*
G37*
G36*
X32327Y145972D02*
X31402Y145850D01*
X30540Y145493D01*
X29800Y144925D01*
X29232Y144185D01*
X28875Y143323D01*
X28753Y142398D01*
X28875Y141473D01*
X29232Y140611D01*
X29800Y139871D01*
X30540Y139303D01*
X31402Y138945D01*
X32327Y138824D01*
X33252Y138945D01*
X34114Y139303D01*
X34854Y139871D01*
X35422Y140611D01*
X35779Y141473D01*
X35901Y142398D01*
X35779Y143323D01*
X35422Y144185D01*
X34854Y144925D01*
X34114Y145493D01*
X33252Y145850D01*
X32327Y145972D01*
D02*
G37*
G36*
X22327D02*
X21402Y145850D01*
X20540Y145493D01*
X19800Y144925D01*
X19232Y144185D01*
X18875Y143323D01*
X18753Y142398D01*
X18875Y141473D01*
X19232Y140611D01*
X19800Y139871D01*
X20540Y139303D01*
X21402Y138945D01*
X22327Y138824D01*
X23252Y138945D01*
X24114Y139303D01*
X24854Y139871D01*
X25422Y140611D01*
X25779Y141473D01*
X25901Y142398D01*
X25779Y143323D01*
X25422Y144185D01*
X24854Y144925D01*
X24114Y145493D01*
X23252Y145850D01*
X22327Y145972D01*
D02*
G37*
G36*
X190106Y139482D02*
Y135193D01*
X191886D01*
Y139482D01*
X190106D01*
D02*
G37*
G36*
X174106D02*
X172327D01*
Y135193D01*
X174106D01*
Y139482D01*
D02*
G37*
G36*
X219577Y143903D02*
X218885Y143765D01*
X218300Y143374D01*
X217908Y142788D01*
X217770Y142096D01*
X217908Y141405D01*
X218300Y140819D01*
X218494Y140689D01*
Y139073D01*
X217736D01*
Y130313D01*
X221476D01*
Y139073D01*
X220718D01*
Y140728D01*
X220854Y140819D01*
X221246Y141405D01*
X221383Y142096D01*
X221246Y142788D01*
X220854Y143374D01*
X220268Y143765D01*
X219577Y143903D01*
D02*
G37*
G36*
X216476Y139073D02*
X212736D01*
Y130313D01*
X216476D01*
Y139073D01*
D02*
G37*
G36*
X194291Y148425D02*
X190354D01*
Y143701D01*
X192325D01*
X193376Y142650D01*
Y139073D01*
X192736D01*
Y130313D01*
X196476D01*
Y139073D01*
X195600D01*
Y143110D01*
X195600Y143110D01*
X195516Y143536D01*
X195274Y143896D01*
X195274Y143896D01*
X194291Y144880D01*
Y148425D01*
D02*
G37*
G36*
X191886Y134193D02*
X190106D01*
Y129903D01*
X191886D01*
Y134193D01*
D02*
G37*
G36*
X177327Y139482D02*
X176886D01*
X176827Y139482D01*
X175106D01*
Y134693D01*
Y129903D01*
X176827D01*
X176886Y129903D01*
X177327D01*
X177386Y129903D01*
X179106D01*
Y134693D01*
Y139482D01*
X177386D01*
X177327Y139482D01*
D02*
G37*
G36*
X174106Y134193D02*
X172327D01*
Y129903D01*
X174106D01*
Y134193D01*
D02*
G37*
G36*
X32327Y135971D02*
X31402Y135850D01*
X30540Y135493D01*
X29800Y134925D01*
X29232Y134185D01*
X28875Y133323D01*
X28753Y132398D01*
X28875Y131473D01*
X29232Y130611D01*
X29800Y129870D01*
X30198Y129565D01*
X30029Y129065D01*
X27232D01*
X25499Y130798D01*
X25779Y131473D01*
X25901Y132398D01*
X25779Y133323D01*
X25422Y134185D01*
X24854Y134925D01*
X24114Y135493D01*
X23252Y135850D01*
X22327Y135971D01*
X21402Y135850D01*
X20540Y135493D01*
X19800Y134925D01*
X19232Y134185D01*
X18875Y133323D01*
X18753Y132398D01*
X18875Y131473D01*
X19232Y130611D01*
X19800Y129870D01*
X20540Y129303D01*
X21402Y128946D01*
X22327Y128824D01*
X23252Y128946D01*
X23927Y129225D01*
X25985Y127166D01*
X25985Y127166D01*
X26346Y126926D01*
X26772Y126841D01*
X26772Y126841D01*
X38976D01*
X38976Y126841D01*
X39402Y126926D01*
X39763Y127166D01*
X42790Y130194D01*
X47729D01*
X47839Y130028D01*
X48425Y129637D01*
X49117Y129499D01*
X49808Y129637D01*
X50394Y130028D01*
X50785Y130614D01*
X50923Y131306D01*
X50785Y131997D01*
X50394Y132583D01*
X49808Y132975D01*
X49117Y133112D01*
X48425Y132975D01*
X47839Y132583D01*
X47729Y132418D01*
X42329D01*
X42329Y132418D01*
X41904Y132333D01*
X41543Y132092D01*
X38516Y129065D01*
X34625D01*
X34455Y129565D01*
X34854Y129870D01*
X35422Y130611D01*
X35779Y131473D01*
X35901Y132398D01*
X35779Y133323D01*
X35422Y134185D01*
X34854Y134925D01*
X34114Y135493D01*
X33252Y135850D01*
X32327Y135971D01*
D02*
G37*
G36*
X22827Y126319D02*
Y122898D01*
X26248D01*
X26178Y123430D01*
X25780Y124391D01*
X25146Y125217D01*
X24320Y125850D01*
X23359Y126249D01*
X22827Y126319D01*
D02*
G37*
G36*
X21827D02*
X21295Y126249D01*
X20333Y125850D01*
X19508Y125217D01*
X18874Y124391D01*
X18476Y123430D01*
X18406Y122898D01*
X21827D01*
Y126319D01*
D02*
G37*
G36*
X32327Y125971D02*
X31402Y125850D01*
X30540Y125493D01*
X29800Y124925D01*
X29232Y124185D01*
X28875Y123323D01*
X28753Y122398D01*
X28875Y121473D01*
X29232Y120611D01*
X29800Y119870D01*
X30540Y119303D01*
X31402Y118946D01*
X32327Y118824D01*
X33252Y118946D01*
X34114Y119303D01*
X34854Y119870D01*
X35422Y120611D01*
X35779Y121473D01*
X35901Y122398D01*
X35779Y123323D01*
X35422Y124185D01*
X34854Y124925D01*
X34114Y125493D01*
X33252Y125850D01*
X32327Y125971D01*
D02*
G37*
G36*
X26248Y121898D02*
X22827D01*
Y118477D01*
X23359Y118547D01*
X24320Y118945D01*
X25146Y119579D01*
X25780Y120404D01*
X26178Y121366D01*
X26248Y121898D01*
D02*
G37*
G36*
X21827D02*
X18406D01*
X18476Y121366D01*
X18874Y120404D01*
X19508Y119579D01*
X20333Y118945D01*
X21295Y118547D01*
X21827Y118477D01*
Y121898D01*
D02*
G37*
G36*
X151787Y114583D02*
X149713D01*
Y112311D01*
X151787D01*
Y114583D01*
D02*
G37*
G36*
X148713D02*
X146638D01*
Y112311D01*
X148713D01*
Y114583D01*
D02*
G37*
G36*
X151787Y111311D02*
X149713D01*
Y109039D01*
X151787D01*
Y111311D01*
D02*
G37*
G36*
X148713D02*
X146638D01*
Y109039D01*
X148713D01*
Y111311D01*
D02*
G37*
G36*
X32327Y115972D02*
X31402Y115850D01*
X30540Y115493D01*
X29800Y114925D01*
X29232Y114185D01*
X28875Y113323D01*
X28753Y112398D01*
X28875Y111473D01*
X29232Y110611D01*
X29800Y109871D01*
X30540Y109303D01*
X31402Y108946D01*
X32327Y108824D01*
X33252Y108946D01*
X34114Y109303D01*
X34854Y109871D01*
X35422Y110611D01*
X35779Y111473D01*
X35901Y112398D01*
X35779Y113323D01*
X35422Y114185D01*
X34854Y114925D01*
X34114Y115493D01*
X33252Y115850D01*
X32327Y115972D01*
D02*
G37*
G36*
X22327D02*
X21402Y115850D01*
X20540Y115493D01*
X19800Y114925D01*
X19232Y114185D01*
X18875Y113323D01*
X18753Y112398D01*
X18875Y111473D01*
X19232Y110611D01*
X19800Y109871D01*
X20540Y109303D01*
X21402Y108946D01*
X22327Y108824D01*
X23252Y108946D01*
X24114Y109303D01*
X24854Y109871D01*
X25422Y110611D01*
X25779Y111473D01*
X25901Y112398D01*
X25779Y113323D01*
X25422Y114185D01*
X24854Y114925D01*
X24114Y115493D01*
X23252Y115850D01*
X22327Y115972D01*
D02*
G37*
G36*
X84646Y115763D02*
X83954Y115626D01*
X83368Y115234D01*
X82977Y114648D01*
X82839Y113957D01*
X82977Y113265D01*
X83368Y112679D01*
X83579Y112539D01*
Y111988D01*
X82768D01*
Y107264D01*
X86705D01*
Y111988D01*
X85803D01*
Y112599D01*
X85923Y112679D01*
X86314Y113265D01*
X86452Y113957D01*
X86314Y114648D01*
X85923Y115234D01*
X85337Y115626D01*
X84646Y115763D01*
D02*
G37*
G36*
X116339Y108465D02*
X112402D01*
Y103740D01*
X116339D01*
Y104695D01*
X117608D01*
X117719Y104530D01*
X118305Y104138D01*
X118996Y104001D01*
X119687Y104138D01*
X120273Y104530D01*
X120665Y105116D01*
X120802Y105807D01*
X120665Y106498D01*
X120273Y107084D01*
X119687Y107476D01*
X118996Y107613D01*
X118305Y107476D01*
X117719Y107084D01*
X117608Y106919D01*
X116339D01*
Y108465D01*
D02*
G37*
G36*
X84646Y105180D02*
Y103433D01*
X85601D01*
Y104085D01*
X85514Y104517D01*
X85269Y104884D01*
X84903Y105129D01*
X84646Y105180D01*
D02*
G37*
G36*
X192327Y102380D02*
X191886D01*
X191827Y102380D01*
X190106D01*
Y97591D01*
Y92801D01*
X191827D01*
X191886Y92801D01*
X192327D01*
X192386Y92801D01*
X194106D01*
Y97591D01*
Y102380D01*
X192386D01*
X192327Y102380D01*
D02*
G37*
G36*
X187327D02*
X186886D01*
X186827Y102380D01*
X185106D01*
Y97591D01*
Y92801D01*
X186827D01*
X186886Y92801D01*
X187327D01*
X187386Y92801D01*
X189106D01*
Y97591D01*
Y102380D01*
X187386D01*
X187327Y102380D01*
D02*
G37*
G36*
X182327D02*
X181886D01*
X181827Y102380D01*
X180106D01*
Y97591D01*
Y92801D01*
X181827D01*
X181886Y92801D01*
X182327D01*
X182386Y92801D01*
X184106D01*
Y97591D01*
Y102380D01*
X182386D01*
X182327Y102380D01*
D02*
G37*
G36*
X87443Y102242D02*
X86791D01*
Y101287D01*
X88538D01*
X88487Y101545D01*
X88242Y101911D01*
X87875Y102156D01*
X87443Y102242D01*
D02*
G37*
G36*
X112705Y101787D02*
Y99713D01*
X114976D01*
Y101787D01*
X112705D01*
D02*
G37*
G36*
X32327Y105972D02*
X31402Y105850D01*
X30540Y105493D01*
X29800Y104925D01*
X29232Y104185D01*
X28875Y103323D01*
X28753Y102398D01*
X28875Y101473D01*
X29232Y100611D01*
X29800Y99871D01*
X30540Y99303D01*
X31402Y98945D01*
X32327Y98824D01*
X33252Y98945D01*
X34114Y99303D01*
X34854Y99871D01*
X35422Y100611D01*
X35779Y101473D01*
X35901Y102398D01*
X35779Y103323D01*
X35422Y104185D01*
X34854Y104925D01*
X34114Y105493D01*
X33252Y105850D01*
X32327Y105972D01*
D02*
G37*
G36*
X22327D02*
X21402Y105850D01*
X20540Y105493D01*
X19800Y104925D01*
X19232Y104185D01*
X18875Y103323D01*
X18753Y102398D01*
X18875Y101473D01*
X19232Y100611D01*
X19800Y99871D01*
X20540Y99303D01*
X21402Y98945D01*
X22327Y98824D01*
X23252Y98945D01*
X24114Y99303D01*
X24854Y99871D01*
X25422Y100611D01*
X25779Y101473D01*
X25901Y102398D01*
X25779Y103323D01*
X25422Y104185D01*
X24854Y104925D01*
X24114Y105493D01*
X23252Y105850D01*
X22327Y105972D01*
D02*
G37*
G36*
X195106Y102380D02*
Y98091D01*
X196886D01*
Y102380D01*
X195106D01*
D02*
G37*
G36*
X174106D02*
X172327D01*
Y98091D01*
X174106D01*
Y102380D01*
D02*
G37*
G36*
X122531Y99012D02*
X121441D01*
Y96740D01*
X122531D01*
Y99012D01*
D02*
G37*
G36*
X114976Y98713D02*
X112705D01*
Y96638D01*
X114976D01*
Y98713D01*
D02*
G37*
G36*
X196886Y97091D02*
X195106D01*
Y92801D01*
X196886D01*
Y97091D01*
D02*
G37*
G36*
X177327Y102380D02*
X176886D01*
X176827Y102380D01*
X175106D01*
Y97591D01*
Y92801D01*
X176827D01*
X176886Y92801D01*
X177327D01*
X177386Y92801D01*
X179106D01*
Y97591D01*
Y102380D01*
X177386D01*
X177327Y102380D01*
D02*
G37*
G36*
X174106Y97091D02*
X172327D01*
Y92801D01*
X174106D01*
Y97091D01*
D02*
G37*
G36*
X196925Y91748D02*
X194850D01*
Y89476D01*
X196925D01*
Y91748D01*
D02*
G37*
G36*
X193850D02*
X191776D01*
Y89476D01*
X193850D01*
Y91748D01*
D02*
G37*
G36*
X221476Y101971D02*
X217736D01*
Y93211D01*
X218770D01*
Y91477D01*
X218714Y91439D01*
X218322Y90853D01*
X218185Y90162D01*
X218322Y89471D01*
X218714Y88885D01*
X219300Y88493D01*
X219991Y88355D01*
X220682Y88493D01*
X221268Y88885D01*
X221660Y89471D01*
X221797Y90162D01*
X221660Y90853D01*
X221268Y91439D01*
X220994Y91623D01*
Y93211D01*
X221476D01*
Y95956D01*
X221498Y96063D01*
X221476Y96170D01*
Y101971D01*
D02*
G37*
G36*
X95291Y89976D02*
X93020D01*
Y87902D01*
X95291D01*
Y89976D01*
D02*
G37*
G36*
X92020D02*
X89748D01*
Y87902D01*
X92020D01*
Y89976D01*
D02*
G37*
G36*
X95291Y86902D02*
X93020D01*
Y84827D01*
X95291D01*
Y86902D01*
D02*
G37*
G36*
X92020D02*
X89748D01*
Y84827D01*
X92020D01*
Y86902D01*
D02*
G37*
G36*
X91705Y83953D02*
X89630D01*
Y81681D01*
X91705D01*
Y83953D01*
D02*
G37*
G36*
X88630D02*
X86555D01*
Y81681D01*
X88630D01*
Y83953D01*
D02*
G37*
G36*
X73201Y83953D02*
X71126D01*
Y81681D01*
X73201D01*
Y83953D01*
D02*
G37*
G36*
X70126D02*
X68051D01*
Y81681D01*
X70126D01*
Y83953D01*
D02*
G37*
G36*
X91705Y80681D02*
X89630D01*
Y78409D01*
X91705D01*
Y80681D01*
D02*
G37*
G36*
X88630D02*
X86555D01*
Y78409D01*
X88630D01*
Y80681D01*
D02*
G37*
G36*
X73201Y80681D02*
X71126D01*
Y78409D01*
X73201D01*
Y80681D01*
D02*
G37*
G36*
X70126D02*
X68051D01*
Y78409D01*
X70126D01*
Y80681D01*
D02*
G37*
G36*
X74319Y67445D02*
X72244D01*
Y65173D01*
X74319D01*
Y67445D01*
D02*
G37*
G36*
X71244D02*
X69169D01*
Y65173D01*
X71244D01*
Y67445D01*
D02*
G37*
G36*
X93217Y67248D02*
X91142D01*
Y64976D01*
X93217D01*
Y67248D01*
D02*
G37*
G36*
X90142D02*
X88067D01*
Y64976D01*
X90142D01*
Y67248D01*
D02*
G37*
G36*
X59949Y65961D02*
Y63886D01*
X62221D01*
Y65961D01*
X59949D01*
D02*
G37*
G36*
X74319Y64173D02*
X72244D01*
Y61902D01*
X74319D01*
Y64173D01*
D02*
G37*
G36*
X71244D02*
X69169D01*
Y61902D01*
X71244D01*
Y64173D01*
D02*
G37*
G36*
X93217Y63976D02*
X91142D01*
Y61705D01*
X93217D01*
Y63976D01*
D02*
G37*
G36*
X90142D02*
X88067D01*
Y61705D01*
X90142D01*
Y63976D01*
D02*
G37*
G36*
X62221Y62886D02*
X59949D01*
Y60811D01*
X62221D01*
Y62886D01*
D02*
G37*
G36*
X94579Y59850D02*
X91035D01*
Y53748D01*
X94579D01*
Y59850D01*
D02*
G37*
G36*
X87295Y66839D02*
X82965D01*
Y62114D01*
X84215D01*
Y59850D01*
X83555D01*
Y53748D01*
X87098D01*
Y59850D01*
X86439D01*
Y62114D01*
X87295D01*
Y66839D01*
D02*
G37*
G36*
X68398Y67035D02*
X64067D01*
Y62311D01*
X64924D01*
Y59752D01*
X64264D01*
Y53847D01*
X67594D01*
Y53437D01*
X69276D01*
Y56799D01*
Y60161D01*
X67594D01*
Y60161D01*
X67147Y60289D01*
Y62311D01*
X68398D01*
Y67035D01*
D02*
G37*
G36*
X151287Y55929D02*
X148721D01*
Y52673D01*
X151287D01*
Y55929D01*
D02*
G37*
G36*
X147721D02*
X145153D01*
Y52673D01*
X147721D01*
Y55929D01*
D02*
G37*
G36*
X47736Y53051D02*
X43012D01*
Y52244D01*
X41873D01*
X41730Y52458D01*
X41144Y52850D01*
X40453Y52987D01*
X39761Y52850D01*
X39176Y52458D01*
X38784Y51872D01*
X38646Y51181D01*
X38784Y50490D01*
X39176Y49904D01*
X39761Y49512D01*
X40453Y49375D01*
X41144Y49512D01*
X41730Y49904D01*
X41808Y50020D01*
X43012D01*
Y49114D01*
X47736D01*
Y53051D01*
D02*
G37*
G36*
X160728Y52594D02*
X160037Y52456D01*
X159451Y52065D01*
X159060Y51479D01*
X158922Y50787D01*
X159060Y50096D01*
X159451Y49510D01*
X160037Y49119D01*
X160728Y48981D01*
X161420Y49119D01*
X162006Y49510D01*
X162397Y50096D01*
X162535Y50787D01*
X162397Y51479D01*
X162006Y52065D01*
X161420Y52456D01*
X160728Y52594D01*
D02*
G37*
G36*
X142807Y55520D02*
X137492D01*
Y48827D01*
X137062Y48659D01*
X124500D01*
X124500Y48659D01*
X124074Y48575D01*
X123714Y48333D01*
X123714Y48333D01*
X122533Y47152D01*
X122292Y46792D01*
X122207Y46366D01*
X122207Y46366D01*
Y44791D01*
X118791D01*
Y42754D01*
X117226D01*
X117116Y42919D01*
X116530Y43311D01*
X115839Y43448D01*
X115147Y43311D01*
X114561Y42919D01*
X114170Y42333D01*
X114032Y41642D01*
X114170Y40951D01*
X114561Y40364D01*
X115147Y39973D01*
X115839Y39835D01*
X116530Y39973D01*
X116785Y40143D01*
X117104Y39755D01*
X114287Y36939D01*
X112295D01*
Y39083D01*
X106980D01*
Y32390D01*
X112295D01*
Y34715D01*
X114249D01*
X114727Y34555D01*
X114727Y34248D01*
Y30372D01*
X113803Y29448D01*
X112098D01*
Y30698D01*
X107177D01*
Y25974D01*
X108526D01*
Y23041D01*
X108361Y22931D01*
X107969Y22345D01*
X107831Y21654D01*
X107969Y20962D01*
X108361Y20376D01*
X108947Y19985D01*
X109638Y19847D01*
X110329Y19985D01*
X110915Y20376D01*
X111307Y20962D01*
X111444Y21654D01*
X111307Y22345D01*
X110915Y22931D01*
X110750Y23041D01*
Y25974D01*
X112098D01*
Y27224D01*
X114264D01*
X114264Y27224D01*
X114689Y27309D01*
X115050Y27550D01*
X116625Y29125D01*
X116625Y29125D01*
X116866Y29486D01*
X116951Y29911D01*
Y34095D01*
X118329Y35473D01*
X118791Y35282D01*
Y34555D01*
X125484D01*
Y36524D01*
Y40461D01*
Y44791D01*
X124431D01*
Y45906D01*
X124961Y46435D01*
X139173D01*
X139173Y46435D01*
X139599Y46520D01*
X139960Y46761D01*
X140936Y47737D01*
X141177Y48098D01*
X141261Y48524D01*
X141615Y48827D01*
X142807D01*
Y55520D01*
D02*
G37*
G36*
X151287Y51673D02*
X148721D01*
Y48417D01*
X151287D01*
Y51673D01*
D02*
G37*
G36*
X147721D02*
X145153D01*
Y48417D01*
X147721D01*
Y51673D01*
D02*
G37*
G36*
X247827Y51067D02*
X247295Y50997D01*
X246333Y50598D01*
X245508Y49965D01*
X244874Y49139D01*
X244476Y48178D01*
X244435Y47871D01*
X243931Y47871D01*
X243905Y48071D01*
X243548Y48933D01*
X242980Y49673D01*
X242240Y50241D01*
X241378Y50598D01*
X240453Y50719D01*
X239528Y50598D01*
X238666Y50241D01*
X237926Y49673D01*
X237358Y48933D01*
X237001Y48071D01*
X236879Y47146D01*
X237001Y46221D01*
X237358Y45359D01*
X237926Y44619D01*
X238666Y44051D01*
X239528Y43694D01*
X240453Y43572D01*
X241378Y43694D01*
X242240Y44051D01*
X242980Y44619D01*
X243548Y45359D01*
X243905Y46221D01*
X243931Y46420D01*
X244435Y46420D01*
X244476Y46114D01*
X244874Y45152D01*
X245508Y44326D01*
X246333Y43693D01*
X247295Y43295D01*
X247827Y43225D01*
Y47146D01*
Y51067D01*
D02*
G37*
G36*
X248827D02*
Y47646D01*
X252248D01*
X252178Y48178D01*
X251780Y49139D01*
X251146Y49965D01*
X250320Y50598D01*
X249359Y50997D01*
X248827Y51067D01*
D02*
G37*
G36*
X94988Y50417D02*
X93307D01*
Y47457D01*
X94988D01*
Y50417D01*
D02*
G37*
G36*
X169508Y57874D02*
X164587D01*
Y46850D01*
X169508D01*
Y57874D01*
D02*
G37*
G36*
X53953Y47850D02*
X51681D01*
Y45776D01*
X53953D01*
Y47850D01*
D02*
G37*
G36*
X50681D02*
X48409D01*
Y45776D01*
X50681D01*
Y47850D01*
D02*
G37*
G36*
X112705Y47760D02*
X110138D01*
Y44504D01*
X112705D01*
Y47760D01*
D02*
G37*
G36*
X109138D02*
X106571D01*
Y44504D01*
X109138D01*
Y47760D01*
D02*
G37*
G36*
X143217Y45201D02*
X139961D01*
Y44110D01*
X143217D01*
Y45201D01*
D02*
G37*
G36*
X138961D02*
X135705D01*
Y44110D01*
X138961D01*
Y45201D01*
D02*
G37*
G36*
X94988Y46457D02*
X93307D01*
Y43496D01*
X94988D01*
Y46457D01*
D02*
G37*
G36*
X252248Y46646D02*
X248827D01*
Y43225D01*
X249359Y43295D01*
X250320Y43693D01*
X251146Y44326D01*
X251780Y45152D01*
X252178Y46114D01*
X252248Y46646D01*
D02*
G37*
G36*
X53953Y44776D02*
X51681D01*
Y42701D01*
X53953D01*
Y44776D01*
D02*
G37*
G36*
X50681D02*
X48409D01*
Y42701D01*
X50681D01*
Y44776D01*
D02*
G37*
G36*
X226555Y57874D02*
X220847D01*
Y48039D01*
X220847Y48031D01*
X220827Y47539D01*
X219252D01*
Y41437D01*
X225000D01*
Y47532D01*
X225000Y47539D01*
X225019Y48031D01*
X226555D01*
Y57874D01*
D02*
G37*
G36*
X95768Y42831D02*
X93890D01*
Y40559D01*
X95768D01*
Y42831D01*
D02*
G37*
G36*
X92890D02*
X91012D01*
Y40559D01*
X92890D01*
Y42831D01*
D02*
G37*
G36*
X161524Y43988D02*
Y40520D01*
X164992D01*
X164921Y41064D01*
X164518Y42037D01*
X163876Y42873D01*
X163041Y43514D01*
X162068Y43917D01*
X161524Y43988D01*
D02*
G37*
G36*
X160524D02*
X159979Y43917D01*
X159006Y43514D01*
X158171Y42873D01*
X157530Y42037D01*
X157127Y41064D01*
X157055Y40520D01*
X160524D01*
Y43988D01*
D02*
G37*
G36*
X112705Y43504D02*
X110138D01*
Y40248D01*
X112705D01*
Y43504D01*
D02*
G37*
G36*
X109138D02*
X106571D01*
Y40248D01*
X109138D01*
Y43504D01*
D02*
G37*
G36*
X143217Y43110D02*
X139461D01*
X135705D01*
Y42020D01*
X136114D01*
Y38492D01*
Y34555D01*
X138349D01*
Y32193D01*
X137098D01*
Y27687D01*
X135933D01*
Y29331D01*
X133063D01*
X130193D01*
Y27687D01*
X124409D01*
X124409Y27687D01*
X123984Y27602D01*
X123623Y27361D01*
X122639Y26377D01*
X122398Y26016D01*
X122313Y25591D01*
X122313Y25591D01*
Y18275D01*
X119580Y15542D01*
X119382Y15246D01*
X118308Y14172D01*
X118067Y13811D01*
X117982Y13386D01*
X117983Y13386D01*
Y10335D01*
X116437D01*
Y5610D01*
X116047Y5344D01*
X115252D01*
X114862Y5610D01*
X114862Y5844D01*
Y10335D01*
X113514D01*
Y13386D01*
X113514Y13386D01*
X113429Y13811D01*
X113188Y14172D01*
X108070Y19290D01*
X107709Y19531D01*
X107283Y19616D01*
X107283Y19616D01*
X99968D01*
X96932Y22652D01*
X96571Y22893D01*
X96146Y22978D01*
X96146Y22978D01*
X91626D01*
Y25697D01*
X86508D01*
Y20776D01*
X86200Y20403D01*
X85106D01*
X84561Y20949D01*
Y21866D01*
X84561Y21866D01*
X84539Y21974D01*
Y25697D01*
X79421D01*
Y20776D01*
X81973D01*
X82337Y20488D01*
X82422Y20063D01*
X82663Y19702D01*
X83859Y18505D01*
X83859Y18505D01*
X84220Y18264D01*
X84646Y18179D01*
X84646Y18179D01*
X95602D01*
X96723Y17059D01*
Y10236D01*
X95374D01*
X95374Y5512D01*
X94943Y5344D01*
X93768D01*
X92126Y6986D01*
Y10138D01*
X87205D01*
Y5413D01*
X90553D01*
X92521Y3446D01*
X92521Y3446D01*
X92882Y3205D01*
X93307Y3120D01*
X93307Y3120D01*
X104429D01*
X104429Y3120D01*
X104429Y3120D01*
X118312D01*
X118312Y3120D01*
X118737Y3205D01*
X119098Y3446D01*
X119684Y4032D01*
X119684Y4032D01*
X119925Y4392D01*
X120010Y4818D01*
Y5610D01*
X121358D01*
Y10335D01*
X120206D01*
Y12925D01*
X121152Y13871D01*
X121351Y14168D01*
X122373Y15190D01*
X122835Y14999D01*
Y7382D01*
X130315D01*
Y16043D01*
X130572Y16437D01*
X134449D01*
Y25463D01*
X135811D01*
Y22744D01*
X137598D01*
Y22244D01*
X138098D01*
Y18587D01*
X139386D01*
Y18996D01*
X149213D01*
Y25052D01*
X153068Y28908D01*
X157598D01*
X157887Y28209D01*
X158463Y27459D01*
X159213Y26883D01*
X160086Y26522D01*
X161024Y26398D01*
X161961Y26522D01*
X162834Y26883D01*
X163584Y27459D01*
X164160Y28209D01*
X164522Y29082D01*
X164645Y30020D01*
X164522Y30957D01*
X164160Y31830D01*
X163584Y32581D01*
X162834Y33156D01*
X161961Y33518D01*
X161024Y33641D01*
X160086Y33518D01*
X159213Y33156D01*
X158463Y32581D01*
X157887Y31830D01*
X157598Y31132D01*
X152607D01*
X152182Y31047D01*
X151821Y30806D01*
X151821Y30806D01*
X147760Y26745D01*
X147144Y27361D01*
X146784Y27602D01*
X146358Y27687D01*
X146358Y27687D01*
X142020D01*
Y32193D01*
X140573D01*
Y34555D01*
X142807D01*
Y38561D01*
X144803D01*
X144847Y38508D01*
X144985Y37817D01*
X145376Y37231D01*
X145962Y36839D01*
X146653Y36702D01*
X147345Y36839D01*
X147931Y37231D01*
X148322Y37817D01*
X148460Y38508D01*
X148322Y39199D01*
X147931Y39785D01*
X147429Y40120D01*
X147471Y40511D01*
X147512Y40620D01*
X148752D01*
X149504Y39868D01*
X149465Y39673D01*
X149603Y38982D01*
X149994Y38396D01*
X150580Y38004D01*
X151272Y37867D01*
X151963Y38004D01*
X152549Y38396D01*
X152940Y38982D01*
X153078Y39673D01*
X152940Y40365D01*
X152549Y40951D01*
X151963Y41342D01*
X151272Y41480D01*
X151077Y41441D01*
X149999Y42518D01*
X149638Y42760D01*
X149213Y42844D01*
X149213Y42844D01*
X143217D01*
Y43110D01*
D02*
G37*
G36*
X95768Y39559D02*
X93890D01*
Y37287D01*
X95768D01*
Y39559D01*
D02*
G37*
G36*
X92890D02*
X91012D01*
Y37287D01*
X92890D01*
Y39559D01*
D02*
G37*
G36*
X164992Y39520D02*
X161524D01*
Y36051D01*
X162068Y36123D01*
X163041Y36526D01*
X163876Y37167D01*
X164518Y38002D01*
X164921Y38976D01*
X164992Y39520D01*
D02*
G37*
G36*
X160524D02*
X157055D01*
X157127Y38976D01*
X157530Y38002D01*
X158171Y37167D01*
X159006Y36526D01*
X159979Y36123D01*
X160524Y36051D01*
Y39520D01*
D02*
G37*
G36*
X47736Y47146D02*
X43012D01*
Y43209D01*
X44951D01*
Y37313D01*
X44786Y37203D01*
X44394Y36617D01*
X44257Y35925D01*
X44394Y35234D01*
X44786Y34648D01*
X45372Y34256D01*
X46063Y34119D01*
X46754Y34256D01*
X47340Y34648D01*
X47732Y35234D01*
X47869Y35925D01*
X47732Y36617D01*
X47340Y37203D01*
X47175Y37313D01*
Y43209D01*
X47736D01*
Y47146D01*
D02*
G37*
G36*
X101575Y52889D02*
X100883Y52751D01*
X100297Y52360D01*
X99906Y51774D01*
X99768Y51083D01*
X99906Y50391D01*
X100297Y49805D01*
X100514Y49661D01*
Y47350D01*
X98909D01*
Y40657D01*
X100455D01*
Y39083D01*
X98909D01*
Y32390D01*
X104224D01*
Y39083D01*
X102679D01*
Y40657D01*
X104224D01*
Y47350D01*
X102738D01*
Y49729D01*
X102852Y49805D01*
X103244Y50391D01*
X103381Y51083D01*
X103244Y51774D01*
X102852Y52360D01*
X102266Y52751D01*
X101575Y52889D01*
D02*
G37*
G36*
X135933Y32602D02*
X133563D01*
Y30331D01*
X135933D01*
Y32602D01*
D02*
G37*
G36*
X132563D02*
X130193D01*
Y30331D01*
X132563D01*
Y32602D01*
D02*
G37*
G36*
X62705Y32405D02*
X60433D01*
Y30331D01*
X62705D01*
Y32405D01*
D02*
G37*
G36*
X59433D02*
X57161D01*
Y30331D01*
X59433D01*
Y32405D01*
D02*
G37*
G36*
X106012Y31108D02*
X103642D01*
Y28836D01*
X106012D01*
Y31108D01*
D02*
G37*
G36*
X102642D02*
X100272D01*
Y28836D01*
X102642D01*
Y31108D01*
D02*
G37*
G36*
X62705Y29331D02*
X60433D01*
Y27256D01*
X62705D01*
Y29331D01*
D02*
G37*
G36*
X59433D02*
X57161D01*
Y27256D01*
X59433D01*
Y29331D01*
D02*
G37*
G36*
X89067Y36362D02*
X88376Y36224D01*
X87790Y35832D01*
X87398Y35246D01*
X87261Y34555D01*
X87398Y33864D01*
X87790Y33278D01*
X87955Y33167D01*
Y31799D01*
X86508D01*
Y26878D01*
X91626D01*
Y31799D01*
X90179D01*
Y33167D01*
X90344Y33278D01*
X90736Y33864D01*
X90873Y34555D01*
X90736Y35246D01*
X90344Y35832D01*
X89758Y36224D01*
X89067Y36362D01*
D02*
G37*
G36*
X81980D02*
X81289Y36224D01*
X80703Y35832D01*
X80312Y35246D01*
X80174Y34555D01*
X80312Y33864D01*
X80703Y33278D01*
X80868Y33167D01*
Y31799D01*
X79421D01*
Y26878D01*
X84539D01*
Y31799D01*
X83092D01*
Y33167D01*
X83258Y33278D01*
X83649Y33864D01*
X83787Y34555D01*
X83649Y35246D01*
X83258Y35832D01*
X82672Y36224D01*
X81980Y36362D01*
D02*
G37*
G36*
X74894D02*
X74202Y36224D01*
X73616Y35832D01*
X73225Y35246D01*
X73087Y34555D01*
X73225Y33864D01*
X73616Y33278D01*
X73782Y33167D01*
Y31799D01*
X72335D01*
Y26878D01*
X77453D01*
Y31799D01*
X76006D01*
Y33167D01*
X76171Y33278D01*
X76563Y33864D01*
X76700Y34555D01*
X76563Y35246D01*
X76171Y35832D01*
X75585Y36224D01*
X74894Y36362D01*
D02*
G37*
G36*
X106012Y27836D02*
X103642D01*
Y25565D01*
X106012D01*
Y27836D01*
D02*
G37*
G36*
X102642D02*
X100272D01*
Y25565D01*
X102642D01*
Y27836D01*
D02*
G37*
G36*
X47925Y26484D02*
X43988D01*
Y25135D01*
X39569D01*
X39458Y25301D01*
X38872Y25692D01*
X38181Y25830D01*
X37490Y25692D01*
X36904Y25301D01*
X36512Y24715D01*
X36375Y24024D01*
X36512Y23332D01*
X36904Y22746D01*
X37490Y22355D01*
X38181Y22217D01*
X38872Y22355D01*
X39458Y22746D01*
X39569Y22912D01*
X43988D01*
Y21760D01*
X47925D01*
Y26484D01*
D02*
G37*
G36*
X137098Y21744D02*
X135811D01*
Y18587D01*
X137098D01*
Y21744D01*
D02*
G37*
G36*
X160433Y25492D02*
X150984D01*
Y16437D01*
X154861D01*
X155118Y16043D01*
X155118Y15937D01*
Y7382D01*
X162598D01*
Y16043D01*
X160690D01*
X160433Y16437D01*
X160433Y16543D01*
Y25492D01*
D02*
G37*
G36*
X149016Y16043D02*
X143110D01*
Y7382D01*
X149016D01*
Y16043D01*
D02*
G37*
G36*
X142323D02*
X136417D01*
Y7382D01*
X142323D01*
Y16043D01*
D02*
G37*
G36*
X61909Y13386D02*
X54823D01*
Y6299D01*
X61909D01*
Y13386D01*
D02*
G37*
G36*
X48366Y13416D02*
X47441Y13295D01*
X46579Y12938D01*
X45839Y12370D01*
X45271Y11630D01*
X44914Y10768D01*
X44792Y9843D01*
X44914Y8918D01*
X45271Y8056D01*
X45839Y7315D01*
X46579Y6747D01*
X47441Y6390D01*
X48366Y6269D01*
X49291Y6390D01*
X50153Y6747D01*
X50893Y7315D01*
X51461Y8056D01*
X51818Y8918D01*
X51940Y9843D01*
X51818Y10768D01*
X51461Y11630D01*
X50893Y12370D01*
X50153Y12938D01*
X49291Y13295D01*
X48366Y13416D01*
D02*
G37*
G36*
X38366D02*
X37441Y13295D01*
X36579Y12938D01*
X35839Y12370D01*
X35271Y11630D01*
X34914Y10768D01*
X34792Y9843D01*
X34914Y8918D01*
X35271Y8056D01*
X35839Y7315D01*
X36579Y6747D01*
X37441Y6390D01*
X38366Y6269D01*
X39291Y6390D01*
X40153Y6747D01*
X40893Y7315D01*
X41461Y8056D01*
X41818Y8918D01*
X41940Y9843D01*
X41818Y10768D01*
X41461Y11630D01*
X40893Y12370D01*
X40153Y12938D01*
X39291Y13295D01*
X38366Y13416D01*
D02*
G37*
G36*
X224783Y12008D02*
X219035D01*
Y6102D01*
X224783D01*
Y12008D01*
D02*
G37*
G36*
X77453Y25697D02*
X72335D01*
Y20776D01*
X75250D01*
Y19209D01*
X75250Y19209D01*
X75335Y18783D01*
X75576Y18422D01*
X76674Y17324D01*
X77035Y17083D01*
X77461Y16998D01*
X77461Y16998D01*
X80437D01*
X82057Y15378D01*
Y10138D01*
X80709D01*
Y5413D01*
X85630D01*
Y10138D01*
X84281D01*
Y15839D01*
X84197Y16264D01*
X83956Y16625D01*
X83956Y16625D01*
X81684Y18896D01*
X81323Y19138D01*
X80898Y19222D01*
X80898Y19222D01*
X77921D01*
X77474Y19669D01*
Y21866D01*
X77474Y21866D01*
X77453Y21974D01*
Y25697D01*
D02*
G37*
G36*
X242126Y30658D02*
X240102Y30499D01*
X238127Y30025D01*
X236251Y29247D01*
X234519Y28186D01*
X232975Y26867D01*
X231656Y25323D01*
X230595Y23592D01*
X229818Y21716D01*
X229344Y19741D01*
X229185Y17717D01*
X229344Y15692D01*
X229818Y13717D01*
X230595Y11841D01*
X231656Y10110D01*
X232975Y8566D01*
X234519Y7247D01*
X236251Y6186D01*
X238127Y5409D01*
X240102Y4934D01*
X242126Y4775D01*
X244150Y4934D01*
X246125Y5409D01*
X248001Y6186D01*
X249733Y7247D01*
X251277Y8566D01*
X252596Y10110D01*
X253657Y11841D01*
X254434Y13717D01*
X254908Y15692D01*
X255067Y17717D01*
X254908Y19741D01*
X254434Y21716D01*
X253657Y23592D01*
X252596Y25323D01*
X251277Y26867D01*
X249733Y28186D01*
X248001Y29247D01*
X246125Y30025D01*
X244150Y30499D01*
X242126Y30658D01*
D02*
G37*
G36*
X17717D02*
X15692Y30499D01*
X13717Y30025D01*
X11841Y29247D01*
X10110Y28186D01*
X8566Y26867D01*
X7247Y25323D01*
X6186Y23592D01*
X5409Y21716D01*
X4934Y19741D01*
X4775Y17717D01*
X4934Y15692D01*
X5409Y13717D01*
X6186Y11841D01*
X7247Y10110D01*
X8566Y8566D01*
X10110Y7247D01*
X11841Y6186D01*
X13717Y5409D01*
X15692Y4934D01*
X17717Y4775D01*
X19741Y4934D01*
X21716Y5409D01*
X23592Y6186D01*
X25323Y7247D01*
X26867Y8566D01*
X28186Y10110D01*
X29247Y11841D01*
X30025Y13717D01*
X30499Y15692D01*
X30658Y17717D01*
X30499Y19741D01*
X30025Y21716D01*
X29247Y23592D01*
X28186Y25323D01*
X26867Y26867D01*
X25323Y28186D01*
X23592Y29247D01*
X21716Y30025D01*
X19741Y30499D01*
X17717Y30658D01*
D02*
G37*
G36*
X169902Y12677D02*
X164193D01*
Y2835D01*
X169902D01*
Y12677D01*
D02*
G37*
G36*
X218169Y7480D02*
X211083D01*
Y1772D01*
X218169D01*
Y7480D01*
D02*
G37*
G36*
X187539D02*
X180453D01*
Y1772D01*
X187539D01*
Y7480D01*
D02*
G37*
%LPD*%
G36*
X66343Y114152D02*
X66304Y113957D01*
X66441Y113265D01*
X66833Y112679D01*
X67044Y112539D01*
Y111988D01*
X66232D01*
Y108836D01*
X60667Y103271D01*
X60515Y103287D01*
X60167Y103441D01*
Y105839D01*
X62991Y108663D01*
X62991Y108663D01*
X63232Y109023D01*
X63317Y109449D01*
X63317Y109449D01*
Y116471D01*
X63817Y116678D01*
X66343Y114152D01*
D02*
G37*
G36*
X243800Y240887D02*
X245433Y240495D01*
X246985Y239852D01*
X248417Y238974D01*
X249694Y237883D01*
X250785Y236606D01*
X251663Y235174D01*
X252306Y233623D01*
X252698Y231989D01*
X252829Y230315D01*
X252698Y228641D01*
X252306Y227007D01*
X251663Y225456D01*
X250785Y224024D01*
X249694Y222746D01*
X248417Y221656D01*
X246985Y220778D01*
X245433Y220135D01*
X243800Y219743D01*
X242126Y219612D01*
X240452Y219743D01*
X238818Y220135D01*
X237267Y220778D01*
X235835Y221656D01*
X234558Y222746D01*
X233467Y224024D01*
X232589Y225456D01*
X231946Y227007D01*
X231554Y228641D01*
X231422Y230315D01*
X231554Y231989D01*
X231946Y233623D01*
X232589Y235174D01*
X233467Y236606D01*
X234558Y237883D01*
X235835Y238974D01*
X237267Y239852D01*
X238818Y240495D01*
X240452Y240887D01*
X242126Y241018D01*
X243800Y240887D01*
D02*
G37*
%LPC*%
G36*
X242126Y237238D02*
X240775Y237105D01*
X239477Y236711D01*
X238280Y236071D01*
X237231Y235210D01*
X236370Y234161D01*
X235730Y232964D01*
X235336Y231666D01*
X235203Y230315D01*
X235336Y228964D01*
X235730Y227666D01*
X236370Y226469D01*
X237231Y225420D01*
X238280Y224559D01*
X239477Y223919D01*
X240775Y223525D01*
X242126Y223392D01*
X243477Y223525D01*
X244775Y223919D01*
X245972Y224559D01*
X247021Y225420D01*
X247882Y226469D01*
X248522Y227666D01*
X248916Y228964D01*
X249049Y230315D01*
X248916Y231666D01*
X248522Y232964D01*
X247882Y234161D01*
X247021Y235210D01*
X245972Y236071D01*
X244775Y236711D01*
X243477Y237105D01*
X242126Y237238D01*
D02*
G37*
%LPD*%
G36*
X19391Y240887D02*
X21024Y240495D01*
X22576Y239852D01*
X24008Y238974D01*
X25285Y237883D01*
X26376Y236606D01*
X27253Y235174D01*
X27896Y233623D01*
X28288Y231989D01*
X28420Y230315D01*
X28288Y228641D01*
X27896Y227007D01*
X27253Y225456D01*
X26376Y224024D01*
X25285Y222746D01*
X24008Y221656D01*
X22576Y220778D01*
X21024Y220135D01*
X19391Y219743D01*
X17717Y219612D01*
X16042Y219743D01*
X14409Y220135D01*
X12857Y220778D01*
X11425Y221656D01*
X10148Y222746D01*
X9057Y224024D01*
X8180Y225456D01*
X7537Y227007D01*
X7145Y228641D01*
X7013Y230315D01*
X7145Y231989D01*
X7537Y233623D01*
X8180Y235174D01*
X9057Y236606D01*
X10148Y237883D01*
X11425Y238974D01*
X12857Y239852D01*
X14409Y240495D01*
X16042Y240887D01*
X17717Y241018D01*
X19391Y240887D01*
D02*
G37*
%LPC*%
G36*
X17717Y237238D02*
X16366Y237105D01*
X15067Y236711D01*
X13870Y236071D01*
X12821Y235210D01*
X11960Y234161D01*
X11320Y232964D01*
X10926Y231666D01*
X10793Y230315D01*
X10926Y228964D01*
X11320Y227666D01*
X11960Y226469D01*
X12821Y225420D01*
X13870Y224559D01*
X15067Y223919D01*
X16366Y223525D01*
X17717Y223392D01*
X19067Y223525D01*
X20366Y223919D01*
X21563Y224559D01*
X22612Y225420D01*
X23473Y226469D01*
X24113Y227666D01*
X24507Y228964D01*
X24640Y230315D01*
X24507Y231666D01*
X24113Y232964D01*
X23473Y234161D01*
X22612Y235210D01*
X21563Y236071D01*
X20366Y236711D01*
X19067Y237105D01*
X17717Y237238D01*
D02*
G37*
%LPD*%
G36*
X165424Y138036D02*
Y107283D01*
X165424Y107283D01*
X165508Y106858D01*
X165749Y106497D01*
X167814Y104433D01*
X167793Y104352D01*
X167223Y104132D01*
X166931Y104326D01*
X166240Y104464D01*
X165549Y104326D01*
X164998Y103958D01*
X164818Y103998D01*
X164498Y104139D01*
Y137687D01*
X164663Y137797D01*
X164924Y138187D01*
X165424Y138036D01*
D02*
G37*
G36*
X157124Y94608D02*
Y81922D01*
X156624Y81702D01*
X156203Y81984D01*
X155512Y82121D01*
X155317Y82082D01*
X154940Y82459D01*
X154579Y82701D01*
X154154Y82785D01*
X154154Y82785D01*
X149803D01*
Y84589D01*
X151846D01*
X151872Y84549D01*
X152458Y84158D01*
X153150Y84020D01*
X153841Y84158D01*
X154427Y84549D01*
X154818Y85136D01*
X154956Y85827D01*
X154818Y86518D01*
X154427Y87104D01*
X153841Y87496D01*
X153937Y87957D01*
X154628Y88095D01*
X155214Y88486D01*
X155606Y89073D01*
X155743Y89764D01*
X155606Y90455D01*
X155214Y91041D01*
X154628Y91433D01*
X154061Y91545D01*
X153888Y91898D01*
X153864Y92056D01*
X156624Y94816D01*
X157124Y94608D01*
D02*
G37*
G36*
X178307Y76815D02*
X178410Y76297D01*
X178801Y75711D01*
X179387Y75319D01*
X180079Y75182D01*
X180770Y75319D01*
X181356Y75711D01*
X181466Y75876D01*
X182047D01*
Y75610D01*
X186772D01*
Y75610D01*
X187165Y75610D01*
Y75610D01*
X191890D01*
Y75876D01*
X192480D01*
Y74626D01*
X192480D01*
X192480Y74232D01*
X192480D01*
Y69508D01*
X192480D01*
X192480Y69114D01*
X192480D01*
Y68297D01*
X191984Y68231D01*
X191592Y68817D01*
X191006Y69208D01*
X191073Y69705D01*
X191890D01*
Y73642D01*
X187165D01*
Y73642D01*
X186772Y73642D01*
Y73642D01*
X182047D01*
Y72785D01*
X174319D01*
X171636Y75468D01*
X171809Y76002D01*
X172255Y76091D01*
X172841Y76482D01*
X172951Y76648D01*
X176972D01*
X176972Y76648D01*
X177398Y76732D01*
X177759Y76973D01*
X177808Y77023D01*
X178307Y76815D01*
D02*
G37*
G36*
X106762Y103131D02*
Y95059D01*
X106762Y95059D01*
X106847Y94634D01*
X107088Y94273D01*
X108446Y92915D01*
X108446Y92914D01*
X108807Y92673D01*
X109232Y92589D01*
X109843D01*
Y91588D01*
X109642Y91118D01*
X109350Y91176D01*
X108659Y91039D01*
X108073Y90647D01*
X107682Y90061D01*
X107544Y89370D01*
X107682Y88679D01*
X108073Y88093D01*
X108659Y87701D01*
X109022Y87629D01*
X109023Y87119D01*
X108401Y86996D01*
X107679Y86513D01*
X107197Y85792D01*
X107128Y85441D01*
X109252D01*
Y84941D01*
X109752D01*
Y82817D01*
X110103Y82886D01*
X110483Y83140D01*
X115650D01*
X115650Y83140D01*
X116075Y83225D01*
X116436Y83466D01*
X117004Y84034D01*
X117504Y84020D01*
X117913Y83801D01*
Y81295D01*
X117504D01*
Y80205D01*
X120276D01*
X123047D01*
Y81295D01*
X122638D01*
Y82461D01*
Y84020D01*
X123047D01*
Y85110D01*
X120276D01*
Y86110D01*
X123047D01*
Y87201D01*
X122638D01*
Y88366D01*
Y90335D01*
Y92303D01*
Y93468D01*
X124622D01*
Y93878D01*
X145079D01*
Y92303D01*
Y90335D01*
Y88366D01*
Y86398D01*
Y84429D01*
Y82461D01*
Y80492D01*
Y78524D01*
Y76555D01*
Y74587D01*
Y72618D01*
Y71437D01*
X122638D01*
Y72209D01*
X123047D01*
Y73299D01*
X120276D01*
X117504D01*
Y72943D01*
X116732D01*
Y75984D01*
X112402D01*
Y71260D01*
X112707D01*
X112958Y70760D01*
X112701Y70376D01*
X112564Y69685D01*
X112701Y68994D01*
X113093Y68408D01*
X113347Y68238D01*
X113195Y67738D01*
X109819D01*
X107168Y70389D01*
X107360Y70850D01*
X108555D01*
Y73622D01*
Y76394D01*
X106480D01*
X106230Y76790D01*
X106230Y102835D01*
X106730Y103147D01*
X106762Y103131D01*
D02*
G37*
%LPC*%
G36*
X108752Y84441D02*
X107128D01*
X107197Y84090D01*
X107679Y83368D01*
X108401Y82886D01*
X108752Y82817D01*
Y84441D01*
D02*
G37*
G36*
X123047Y79205D02*
X120276D01*
X117504D01*
Y78114D01*
X117913D01*
Y75390D01*
X117504D01*
Y74299D01*
X120276D01*
X123047D01*
Y75390D01*
X122638D01*
Y76555D01*
Y78114D01*
X123047D01*
Y79205D01*
D02*
G37*
G36*
X109555Y76394D02*
Y74122D01*
X111630D01*
Y76394D01*
X109555D01*
D02*
G37*
G36*
X142717Y91516D02*
X125000D01*
Y73799D01*
X142717D01*
Y91516D01*
D02*
G37*
G36*
X111630Y73122D02*
X109555D01*
Y70850D01*
X111630D01*
Y73122D01*
D02*
G37*
%LPD*%
G36*
X99508Y17392D02*
X99508Y17392D01*
X106823D01*
X111290Y12925D01*
Y10335D01*
X109941D01*
Y5844D01*
X109941Y5610D01*
X109551Y5344D01*
X107222D01*
X106791Y5512D01*
Y10236D01*
X101870D01*
Y5512D01*
X101439Y5344D01*
X100726D01*
X100295Y5512D01*
X100295Y5844D01*
Y10236D01*
X98947D01*
Y17012D01*
X99447Y17404D01*
X99508Y17392D01*
D02*
G37*
G36*
X243800Y28288D02*
X245433Y27896D01*
X246985Y27253D01*
X248417Y26376D01*
X249694Y25285D01*
X250785Y24008D01*
X251663Y22576D01*
X252306Y21024D01*
X252698Y19391D01*
X252829Y17717D01*
X252698Y16042D01*
X252306Y14409D01*
X251663Y12857D01*
X250785Y11425D01*
X249694Y10148D01*
X248417Y9057D01*
X246985Y8180D01*
X245433Y7537D01*
X243800Y7145D01*
X242126Y7013D01*
X240452Y7145D01*
X238818Y7537D01*
X237267Y8180D01*
X235835Y9057D01*
X234558Y10148D01*
X233467Y11425D01*
X232589Y12857D01*
X231946Y14409D01*
X231554Y16042D01*
X231422Y17717D01*
X231554Y19391D01*
X231946Y21024D01*
X232589Y22576D01*
X233467Y24008D01*
X234558Y25285D01*
X235835Y26376D01*
X237267Y27253D01*
X238818Y27896D01*
X240452Y28288D01*
X242126Y28420D01*
X243800Y28288D01*
D02*
G37*
%LPC*%
G36*
X242126Y24640D02*
X240775Y24507D01*
X239477Y24113D01*
X238280Y23473D01*
X237231Y22612D01*
X236370Y21563D01*
X235730Y20366D01*
X235336Y19067D01*
X235203Y17717D01*
X235336Y16366D01*
X235730Y15067D01*
X236370Y13870D01*
X237231Y12821D01*
X238280Y11960D01*
X239477Y11320D01*
X240775Y10926D01*
X242126Y10793D01*
X243477Y10926D01*
X244775Y11320D01*
X245972Y11960D01*
X247021Y12821D01*
X247882Y13870D01*
X248522Y15067D01*
X248916Y16366D01*
X249049Y17717D01*
X248916Y19067D01*
X248522Y20366D01*
X247882Y21563D01*
X247021Y22612D01*
X245972Y23473D01*
X244775Y24113D01*
X243477Y24507D01*
X242126Y24640D01*
D02*
G37*
%LPD*%
G36*
X19391Y28288D02*
X21024Y27896D01*
X22576Y27253D01*
X24008Y26376D01*
X25285Y25285D01*
X26376Y24008D01*
X27253Y22576D01*
X27896Y21024D01*
X28288Y19391D01*
X28420Y17717D01*
X28288Y16042D01*
X27896Y14409D01*
X27253Y12857D01*
X26376Y11425D01*
X25285Y10148D01*
X24008Y9057D01*
X22576Y8180D01*
X21024Y7537D01*
X19391Y7145D01*
X17717Y7013D01*
X16042Y7145D01*
X14409Y7537D01*
X12857Y8180D01*
X11425Y9057D01*
X10148Y10148D01*
X9057Y11425D01*
X8180Y12857D01*
X7537Y14409D01*
X7145Y16042D01*
X7013Y17717D01*
X7145Y19391D01*
X7537Y21024D01*
X8180Y22576D01*
X9057Y24008D01*
X10148Y25285D01*
X11425Y26376D01*
X12857Y27253D01*
X14409Y27896D01*
X16042Y28288D01*
X17717Y28420D01*
X19391Y28288D01*
D02*
G37*
%LPC*%
G36*
X17717Y24640D02*
X16366Y24507D01*
X15067Y24113D01*
X13870Y23473D01*
X12821Y22612D01*
X11960Y21563D01*
X11320Y20366D01*
X10926Y19067D01*
X10793Y17717D01*
X10926Y16366D01*
X11320Y15067D01*
X11960Y13870D01*
X12821Y12821D01*
X13870Y11960D01*
X15067Y11320D01*
X16366Y10926D01*
X17717Y10793D01*
X19067Y10926D01*
X20366Y11320D01*
X21563Y11960D01*
X22612Y12821D01*
X23473Y13870D01*
X24113Y15067D01*
X24507Y16366D01*
X24640Y17717D01*
X24507Y19067D01*
X24113Y20366D01*
X23473Y21563D01*
X22612Y22612D01*
X21563Y23473D01*
X20366Y24113D01*
X19067Y24507D01*
X17717Y24640D01*
D02*
G37*
%LPD*%
D10*
X87386Y40157D02*
X87484Y40059D01*
X82677Y40157D02*
X87386D01*
X87484Y40059D02*
Y40453D01*
X89067Y42035D01*
Y46957D01*
X101626Y44063D02*
Y51083D01*
X69760Y41658D02*
Y46957D01*
X51961Y24024D02*
X64538D01*
X219547Y142126D02*
X219577Y142096D01*
X219606Y142067D01*
X214606Y90158D02*
Y97591D01*
X206701Y82252D02*
X214606Y90158D01*
X210971Y80661D02*
X216929Y86619D01*
X208032Y62047D02*
Y71476D01*
X200748D02*
X208032D01*
Y62047D02*
X210138Y59941D01*
X45374Y45177D02*
X46063Y44488D01*
Y35925D02*
Y44488D01*
X69784Y41633D02*
X69988Y41429D01*
X69784Y24048D02*
X69809Y24024D01*
X69784Y24048D02*
Y41633D01*
X69760Y41658D02*
X69784Y41633D01*
X180079Y76988D02*
X193858D01*
X194252Y76595D02*
X194449Y76791D01*
X193858Y76988D02*
X194252Y76595D01*
X194449Y66752D02*
Y76791D01*
X194646Y76988D01*
X204744Y87732D02*
Y89370D01*
X202740Y85728D02*
X204744Y87732D01*
X177067Y85728D02*
X202740D01*
X175787Y87008D02*
X177067Y85728D01*
X147760Y22318D02*
Y25173D01*
Y22318D02*
X147835Y22244D01*
X139461Y35827D02*
X139551Y35736D01*
X138476Y28945D02*
X139461Y29929D01*
X147760Y25173D02*
X152607Y30020D01*
X146358Y26575D02*
X147760Y25173D01*
X138476Y26575D02*
X146358D01*
X152607Y30020D02*
X161024D01*
X138476Y26575D02*
Y28945D01*
X124409Y26575D02*
X138476D01*
X123425Y25591D02*
X124409Y26575D01*
X83169Y7776D02*
Y15839D01*
X80898Y18110D02*
X83169Y15839D01*
X97835Y7874D02*
Y17520D01*
X96063Y19291D02*
X97835Y17520D01*
X112402Y7972D02*
Y13386D01*
X118898Y7972D02*
X119095Y8169D01*
Y13386D01*
X104429Y4232D02*
X118312D01*
X93307D02*
X104429D01*
X104331Y4331D02*
X104429Y4232D01*
X104331Y4331D02*
Y7874D01*
X89764Y7776D02*
X93307Y4232D01*
X89665Y7776D02*
X89764D01*
X77461Y18110D02*
X80898D01*
X76362Y19209D02*
X77461Y18110D01*
X76362Y19209D02*
Y21866D01*
X74992Y23236D02*
X76362Y21866D01*
X74894Y23236D02*
X74992D01*
X99508Y18504D02*
X107283D01*
X112402Y13386D01*
X96146Y21866D02*
X99508Y18504D01*
X83449Y20488D02*
X84646Y19291D01*
X83449Y20488D02*
Y21866D01*
X82079Y23236D02*
X83449Y21866D01*
X81980Y23236D02*
X82079D01*
X84646Y19291D02*
X96063D01*
X118312Y4232D02*
X118898Y4818D01*
Y7972D01*
X123425Y17815D02*
Y25591D01*
X120366Y14756D02*
X123425Y17815D01*
X120366Y14658D02*
Y14756D01*
X119095Y13386D02*
X120366Y14658D01*
X197047Y44291D02*
X197146Y44390D01*
Y54843D01*
X107874Y95059D02*
Y113937D01*
X97289Y197092D02*
Y218703D01*
X50787Y51181D02*
X55512D01*
X214370Y54941D02*
Y60823D01*
Y54941D02*
X214469Y54843D01*
X214370Y60823D02*
Y64870D01*
X210138Y54843D02*
Y59941D01*
X202067Y55433D02*
Y59449D01*
X201476Y54843D02*
X202067Y55433D01*
Y59449D02*
X204488Y61870D01*
Y66752D01*
X196653Y55335D02*
Y58957D01*
Y55335D02*
X197146Y54843D01*
X194449Y61161D02*
X196653Y58957D01*
X194449Y61161D02*
Y66752D01*
X190354Y64252D02*
Y67500D01*
X190315Y67539D02*
X190354Y67500D01*
Y64252D02*
X192815Y61791D01*
Y54843D02*
Y61791D01*
X188484Y54843D02*
Y64252D01*
X184409Y68327D02*
X188484Y64252D01*
X183465Y55532D02*
Y64961D01*
Y55532D02*
X184153Y54843D01*
X69988Y41429D02*
X75894D01*
X76772Y40551D01*
Y40157D02*
Y40551D01*
X40453Y51181D02*
X40502Y51132D01*
X45325D01*
X45374Y51083D01*
X79823Y44980D02*
X80315D01*
X82291Y46957D01*
X85327D01*
X78740Y53543D02*
X79823D01*
X75484Y56799D02*
X78740Y53543D01*
X69760Y46957D02*
X69776D01*
X66035D02*
X69760D01*
X155118Y104724D02*
Y125886D01*
X114370Y69685D02*
Y72276D01*
X114748Y72654D01*
X145488Y39673D02*
X146653Y38508D01*
X139461Y39673D02*
X145488D01*
X59449Y53543D02*
Y57874D01*
X73721Y110012D02*
Y117421D01*
Y110012D02*
X74106Y109626D01*
X49609Y142916D02*
X54331Y147638D01*
X49609Y139968D02*
Y142916D01*
X141157Y102082D02*
Y102451D01*
X140748Y101673D02*
X141157Y102082D01*
X140748Y96240D02*
Y101673D01*
X151110Y87579D02*
X152039Y88508D01*
X152313D01*
X153568Y89764D01*
X153937D01*
X176937Y80480D02*
X178709Y82252D01*
X170452Y80480D02*
X176937D01*
X168504Y82429D02*
X170452Y80480D01*
X168504Y82429D02*
Y88969D01*
X173858Y71673D02*
X184409D01*
X165823Y79709D02*
X173858Y71673D01*
X165823Y79709D02*
Y102240D01*
X176972Y77760D02*
X179874Y80661D01*
X171563Y77760D02*
X176972D01*
X171563Y83161D02*
X177369D01*
X178050Y83842D01*
X147441Y87579D02*
X151110D01*
X159827Y76929D02*
Y131709D01*
X158268Y133268D02*
X159827Y131709D01*
X159744Y136713D02*
X161417Y135039D01*
X53543Y141757D02*
Y142126D01*
Y141757D02*
X54331Y140970D01*
X158236Y77953D02*
Y128279D01*
X155974Y130541D02*
X158236Y128279D01*
X153248Y127756D02*
X155118Y125886D01*
X42329Y131306D02*
X49117D01*
X38976Y127953D02*
X42329Y131306D01*
X165823Y102240D02*
X166240Y102657D01*
X166535Y107283D02*
X169193Y104626D01*
Y99508D02*
Y104626D01*
X168504Y98819D02*
X169193Y99508D01*
X166535Y107283D02*
Y142520D01*
X114665Y105807D02*
X118996D01*
X114370Y106102D02*
X114665Y105807D01*
X144018Y59230D02*
Y62675D01*
Y59230D02*
X144193Y59055D01*
X140748Y61516D02*
Y69075D01*
Y61516D02*
X140945Y61319D01*
X117008Y85610D02*
X120276D01*
X115650Y84252D02*
X117008Y85610D01*
X109941Y84252D02*
X115650D01*
X120217Y79764D02*
X120276Y79705D01*
X109252Y84941D02*
X109941Y84252D01*
X109350Y89370D02*
X111024D01*
X111811Y90158D01*
X115532D01*
X212047Y142067D02*
X213720D01*
X209744Y139764D02*
X212047Y142067D01*
X209744Y134831D02*
Y139764D01*
X209606Y134693D02*
X209744Y134831D01*
X199606Y140551D02*
X200394Y141339D01*
X199606Y139982D02*
Y140551D01*
Y134693D02*
Y139982D01*
X219882Y96063D02*
X220386D01*
X219882Y90158D02*
Y96063D01*
X219606Y96842D02*
X220386Y96063D01*
X219606Y96842D02*
Y97591D01*
X184949Y144791D02*
X185539D01*
X182677Y142520D02*
X184949Y144791D01*
X185539D02*
X186417Y145669D01*
Y146063D01*
X194488Y134811D02*
Y143110D01*
Y134811D02*
X194606Y134693D01*
X192323Y145276D02*
X194488Y143110D01*
X192323Y145276D02*
Y145669D01*
X156299Y96063D02*
Y103543D01*
X155118Y104724D02*
X156299Y103543D01*
X149874Y89638D02*
X156299Y96063D01*
X116142Y89547D02*
X120276D01*
X115532Y90158D02*
X116142Y89547D01*
X106224Y65035D02*
X122897D01*
X103500Y67760D02*
X106224Y65035D01*
X122897D02*
X124909Y67048D01*
Y68984D01*
X125000Y69075D01*
X126878Y66642D02*
Y68984D01*
X123622Y63386D02*
X126878Y66642D01*
X102463Y63386D02*
X123622D01*
X100394Y65455D02*
X102463Y63386D01*
X126878Y68984D02*
X126969Y69075D01*
X151752Y77736D02*
X152362Y78347D01*
X150713Y77736D02*
X151752D01*
X147441D02*
X150713D01*
X147441Y75768D02*
X156051D01*
X158236Y77953D01*
X154154Y81673D02*
X155512Y80315D01*
X147441Y81673D02*
X154154D01*
X152362Y104291D02*
Y106685D01*
X150000Y101929D02*
X152362Y104291D01*
X148713Y100642D02*
X150000Y101929D01*
X148713Y93575D02*
Y100642D01*
X148622Y93484D02*
X148713Y93575D01*
X147441Y93484D02*
X148622D01*
X147638Y102859D02*
Y106693D01*
X144685Y99906D02*
X147638Y102859D01*
X144685Y96240D02*
Y99906D01*
X144488Y101959D02*
Y104724D01*
X142717Y100187D02*
X144488Y101959D01*
X142717Y96240D02*
Y100187D01*
X114847Y71831D02*
X120276D01*
X114847D02*
Y72752D01*
X109358Y66626D02*
X117785D01*
X105118Y70866D02*
X109358Y66626D01*
X105118Y145275D02*
X105118Y70866D01*
X114173Y73228D02*
X114748Y72654D01*
X114370Y73228D02*
X114847Y72752D01*
X114173Y73228D02*
X114370D01*
X138476Y104413D02*
X140748Y106685D01*
X138476Y100297D02*
Y104413D01*
Y100297D02*
X138779Y99994D01*
Y96240D02*
Y99994D01*
X136811Y107783D02*
X139264Y110236D01*
X136811Y99512D02*
Y107783D01*
Y96240D02*
Y99512D01*
X134843Y110433D02*
X137795Y113386D01*
X134843Y99512D02*
Y110433D01*
Y96240D02*
Y99512D01*
X128937Y119882D02*
X131890Y122835D01*
X128937Y99512D02*
Y119882D01*
Y96240D02*
Y99512D01*
X130905Y117697D02*
X133071Y119862D01*
X131890Y224803D02*
Y225197D01*
X140557Y233864D01*
Y237250D01*
X141496Y238189D01*
X128948Y145355D02*
Y185422D01*
X126575Y187795D02*
X128948Y185422D01*
X201969Y150000D02*
X217717D01*
X197244Y145276D02*
X201969Y150000D01*
X217717D02*
X219882Y152165D01*
Y184646D01*
X52362Y228346D02*
X58268Y222441D01*
Y111417D02*
Y222441D01*
X56315Y112904D02*
Y221638D01*
X54724Y223228D02*
X56315Y221638D01*
X45118Y223228D02*
X54724D01*
X40000Y228346D02*
X45118Y223228D01*
X50000Y228346D02*
X52362D01*
X66929Y227559D02*
X69213D01*
X70000Y228346D01*
X62205Y222835D02*
X66929Y227559D01*
X62205Y109449D02*
Y222835D01*
X60236Y110236D02*
Y228110D01*
X60000Y228346D02*
X60236Y228110D01*
X103201Y218709D02*
Y224410D01*
X102756D02*
Y232992D01*
X97402Y238347D02*
X102756Y232992D01*
X109638Y236016D02*
Y238189D01*
X107087Y233465D02*
X109638Y236016D01*
X107087Y215748D02*
Y233465D01*
X119488Y224803D02*
X119563Y224878D01*
Y238114D01*
X119638Y238189D01*
X52362Y84646D02*
Y108951D01*
X141496Y238189D02*
X141713Y237972D01*
X52362Y108951D02*
X56315Y112904D01*
X61417Y81595D02*
Y102449D01*
X55512Y75689D02*
X61417Y81595D01*
X55512Y51181D02*
Y75689D01*
X61417Y102449D02*
X68201Y109232D01*
X54331Y113169D02*
Y140970D01*
X48819Y107658D02*
X54331Y113169D01*
X64173Y199213D02*
X64961Y200000D01*
X64173Y117894D02*
Y199213D01*
Y117894D02*
X68110Y113957D01*
X68155Y113911D01*
X101181Y129134D02*
Y192323D01*
X97295Y125248D02*
X101181Y129134D01*
X97295Y113957D02*
Y125248D01*
X97047Y196457D02*
X101181Y192323D01*
X97295Y97740D02*
Y113957D01*
X92520Y92965D02*
X97295Y97740D01*
X97289Y218703D02*
X97295Y218709D01*
X29150Y165575D02*
X32327Y162398D01*
X29150Y165575D02*
Y186472D01*
X32677Y190000D01*
X27559Y204882D02*
X32677Y210000D01*
X27559Y157165D02*
Y204882D01*
Y157165D02*
X32327Y152398D01*
X161417Y75611D02*
Y135039D01*
X144685Y69685D02*
X158661D01*
X54331Y147638D02*
Y167717D01*
X53543Y168504D02*
X54331Y167717D01*
Y107480D02*
X58268Y111417D01*
X22327Y132398D02*
X26772Y127953D01*
X38976D01*
X131890Y131890D02*
Y150394D01*
X125000Y125000D02*
X131890Y131890D01*
X101969Y125959D02*
X102978Y126969D01*
X101870Y125591D02*
X101969Y125959D01*
X127165Y123228D02*
X129921Y125984D01*
X105118Y145275D02*
X105118Y145276D01*
X127165Y122835D02*
Y123228D01*
X119390Y224902D02*
X119488Y224803D01*
X119638Y238189D02*
X119736Y238090D01*
X105118Y145276D02*
Y213779D01*
X107087Y215748D01*
X102978Y126969D02*
Y218486D01*
X103201Y218709D01*
X125000Y96240D02*
Y125000D01*
X85827Y196850D02*
X91142D01*
X85827Y202362D02*
X91142D01*
X85827Y207874D02*
X91142D01*
X85827Y213484D02*
X91035D01*
X90248Y213189D02*
X90445Y213386D01*
X38583Y70866D02*
X52362Y84646D01*
X38583Y63779D02*
Y70866D01*
X49921Y61811D02*
Y73405D01*
X59055Y82539D01*
X54331Y83858D02*
Y107480D01*
X41575Y71102D02*
X54331Y83858D01*
X56685Y106685D02*
X60236Y110236D01*
X56685Y83071D02*
Y106685D01*
X59055Y106299D02*
X62205Y109449D01*
X59055Y82539D02*
Y106299D01*
X45276Y71661D02*
X56685Y83071D01*
X45276Y59581D02*
Y71661D01*
X68201Y109232D02*
Y109626D01*
X21417Y151488D02*
X22327Y152398D01*
X21626Y143098D02*
X22327Y142398D01*
X22039Y162110D02*
X22327Y162398D01*
X21106Y112398D02*
X22327D01*
X21654Y133071D02*
X22327Y132398D01*
X151969Y94107D02*
Y99606D01*
X149468Y91606D02*
X151969Y94107D01*
X163386Y74410D02*
Y139565D01*
X158661Y69685D02*
X163386Y74410D01*
X219882Y186516D02*
Y187795D01*
X144685Y69075D02*
Y69685D01*
X156697Y73799D02*
X159827Y76929D01*
X147441Y73799D02*
X156697D01*
X157637Y71831D02*
X161417Y75611D01*
X147441Y71831D02*
X157637D01*
X126969Y96240D02*
X127165Y122835D01*
X130905Y96240D02*
Y117697D01*
X92520Y92913D02*
Y92965D01*
X109232Y93701D02*
X112205D01*
X107874Y95059D02*
X109232Y93701D01*
X132874Y114764D02*
X134252Y116142D01*
X132874Y96240D02*
Y114764D01*
X84646Y113957D02*
X84691Y113911D01*
Y109671D02*
Y113911D01*
Y109671D02*
X84736Y109626D01*
X68155Y109671D02*
Y113911D01*
Y109671D02*
X68201Y109626D01*
X41575Y58031D02*
Y71102D01*
X76075Y60539D02*
Y81118D01*
X76138Y81181D01*
X73516Y57980D02*
X76075Y60539D01*
X73516Y56799D02*
Y57980D01*
X78831Y109626D02*
Y119862D01*
X90748Y208268D02*
X91142Y207874D01*
X142717Y63976D02*
X144018Y62675D01*
X142717Y63976D02*
Y69075D01*
X137795Y64102D02*
Y64471D01*
X140748Y69075D02*
X140839Y68984D01*
X73516Y56799D02*
X75484D01*
X128937Y64870D02*
Y69075D01*
X117785Y66626D02*
X118963Y67803D01*
X122941D01*
X123031Y67894D01*
Y69075D01*
X137795Y64471D02*
X138779Y65455D01*
Y69075D01*
X112205Y93701D02*
X112421Y93484D01*
X120276D01*
X194252Y127559D02*
X199982D01*
X194095D02*
X194252D01*
X199982D02*
X204606Y132183D01*
Y134693D01*
X204587Y143701D02*
Y145531D01*
X204724Y145669D01*
X147531Y89638D02*
X149874D01*
X147441Y89547D02*
X147531Y89638D01*
Y91606D02*
X149468D01*
X147441Y91516D02*
X147531Y91606D01*
X178050Y83842D02*
X204217D01*
X209744Y89370D01*
X178709Y82252D02*
X206701D01*
X179874Y80661D02*
X210971D01*
X114173Y87402D02*
X114262Y87490D01*
X120187D01*
X120276Y87579D01*
X153024Y85701D02*
X153150Y85827D01*
X147531Y85701D02*
X153024D01*
X147441Y85610D02*
X147531Y85701D01*
X199606Y89232D02*
Y97591D01*
X204606Y90158D02*
Y97591D01*
X189528Y68327D02*
X190315Y67539D01*
X219606Y134693D02*
Y142067D01*
X204606Y134693D02*
Y143681D01*
X204587Y143701D02*
X204606Y143681D01*
X199606Y97591D02*
Y105512D01*
Y89232D02*
X199862Y88976D01*
X209606Y90158D02*
Y97591D01*
X184409Y68327D02*
Y71673D01*
X189528Y68327D02*
Y71673D01*
X188740Y71280D02*
X189134Y71673D01*
X204488Y66752D02*
X204488Y66752D01*
X200354Y66752D02*
X204488D01*
X200354Y71870D02*
X200748Y71476D01*
X64571Y24024D02*
X69809D01*
X51862Y24122D02*
X51961Y24024D01*
X139461Y29929D02*
Y35736D01*
X77059Y46957D02*
X79618Y49516D01*
X73516Y46957D02*
X77059D01*
X66035Y56799D02*
Y64673D01*
X66232Y64870D01*
X85327Y56799D02*
Y64280D01*
X85130Y64476D02*
X85327Y64280D01*
X45858Y24024D02*
X45957Y24122D01*
X38181Y24024D02*
X45858D01*
X101567Y44004D02*
X101626Y44063D01*
X109638Y21654D02*
Y28336D01*
X115839Y41642D02*
X122138D01*
X149213Y41732D02*
X151272Y39673D01*
X139551Y41732D02*
X149213D01*
X139461Y41642D02*
X139551Y41732D01*
X74894Y29339D02*
Y34555D01*
X89067Y29339D02*
Y34555D01*
X81980Y29339D02*
Y34555D01*
X140150Y48524D02*
Y52173D01*
X139173Y47547D02*
X140150Y48524D01*
X124500Y47547D02*
X139173D01*
X123319Y46366D02*
X124500Y47547D01*
X123319Y43701D02*
Y46366D01*
X123228Y43610D02*
X123319Y43701D01*
X122138Y43610D02*
X123228D01*
X101567Y35736D02*
X101567Y35736D01*
X101567Y35736D02*
Y44004D01*
X109638Y28336D02*
X114264D01*
X115839Y29911D01*
Y34555D01*
X118898Y37614D01*
X122047D01*
X122138Y37705D01*
X114748Y35827D02*
X118504Y39583D01*
X109728Y35827D02*
X114748D01*
X118504Y39583D02*
X122047D01*
X109638Y35736D02*
X109728Y35827D01*
X122047Y39583D02*
X122138Y39673D01*
X90437Y21866D02*
X96146D01*
X89067Y23236D02*
X90437Y21866D01*
X74795Y23236D02*
X74894D01*
X139461Y35736D02*
X139551D01*
X139461Y35827D02*
Y37705D01*
D12*
X86343Y92965D02*
X92520D01*
X77846Y86902D02*
Y90768D01*
X76173Y85228D02*
X77846Y86902D01*
X76173Y81217D02*
Y85228D01*
X76138Y81181D02*
X76173Y81217D01*
X83618Y81181D02*
Y84346D01*
X80996Y86968D02*
X83618Y84346D01*
X80996Y86968D02*
Y90768D01*
X74264Y107658D02*
Y109468D01*
X74106Y109626D02*
X74264Y109468D01*
Y107658D02*
X76228Y105693D01*
X79028Y106917D02*
Y109429D01*
X78831Y109626D02*
X79028Y109429D01*
X77803Y105693D02*
X79028Y106917D01*
X77803Y102976D02*
Y105693D01*
X76228Y102976D02*
Y105693D01*
D52*
X82677Y40157D02*
D03*
X76772D02*
D03*
X87484Y40059D02*
D03*
X93390D02*
D03*
X186417Y146063D02*
D03*
X192323D02*
D03*
X91035Y213484D02*
D03*
X96941D02*
D03*
X91142Y207874D02*
D03*
X97047D02*
D03*
X91142Y196850D02*
D03*
X97047D02*
D03*
Y202362D02*
D03*
X91142D02*
D03*
X119488Y224803D02*
D03*
X113583D02*
D03*
X114370Y106102D02*
D03*
X108465D02*
D03*
X78831Y109626D02*
D03*
X84736D02*
D03*
X74106Y109626D02*
D03*
X68201D02*
D03*
X97295Y218709D02*
D03*
X103201D02*
D03*
X194449Y66752D02*
D03*
X200354D02*
D03*
X200354Y71870D02*
D03*
X194449D02*
D03*
X51862Y24122D02*
D03*
X45957D02*
D03*
X125984Y224803D02*
D03*
X131890D02*
D03*
D53*
X45374Y45177D02*
D03*
Y51083D02*
D03*
X189528Y71673D02*
D03*
Y77579D02*
D03*
X184409Y77579D02*
D03*
Y71673D02*
D03*
D54*
X149213Y111811D02*
D03*
X154724D02*
D03*
X204724Y146063D02*
D03*
X210236D02*
D03*
X194350Y88976D02*
D03*
X199862D02*
D03*
X114567Y73622D02*
D03*
X109055D02*
D03*
X70626Y81181D02*
D03*
X76138D02*
D03*
X89130Y81181D02*
D03*
X83618D02*
D03*
X102756Y224410D02*
D03*
X97244D02*
D03*
X194646Y76988D02*
D03*
X200157D02*
D03*
X71744Y64673D02*
D03*
X66232D02*
D03*
X90642Y64476D02*
D03*
X85130D02*
D03*
D55*
X173228Y184646D02*
D03*
D56*
X219882D02*
D03*
X126575D02*
D03*
D57*
X219606Y97591D02*
D03*
X214606D02*
D03*
X209606D02*
D03*
X204606D02*
D03*
X199606D02*
D03*
X194606D02*
D03*
X189606D02*
D03*
X184606D02*
D03*
X179606D02*
D03*
X174606D02*
D03*
Y134693D02*
D03*
X179606D02*
D03*
X184606D02*
D03*
X189606D02*
D03*
X194606D02*
D03*
X199606D02*
D03*
X204606D02*
D03*
X209606D02*
D03*
X214606D02*
D03*
X219606D02*
D03*
D58*
X112205Y93701D02*
D03*
Y99213D02*
D03*
X92520Y92913D02*
D03*
Y87402D02*
D03*
X59933Y29831D02*
D03*
Y24319D02*
D03*
X59449Y63386D02*
D03*
Y57874D02*
D03*
X51181Y45276D02*
D03*
Y50787D02*
D03*
D59*
X133858Y82657D02*
D03*
D60*
X120276Y71831D02*
D03*
Y73799D02*
D03*
Y75768D02*
D03*
Y77736D02*
D03*
Y79705D02*
D03*
Y81673D02*
D03*
Y83642D02*
D03*
Y85610D02*
D03*
Y87579D02*
D03*
Y89547D02*
D03*
Y91516D02*
D03*
Y93484D02*
D03*
X147441D02*
D03*
Y91516D02*
D03*
Y89547D02*
D03*
Y87579D02*
D03*
Y85610D02*
D03*
Y83642D02*
D03*
Y81673D02*
D03*
Y79705D02*
D03*
Y77736D02*
D03*
Y75768D02*
D03*
Y73799D02*
D03*
Y71831D02*
D03*
D61*
X123031Y96240D02*
D03*
X125000D02*
D03*
X126969D02*
D03*
X128937D02*
D03*
X130905D02*
D03*
X132874D02*
D03*
X134843D02*
D03*
X136811D02*
D03*
X138779D02*
D03*
X140748D02*
D03*
X142717D02*
D03*
X144685D02*
D03*
Y69075D02*
D03*
X142717D02*
D03*
X140748D02*
D03*
X138779D02*
D03*
X136811D02*
D03*
X134843D02*
D03*
X132874D02*
D03*
X130905D02*
D03*
X128937D02*
D03*
X126969D02*
D03*
X125000D02*
D03*
X123031D02*
D03*
D62*
X74126Y100787D02*
D03*
Y99213D02*
D03*
Y97638D02*
D03*
Y96063D02*
D03*
Y94488D02*
D03*
Y92913D02*
D03*
X86291D02*
D03*
Y94488D02*
D03*
Y96063D02*
D03*
Y97638D02*
D03*
Y99213D02*
D03*
Y100787D02*
D03*
D63*
X76272Y90768D02*
D03*
X77846D02*
D03*
X79421D02*
D03*
X80996D02*
D03*
X82571D02*
D03*
X84146D02*
D03*
Y102933D02*
D03*
X82571D02*
D03*
X80996D02*
D03*
X79421D02*
D03*
X77846D02*
D03*
X76272D02*
D03*
D64*
X184153Y54843D02*
D03*
X188484D02*
D03*
X192815D02*
D03*
X197146D02*
D03*
X201476D02*
D03*
X205807D02*
D03*
X210138D02*
D03*
X214469D02*
D03*
D65*
X167047Y52362D02*
D03*
D66*
X223701Y52953D02*
D03*
X167047Y7756D02*
D03*
D67*
X222126Y44488D02*
D03*
D68*
X221909Y9055D02*
D03*
D69*
X214626Y4626D02*
D03*
X183996D02*
D03*
D70*
X85327Y46957D02*
D03*
X89067D02*
D03*
X92807D02*
D03*
Y56799D02*
D03*
X85327D02*
D03*
D71*
X73516D02*
D03*
X69776D02*
D03*
X66035D02*
D03*
Y46957D02*
D03*
X69776D02*
D03*
X73516D02*
D03*
D72*
X101567Y44004D02*
D03*
X109638D02*
D03*
X109638Y35736D02*
D03*
X101567D02*
D03*
X140150Y52173D02*
D03*
X148221D02*
D03*
D73*
X109638Y28336D02*
D03*
X103142D02*
D03*
X139559Y29831D02*
D03*
X133063D02*
D03*
X89665Y7776D02*
D03*
X83169D02*
D03*
X104331Y7874D02*
D03*
X97835D02*
D03*
X118898Y7972D02*
D03*
X112402D02*
D03*
D74*
X89067Y23236D02*
D03*
Y29339D02*
D03*
X81980Y23236D02*
D03*
Y29339D02*
D03*
X74894Y23236D02*
D03*
Y29339D02*
D03*
D75*
X139461Y35736D02*
D03*
Y37705D02*
D03*
Y39673D02*
D03*
Y41642D02*
D03*
Y43610D02*
D03*
X122138D02*
D03*
Y41642D02*
D03*
Y39673D02*
D03*
Y37705D02*
D03*
Y35736D02*
D03*
D76*
X147835Y22244D02*
D03*
X145276D02*
D03*
X142717D02*
D03*
X140157D02*
D03*
X137598D02*
D03*
D77*
X129724Y20965D02*
D03*
X155709D02*
D03*
D78*
X126575Y11713D02*
D03*
X158858D02*
D03*
D79*
X139370D02*
D03*
X146063D02*
D03*
D80*
X223130Y238583D02*
D03*
X109638Y238189D02*
D03*
X70000Y238347D02*
D03*
X97402D02*
D03*
X131496Y238189D02*
D03*
X58366Y9843D02*
D03*
D81*
X213130Y238583D02*
D03*
X248327Y47146D02*
D03*
X240453D02*
D03*
X119638Y238189D02*
D03*
X70000Y228346D02*
D03*
X60000Y238347D02*
D03*
Y228346D02*
D03*
X50000Y238347D02*
D03*
Y228346D02*
D03*
X40000Y238347D02*
D03*
Y228346D02*
D03*
X87402Y238347D02*
D03*
X141496Y238189D02*
D03*
X48366Y9843D02*
D03*
X38366D02*
D03*
X32327Y102398D02*
D03*
X22327D02*
D03*
X32327Y112398D02*
D03*
X22327D02*
D03*
X32327Y122398D02*
D03*
X22327D02*
D03*
X32327Y132398D02*
D03*
X22327D02*
D03*
X32327Y142398D02*
D03*
X22327D02*
D03*
X32327Y152398D02*
D03*
X22327D02*
D03*
X32327Y162398D02*
D03*
X32677Y200000D02*
D03*
Y210000D02*
D03*
D82*
X161024Y40020D02*
D03*
Y30020D02*
D03*
D83*
X22327Y162398D02*
D03*
X32677Y190000D02*
D03*
D84*
X101575Y51083D02*
D03*
X219577Y142096D02*
D03*
X214606Y90158D02*
D03*
X216929Y86619D02*
D03*
X208032Y71476D02*
D03*
X46063Y35925D02*
D03*
X214370Y64870D02*
D03*
X197047Y44291D02*
D03*
X40453Y51181D02*
D03*
X79823Y44980D02*
D03*
Y53543D02*
D03*
X114370Y69685D02*
D03*
X146653Y38508D02*
D03*
X59449Y53543D02*
D03*
X73721Y117421D02*
D03*
X152165Y78642D02*
D03*
X219991Y90162D02*
D03*
X171563Y77760D02*
D03*
X175787Y87008D02*
D03*
X153937Y89764D02*
D03*
X141157Y102451D02*
D03*
X49609Y139968D02*
D03*
X53543Y142126D02*
D03*
X49117Y131306D02*
D03*
X155217D02*
D03*
X153248Y127756D02*
D03*
X166240Y102657D02*
D03*
X166535Y142520D02*
D03*
X109350Y89370D02*
D03*
X109252Y84941D02*
D03*
X140748Y106685D02*
D03*
X147638Y106693D02*
D03*
X183465Y64961D02*
D03*
X213720Y142067D02*
D03*
X200394Y141339D02*
D03*
X182677Y142520D02*
D03*
X103543Y67803D02*
D03*
X100394Y65455D02*
D03*
X155512Y80315D02*
D03*
X152362Y106685D02*
D03*
X144488Y104724D02*
D03*
X139264Y110236D02*
D03*
X137402Y113386D02*
D03*
X131890Y122835D02*
D03*
X64961Y200000D02*
D03*
X53543Y168504D02*
D03*
X48819Y107658D02*
D03*
X131890Y150394D02*
D03*
X101870Y125591D02*
D03*
X129823D02*
D03*
X85827Y196850D02*
D03*
Y202362D02*
D03*
Y207874D02*
D03*
Y213484D02*
D03*
X38583Y63779D02*
D03*
X151969Y99606D02*
D03*
X118996Y105807D02*
D03*
X163386Y139075D02*
D03*
X159744Y136713D02*
D03*
X128948Y145355D02*
D03*
X197244Y145276D02*
D03*
X157480Y134055D02*
D03*
X168504Y98819D02*
D03*
X97295Y113957D02*
D03*
X107874Y113937D02*
D03*
X84646Y113957D02*
D03*
X68110D02*
D03*
X133858Y119685D02*
D03*
X135433Y116535D02*
D03*
X78831Y119862D02*
D03*
X55512Y51181D02*
D03*
X144193Y59055D02*
D03*
X140945Y61319D02*
D03*
X137795Y64102D02*
D03*
X45276Y59581D02*
D03*
X49213Y61417D02*
D03*
X41732Y57480D02*
D03*
X128740Y64075D02*
D03*
X171563Y83161D02*
D03*
X194252Y127559D02*
D03*
X168504Y88969D02*
D03*
X180079Y76988D02*
D03*
X153150Y85827D02*
D03*
X114173Y87402D02*
D03*
X204606Y90158D02*
D03*
X199606Y105512D02*
D03*
X209606Y90158D02*
D03*
X190315Y67539D02*
D03*
X204488Y66752D02*
D03*
X69809Y24024D02*
D03*
X79618Y49516D02*
D03*
X69760Y41658D02*
D03*
X38181Y24024D02*
D03*
X109638Y21654D02*
D03*
X115839Y41642D02*
D03*
X151272Y39673D02*
D03*
X74894Y34555D02*
D03*
X89067D02*
D03*
X81980D02*
D03*
X160728Y50787D02*
D03*
D85*
X17717Y17717D02*
D03*
Y230315D02*
D03*
X242126D02*
D03*
Y17717D02*
D03*
M02*
