G04*
G04 #@! TF.GenerationSoftware,Altium Limited,Altium Designer,19.0.14 (431)*
G04*
G04 Layer_Color=16711935*
%FSLAX25Y25*%
%MOIN*%
G70*
G01*
G75*
%ADD10C,0.01000*%
%ADD12C,0.00787*%
%ADD14C,0.00394*%
%ADD15C,0.00500*%
D10*
X167539Y62205D02*
X223209D01*
Y3347D02*
Y62205D01*
X167539Y3347D02*
X223209D01*
X167539D02*
Y62205D01*
D12*
X75878Y101181D02*
X75090D01*
X75878D01*
X126575Y171063D02*
Y218307D01*
X219882D01*
Y171063D02*
Y218307D01*
X204724Y152165D02*
X219882Y171063D01*
X141732Y152165D02*
X204724D01*
X126575Y171063D02*
X141732Y152165D01*
X127953Y22933D02*
X157480D01*
Y3248D02*
Y22933D01*
X127953Y3248D02*
X157480D01*
X127953D02*
Y22933D01*
D14*
X76378Y38287D02*
X83071D01*
X76378Y42028D02*
X83071D01*
Y38287D02*
Y42028D01*
X76378Y38287D02*
Y42028D01*
X87090Y41929D02*
X93783D01*
X87090Y38189D02*
X93783D01*
X87090D02*
Y41929D01*
X93783Y38189D02*
Y41929D01*
X122441Y48524D02*
Y54035D01*
X113976Y48524D02*
Y54035D01*
X122441D01*
X113976Y48524D02*
X122441D01*
X43504Y44783D02*
X47244D01*
X43504Y51476D02*
X47244D01*
X43504Y44783D02*
Y51476D01*
X47244Y44783D02*
Y51476D01*
X186024Y144193D02*
Y147933D01*
X192717Y144193D02*
Y147933D01*
X186024D02*
X192717D01*
X186024Y144193D02*
X192717D01*
X148524Y109941D02*
Y113681D01*
X155413Y109941D02*
Y113681D01*
X148524D02*
X155413D01*
X148524Y109941D02*
X155413D01*
X90642Y215354D02*
X97335D01*
X90642Y211614D02*
X97335D01*
X90642D02*
Y215354D01*
X97335Y211614D02*
Y215354D01*
X90748Y209744D02*
X97441D01*
X90748Y206004D02*
X97441D01*
X90748D02*
Y209744D01*
X97441Y206004D02*
Y209744D01*
X90748Y198721D02*
X97441D01*
X90748Y194980D02*
X97441D01*
X90748D02*
Y198721D01*
X97441Y194980D02*
Y198721D01*
Y200492D02*
Y204232D01*
X90748Y200492D02*
Y204232D01*
Y200492D02*
X97441D01*
X90748Y204232D02*
X97441D01*
X119882Y222933D02*
Y226673D01*
X113189Y222933D02*
Y226673D01*
Y222933D02*
X119882D01*
X113189Y226673D02*
X119882D01*
X217303Y130905D02*
X222303Y125906D01*
X171909Y130905D02*
X222303D01*
X171909Y101378D02*
Y130905D01*
Y101378D02*
X222303D01*
Y130905D01*
X204035Y147933D02*
X210925D01*
X204035Y144193D02*
X210925D01*
X204035D02*
Y147933D01*
X210925Y144193D02*
Y147933D01*
X193661Y90847D02*
X200551D01*
X193661Y87106D02*
X200551D01*
X193661D02*
Y90847D01*
X200551Y87106D02*
Y90847D01*
X114764Y104232D02*
Y107972D01*
X108071Y104232D02*
Y107972D01*
Y104232D02*
X114764D01*
X108071Y107972D02*
X114764D01*
X110335Y93012D02*
Y99902D01*
X114075Y93012D02*
Y99902D01*
X110335Y93012D02*
X114075D01*
X110335Y99902D02*
X114075D01*
X108366Y71752D02*
X115256D01*
X108366Y75492D02*
X115256D01*
Y71752D02*
Y75492D01*
X108366Y71752D02*
Y75492D01*
X120079Y70846D02*
X122047Y68878D01*
X120079D02*
X147638D01*
Y96437D01*
X120079D02*
X147638D01*
X120079Y68878D02*
Y96437D01*
X69937Y83051D02*
X76827D01*
X69937Y79311D02*
X76827D01*
X69937D02*
Y83051D01*
X76827Y79311D02*
Y83051D01*
X82929Y79311D02*
X89819D01*
X82929Y83051D02*
X89819D01*
Y79311D02*
Y83051D01*
X82929Y79311D02*
Y83051D01*
X94390Y86713D02*
Y93602D01*
X90650Y86713D02*
Y93602D01*
X94390D01*
X90650Y86713D02*
X94390D01*
X78437Y111496D02*
X85130D01*
X78437Y107756D02*
X85130D01*
X78437D02*
Y111496D01*
X85130Y107756D02*
Y111496D01*
X67807Y107756D02*
X74500D01*
X67807Y111496D02*
X74500D01*
Y107756D02*
Y111496D01*
X67807Y107756D02*
Y111496D01*
X96902Y220579D02*
X103595D01*
X96902Y216839D02*
X103595D01*
X96902D02*
Y220579D01*
X103595Y216839D02*
Y220579D01*
X96555Y222539D02*
X103445D01*
X96555Y226279D02*
X103445D01*
Y222539D02*
Y226279D01*
X96555Y222539D02*
Y226279D01*
X187657Y71280D02*
Y77972D01*
X191398Y71280D02*
Y77972D01*
X187657Y71280D02*
X191398D01*
X187657Y77972D02*
X191398D01*
X186279Y71280D02*
Y77972D01*
X182539Y71280D02*
Y77972D01*
X186279D01*
X182539Y71280D02*
X186279D01*
X193957Y78858D02*
X200847D01*
X193957Y75118D02*
X200847D01*
X193957D02*
Y78858D01*
X200847Y75118D02*
Y78858D01*
X194055Y68622D02*
X200748D01*
X194055Y64882D02*
X200748D01*
X194055D02*
Y68622D01*
X200748Y64882D02*
Y68622D01*
X194055Y70000D02*
X200748D01*
X194055Y73740D02*
X200748D01*
Y70000D02*
Y73740D01*
X194055Y70000D02*
Y73740D01*
X58063Y30520D02*
X61803D01*
X58063Y23630D02*
X61803D01*
Y30520D01*
X58063Y23630D02*
Y30520D01*
X72433Y62803D02*
Y66543D01*
X65543Y62803D02*
Y66543D01*
Y62803D02*
X72433D01*
X65543Y66543D02*
X72433D01*
X57579Y64075D02*
X61319D01*
X57579Y57185D02*
X61319D01*
Y64075D01*
X57579Y57185D02*
Y64075D01*
X49311Y44587D02*
X53051D01*
X49311Y51476D02*
X53051D01*
X49311Y44587D02*
Y51476D01*
X53051Y44587D02*
Y51476D01*
X83161Y48925D02*
Y54831D01*
X94972D01*
Y48925D02*
Y54831D01*
X83161Y48925D02*
X94972D01*
X83161Y52665D02*
X86902Y48925D01*
X75484Y48728D02*
Y55028D01*
X64067Y48728D02*
X75484D01*
X64067D02*
Y55028D01*
X75484D01*
X71744D02*
X75484Y51287D01*
X101272Y46760D02*
X109933D01*
X101272Y41248D02*
X109933D01*
X101272D02*
Y46760D01*
X109933Y41248D02*
Y46760D01*
X101272Y32980D02*
X109933D01*
X101272Y38492D02*
X109933D01*
Y32980D02*
Y38492D01*
X101272Y32980D02*
Y38492D01*
X109776Y26525D02*
Y30147D01*
X103004Y26525D02*
Y30147D01*
Y26525D02*
X109776D01*
X103004Y30147D02*
X109776D01*
X87197Y23039D02*
X90937D01*
X87197Y29535D02*
X90937D01*
X87197Y23039D02*
Y29535D01*
X90937Y23039D02*
Y29535D01*
X80110Y23039D02*
X83850D01*
X80110Y29535D02*
X83850D01*
X80110Y23039D02*
Y29535D01*
X83850Y23039D02*
Y29535D01*
X73024Y23039D02*
X76764D01*
X73024Y29535D02*
X76764D01*
X73024Y23039D02*
Y29535D01*
X76764Y23039D02*
Y29535D01*
X52256Y22252D02*
Y25992D01*
X45563Y22252D02*
Y25992D01*
Y22252D02*
X52256D01*
X45563Y25992D02*
X52256D01*
X139854Y54929D02*
X148516D01*
X139854Y49417D02*
X148516D01*
X139854D02*
Y54929D01*
X148516Y49417D02*
Y54929D01*
X124894Y33768D02*
X136705D01*
X124894D02*
Y45579D01*
X136705D01*
Y33768D02*
Y45579D01*
X134736Y33768D02*
X136705Y35736D01*
X139697Y28020D02*
Y31642D01*
X132925Y28020D02*
Y31642D01*
Y28020D02*
X139697D01*
X132925Y31642D02*
X139697D01*
X89803Y5965D02*
Y9587D01*
X83031Y5965D02*
Y9587D01*
Y5965D02*
X89803D01*
X83031Y9587D02*
X89803D01*
X104469Y6063D02*
Y9685D01*
X97697Y6063D02*
Y9685D01*
Y6063D02*
X104469D01*
X97697Y9685D02*
X104469D01*
X119035Y6161D02*
Y9783D01*
X112264Y6161D02*
Y9783D01*
Y6161D02*
X119035D01*
X112264Y9783D02*
X119035D01*
X125591Y226673D02*
X132283D01*
X125591Y222933D02*
X132283D01*
X125591D02*
Y226673D01*
X132283Y222933D02*
Y226673D01*
X91331Y62606D02*
Y66347D01*
X84441Y62606D02*
Y66347D01*
Y62606D02*
X91331D01*
X84441Y66347D02*
X91331D01*
D15*
X74106Y102953D02*
X86311D01*
Y90748D02*
Y102953D01*
X74106Y90748D02*
X86311D01*
X74106D02*
Y102953D01*
M02*
