G04*
G04 #@! TF.GenerationSoftware,Altium Limited,Altium Designer,19.0.14 (431)*
G04*
G04 Layer_Color=8388736*
%FSLAX25Y25*%
%MOIN*%
G70*
G01*
G75*
%ADD18R,0.03556X0.04343*%
%ADD19R,0.04343X0.03556*%
%ADD20R,0.03950X0.04343*%
%ADD21R,0.30721X0.30721*%
%ADD22R,0.23241X0.25800*%
%ADD23R,0.03359X0.08379*%
%ADD24R,0.04343X0.03950*%
%ADD25R,0.17335X0.17335*%
%ADD26R,0.04343X0.01981*%
%ADD27R,0.01981X0.04343*%
G04:AMPARAMS|DCode=28|XSize=33.2mil|YSize=16.66mil|CornerRadius=5.08mil|HoleSize=0mil|Usage=FLASHONLY|Rotation=0.000|XOffset=0mil|YOffset=0mil|HoleType=Round|Shape=RoundedRectangle|*
%AMROUNDEDRECTD28*
21,1,0.03320,0.00650,0,0,0.0*
21,1,0.02303,0.01666,0,0,0.0*
1,1,0.01016,0.01152,-0.00325*
1,1,0.01016,-0.01152,-0.00325*
1,1,0.01016,-0.01152,0.00325*
1,1,0.01016,0.01152,0.00325*
%
%ADD28ROUNDEDRECTD28*%
G04:AMPARAMS|DCode=29|XSize=33.2mil|YSize=16.66mil|CornerRadius=5.08mil|HoleSize=0mil|Usage=FLASHONLY|Rotation=90.000|XOffset=0mil|YOffset=0mil|HoleType=Round|Shape=RoundedRectangle|*
%AMROUNDEDRECTD29*
21,1,0.03320,0.00650,0,0,90.0*
21,1,0.02303,0.01666,0,0,90.0*
1,1,0.01016,0.00325,0.01152*
1,1,0.01016,0.00325,-0.01152*
1,1,0.01016,-0.00325,-0.01152*
1,1,0.01016,-0.00325,0.01152*
%
%ADD29ROUNDEDRECTD29*%
%ADD30R,0.03950X0.05682*%
%ADD31R,0.04540X0.10642*%
%ADD32R,0.05328X0.09461*%
%ADD33R,0.05367X0.05721*%
%ADD34R,0.05367X0.05524*%
%ADD35R,0.06706X0.05328*%
%ADD36R,0.03162X0.05721*%
%ADD37R,0.03162X0.05524*%
%ADD38R,0.04934X0.06312*%
%ADD39R,0.04540X0.04343*%
%ADD40R,0.04737X0.04540*%
%ADD41R,0.06312X0.01981*%
%ADD42R,0.02375X0.06115*%
%ADD43R,0.09068X0.08674*%
%ADD44R,0.07099X0.08280*%
%ADD45R,0.05524X0.08280*%
%ADD46R,0.06706X0.06706*%
%ADD47C,0.06706*%
%ADD48C,0.06800*%
%ADD49R,0.06706X0.06706*%
%ADD50C,0.03162*%
%ADD51C,0.13398*%
D18*
X82677Y40157D02*
D03*
X76772D02*
D03*
X87484Y40059D02*
D03*
X93390D02*
D03*
X186417Y146063D02*
D03*
X192323D02*
D03*
X91035Y213484D02*
D03*
X96941D02*
D03*
X91142Y207874D02*
D03*
X97047D02*
D03*
X91142Y196850D02*
D03*
X97047D02*
D03*
Y202362D02*
D03*
X91142D02*
D03*
X119488Y224803D02*
D03*
X113583D02*
D03*
X114370Y106102D02*
D03*
X108465D02*
D03*
X78831Y109626D02*
D03*
X84736D02*
D03*
X74106Y109626D02*
D03*
X68201D02*
D03*
X97295Y218709D02*
D03*
X103201D02*
D03*
X194449Y66752D02*
D03*
X200354D02*
D03*
X200354Y71870D02*
D03*
X194449D02*
D03*
X51862Y24122D02*
D03*
X45957D02*
D03*
X125984Y224803D02*
D03*
X131890D02*
D03*
D19*
X45374Y45177D02*
D03*
Y51083D02*
D03*
X189528Y71673D02*
D03*
Y77579D02*
D03*
X184409Y77579D02*
D03*
Y71673D02*
D03*
D20*
X149213Y111811D02*
D03*
X154724D02*
D03*
X204724Y146063D02*
D03*
X210236D02*
D03*
X194350Y88976D02*
D03*
X199862D02*
D03*
X114567Y73622D02*
D03*
X109055D02*
D03*
X70626Y81181D02*
D03*
X76138D02*
D03*
X89130Y81181D02*
D03*
X83618D02*
D03*
X102756Y224410D02*
D03*
X97244D02*
D03*
X194646Y76988D02*
D03*
X200157D02*
D03*
X71744Y64673D02*
D03*
X66232D02*
D03*
X90642Y64476D02*
D03*
X85130D02*
D03*
D21*
X173228Y184646D02*
D03*
D22*
X219882D02*
D03*
X126575D02*
D03*
D23*
X219606Y97591D02*
D03*
X214606D02*
D03*
X209606D02*
D03*
X204606D02*
D03*
X199606D02*
D03*
X194606D02*
D03*
X189606D02*
D03*
X184606D02*
D03*
X179606D02*
D03*
X174606D02*
D03*
Y134693D02*
D03*
X179606D02*
D03*
X184606D02*
D03*
X189606D02*
D03*
X194606D02*
D03*
X199606D02*
D03*
X204606D02*
D03*
X209606D02*
D03*
X214606D02*
D03*
X219606D02*
D03*
D24*
X112205Y93701D02*
D03*
Y99213D02*
D03*
X92520Y92913D02*
D03*
Y87402D02*
D03*
X59933Y29831D02*
D03*
Y24319D02*
D03*
X59449Y63386D02*
D03*
Y57874D02*
D03*
X51181Y45276D02*
D03*
Y50787D02*
D03*
D25*
X133858Y82657D02*
D03*
D26*
X120276Y71831D02*
D03*
Y73799D02*
D03*
Y75768D02*
D03*
Y77736D02*
D03*
Y79705D02*
D03*
Y81673D02*
D03*
Y83642D02*
D03*
Y85610D02*
D03*
Y87579D02*
D03*
Y89547D02*
D03*
Y91516D02*
D03*
Y93484D02*
D03*
X147441D02*
D03*
Y91516D02*
D03*
Y89547D02*
D03*
Y87579D02*
D03*
Y85610D02*
D03*
Y83642D02*
D03*
Y81673D02*
D03*
Y79705D02*
D03*
Y77736D02*
D03*
Y75768D02*
D03*
Y73799D02*
D03*
Y71831D02*
D03*
D27*
X123031Y96240D02*
D03*
X125000D02*
D03*
X126969D02*
D03*
X128937D02*
D03*
X130905D02*
D03*
X132874D02*
D03*
X134843D02*
D03*
X136811D02*
D03*
X138779D02*
D03*
X140748D02*
D03*
X142717D02*
D03*
X144685D02*
D03*
Y69075D02*
D03*
X142717D02*
D03*
X140748D02*
D03*
X138779D02*
D03*
X136811D02*
D03*
X134843D02*
D03*
X132874D02*
D03*
X130905D02*
D03*
X128937D02*
D03*
X126969D02*
D03*
X125000D02*
D03*
X123031D02*
D03*
D28*
X74126Y100787D02*
D03*
Y99213D02*
D03*
Y97638D02*
D03*
Y96063D02*
D03*
Y94488D02*
D03*
Y92913D02*
D03*
X86291D02*
D03*
Y94488D02*
D03*
Y96063D02*
D03*
Y97638D02*
D03*
Y99213D02*
D03*
Y100787D02*
D03*
D29*
X76272Y90768D02*
D03*
X77846D02*
D03*
X79421D02*
D03*
X80996D02*
D03*
X82571D02*
D03*
X84146D02*
D03*
Y102933D02*
D03*
X82571D02*
D03*
X80996D02*
D03*
X79421D02*
D03*
X77846D02*
D03*
X76272D02*
D03*
D30*
X184153Y54843D02*
D03*
X188484D02*
D03*
X192815D02*
D03*
X197146D02*
D03*
X201476D02*
D03*
X205807D02*
D03*
X210138D02*
D03*
X214469D02*
D03*
D31*
X167047Y52362D02*
D03*
D32*
X223701Y52953D02*
D03*
X167047Y7756D02*
D03*
D33*
X222126Y44488D02*
D03*
D34*
X221909Y9055D02*
D03*
D35*
X214626Y4626D02*
D03*
X183996D02*
D03*
D36*
X85327Y46957D02*
D03*
X89067D02*
D03*
X92807D02*
D03*
Y56799D02*
D03*
X85327D02*
D03*
D37*
X73516D02*
D03*
X69776D02*
D03*
X66035D02*
D03*
Y46957D02*
D03*
X69776D02*
D03*
X73516D02*
D03*
D38*
X101567Y44004D02*
D03*
X109638D02*
D03*
X109638Y35736D02*
D03*
X101567D02*
D03*
X140150Y52173D02*
D03*
X148221D02*
D03*
D39*
X109638Y28336D02*
D03*
X103142D02*
D03*
X139559Y29831D02*
D03*
X133063D02*
D03*
X89665Y7776D02*
D03*
X83169D02*
D03*
X104331Y7874D02*
D03*
X97835D02*
D03*
X118898Y7972D02*
D03*
X112402D02*
D03*
D40*
X89067Y23236D02*
D03*
Y29339D02*
D03*
X81980Y23236D02*
D03*
Y29339D02*
D03*
X74894Y23236D02*
D03*
Y29339D02*
D03*
D41*
X139461Y35736D02*
D03*
Y37705D02*
D03*
Y39673D02*
D03*
Y41642D02*
D03*
Y43610D02*
D03*
X122138D02*
D03*
Y41642D02*
D03*
Y39673D02*
D03*
Y37705D02*
D03*
Y35736D02*
D03*
D42*
X147835Y22244D02*
D03*
X145276D02*
D03*
X142717D02*
D03*
X140157D02*
D03*
X137598D02*
D03*
D43*
X129724Y20965D02*
D03*
X155709D02*
D03*
D44*
X126575Y11713D02*
D03*
X158858D02*
D03*
D45*
X139370D02*
D03*
X146063D02*
D03*
D46*
X223130Y238583D02*
D03*
X109638Y238189D02*
D03*
X70000Y238347D02*
D03*
X97402D02*
D03*
X131496Y238189D02*
D03*
X58366Y9843D02*
D03*
D47*
X213130Y238583D02*
D03*
X248327Y47146D02*
D03*
X240453D02*
D03*
X119638Y238189D02*
D03*
X70000Y228346D02*
D03*
X60000Y238347D02*
D03*
Y228346D02*
D03*
X50000Y238347D02*
D03*
Y228346D02*
D03*
X40000Y238347D02*
D03*
Y228346D02*
D03*
X87402Y238347D02*
D03*
X141496Y238189D02*
D03*
X48366Y9843D02*
D03*
X38366D02*
D03*
X32327Y102398D02*
D03*
X22327D02*
D03*
X32327Y112398D02*
D03*
X22327D02*
D03*
X32327Y122398D02*
D03*
X22327D02*
D03*
X32327Y132398D02*
D03*
X22327D02*
D03*
X32327Y142398D02*
D03*
X22327D02*
D03*
X32327Y152398D02*
D03*
X22327D02*
D03*
X32327Y162398D02*
D03*
X32677Y200000D02*
D03*
Y210000D02*
D03*
D48*
X161024Y40020D02*
D03*
Y30020D02*
D03*
D49*
X22327Y162398D02*
D03*
X32677Y190000D02*
D03*
D50*
X101575Y51083D02*
D03*
X219577Y142096D02*
D03*
X214606Y90158D02*
D03*
X216929Y86619D02*
D03*
X208032Y71476D02*
D03*
X46063Y35925D02*
D03*
X214370Y64870D02*
D03*
X197047Y44291D02*
D03*
X40453Y51181D02*
D03*
X79823Y44980D02*
D03*
Y53543D02*
D03*
X114370Y69685D02*
D03*
X146653Y38508D02*
D03*
X59449Y53543D02*
D03*
X73721Y117421D02*
D03*
X152165Y78642D02*
D03*
X219991Y90162D02*
D03*
X171563Y77760D02*
D03*
X175787Y87008D02*
D03*
X153937Y89764D02*
D03*
X141157Y102451D02*
D03*
X49609Y139968D02*
D03*
X53543Y142126D02*
D03*
X49117Y131306D02*
D03*
X155217D02*
D03*
X153248Y127756D02*
D03*
X166240Y102657D02*
D03*
X166535Y142520D02*
D03*
X109350Y89370D02*
D03*
X109252Y84941D02*
D03*
X140748Y106685D02*
D03*
X147638Y106693D02*
D03*
X183465Y64961D02*
D03*
X213720Y142067D02*
D03*
X200394Y141339D02*
D03*
X182677Y142520D02*
D03*
X103543Y67803D02*
D03*
X100394Y65455D02*
D03*
X155512Y80315D02*
D03*
X152362Y106685D02*
D03*
X144488Y104724D02*
D03*
X139264Y110236D02*
D03*
X137402Y113386D02*
D03*
X131890Y122835D02*
D03*
X64961Y200000D02*
D03*
X53543Y168504D02*
D03*
X48819Y107658D02*
D03*
X131890Y150394D02*
D03*
X101870Y125591D02*
D03*
X129823D02*
D03*
X85827Y196850D02*
D03*
Y202362D02*
D03*
Y207874D02*
D03*
Y213484D02*
D03*
X38583Y63779D02*
D03*
X151969Y99606D02*
D03*
X118996Y105807D02*
D03*
X163386Y139075D02*
D03*
X159744Y136713D02*
D03*
X128948Y145355D02*
D03*
X197244Y145276D02*
D03*
X157480Y134055D02*
D03*
X168504Y98819D02*
D03*
X97295Y113957D02*
D03*
X107874Y113937D02*
D03*
X84646Y113957D02*
D03*
X68110D02*
D03*
X133858Y119685D02*
D03*
X135433Y116535D02*
D03*
X78831Y119862D02*
D03*
X55512Y51181D02*
D03*
X144193Y59055D02*
D03*
X140945Y61319D02*
D03*
X137795Y64102D02*
D03*
X45276Y59581D02*
D03*
X49213Y61417D02*
D03*
X41732Y57480D02*
D03*
X128740Y64075D02*
D03*
X171563Y83161D02*
D03*
X194252Y127559D02*
D03*
X168504Y88969D02*
D03*
X180079Y76988D02*
D03*
X153150Y85827D02*
D03*
X114173Y87402D02*
D03*
X204606Y90158D02*
D03*
X199606Y105512D02*
D03*
X209606Y90158D02*
D03*
X190315Y67539D02*
D03*
X204488Y66752D02*
D03*
X69809Y24024D02*
D03*
X79618Y49516D02*
D03*
X69760Y41658D02*
D03*
X38181Y24024D02*
D03*
X109638Y21654D02*
D03*
X115839Y41642D02*
D03*
X151272Y39673D02*
D03*
X74894Y34555D02*
D03*
X89067D02*
D03*
X81980D02*
D03*
X160728Y50787D02*
D03*
D51*
X17717Y17717D02*
D03*
Y230315D02*
D03*
X242126D02*
D03*
Y17717D02*
D03*
M02*
